<svg id="svg" version="1.1" xmlns="http://www.w3.org/2000/svg" xmlns:xlink="http://www.w3.org/1999/xlink" width="400" height="195.6493078444298" viewBox="0, 0, 400,195.6493078444298"><g id="svgg"><path id="path0" d="M142.759 24.554 C 141.360 25.122,134.579 27.851,127.691 30.620 C 120.802 33.389,115.056 35.699,114.922 35.754 C 114.509 35.923,114.569 152.204,114.982 152.794 C 115.270 153.205,115.425 153.229,117.790 153.229 L 120.293 153.229 126.536 151.063 C 129.970 149.872,134.144 148.428,135.812 147.855 C 143.498 145.216,145.734 144.392,146.254 144.009 L 146.814 143.596 148.016 144.759 C 152.168 148.779,156.647 151.299,162.211 152.745 C 165.124 153.502,176.699 153.490,179.363 152.727 C 193.603 148.647,201.370 133.116,201.370 108.721 C 201.370 85.955,191.880 69.582,176.416 65.670 C 166.273 63.104,155.031 65.372,148.604 71.280 C 147.943 71.888,147.773 71.966,147.674 71.710 C 147.608 71.538,147.554 60.887,147.554 48.042 L 147.554 24.688 147.047 24.085 C 146.349 23.256,145.817 23.314,142.759 24.554 M95.793 42.977 C 92.241 44.419,87.001 46.531,84.149 47.669 C 81.296 48.808,78.324 50.005,77.544 50.329 L 76.125 50.917 76.125 64.432 L 76.125 77.946 77.601 80.248 C 79.523 83.244,79.126 83.062,81.997 82.267 C 83.342 81.894,85.533 81.291,86.866 80.925 C 89.833 80.111,89.415 80.602,90.898 76.201 C 93.790 67.618,97.028 58.042,99.885 49.622 C 101.563 44.679,102.935 40.562,102.935 40.474 C 102.935 40.127,102.024 40.447,95.793 42.977 M63.405 55.988 C 58.077 58.136,51.781 60.672,49.413 61.623 L 45.108 63.351 45.057 77.860 C 45.027 86.756,45.078 92.368,45.190 92.368 C 45.291 92.368,46.150 92.155,47.099 91.895 C 53.862 90.040,60.246 88.271,64.358 87.112 L 66.192 86.595 69.789 81.022 L 73.386 75.450 73.386 63.752 C 73.386 57.319,73.319 52.061,73.239 52.069 C 73.158 52.076,68.733 53.840,63.405 55.988 M38.748 65.874 C 37.079 66.558,31.267 68.903,25.832 71.085 L 15.949 75.053 15.899 87.834 L 15.848 100.614 16.290 100.474 C 16.533 100.397,17.613 100.092,18.689 99.798 C 19.765 99.503,23.376 98.496,26.712 97.560 C 30.049 96.624,34.012 95.518,35.519 95.102 C 37.025 94.685,39.139 94.097,40.215 93.794 L 42.172 93.243 42.222 78.911 C 42.262 67.499,42.223 64.585,42.027 64.605 C 41.891 64.619,40.416 65.190,38.748 65.874 M246.967 64.991 C 223.373 68.046,208.940 84.862,208.941 109.295 C 208.943 131.897,220.819 147.655,241.580 152.602 C 244.435 153.282,261.316 153.518,264.873 152.928 C 277.826 150.779,288.824 143.737,296.978 132.372 C 299.184 129.298,298.844 128.549,294.325 126.542 C 291.181 125.145,287.466 123.463,285.519 122.554 C 276.851 118.510,276.691 118.499,274.604 121.807 C 266.332 134.916,247.327 133.533,243.449 119.539 C 242.907 117.582,242.927 117.064,243.555 116.825 C 243.872 116.704,253.705 116.634,270.252 116.634 L 296.447 116.634 297.057 116.122 C 299.134 114.374,298.504 103.204,295.802 93.888 C 289.841 73.330,270.581 61.933,246.967 64.991 M344.227 64.890 C 328.875 65.920,319.100 70.517,313.646 79.272 C 311.819 82.205,310.183 86.562,310.548 87.523 C 310.919 88.498,311.022 88.534,316.830 89.736 C 320.121 90.418,321.896 90.793,328.474 92.201 C 334.389 93.466,335.160 93.416,335.528 91.736 C 336.793 85.978,341.978 82.634,348.534 83.347 C 354.467 83.993,356.544 86.446,356.708 93.004 C 356.851 98.697,357.006 98.509,352.005 98.693 C 320.655 99.845,303.766 112.391,306.368 132.591 C 307.650 142.544,312.903 149.021,322.231 152.152 C 325.329 153.192,326.148 153.274,332.521 153.178 C 340.836 153.053,346.019 151.466,352.728 146.990 C 355.990 144.814,356.888 145.012,357.342 148.008 C 357.915 151.790,356.468 151.468,372.872 151.468 L 386.467 151.468 387.086 150.947 C 387.828 150.322,387.818 149.683,387.023 146.929 C 385.613 142.046,385.648 142.839,385.512 112.427 C 385.378 82.485,385.435 83.948,384.277 80.703 C 381.057 71.680,372.447 66.669,357.734 65.257 C 354.911 64.987,346.287 64.752,344.227 64.890 M85.323 84.165 C 83.870 84.589,82.351 85.027,81.947 85.138 C 81.544 85.248,81.213 85.420,81.213 85.519 C 81.213 85.904,85.357 92.020,85.507 91.856 C 85.710 91.634,88.258 84.040,88.258 83.656 C 88.258 83.289,88.426 83.259,85.323 84.165 M261.612 86.286 C 267.223 87.917,270.901 92.987,271.552 99.987 C 271.732 101.928,273.063 101.771,256.949 101.714 C 240.250 101.654,242.067 102.058,242.782 98.565 C 243.650 94.324,244.973 91.587,247.245 89.327 C 249.161 87.421,250.662 86.677,254.305 85.827 C 255.376 85.578,260.221 85.882,261.612 86.286 M159.139 87.108 C 165.336 88.423,167.361 95.700,167.056 115.558 C 166.863 128.130,166.260 130.094,161.937 132.240 C 156.667 134.855,152.053 133.461,149.473 128.474 C 147.631 124.914,147.554 124.021,147.554 106.383 L 147.554 91.719 148.483 90.854 C 152.017 87.565,155.508 86.338,159.139 87.108 M56.947 91.995 C 53.557 92.948,49.770 93.998,48.532 94.328 C 47.295 94.659,45.996 95.020,45.646 95.131 L 45.010 95.334 45.010 107.158 C 45.010 113.708,45.086 118.982,45.180 118.982 C 45.273 118.982,46.308 117.484,47.479 115.654 C 48.650 113.823,50.106 111.555,50.714 110.614 C 51.323 109.674,52.354 108.068,53.007 107.045 C 53.659 106.023,55.732 102.808,57.612 99.902 C 64.215 89.698,63.926 90.184,63.356 90.239 C 63.222 90.252,60.338 91.042,56.947 91.995 M36.986 97.491 C 34.242 98.235,30.719 99.184,29.159 99.600 C 23.732 101.044,15.949 103.166,15.899 103.215 C 15.871 103.243,15.871 108.216,15.899 114.267 L 15.949 125.270 18.682 121.686 C 20.186 119.715,22.739 116.365,24.357 114.243 C 25.976 112.120,27.343 110.383,27.397 110.383 C 27.451 110.382,30.733 112.801,34.690 115.758 C 38.647 118.715,41.971 121.135,42.077 121.135 C 42.306 121.135,42.352 96.351,42.123 96.222 C 42.043 96.176,39.731 96.747,36.986 97.491 M355.984 113.684 L 356.556 114.256 356.556 122.082 C 356.556 131.115,356.700 130.287,354.916 131.491 C 345.301 137.979,335.323 135.193,335.323 126.020 C 335.323 119.867,340.138 115.905,349.902 114.023 C 351.355 113.742,352.940 113.432,353.425 113.333 C 354.976 113.016,355.371 113.070,355.984 113.684 " stroke="none" fill="#fafbfb" fill-rule="evenodd"></path><path id="path1" d="M104.219 58.170 C 103.917 58.901,100.185 69.712,97.648 77.202 C 96.700 80.000,94.678 85.900,93.154 90.313 C 91.630 94.726,89.677 100.406,88.815 102.935 C 87.953 105.465,87.175 107.609,87.087 107.701 C 86.999 107.792,85.720 106.031,84.243 103.787 C 76.063 91.351,74.092 88.470,73.882 88.643 C 73.763 88.743,72.788 90.107,71.715 91.676 C 70.643 93.244,69.105 95.492,68.297 96.671 C 66.754 98.925,62.567 105.081,58.607 110.917 C 57.314 112.824,55.323 115.749,54.183 117.417 C 53.043 119.085,51.191 121.815,50.067 123.483 C 46.146 129.306,44.198 132.094,44.051 132.094 C 43.969 132.094,43.253 131.588,42.459 130.969 C 41.665 130.350,39.683 128.875,38.054 127.691 C 36.425 126.507,33.703 124.497,32.004 123.223 C 30.305 121.950,28.806 120.867,28.672 120.816 C 28.533 120.762,27.398 122.031,26.006 123.797 C 24.672 125.488,21.842 129.034,19.716 131.677 L 15.851 136.483 15.851 144.856 L 15.851 153.229 60.274 153.229 L 104.697 153.229 104.697 105.382 C 104.697 79.066,104.648 57.534,104.589 57.534 C 104.530 57.534,104.363 57.820,104.219 58.170 M0.000 192.661 L 0.000 195.695 200.000 195.695 L 400.000 195.695 400.000 192.661 L 400.000 189.628 200.000 189.628 L 0.000 189.628 0.000 192.661 " stroke="none" fill="#dd672a" fill-rule="evenodd"></path><path id="path2" d="M0.000 94.814 L 0.000 189.628 200.000 189.628 L 400.000 189.628 400.000 94.814 L 400.000 0.000 200.000 0.000 L 0.000 0.000 0.000 94.814 M147.047 24.085 L 147.554 24.688 147.554 48.042 C 147.554 60.887,147.608 71.538,147.674 71.710 C 147.773 71.966,147.943 71.888,148.604 71.280 C 155.031 65.372,166.273 63.104,176.416 65.670 C 191.880 69.582,201.370 85.955,201.370 108.721 C 201.370 133.116,193.603 148.647,179.363 152.727 C 176.699 153.490,165.124 153.502,162.211 152.745 C 156.647 151.299,152.168 148.779,148.016 144.759 L 146.814 143.596 146.254 144.009 C 145.734 144.392,143.498 145.216,135.812 147.855 C 134.144 148.428,129.970 149.872,126.536 151.063 L 120.293 153.229 117.790 153.229 C 115.425 153.229,115.270 153.205,114.982 152.794 C 114.569 152.204,114.509 35.923,114.922 35.754 C 115.056 35.699,120.802 33.389,127.691 30.620 C 134.579 27.851,141.360 25.122,142.759 24.554 C 145.817 23.314,146.349 23.256,147.047 24.085 M102.935 40.474 C 102.935 40.562,101.563 44.679,99.885 49.622 C 97.028 58.042,93.790 67.618,90.898 76.201 C 89.415 80.602,89.833 80.111,86.866 80.925 C 85.533 81.291,83.342 81.894,81.997 82.267 C 79.126 83.062,79.523 83.244,77.601 80.248 L 76.125 77.946 76.125 64.432 L 76.125 50.917 77.544 50.329 C 78.324 50.005,81.296 48.808,84.149 47.669 C 87.001 46.531,92.241 44.419,95.793 42.977 C 102.024 40.447,102.935 40.127,102.935 40.474 M73.386 63.752 L 73.386 75.450 69.789 81.022 L 66.192 86.595 64.358 87.112 C 60.246 88.271,53.862 90.040,47.099 91.895 C 46.150 92.155,45.291 92.368,45.190 92.368 C 45.078 92.368,45.027 86.756,45.057 77.860 L 45.108 63.351 49.413 61.623 C 51.781 60.672,58.077 58.136,63.405 55.988 C 68.733 53.840,73.158 52.076,73.239 52.069 C 73.319 52.061,73.386 57.319,73.386 63.752 M104.697 105.382 L 104.697 153.229 60.274 153.229 L 15.851 153.229 15.851 144.856 L 15.851 136.483 19.716 131.677 C 21.842 129.034,24.672 125.488,26.006 123.797 C 27.398 122.031,28.533 120.762,28.672 120.816 C 28.806 120.867,30.305 121.950,32.004 123.223 C 33.703 124.497,36.425 126.507,38.054 127.691 C 39.683 128.875,41.665 130.350,42.459 130.969 C 43.253 131.588,43.969 132.094,44.051 132.094 C 44.198 132.094,46.146 129.306,50.067 123.483 C 51.191 121.815,53.043 119.085,54.183 117.417 C 55.323 115.749,57.314 112.824,58.607 110.917 C 62.567 105.081,66.754 98.925,68.297 96.671 C 69.105 95.492,70.643 93.244,71.715 91.676 C 72.788 90.107,73.763 88.743,73.882 88.643 C 74.092 88.470,76.063 91.351,84.243 103.787 C 85.720 106.031,86.999 107.792,87.087 107.701 C 87.175 107.609,87.953 105.465,88.815 102.935 C 89.677 100.406,91.630 94.726,93.154 90.313 C 94.678 85.900,96.700 80.000,97.648 77.202 C 102.459 62.997,104.387 57.534,104.589 57.534 C 104.648 57.534,104.697 79.066,104.697 105.382 M42.222 78.911 L 42.172 93.243 40.215 93.794 C 39.139 94.097,37.025 94.685,35.519 95.102 C 34.012 95.518,30.049 96.624,26.712 97.560 C 23.376 98.496,19.765 99.503,18.689 99.798 C 17.613 100.092,16.533 100.397,16.290 100.474 L 15.848 100.614 15.899 87.834 L 15.949 75.053 25.832 71.085 C 31.267 68.903,37.079 66.558,38.748 65.874 C 40.416 65.190,41.891 64.619,42.027 64.605 C 42.223 64.585,42.262 67.499,42.222 78.911 M260.506 64.968 C 282.426 67.568,295.559 81.668,297.951 105.174 C 298.614 111.687,298.340 115.042,297.057 116.122 L 296.447 116.634 270.252 116.634 C 253.705 116.634,243.872 116.704,243.555 116.825 C 242.927 117.064,242.907 117.582,243.449 119.539 C 247.327 133.533,266.332 134.916,274.604 121.807 C 276.691 118.499,276.851 118.510,285.519 122.554 C 287.466 123.463,291.181 125.145,294.325 126.542 C 298.844 128.549,299.184 129.298,296.978 132.372 C 288.824 143.737,277.826 150.779,264.873 152.928 C 261.316 153.518,244.435 153.282,241.580 152.602 C 220.819 147.655,208.943 131.897,208.941 109.295 C 208.940 80.036,230.594 61.421,260.506 64.968 M357.734 65.257 C 372.447 66.669,381.057 71.680,384.277 80.703 C 385.435 83.948,385.378 82.485,385.512 112.427 C 385.648 142.839,385.613 142.046,387.023 146.929 C 387.818 149.683,387.828 150.322,387.086 150.947 L 386.467 151.468 372.872 151.468 C 356.468 151.468,357.915 151.790,357.342 148.008 C 356.888 145.012,355.990 144.814,352.728 146.990 C 346.019 151.466,340.836 153.053,332.521 153.178 C 326.148 153.274,325.329 153.192,322.231 152.152 C 312.903 149.021,307.650 142.544,306.368 132.591 C 303.766 112.391,320.655 99.845,352.005 98.693 C 357.006 98.509,356.851 98.697,356.708 93.004 C 356.544 86.446,354.467 83.993,348.534 83.347 C 341.978 82.634,336.793 85.978,335.528 91.736 C 335.160 93.416,334.389 93.466,328.474 92.201 C 321.896 90.793,320.121 90.418,316.830 89.736 C 311.022 88.534,310.919 88.498,310.548 87.523 C 310.183 86.562,311.819 82.205,313.646 79.272 C 319.100 70.517,328.875 65.920,344.227 64.890 C 346.287 64.752,354.911 64.987,357.734 65.257 M88.258 83.656 C 88.258 84.040,85.710 91.634,85.507 91.856 C 85.357 92.020,81.213 85.904,81.213 85.519 C 81.213 85.420,81.544 85.248,81.947 85.138 C 82.351 85.027,83.870 84.589,85.323 84.165 C 88.426 83.259,88.258 83.289,88.258 83.656 M254.305 85.827 C 250.662 86.677,249.161 87.421,247.245 89.327 C 244.973 91.587,243.650 94.324,242.782 98.565 C 242.067 102.058,240.250 101.654,256.949 101.714 C 273.063 101.771,271.732 101.928,271.552 99.987 C 271.019 94.250,268.070 89.222,264.058 87.210 C 261.825 86.090,256.448 85.328,254.305 85.827 M154.697 87.163 C 152.672 87.664,150.570 88.912,148.483 90.854 L 147.554 91.719 147.554 106.383 C 147.554 125.965,147.787 127.444,151.460 131.126 C 155.808 135.484,163.993 133.611,166.047 127.789 C 167.287 124.273,167.528 106.063,166.432 98.630 C 165.089 89.526,161.062 85.591,154.697 87.163 M63.601 90.418 C 63.601 90.630,63.166 91.318,57.612 99.902 C 55.732 102.808,53.659 106.023,53.007 107.045 C 52.354 108.068,51.323 109.674,50.714 110.614 C 50.106 111.555,48.650 113.823,47.479 115.654 C 46.308 117.484,45.273 118.982,45.180 118.982 C 45.086 118.982,45.010 113.708,45.010 107.158 L 45.010 95.334 45.646 95.131 C 45.996 95.020,47.295 94.659,48.532 94.328 C 49.770 93.998,53.557 92.948,56.947 91.995 C 63.656 90.110,63.601 90.123,63.601 90.418 M42.270 108.720 C 42.270 116.745,42.202 121.135,42.077 121.135 C 41.971 121.135,38.647 118.715,34.690 115.758 C 30.733 112.801,27.451 110.382,27.397 110.383 C 27.343 110.383,25.976 112.120,24.357 114.243 C 22.739 116.365,20.186 119.715,18.682 121.686 L 15.949 125.270 15.899 114.267 C 15.871 108.216,15.871 103.243,15.899 103.215 C 15.949 103.166,23.732 101.044,29.159 99.600 C 30.719 99.184,34.242 98.235,36.986 97.491 C 39.731 96.747,42.043 96.176,42.123 96.222 C 42.204 96.267,42.270 101.892,42.270 108.720 M353.425 113.333 C 352.940 113.432,351.355 113.742,349.902 114.023 C 340.138 115.905,335.323 119.867,335.323 126.020 C 335.323 135.193,345.301 137.979,354.916 131.491 C 356.700 130.287,356.556 131.115,356.556 122.082 L 356.556 114.256 355.984 113.684 C 355.371 113.070,354.976 113.016,353.425 113.333 " stroke="none" fill="#04548c" fill-rule="evenodd"></path></g></svg>