<svg id="svg" version="1.1" xmlns="http://www.w3.org/2000/svg" xmlns:xlink="http://www.w3.org/1999/xlink" width="400" height="400" viewBox="0, 0, 400,400"><g id="svgg"><path id="path0" d="M195.800 11.036 C 194.920 11.112,190.420 11.374,185.800 11.618 C 180.563 11.895,175.894 12.372,173.400 12.885 C 171.200 13.337,167.870 13.924,166.000 14.188 C 160.343 14.989,155.537 16.036,152.892 17.044 C 151.513 17.570,150.090 18.000,149.730 18.000 C 148.839 18.000,140.300 20.426,139.795 20.823 C 139.572 20.997,137.412 21.801,134.995 22.609 C 132.578 23.416,129.520 24.572,128.200 25.177 C 126.880 25.783,124.810 26.682,123.600 27.177 C 122.390 27.671,120.950 28.325,120.400 28.631 C 119.850 28.936,118.770 29.476,118.000 29.830 C 115.492 30.985,111.843 32.857,109.800 34.038 C 108.700 34.673,107.170 35.482,106.400 35.835 C 105.630 36.188,104.640 36.799,104.200 37.192 C 103.760 37.586,102.976 38.037,102.459 38.194 C 101.568 38.465,100.117 39.329,97.400 41.208 C 96.740 41.664,95.188 42.704,93.952 43.519 C 90.332 45.904,86.662 48.486,85.800 49.253 C 85.360 49.645,83.290 51.325,81.200 52.986 C 75.419 57.582,73.593 59.243,66.419 66.432 C 59.338 73.527,57.763 75.268,53.056 81.200 C 51.397 83.290,49.588 85.557,49.035 86.238 C 48.481 86.920,47.403 88.407,46.638 89.543 C 45.874 90.680,45.012 91.862,44.724 92.171 C 44.436 92.480,43.660 93.660,43.000 94.793 C 42.340 95.926,41.308 97.492,40.707 98.272 C 40.107 99.053,39.140 100.706,38.559 101.946 C 37.978 103.186,37.300 104.445,37.051 104.745 C 36.481 105.434,33.323 111.268,31.393 115.200 C 30.583 116.850,29.672 118.650,29.367 119.200 C 28.738 120.338,27.940 122.107,26.752 125.000 C 26.300 126.100,25.516 127.900,25.010 129.000 C 23.631 131.999,22.446 135.229,22.149 136.800 C 22.003 137.570,21.460 139.049,20.942 140.087 C 20.424 141.124,20.000 142.254,20.000 142.597 C 20.000 142.940,19.649 144.218,19.220 145.439 C 18.791 146.659,18.318 148.499,18.168 149.529 C 18.019 150.558,17.640 151.905,17.327 152.522 C 16.680 153.795,14.617 163.377,14.209 167.000 C 14.061 168.320,13.517 171.560,13.002 174.200 C 10.841 185.263,10.838 214.696,12.997 225.800 C 13.511 228.440,14.040 231.680,14.174 233.000 C 14.512 236.344,15.863 242.795,17.023 246.600 C 17.559 248.360,18.292 250.970,18.651 252.400 C 19.964 257.626,20.495 259.373,21.011 260.178 C 21.302 260.630,21.812 261.990,22.145 263.200 C 23.051 266.486,24.605 270.587,25.345 271.644 C 25.705 272.157,26.000 272.841,26.000 273.163 C 26.000 273.821,26.609 275.170,30.261 282.600 C 33.349 288.881,36.058 294.025,37.301 295.965 C 38.434 297.734,38.963 298.604,39.999 300.400 C 42.177 304.176,47.892 312.685,49.267 314.200 C 49.667 314.640,51.483 316.890,53.304 319.200 C 57.804 324.909,58.778 325.979,66.604 333.800 C 77.074 344.263,84.403 350.364,94.200 356.771 C 95.520 357.634,97.069 358.707,97.643 359.154 C 98.217 359.601,99.837 360.563,101.243 361.291 C 102.649 362.020,104.250 362.911,104.800 363.271 C 108.130 365.452,125.245 374.000,126.281 374.000 C 126.463 374.000,127.327 374.383,128.202 374.852 C 129.762 375.689,132.027 376.546,136.403 377.957 C 137.614 378.348,139.007 378.883,139.498 379.146 C 140.535 379.701,146.441 381.448,149.379 382.070 C 150.491 382.305,151.906 382.756,152.525 383.072 C 153.143 383.388,155.062 383.895,156.790 384.198 C 158.517 384.502,160.673 384.950,161.581 385.195 C 162.490 385.440,164.710 385.808,166.516 386.014 C 168.322 386.220,170.862 386.666,172.160 387.005 C 181.592 389.467,217.377 389.597,227.467 387.205 C 229.264 386.779,232.324 386.238,234.267 386.002 C 236.210 385.766,238.349 385.397,239.020 385.182 C 239.691 384.967,241.710 384.532,243.507 384.216 C 245.304 383.900,247.185 383.418,247.687 383.145 C 248.189 382.871,249.950 382.332,251.600 381.946 C 256.763 380.738,260.142 379.707,261.785 378.838 C 262.656 378.377,263.688 378.000,264.077 378.000 C 264.857 378.000,269.086 376.430,272.200 374.984 C 273.300 374.473,275.370 373.583,276.800 373.007 C 278.230 372.431,279.760 371.760,280.200 371.517 C 281.632 370.726,282.156 370.459,285.400 368.870 C 287.160 368.009,289.500 366.801,290.600 366.188 C 291.700 365.575,293.264 364.743,294.075 364.339 C 294.886 363.936,295.662 363.423,295.800 363.200 C 295.938 362.977,296.714 362.456,297.525 362.044 C 301.942 359.796,304.956 357.909,310.857 353.697 C 322.000 345.743,333.932 334.848,343.147 324.215 C 345.046 322.023,346.870 319.942,347.200 319.590 C 347.530 319.238,348.700 317.723,349.800 316.223 C 350.900 314.723,352.486 312.574,353.325 311.448 C 357.214 306.227,360.093 301.599,365.919 291.200 C 369.039 285.632,373.999 275.515,374.001 274.716 C 374.002 274.432,374.361 273.613,374.798 272.896 C 375.616 271.554,376.791 268.511,377.848 265.000 C 378.179 263.900,378.768 262.370,379.158 261.600 C 379.547 260.830,380.365 258.310,380.975 256.000 C 381.585 253.690,382.350 250.990,382.676 250.000 C 383.938 246.160,385.747 237.998,386.178 234.200 C 386.303 233.100,386.754 230.760,387.180 229.000 C 389.892 217.801,389.805 179.181,387.047 170.241 C 386.715 169.164,386.333 167.274,386.199 166.041 C 385.820 162.558,384.008 154.019,383.177 151.800 C 382.765 150.700,382.233 148.900,381.993 147.800 C 381.321 144.712,379.553 139.100,378.969 138.205 C 378.681 137.762,378.262 136.680,378.038 135.800 C 377.407 133.313,375.795 128.959,375.126 127.930 C 374.793 127.418,374.289 126.280,374.005 125.400 C 372.997 122.273,365.743 108.034,362.901 103.600 C 362.407 102.830,362.002 102.030,362.001 101.822 C 362.001 101.613,361.577 100.803,361.060 100.022 C 353.654 88.825,351.375 85.694,345.032 78.000 C 342.433 74.847,329.048 61.182,325.400 57.957 C 319.562 52.795,312.722 47.537,306.400 43.349 C 305.190 42.548,303.750 41.588,303.200 41.215 C 302.650 40.843,300.940 39.848,299.400 39.005 C 297.860 38.161,296.330 37.249,296.000 36.978 C 295.100 36.239,289.257 33.119,283.400 30.251 C 276.104 26.679,274.614 26.000,274.074 26.000 C 273.813 26.000,272.745 25.564,271.700 25.031 C 269.301 23.807,264.577 22.000,263.776 22.000 C 263.442 22.000,262.410 21.613,261.484 21.141 C 259.848 20.306,258.627 19.930,253.200 18.589 C 251.770 18.236,249.683 17.593,248.563 17.161 C 247.443 16.729,245.373 16.192,243.963 15.968 C 242.553 15.744,240.551 15.311,239.513 15.006 C 238.476 14.701,236.316 14.332,234.713 14.186 C 233.111 14.040,230.380 13.568,228.644 13.137 C 224.156 12.024,201.285 10.560,195.800 11.036 M213.937 19.796 C 220.556 20.189,224.720 20.630,226.937 21.171 C 228.732 21.609,231.784 22.162,233.720 22.401 C 235.656 22.640,237.703 23.011,238.268 23.226 C 238.833 23.441,240.544 23.794,242.071 24.010 C 243.598 24.227,245.367 24.673,246.004 25.002 C 246.640 25.331,248.114 25.795,249.280 26.033 C 250.446 26.271,252.352 26.811,253.515 27.233 C 254.678 27.655,255.916 28.000,256.265 28.000 C 256.614 28.000,257.912 28.433,259.150 28.963 C 260.387 29.492,262.210 30.195,263.200 30.525 C 266.813 31.728,268.634 32.417,270.200 33.175 C 271.080 33.601,272.700 34.342,273.800 34.821 C 284.860 39.637,285.342 40.195,281.518 43.742 C 280.062 45.094,274.777 50.160,269.775 55.000 C 264.773 59.840,260.393 64.078,260.040 64.417 C 254.857 69.413,245.945 77.984,238.430 85.201 C 233.277 90.151,225.161 98.070,220.396 102.800 C 212.545 110.594,207.333 115.595,196.636 125.601 C 192.817 129.173,177.820 143.539,172.209 149.000 C 167.863 153.230,151.179 169.366,149.048 171.400 C 135.184 184.634,127.407 192.151,121.752 197.781 C 114.582 204.920,108.919 210.372,89.933 228.411 C 83.626 234.403,78.363 239.687,78.238 240.153 C 77.767 241.911,77.981 259.421,78.480 259.920 C 79.061 260.501,179.441 260.615,180.355 260.036 C 180.794 259.758,180.627 259.395,179.555 258.304 C 178.810 257.545,176.667 255.321,174.793 253.362 C 171.020 249.418,164.824 242.948,154.707 232.387 C 151.025 228.544,145.804 223.117,143.104 220.326 C 140.404 217.536,137.984 214.692,137.725 214.008 L 137.256 212.763 144.328 205.741 C 152.227 197.897,157.510 192.740,172.403 178.340 C 178.011 172.917,185.300 165.852,188.600 162.641 C 191.900 159.430,196.018 155.497,197.752 153.902 C 205.534 146.736,213.174 139.435,232.340 120.844 C 239.561 113.839,250.650 102.882,251.847 101.568 C 254.273 98.905,261.012 92.522,261.892 92.055 C 263.830 91.024,267.416 93.871,273.915 101.600 C 274.932 102.810,277.394 105.510,279.387 107.600 C 298.214 127.351,303.762 132.998,305.613 134.294 C 307.151 135.372,307.200 134.152,307.200 94.388 C 307.200 51.218,306.973 54.238,310.078 56.128 C 314.924 59.075,330.722 73.904,337.435 81.805 C 341.779 86.919,343.525 89.092,345.230 91.512 C 346.203 92.893,347.932 95.323,349.072 96.912 C 350.211 98.500,351.899 101.150,352.822 102.800 C 353.745 104.450,354.743 106.079,355.039 106.420 C 355.336 106.761,356.236 108.291,357.039 109.820 C 357.842 111.349,358.725 112.870,359.000 113.200 C 359.627 113.952,365.397 125.845,365.792 127.200 C 365.952 127.750,366.367 128.648,366.714 129.196 C 367.363 130.222,368.779 133.883,369.886 137.400 C 370.233 138.500,370.746 139.760,371.028 140.200 C 371.530 140.986,372.285 143.444,373.486 148.200 C 373.820 149.520,374.465 151.585,374.921 152.789 C 375.377 153.993,375.969 156.153,376.236 157.589 C 376.504 159.025,377.007 161.460,377.354 163.000 C 377.702 164.540,377.989 166.352,377.993 167.027 C 377.997 167.702,378.359 169.592,378.799 171.227 C 381.143 179.952,381.761 216.797,379.606 219.392 C 378.831 220.327,309.424 220.312,308.089 219.377 L 307.200 218.755 307.200 202.524 C 307.200 183.508,307.293 184.090,303.781 181.184 C 302.400 180.042,299.198 176.923,296.666 174.253 C 294.134 171.584,289.784 167.060,286.999 164.200 C 284.214 161.340,277.689 154.630,272.499 149.288 C 265.749 142.341,262.940 139.700,262.632 140.008 C 262.343 140.297,262.114 146.619,261.941 159.120 C 261.799 169.394,261.560 180.230,261.411 183.200 C 261.073 189.920,260.965 189.655,266.254 195.018 C 268.644 197.442,271.770 200.706,273.200 202.273 C 277.598 207.092,294.589 224.658,301.179 231.200 C 304.615 234.610,309.654 239.740,312.377 242.600 C 315.100 245.460,319.797 250.341,322.813 253.448 C 325.830 256.554,328.381 259.344,328.482 259.648 C 328.634 260.104,332.183 260.235,348.948 260.400 C 372.146 260.629,371.032 260.415,369.363 264.313 C 369.013 265.131,368.455 266.700,368.124 267.800 C 367.793 268.900,367.297 270.070,367.021 270.400 C 366.745 270.730,365.842 272.710,365.013 274.800 C 364.184 276.890,363.287 278.870,363.018 279.200 C 362.749 279.530,361.851 281.240,361.023 283.000 C 360.195 284.760,359.283 286.470,358.996 286.800 C 358.710 287.130,357.719 288.887,356.794 290.703 C 355.870 292.520,354.957 294.103,354.766 294.221 C 354.575 294.339,353.779 295.580,352.997 296.980 C 352.214 298.379,351.299 299.752,350.964 300.030 C 350.628 300.309,350.119 301.091,349.832 301.768 C 349.545 302.446,348.576 303.990,347.678 305.200 C 346.781 306.410,345.631 307.999,345.124 308.730 C 340.308 315.667,327.408 329.536,319.217 336.583 C 310.797 343.827,309.191 344.978,308.020 344.606 C 307.204 344.347,307.200 344.214,307.200 316.822 C 307.200 288.237,307.099 286.400,305.535 286.400 C 304.936 286.400,292.228 273.535,269.923 250.350 C 269.246 249.646,252.079 231.754,245.627 225.027 C 243.742 223.062,241.502 220.812,240.650 220.027 C 239.797 219.242,238.661 217.911,238.125 217.069 C 236.458 214.449,237.025 214.507,211.535 214.346 C 198.849 214.266,188.341 214.328,188.184 214.484 C 187.789 214.877,190.324 217.776,195.803 223.200 C 208.374 235.644,230.560 258.680,230.869 259.608 C 231.037 260.113,233.454 260.229,247.366 260.400 C 262.915 260.591,263.691 260.636,264.233 261.376 C 264.716 262.037,264.800 270.022,264.800 315.095 L 264.800 368.036 263.818 369.018 C 263.278 369.558,262.516 370.000,262.124 370.000 C 261.732 370.000,260.509 370.430,259.406 370.955 C 258.303 371.480,255.510 372.401,253.200 373.002 C 250.890 373.603,247.740 374.501,246.200 374.998 C 242.912 376.057,238.064 377.083,232.910 377.809 C 230.880 378.094,228.000 378.635,226.510 379.009 C 217.751 381.208,185.674 381.267,175.000 379.104 C 172.800 378.658,169.470 378.076,167.600 377.812 C 162.259 377.055,157.230 375.985,154.400 375.003 C 152.970 374.506,150.630 373.799,149.200 373.432 C 147.770 373.064,145.700 372.528,144.600 372.241 C 143.500 371.954,141.842 371.332,140.916 370.859 C 139.990 370.387,138.958 370.000,138.624 370.000 C 137.927 370.000,133.719 368.402,130.200 366.800 C 128.880 366.200,126.810 365.303,125.600 364.808 C 124.390 364.313,122.950 363.657,122.400 363.351 C 121.850 363.044,119.870 362.045,118.000 361.131 C 116.130 360.217,114.330 359.250,114.000 358.982 C 113.670 358.714,112.230 357.905,110.800 357.183 C 109.370 356.462,107.620 355.445,106.910 354.923 C 106.201 354.402,104.560 353.396,103.264 352.688 C 93.744 347.488,78.183 334.637,68.091 323.639 C 62.452 317.494,60.889 315.725,59.398 313.800 C 54.450 307.414,52.464 304.691,51.223 302.595 C 50.440 301.273,49.477 299.743,49.082 299.195 C 48.687 298.648,47.864 297.390,47.252 296.400 C 46.641 295.410,45.794 294.064,45.370 293.409 C 44.186 291.578,41.467 286.628,39.212 282.200 C 38.092 280.000,37.007 277.930,36.803 277.600 C 36.598 277.270,35.878 275.650,35.203 274.000 C 34.527 272.350,33.620 270.280,33.188 269.400 C 32.336 267.668,31.600 265.661,30.328 261.600 C 29.880 260.170,29.330 258.773,29.105 258.496 C 28.685 257.980,27.669 254.598,26.551 250.000 C 26.204 248.570,25.594 246.590,25.196 245.600 C 24.798 244.610,24.345 242.900,24.190 241.800 C 24.035 240.700,23.580 238.360,23.180 236.600 C 22.780 234.840,22.337 232.140,22.196 230.600 C 22.055 229.060,21.698 226.900,21.403 225.800 C 19.194 217.583,19.025 184.278,21.147 175.400 C 21.568 173.640,22.033 170.940,22.181 169.400 C 22.329 167.860,22.709 165.520,23.027 164.200 C 23.344 162.880,23.859 160.450,24.172 158.800 C 24.485 157.150,25.094 154.720,25.526 153.400 C 25.958 152.080,26.519 150.190,26.773 149.200 C 28.002 144.411,28.469 142.911,29.057 141.858 C 29.407 141.231,29.938 139.881,30.235 138.858 C 31.263 135.324,32.603 131.742,33.282 130.715 C 33.657 130.148,34.086 129.170,34.236 128.542 C 34.386 127.914,34.737 126.950,35.016 126.400 C 35.294 125.850,36.656 123.060,38.041 120.200 C 39.427 117.340,40.770 114.730,41.027 114.400 C 41.284 114.070,42.211 112.450,43.088 110.800 C 43.964 109.150,45.154 107.106,45.732 106.257 C 46.310 105.408,47.242 103.788,47.804 102.657 C 48.366 101.526,49.814 99.250,51.021 97.600 C 52.228 95.950,53.642 93.970,54.163 93.200 C 61.418 82.487,76.939 66.519,89.200 57.155 C 91.510 55.391,93.741 53.669,94.157 53.328 C 95.157 52.512,100.186 49.159,101.536 48.409 C 102.742 47.740,105.130 46.289,107.200 44.968 C 107.970 44.477,109.674 43.511,110.986 42.822 C 112.298 42.132,113.648 41.331,113.986 41.042 C 114.324 40.753,115.950 39.915,117.600 39.180 C 119.250 38.445,121.064 37.529,121.631 37.144 C 122.198 36.759,123.368 36.182,124.231 35.863 C 127.849 34.523,130.235 33.500,130.758 33.065 C 131.320 32.597,135.030 31.232,138.431 30.242 C 139.438 29.949,140.698 29.426,141.231 29.081 C 142.143 28.490,143.196 28.176,149.600 26.588 C 151.030 26.233,152.939 25.611,153.843 25.205 C 154.746 24.798,156.366 24.344,157.443 24.194 C 158.519 24.044,160.750 23.595,162.400 23.195 C 164.050 22.796,166.570 22.345,168.000 22.194 C 169.430 22.042,172.040 21.572,173.800 21.149 C 175.796 20.668,179.784 20.228,184.400 19.979 C 188.470 19.760,192.340 19.524,193.000 19.454 C 196.132 19.125,205.109 19.271,213.937 19.796 M196.800 36.777 C 186.740 38.949,180.905 44.754,179.634 53.854 C 178.920 58.966,180.138 65.687,182.416 69.200 C 184.597 72.562,185.477 73.673,188.032 76.287 C 192.159 80.509,196.311 83.261,199.910 84.161 C 201.170 84.476,202.920 85.011,203.800 85.349 C 208.951 87.331,217.973 84.360,223.543 78.846 C 230.170 72.287,233.130 58.555,227.635 59.864 C 225.942 60.267,225.600 60.780,225.600 62.919 C 225.600 77.668,207.044 85.506,195.843 75.487 C 192.913 72.867,192.917 72.853,197.630 68.193 C 209.232 56.724,217.601 47.869,217.598 47.067 C 217.591 45.213,207.697 38.007,205.150 38.002 C 204.793 38.001,203.801 37.753,202.945 37.451 C 200.755 36.678,198.436 36.424,196.800 36.777 M204.001 43.400 C 207.408 44.835,210.000 46.754,210.000 47.844 C 210.000 48.878,191.445 67.741,189.966 68.211 C 188.930 68.540,186.699 66.264,186.035 64.200 C 185.822 63.540,185.375 62.280,185.042 61.400 C 180.722 50.008,192.694 38.641,204.001 43.400 M145.169 54.769 C 143.090 56.848,143.298 57.185,151.482 65.029 C 163.452 76.503,162.890 75.568,158.200 76.204 C 157.100 76.353,155.283 76.908,154.161 77.438 C 153.040 77.967,152.013 78.400,151.879 78.400 C 150.695 78.400,144.668 84.124,144.158 85.734 C 144.008 86.204,143.476 87.222,142.974 87.995 C 141.322 90.540,141.327 98.838,142.982 101.970 C 143.281 102.537,143.986 103.990,144.549 105.200 C 147.443 111.428,156.999 120.535,162.392 122.205 C 162.938 122.374,163.898 122.892,164.525 123.356 C 165.564 124.124,166.192 124.200,171.533 124.200 L 177.400 124.200 179.800 122.813 C 182.169 121.445,187.988 115.950,188.013 115.059 C 188.019 114.807,188.468 113.700,189.009 112.600 C 189.737 111.120,189.994 109.943,189.996 108.074 C 190.002 103.920,190.632 103.318,193.000 105.200 C 194.878 106.692,195.365 106.696,196.831 105.231 C 198.838 103.223,198.554 102.657,192.675 96.960 C 189.747 94.122,182.412 87.007,176.375 81.149 C 170.339 75.292,163.870 69.023,162.000 67.218 C 160.130 65.414,156.973 62.355,154.985 60.421 C 147.441 53.084,147.069 52.869,145.169 54.769 M167.515 81.220 C 169.818 82.590,184.601 96.973,185.369 98.591 C 186.511 100.998,186.245 107.724,184.900 110.450 C 180.104 120.169,169.904 121.720,160.081 114.224 C 145.144 102.824,143.400 88.070,156.200 81.393 C 159.745 79.543,164.571 79.470,167.515 81.220 M121.400 113.558 C 116.517 114.776,110.063 119.543,108.133 123.355 C 107.787 124.040,107.251 124.889,106.942 125.242 C 104.113 128.478,104.231 140.902,107.130 145.091 C 107.552 145.701,108.353 147.010,108.908 148.000 C 112.661 154.684,121.382 160.972,128.938 162.443 C 149.074 166.363,162.694 143.468,150.143 126.800 C 142.150 116.184,131.162 111.122,121.400 113.558 M131.491 119.402 C 134.782 120.875,137.671 122.428,138.600 123.222 C 141.651 125.830,144.078 128.279,145.039 129.719 C 145.655 130.644,146.483 131.771,146.878 132.223 C 152.667 138.864,149.057 152.420,140.466 156.297 C 135.914 158.351,126.638 157.494,124.194 154.793 C 123.799 154.357,123.243 154.000,122.959 154.000 C 121.343 154.000,113.035 144.706,112.203 141.968 C 112.041 141.436,111.524 140.370,111.054 139.600 C 109.807 137.557,109.792 130.390,111.030 128.600 C 111.487 127.940,112.099 126.802,112.391 126.071 C 113.523 123.235,118.598 119.544,123.000 118.357 C 125.046 117.805,129.015 118.293,131.491 119.402 M72.800 140.445 C 57.469 142.640,46.384 162.273,53.057 175.412 C 53.500 176.286,54.297 177.890,54.829 178.979 C 55.360 180.067,56.381 181.659,57.097 182.516 C 57.814 183.374,58.400 184.227,58.400 184.412 C 58.400 184.917,69.141 195.460,71.149 196.924 C 72.111 197.626,73.731 198.940,74.749 199.844 C 77.961 202.697,86.348 205.694,91.200 205.724 C 104.118 205.803,116.779 193.095,116.797 180.033 C 116.801 176.873,116.006 172.757,115.157 171.552 C 114.752 170.976,114.235 170.017,114.008 169.422 C 113.078 166.975,111.185 164.751,110.269 165.029 C 107.402 165.897,106.679 168.281,108.399 171.198 C 109.081 172.355,109.915 174.043,110.254 174.950 C 110.592 175.858,111.141 177.320,111.474 178.200 C 113.314 183.068,108.100 193.237,102.021 196.637 C 95.260 200.418,92.043 200.737,85.200 198.304 C 78.870 196.053,68.000 187.257,62.926 180.280 C 62.094 179.136,61.278 178.141,61.112 178.068 C 59.902 177.540,56.418 167.700,56.407 164.777 C 56.371 155.551,65.976 145.913,75.205 145.913 L 79.242 145.913 83.254 147.969 L 87.265 150.025 88.638 149.177 C 90.764 147.862,91.205 144.400,89.246 144.400 C 89.062 144.400,88.236 143.941,87.410 143.381 C 84.059 141.107,77.450 139.779,72.800 140.445 M230.210 162.383 C 230.080 162.594,228.331 163.866,226.323 165.208 L 222.673 167.650 220.436 166.849 C 212.446 163.987,211.192 164.367,213.253 169.027 C 213.836 170.344,214.121 171.850,214.153 173.778 L 214.200 176.600 211.477 179.938 C 207.540 184.766,207.653 185.000,213.916 185.000 L 218.832 185.000 220.207 186.600 C 220.963 187.480,222.261 189.325,223.091 190.701 C 225.083 194.002,226.992 193.078,227.841 188.400 C 228.196 186.449,230.320 182.810,231.346 182.397 C 231.816 182.208,233.820 181.566,235.800 180.970 C 241.732 179.187,241.646 178.783,234.284 173.797 C 232.231 172.406,232.007 171.591,232.403 166.964 C 232.631 164.308,232.604 162.846,232.322 162.506 C 231.827 161.910,230.549 161.836,230.210 162.383 M137.600 281.958 L 136.600 282.236 136.498 318.793 C 136.417 347.774,136.500 355.416,136.898 355.669 C 137.680 356.165,141.385 356.055,141.920 355.520 C 142.275 355.165,142.400 351.420,142.400 341.149 C 142.400 329.575,142.496 327.161,142.977 326.680 C 143.444 326.213,145.769 326.063,155.077 325.900 C 171.206 325.616,175.780 324.359,181.281 318.696 C 187.439 312.358,188.106 298.058,182.592 290.585 C 178.708 285.322,173.315 282.591,165.600 281.982 C 160.290 281.563,139.086 281.545,137.600 281.958 M201.600 282.118 L 200.600 282.624 200.498 318.768 C 200.384 359.205,200.114 356.000,203.626 356.000 C 207.342 356.000,207.200 356.623,207.200 340.334 L 207.200 326.445 208.089 325.823 C 208.830 325.304,210.479 325.200,217.989 325.201 C 228.762 325.203,228.623 325.156,230.952 329.637 C 231.799 331.267,232.714 332.870,232.986 333.200 C 233.257 333.530,234.240 335.150,235.170 336.800 C 238.347 342.438,240.600 346.288,241.045 346.844 C 241.290 347.150,242.251 348.840,243.181 350.600 C 245.783 355.527,246.422 356.057,249.586 355.916 C 252.504 355.786,252.934 355.294,251.874 353.300 C 251.552 352.695,250.917 351.504,250.463 350.652 C 250.009 349.801,249.380 348.811,249.066 348.452 C 248.752 348.094,247.900 346.630,247.174 345.200 C 246.447 343.770,245.436 342.091,244.926 341.469 C 244.417 340.847,244.000 340.169,244.000 339.961 C 244.000 339.614,243.484 338.735,240.970 334.800 C 240.478 334.030,239.511 332.326,238.822 331.014 C 238.132 329.702,237.308 328.340,236.989 327.988 C 234.800 325.569,235.525 323.423,239.102 321.741 C 242.939 319.936,247.088 315.142,248.398 311.000 C 248.677 310.120,249.104 309.150,249.348 308.844 C 250.225 307.744,250.179 299.919,249.283 297.895 C 248.843 296.899,248.355 295.480,248.201 294.742 C 247.795 292.806,245.865 289.944,243.614 287.939 C 237.254 282.275,234.115 281.613,213.600 281.612 C 205.525 281.612,202.334 281.746,201.600 282.118 M168.045 287.745 C 182.733 291.188,184.696 311.983,170.961 318.637 L 167.800 320.169 155.764 320.184 C 146.133 320.197,143.595 320.090,143.064 319.651 C 142.467 319.157,142.400 317.589,142.400 304.125 C 142.400 288.545,142.467 287.892,144.126 287.180 C 145.574 286.560,164.939 287.017,168.045 287.745 M231.274 287.752 C 242.884 290.463,247.536 305.841,239.295 314.265 C 237.029 316.582,236.318 317.026,232.000 318.825 C 229.476 319.876,210.610 320.526,208.300 319.641 L 207.200 319.220 207.200 303.936 L 207.200 288.652 208.100 287.686 L 209.000 286.721 218.800 286.924 C 225.631 287.066,229.410 287.317,231.274 287.752 " stroke="none" fill="#f3f8fa" fill-rule="evenodd"></path><path id="path1" d="M169.000 0.392 C 161.686 0.734,162.011 0.693,162.797 1.189 C 163.969 1.930,162.585 2.332,158.259 2.508 C 154.024 2.680,153.553 2.831,153.085 4.166 C 153.014 4.367,151.757 4.492,150.292 4.445 C 147.504 4.355,144.804 4.701,144.861 5.142 C 145.003 6.234,144.659 6.400,142.262 6.400 C 140.169 6.400,139.531 6.566,138.620 7.349 C 137.795 8.058,136.876 8.349,134.977 8.501 C 132.772 8.678,130.853 9.519,131.402 10.069 C 131.492 10.159,131.168 10.260,130.683 10.295 C 128.388 10.457,127.232 10.871,126.996 11.614 C 126.814 12.187,126.387 12.400,125.423 12.400 C 123.181 12.400,121.680 12.851,121.489 13.583 C 121.365 14.054,120.763 14.353,119.630 14.505 C 118.646 14.637,117.656 15.075,117.230 15.565 C 116.832 16.024,116.167 16.402,115.753 16.405 C 114.200 16.417,113.242 16.903,113.122 17.741 C 113.021 18.455,112.731 18.601,111.400 18.604 C 109.593 18.608,108.800 18.980,108.800 19.824 C 108.800 20.153,108.414 20.402,107.900 20.405 C 106.204 20.416,105.246 20.877,105.122 21.741 C 105.030 22.389,104.705 22.611,103.800 22.646 C 101.472 22.736,101.252 22.807,101.016 23.551 C 100.857 24.051,100.247 24.386,99.189 24.555 C 98.239 24.707,97.401 25.129,97.104 25.605 C 96.831 26.042,96.312 26.400,95.950 26.400 C 95.588 26.400,94.997 26.850,94.637 27.400 C 94.266 27.966,93.595 28.403,93.091 28.406 C 91.903 28.414,91.367 28.810,91.015 29.937 C 90.805 30.611,90.507 30.817,89.951 30.671 C 89.503 30.554,88.722 30.839,88.089 31.350 C 87.490 31.835,86.505 32.445,85.900 32.707 C 85.295 32.969,84.800 33.457,84.800 33.791 C 84.800 34.126,84.474 34.400,84.075 34.400 C 83.677 34.400,82.948 34.945,82.455 35.611 C 81.963 36.277,81.404 36.726,81.213 36.608 C 80.650 36.260,78.800 37.132,78.800 37.747 C 78.800 38.058,78.362 38.423,77.827 38.558 C 77.291 38.692,76.745 39.144,76.612 39.561 C 76.480 39.979,75.920 40.434,75.369 40.572 C 74.818 40.710,74.463 40.978,74.579 41.166 C 74.866 41.630,73.723 42.534,72.661 42.684 C 72.187 42.751,71.440 43.226,71.000 43.741 C 70.560 44.255,69.885 44.788,69.500 44.925 C 69.115 45.063,68.800 45.431,68.800 45.744 C 68.800 46.057,68.362 46.423,67.827 46.558 C 67.291 46.692,66.742 47.152,66.606 47.580 C 66.470 48.009,66.008 48.470,65.580 48.606 C 65.088 48.762,64.800 49.214,64.800 49.827 C 64.800 50.598,64.593 50.800,63.800 50.800 C 63.000 50.800,62.800 51.000,62.800 51.800 C 62.800 52.736,62.461 52.976,61.335 52.838 C 61.058 52.804,60.955 53.107,61.081 53.587 C 61.288 54.379,59.837 55.363,59.100 54.929 C 58.935 54.832,58.800 55.213,58.800 55.776 C 58.800 56.602,58.606 56.800,57.800 56.800 C 57.000 56.800,56.800 57.000,56.800 57.800 C 56.800 58.606,56.602 58.800,55.776 58.800 C 55.213 58.800,54.832 58.935,54.929 59.100 C 55.363 59.837,54.379 61.288,53.587 61.081 C 53.107 60.955,52.804 61.058,52.838 61.335 C 52.976 62.461,52.736 62.800,51.800 62.800 C 51.000 62.800,50.800 63.000,50.800 63.800 C 50.800 64.593,50.598 64.800,49.827 64.800 C 49.214 64.800,48.762 65.088,48.606 65.580 C 48.470 66.008,48.009 66.470,47.580 66.606 C 47.152 66.742,46.692 67.291,46.558 67.827 C 46.423 68.362,46.057 68.800,45.744 68.800 C 45.431 68.800,45.063 69.115,44.925 69.500 C 44.788 69.885,44.246 70.560,43.719 71.000 C 43.193 71.440,42.731 72.229,42.692 72.754 C 42.653 73.279,42.122 74.077,41.511 74.529 C 40.900 74.981,40.400 75.587,40.400 75.875 C 40.400 76.164,40.233 76.400,40.029 76.400 C 39.366 76.400,38.348 77.688,38.564 78.252 C 38.699 78.603,38.489 78.800,37.978 78.800 C 37.484 78.800,37.027 79.202,36.779 79.856 C 36.558 80.436,35.933 81.440,35.389 82.086 C 34.845 82.733,34.400 83.608,34.400 84.031 C 34.400 84.454,34.126 84.800,33.791 84.800 C 33.457 84.800,32.969 85.295,32.707 85.900 C 32.445 86.505,31.835 87.490,31.350 88.089 C 30.814 88.752,30.552 89.496,30.681 89.989 C 30.798 90.435,30.692 90.823,30.447 90.850 C 30.201 90.877,29.813 90.923,29.585 90.950 C 28.985 91.022,28.413 92.061,28.406 93.091 C 28.403 93.595,27.966 94.266,27.400 94.637 C 26.850 94.997,26.400 95.588,26.400 95.950 C 26.400 96.312,26.042 96.831,25.605 97.104 C 25.127 97.402,24.707 98.240,24.554 99.200 C 24.413 100.080,24.080 100.800,23.813 100.800 C 23.076 100.800,22.486 102.443,22.700 103.900 C 22.872 105.071,22.791 105.200,21.892 105.200 C 20.862 105.200,20.417 106.009,20.405 107.900 C 20.402 108.421,20.153 108.800,19.814 108.800 C 18.920 108.800,18.405 110.123,18.668 111.744 C 18.888 113.095,18.832 113.200,17.899 113.200 C 16.877 113.200,16.418 114.003,16.405 115.812 C 16.402 116.258,16.046 116.879,15.613 117.191 C 15.135 117.535,14.721 118.456,14.560 119.531 C 14.378 120.740,14.070 121.361,13.590 121.487 C 12.848 121.681,12.400 123.173,12.400 125.450 C 12.400 126.311,12.206 126.800,11.864 126.800 C 11.216 126.800,10.400 128.474,10.400 129.803 C 10.400 130.334,10.020 131.123,9.556 131.555 C 8.924 132.144,8.661 132.990,8.505 134.929 C 8.349 136.876,8.062 137.790,7.349 138.620 C 6.566 139.531,6.400 140.169,6.400 142.262 C 6.400 144.270,6.273 144.800,5.790 144.800 C 4.881 144.800,4.345 146.654,4.406 149.589 C 4.481 153.175,4.493 153.117,3.642 153.387 C 2.754 153.669,2.465 154.963,2.349 159.188 C 2.270 162.056,1.724 163.629,1.135 162.688 C 0.390 161.501,0.200 169.095,0.200 200.000 C 0.200 231.614,0.384 238.521,1.190 237.216 C 1.808 236.216,2.256 237.181,2.335 239.679 C 2.497 244.864,2.705 245.995,3.636 246.749 C 4.426 247.388,4.519 247.805,4.456 250.435 C 4.385 253.450,5.007 255.498,5.933 255.300 C 6.437 255.192,6.504 255.625,6.411 258.409 C 6.363 259.827,6.571 260.475,7.375 261.409 C 8.066 262.213,8.399 263.071,8.400 264.050 C 8.400 266.021,8.830 268.029,9.202 267.799 C 9.576 267.568,10.253 269.280,10.587 271.295 C 10.735 272.188,11.150 272.959,11.617 273.209 C 12.112 273.474,12.400 274.046,12.400 274.764 C 12.400 276.772,12.881 278.400,13.474 278.400 C 13.789 278.400,13.936 278.580,13.800 278.800 C 13.664 279.020,13.728 279.200,13.941 279.200 C 14.155 279.200,14.446 279.888,14.588 280.728 C 14.730 281.569,15.196 282.509,15.623 282.817 C 16.095 283.157,16.402 283.853,16.406 284.588 C 16.414 286.087,16.767 286.663,17.800 286.861 C 18.454 286.986,18.600 287.331,18.600 288.758 C 18.600 290.122,18.796 290.632,19.500 291.100 C 20.049 291.465,20.402 292.107,20.406 292.749 C 20.414 294.090,20.796 294.669,21.800 294.859 C 22.447 294.982,22.607 295.344,22.637 296.756 C 22.664 298.026,22.903 298.679,23.513 299.151 C 23.974 299.508,24.481 300.340,24.640 301.000 C 24.798 301.660,25.259 302.491,25.664 302.847 C 26.069 303.203,26.400 303.792,26.400 304.155 C 26.400 304.519,26.850 305.022,27.400 305.273 C 28.150 305.614,28.402 306.037,28.406 306.964 C 28.413 308.312,28.865 309.282,29.437 309.174 C 30.460 308.981,30.879 309.253,30.688 309.986 C 30.571 310.433,30.802 311.142,31.224 311.627 C 31.631 312.097,32.167 313.094,32.414 313.841 C 32.819 315.068,33.203 315.389,34.100 315.247 C 34.383 315.203,34.555 315.829,34.445 316.507 C 34.417 316.677,34.826 317.011,35.353 317.252 C 36.038 317.563,36.382 318.130,36.559 319.232 C 36.708 320.164,37.110 320.938,37.576 321.187 C 37.999 321.414,38.457 321.950,38.593 322.379 C 38.730 322.808,39.192 323.270,39.620 323.406 C 40.049 323.543,40.400 323.916,40.400 324.236 C 40.400 324.555,40.850 325.022,41.400 325.273 C 41.950 325.523,42.413 325.835,42.430 325.964 C 42.619 327.463,42.952 328.327,43.601 328.998 C 45.761 331.231,46.800 332.462,46.800 332.787 C 46.800 332.984,47.151 333.257,47.580 333.394 C 48.008 333.530,48.467 333.980,48.598 334.395 C 48.730 334.810,49.234 335.206,49.719 335.275 C 50.204 335.344,50.605 335.670,50.611 336.000 C 50.629 337.024,51.167 337.534,52.000 337.316 C 52.649 337.146,52.800 337.304,52.800 338.153 C 52.800 338.729,52.935 339.179,53.100 339.153 C 54.269 338.968,54.800 339.286,54.800 340.172 C 54.800 340.876,55.049 341.180,55.700 341.272 C 56.270 341.353,56.646 341.721,56.725 342.275 C 56.802 342.821,57.179 343.198,57.725 343.275 C 58.270 343.353,58.647 343.730,58.725 344.276 C 58.812 344.889,59.172 345.189,59.925 345.276 C 60.748 345.371,60.993 345.611,60.968 346.300 C 60.944 346.997,61.157 347.200,61.915 347.200 C 62.696 347.200,62.851 347.361,62.684 348.000 C 62.466 348.833,62.976 349.371,64.000 349.389 C 64.330 349.395,64.656 349.796,64.725 350.281 C 64.794 350.766,65.190 351.270,65.605 351.402 C 66.020 351.533,66.470 351.992,66.606 352.420 C 66.743 352.849,67.016 353.200,67.213 353.200 C 67.411 353.200,68.103 353.695,68.752 354.300 C 71.702 357.050,72.478 357.600,73.407 357.600 C 74.130 357.600,74.400 357.815,74.400 358.392 C 74.400 358.901,74.753 359.273,75.386 359.432 C 75.928 359.568,76.480 360.021,76.612 360.439 C 76.745 360.856,77.291 361.308,77.827 361.442 C 78.362 361.577,78.800 361.946,78.800 362.264 C 78.800 362.581,79.438 363.107,80.217 363.433 C 80.997 363.759,81.734 364.285,81.856 364.602 C 81.978 364.919,82.690 365.293,83.439 365.434 C 84.382 365.611,84.800 365.908,84.800 366.402 C 84.800 367.148,85.556 367.600,86.806 367.600 C 87.213 367.600,87.660 367.960,87.800 368.400 C 88.057 369.211,88.214 369.279,90.000 369.357 C 90.743 369.389,90.982 369.604,90.929 370.194 C 90.839 371.194,91.447 371.586,93.100 371.594 C 94.268 371.599,94.600 371.918,94.450 372.893 C 94.425 373.054,94.891 373.308,95.485 373.457 C 96.078 373.606,96.986 374.149,97.500 374.664 C 98.059 375.223,98.912 375.600,99.618 375.600 C 100.381 375.600,100.800 375.805,100.800 376.176 C 100.800 377.019,101.593 377.392,103.393 377.396 C 104.667 377.399,105.017 377.560,105.139 378.200 C 105.328 379.184,105.908 379.586,107.154 379.594 C 107.679 379.597,108.538 380.063,109.063 380.630 C 109.796 381.421,110.270 381.607,111.109 381.431 C 112.424 381.154,113.403 381.694,113.086 382.520 C 112.841 383.159,113.819 383.585,115.553 383.595 C 116.077 383.598,116.832 383.976,117.230 384.435 C 117.656 384.925,118.646 385.363,119.630 385.495 C 120.769 385.648,121.365 385.945,121.490 386.423 C 121.706 387.248,122.750 387.587,125.100 387.595 C 126.324 387.598,126.800 387.764,126.800 388.186 C 126.800 388.995,127.964 389.542,129.934 389.658 C 131.087 389.726,131.662 389.964,131.811 390.435 C 132.069 391.248,133.176 391.587,135.600 391.595 C 136.937 391.599,137.699 391.858,138.562 392.600 C 139.492 393.400,140.157 393.600,141.891 393.600 C 143.658 393.600,146.387 394.703,144.929 394.828 C 143.319 394.966,146.938 395.550,149.537 395.572 C 152.462 395.597,152.899 395.694,153.073 396.357 C 153.308 397.257,154.723 397.600,158.204 397.600 C 160.621 397.600,163.481 398.386,162.959 398.907 C 162.208 399.659,168.060 399.800,200.000 399.800 C 233.340 399.800,237.547 399.685,236.993 398.788 C 236.861 398.575,237.044 398.400,237.400 398.400 C 237.756 398.400,237.950 398.242,237.831 398.049 C 237.711 397.857,239.276 397.669,241.307 397.632 C 245.800 397.550,246.666 397.355,246.925 396.366 C 247.103 395.683,247.515 395.600,250.734 395.600 C 254.306 395.600,256.017 394.999,255.380 393.968 C 255.250 393.757,256.355 393.600,257.960 393.600 C 260.395 393.600,260.889 393.474,261.684 392.647 C 262.423 391.877,263.136 391.653,265.385 391.486 C 267.572 391.323,268.315 391.099,268.849 390.439 C 269.277 389.910,269.991 389.600,270.783 389.600 C 271.608 389.600,272.356 389.257,272.965 388.600 C 273.599 387.916,274.320 387.598,275.246 387.595 C 277.287 387.586,278.347 387.197,278.614 386.357 C 278.776 385.846,279.227 385.600,280.001 385.600 C 281.640 385.600,283.200 384.922,283.200 384.210 C 283.200 383.773,283.625 383.598,284.700 383.594 C 286.485 383.587,287.000 383.274,287.000 382.200 C 287.000 381.562,287.243 381.414,288.200 381.470 C 290.149 381.583,291.091 381.260,291.315 380.404 C 291.472 379.803,291.862 379.598,292.863 379.594 C 294.487 379.586,295.000 379.252,295.000 378.200 C 295.000 377.524,295.267 377.400,296.722 377.400 C 297.999 377.400,298.620 377.180,299.122 376.550 C 299.495 376.083,300.329 375.576,300.976 375.423 C 301.623 375.271,302.433 374.827,302.776 374.437 C 303.119 374.047,303.894 373.606,304.498 373.457 C 305.101 373.308,305.575 373.054,305.550 372.893 C 305.400 371.918,305.732 371.599,306.900 371.594 C 308.401 371.587,309.413 371.068,309.056 370.490 C 308.705 369.923,309.869 369.064,310.606 369.347 C 310.958 369.482,311.511 369.245,311.898 368.794 C 312.270 368.360,313.165 367.810,313.887 367.571 C 314.609 367.333,315.223 366.972,315.250 366.769 C 315.278 366.566,315.322 366.191,315.350 365.935 C 315.378 365.679,315.927 365.447,316.572 365.419 C 317.217 365.390,317.818 365.145,317.909 364.873 C 318.000 364.601,318.764 364.026,319.608 363.596 C 320.452 363.166,321.250 362.471,321.383 362.053 C 321.516 361.635,321.932 361.317,322.308 361.346 C 322.684 361.376,323.171 360.995,323.391 360.500 C 323.610 360.005,324.111 359.600,324.505 359.600 C 324.898 359.600,325.382 359.172,325.581 358.650 C 325.836 357.980,326.376 357.618,327.415 357.423 C 328.349 357.248,328.958 356.882,329.078 356.422 C 329.183 356.024,329.703 355.499,330.234 355.257 C 330.765 355.015,331.200 354.629,331.200 354.399 C 331.200 354.169,331.667 353.802,332.239 353.585 C 332.810 353.368,333.367 352.849,333.476 352.432 C 333.585 352.015,334.002 351.588,334.403 351.483 C 334.804 351.378,335.192 350.867,335.266 350.346 C 335.340 349.826,335.670 349.395,336.000 349.389 C 337.036 349.371,337.533 348.830,337.307 347.965 C 337.125 347.269,337.247 347.153,338.044 347.265 C 338.830 347.376,339.023 347.204,339.127 346.300 C 339.231 345.396,339.450 345.200,340.358 345.200 C 341.243 345.200,341.457 345.023,341.432 344.311 C 341.409 343.673,341.682 343.362,342.400 343.211 C 343.063 343.071,343.400 342.730,343.400 342.200 C 343.400 341.675,343.709 341.356,344.300 341.272 C 344.936 341.182,345.200 340.874,345.200 340.222 C 345.200 339.523,345.483 339.243,346.367 339.067 C 347.332 338.874,347.494 338.681,347.304 337.953 C 347.109 337.207,347.205 337.108,347.936 337.299 C 348.827 337.532,349.371 337.046,349.389 336.000 C 349.395 335.670,349.826 335.340,350.346 335.266 C 350.867 335.192,351.378 334.804,351.483 334.403 C 351.588 334.002,352.015 333.585,352.432 333.476 C 352.849 333.367,353.368 332.810,353.585 332.239 C 353.802 331.667,354.169 331.200,354.399 331.200 C 354.629 331.200,355.022 330.750,355.273 330.200 C 355.523 329.650,355.947 329.200,356.215 329.200 C 356.914 329.200,357.521 328.350,357.759 327.038 C 357.990 325.765,358.251 325.400,358.933 325.400 C 359.190 325.400,359.455 325.013,359.522 324.541 C 359.590 324.068,359.994 323.590,360.420 323.479 C 360.847 323.367,361.315 322.944,361.460 322.538 C 361.605 322.132,362.169 321.430,362.712 320.978 C 363.326 320.466,363.700 319.737,363.700 319.049 C 363.700 318.252,363.966 317.841,364.650 317.581 C 365.181 317.379,365.600 316.891,365.600 316.474 C 365.600 316.064,366.050 315.523,366.600 315.273 C 367.187 315.006,367.600 314.483,367.600 314.009 C 367.600 313.564,368.001 312.799,368.491 312.309 C 368.981 311.819,369.398 311.045,369.418 310.589 C 369.469 309.419,369.933 308.799,370.572 309.045 C 371.278 309.316,371.645 308.697,371.689 307.161 C 371.714 306.259,371.972 305.839,372.662 305.576 C 373.196 305.373,373.600 304.889,373.600 304.452 C 373.600 304.030,374.047 303.260,374.593 302.742 C 375.154 302.209,375.589 301.342,375.593 300.746 C 375.598 300.060,375.959 299.457,376.628 299.018 C 377.411 298.505,377.640 298.041,377.588 297.072 C 377.475 294.983,377.556 294.800,378.600 294.800 C 379.369 294.800,379.601 294.592,379.605 293.900 C 379.615 292.294,380.058 291.278,380.837 291.074 C 381.465 290.910,381.600 290.505,381.600 288.791 C 381.600 286.883,381.670 286.725,382.424 286.922 C 383.311 287.154,383.405 287.001,383.787 284.698 C 383.925 283.873,384.365 282.883,384.765 282.498 C 385.166 282.114,385.615 281.127,385.764 280.305 C 385.913 279.483,386.361 278.635,386.760 278.422 C 387.276 278.145,387.552 277.383,387.718 275.771 C 387.889 274.114,388.172 273.355,388.776 272.932 C 389.268 272.587,389.600 271.912,389.600 271.255 C 389.600 270.650,390.024 269.581,390.542 268.879 C 391.210 267.973,391.557 266.826,391.733 264.936 C 391.910 263.046,392.220 262.017,392.802 261.398 C 393.390 260.772,393.658 259.871,393.747 258.212 C 393.844 256.409,394.061 255.757,394.729 255.250 C 395.474 254.685,395.607 254.109,395.746 250.822 C 395.883 247.592,396.015 247.001,396.653 246.750 C 397.064 246.588,397.220 246.441,397.000 246.422 C 396.780 246.403,396.836 246.238,397.125 246.055 C 397.492 245.822,397.673 244.527,397.725 241.761 C 397.798 237.883,398.255 236.416,399.205 237.003 C 399.710 237.315,399.638 240.880,399.864 204.400 C 400.066 171.740,399.876 162.719,398.995 163.057 C 398.338 163.309,398.054 162.002,397.807 157.600 C 397.635 154.544,397.511 154.116,396.584 153.366 C 395.816 152.745,395.608 152.284,395.773 151.566 C 396.091 150.174,395.474 144.987,395.000 145.072 C 394.351 145.188,393.963 144.131,393.762 141.703 C 393.637 140.187,393.311 139.144,392.789 138.588 C 392.265 138.031,391.915 136.908,391.739 135.218 C 391.559 133.499,391.238 132.482,390.739 132.055 C 390.313 131.690,389.897 130.616,389.749 129.498 C 389.585 128.261,389.217 127.377,388.722 127.031 C 388.176 126.648,387.883 125.822,387.714 124.192 C 387.533 122.437,387.306 121.848,386.757 121.705 C 386.256 121.574,385.954 120.970,385.768 119.726 C 385.620 118.742,385.269 117.848,384.986 117.739 C 384.408 117.518,383.697 115.901,383.519 114.404 C 383.444 113.780,383.101 113.352,382.600 113.258 C 381.493 113.050,381.174 112.414,381.442 110.948 C 381.621 109.972,381.488 109.567,380.843 109.115 C 380.388 108.797,379.870 107.830,379.692 106.968 C 379.446 105.781,379.153 105.369,378.484 105.272 C 377.606 105.145,377.457 104.735,377.578 102.790 C 377.618 102.151,377.267 101.454,376.621 100.893 C 376.059 100.405,375.600 99.585,375.600 99.072 C 375.600 98.559,375.165 97.731,374.634 97.232 C 374.102 96.733,373.557 95.884,373.422 95.346 C 373.287 94.808,373.014 94.468,372.816 94.590 C 372.325 94.893,371.892 94.108,371.615 92.414 C 371.473 91.544,371.157 90.996,370.792 90.989 C 369.769 90.971,369.159 90.361,369.401 89.598 C 369.546 89.139,369.320 88.570,368.796 88.082 C 368.335 87.653,367.820 86.784,367.652 86.151 C 367.452 85.397,367.045 84.956,366.473 84.872 C 365.855 84.782,365.600 84.465,365.600 83.788 C 365.600 83.262,365.252 82.507,364.826 82.110 C 364.400 81.714,363.858 80.879,363.621 80.256 C 363.384 79.633,362.833 79.029,362.395 78.915 C 361.953 78.799,361.600 78.369,361.600 77.945 C 361.600 77.526,361.164 76.984,360.631 76.741 C 360.098 76.498,359.560 75.894,359.435 75.398 C 359.311 74.902,358.847 74.401,358.404 74.285 C 357.889 74.150,357.600 73.740,357.600 73.142 C 357.600 72.629,357.156 71.757,356.613 71.204 C 354.378 68.930,353.200 67.552,353.200 67.213 C 353.200 67.016,352.849 66.743,352.420 66.606 C 351.992 66.470,351.530 66.008,351.394 65.580 C 351.235 65.081,350.786 64.800,350.148 64.800 C 349.420 64.800,349.181 64.610,349.265 64.100 C 349.437 63.052,348.899 62.449,348.000 62.684 C 347.361 62.851,347.200 62.696,347.200 61.915 C 347.200 61.157,346.997 60.944,346.300 60.968 C 345.611 60.993,345.371 60.748,345.276 59.925 C 345.189 59.172,344.889 58.812,344.276 58.725 C 343.730 58.647,343.353 58.270,343.275 57.725 C 343.198 57.179,342.821 56.802,342.275 56.725 C 341.721 56.646,341.353 56.270,341.272 55.700 C 341.180 55.049,340.876 54.800,340.172 54.800 C 339.286 54.800,338.968 54.269,339.153 53.100 C 339.179 52.935,338.739 52.800,338.175 52.800 C 337.421 52.800,337.180 52.615,337.265 52.100 C 337.437 51.052,336.899 50.449,336.000 50.684 C 335.355 50.853,335.200 50.696,335.200 49.874 C 335.200 49.214,334.925 48.767,334.420 48.606 C 333.992 48.470,333.530 48.008,333.394 47.580 C 333.257 47.151,332.984 46.800,332.787 46.800 C 332.462 46.800,331.226 45.757,328.994 43.597 C 328.551 43.168,327.606 42.701,326.894 42.559 C 325.727 42.325,325.415 41.988,325.550 41.107 C 325.575 40.946,325.153 40.703,324.612 40.567 C 324.071 40.432,323.523 39.988,323.394 39.581 C 323.265 39.174,322.808 38.730,322.379 38.593 C 321.950 38.457,321.414 37.999,321.187 37.576 C 320.935 37.104,320.159 36.707,319.187 36.552 C 317.755 36.322,317.408 36.015,317.553 35.100 C 317.579 34.935,317.420 34.777,317.200 34.750 C 316.980 34.722,316.620 34.655,316.400 34.600 C 316.180 34.545,315.820 34.477,315.600 34.450 C 315.380 34.423,315.221 34.265,315.247 34.100 C 315.389 33.203,315.068 32.819,313.841 32.414 C 313.094 32.167,312.097 31.631,311.627 31.224 C 311.142 30.802,310.433 30.571,309.986 30.688 C 309.247 30.881,309.140 30.746,309.040 29.500 C 308.979 28.742,308.336 28.413,306.900 28.406 C 305.732 28.401,305.400 28.082,305.550 27.107 C 305.575 26.946,305.101 26.692,304.498 26.543 C 303.894 26.394,303.119 25.953,302.776 25.563 C 302.433 25.173,301.623 24.729,300.976 24.577 C 300.329 24.424,299.508 23.934,299.151 23.487 C 298.688 22.908,298.001 22.664,296.756 22.637 C 295.344 22.607,294.982 22.447,294.859 21.800 C 294.669 20.796,294.090 20.414,292.749 20.406 C 292.107 20.402,291.465 20.049,291.100 19.500 C 290.632 18.796,290.122 18.600,288.758 18.600 C 287.331 18.600,286.986 18.454,286.861 17.800 C 286.663 16.767,286.087 16.414,284.588 16.406 C 283.835 16.402,283.155 16.093,282.792 15.589 C 282.467 15.138,281.542 14.672,280.704 14.538 C 279.877 14.406,279.200 14.141,279.200 13.949 C 279.200 13.757,279.065 13.645,278.900 13.700 C 278.735 13.755,278.566 13.620,278.524 13.400 C 278.426 12.889,277.012 12.491,275.114 12.440 C 274.076 12.412,273.502 12.164,273.209 11.617 C 272.959 11.150,272.188 10.735,271.295 10.587 C 269.280 10.253,267.568 9.576,267.799 9.202 C 268.029 8.830,266.021 8.400,264.050 8.400 C 263.081 8.399,262.215 8.068,261.438 7.400 C 260.460 6.559,259.869 6.400,257.714 6.400 C 256.305 6.400,255.242 6.256,255.350 6.081 C 255.978 5.065,254.710 4.597,251.115 4.517 C 247.816 4.443,247.319 4.334,246.679 3.547 C 245.927 2.621,245.127 2.486,239.567 2.347 C 237.303 2.291,235.486 1.315,237.367 1.166 C 237.605 1.147,237.260 0.951,236.600 0.730 C 235.134 0.240,178.322 -0.044,169.000 0.392 M217.644 11.807 C 222.259 12.129,226.788 12.677,228.644 13.137 C 230.380 13.568,233.111 14.040,234.713 14.186 C 236.316 14.332,238.476 14.701,239.513 15.006 C 240.551 15.311,242.553 15.744,243.963 15.968 C 245.373 16.192,247.443 16.729,248.563 17.161 C 249.683 17.593,251.770 18.236,253.200 18.589 C 258.627 19.930,259.848 20.306,261.484 21.141 C 262.410 21.613,263.442 22.000,263.776 22.000 C 264.577 22.000,269.301 23.807,271.700 25.031 C 272.745 25.564,273.813 26.000,274.074 26.000 C 275.232 26.000,294.195 35.495,296.000 36.978 C 296.330 37.249,297.860 38.161,299.400 39.005 C 300.940 39.848,302.650 40.843,303.200 41.215 C 303.750 41.588,305.190 42.548,306.400 43.349 C 325.748 56.165,344.312 74.872,357.854 95.200 C 359.100 97.070,360.543 99.240,361.060 100.022 C 361.577 100.803,362.001 101.613,362.001 101.822 C 362.002 102.030,362.407 102.830,362.901 103.600 C 365.743 108.034,372.997 122.273,374.005 125.400 C 374.289 126.280,374.793 127.418,375.126 127.930 C 375.795 128.959,377.407 133.313,378.038 135.800 C 378.262 136.680,378.681 137.762,378.969 138.205 C 379.553 139.100,381.321 144.712,381.993 147.800 C 382.233 148.900,382.765 150.700,383.177 151.800 C 384.008 154.019,385.820 162.558,386.199 166.041 C 386.333 167.274,386.715 169.164,387.047 170.241 C 389.805 179.181,389.892 217.801,387.180 229.000 C 386.754 230.760,386.303 233.100,386.178 234.200 C 385.747 237.998,383.938 246.160,382.676 250.000 C 382.350 250.990,381.585 253.690,380.975 256.000 C 380.365 258.310,379.547 260.830,379.158 261.600 C 378.768 262.370,378.179 263.900,377.848 265.000 C 376.791 268.511,375.616 271.554,374.798 272.896 C 374.361 273.613,374.002 274.432,374.001 274.716 C 373.999 275.515,369.039 285.632,365.919 291.200 C 360.093 301.599,357.214 306.227,353.325 311.448 C 352.486 312.574,350.900 314.723,349.800 316.223 C 348.700 317.723,347.530 319.238,347.200 319.590 C 346.870 319.942,345.046 322.023,343.147 324.215 C 333.932 334.848,322.000 345.743,310.857 353.697 C 304.956 357.909,301.942 359.796,297.525 362.044 C 296.714 362.456,295.938 362.977,295.800 363.200 C 295.662 363.423,294.886 363.936,294.075 364.339 C 293.264 364.743,291.700 365.575,290.600 366.188 C 289.500 366.801,287.160 368.009,285.400 368.870 C 282.156 370.459,281.632 370.726,280.200 371.517 C 279.760 371.760,278.230 372.431,276.800 373.007 C 275.370 373.583,273.300 374.473,272.200 374.984 C 269.086 376.430,264.857 378.000,264.077 378.000 C 263.688 378.000,262.656 378.377,261.785 378.838 C 260.142 379.707,256.763 380.738,251.600 381.946 C 249.950 382.332,248.189 382.871,247.687 383.145 C 247.185 383.418,245.304 383.900,243.507 384.216 C 241.710 384.532,239.691 384.967,239.020 385.182 C 238.349 385.397,236.210 385.766,234.267 386.002 C 232.324 386.238,229.264 386.779,227.467 387.205 C 217.377 389.597,181.592 389.467,172.160 387.005 C 170.862 386.666,168.322 386.220,166.516 386.014 C 164.710 385.808,162.490 385.440,161.581 385.195 C 160.673 384.950,158.517 384.502,156.790 384.198 C 155.062 383.895,153.143 383.388,152.525 383.072 C 151.906 382.756,150.491 382.305,149.379 382.070 C 146.441 381.448,140.535 379.701,139.498 379.146 C 139.007 378.883,137.614 378.348,136.403 377.957 C 132.027 376.546,129.762 375.689,128.202 374.852 C 127.327 374.383,126.463 374.000,126.281 374.000 C 125.245 374.000,108.130 365.452,104.800 363.271 C 104.250 362.911,102.649 362.020,101.243 361.291 C 99.837 360.563,98.217 359.601,97.643 359.154 C 97.069 358.707,95.520 357.634,94.200 356.771 C 80.251 347.648,63.852 332.583,53.304 319.200 C 51.483 316.890,49.667 314.640,49.267 314.200 C 47.892 312.685,42.177 304.176,39.999 300.400 C 38.963 298.604,38.434 297.734,37.301 295.965 C 36.058 294.025,33.349 288.881,30.261 282.600 C 26.609 275.170,26.000 273.821,26.000 273.163 C 26.000 272.841,25.705 272.157,25.345 271.644 C 24.605 270.587,23.051 266.486,22.145 263.200 C 21.812 261.990,21.302 260.630,21.011 260.178 C 20.495 259.373,19.964 257.626,18.651 252.400 C 18.292 250.970,17.559 248.360,17.023 246.600 C 15.863 242.795,14.512 236.344,14.174 233.000 C 14.040 231.680,13.511 228.440,12.997 225.800 C 10.838 214.696,10.841 185.263,13.002 174.200 C 13.517 171.560,14.061 168.320,14.209 167.000 C 14.617 163.377,16.680 153.795,17.327 152.522 C 17.640 151.905,18.019 150.558,18.168 149.529 C 18.318 148.499,18.791 146.659,19.220 145.439 C 19.649 144.218,20.000 142.940,20.000 142.597 C 20.000 142.254,20.424 141.124,20.942 140.087 C 21.460 139.049,22.003 137.570,22.149 136.800 C 22.446 135.229,23.631 131.999,25.010 129.000 C 25.516 127.900,26.300 126.100,26.752 125.000 C 27.940 122.107,28.738 120.338,29.367 119.200 C 29.672 118.650,30.583 116.850,31.393 115.200 C 33.323 111.268,36.481 105.434,37.051 104.745 C 37.300 104.445,37.978 103.186,38.559 101.946 C 39.140 100.706,40.107 99.053,40.707 98.272 C 41.308 97.492,42.340 95.926,43.000 94.793 C 43.660 93.660,44.436 92.480,44.724 92.171 C 45.012 91.862,45.874 90.680,46.638 89.543 C 47.403 88.407,48.481 86.920,49.035 86.238 C 49.588 85.557,51.397 83.290,53.056 81.200 C 60.781 71.463,71.597 60.621,81.200 52.986 C 83.290 51.325,85.360 49.645,85.800 49.253 C 86.662 48.486,90.332 45.904,93.952 43.519 C 95.188 42.704,96.740 41.664,97.400 41.208 C 100.117 39.329,101.568 38.465,102.459 38.194 C 102.976 38.037,103.760 37.586,104.200 37.192 C 104.640 36.799,105.630 36.188,106.400 35.835 C 107.170 35.482,108.700 34.673,109.800 34.038 C 111.843 32.857,115.492 30.985,118.000 29.830 C 118.770 29.476,119.850 28.936,120.400 28.631 C 120.950 28.325,122.390 27.671,123.600 27.177 C 124.810 26.682,126.880 25.783,128.200 25.177 C 129.520 24.572,132.578 23.416,134.995 22.609 C 137.412 21.801,139.572 20.997,139.795 20.823 C 140.300 20.426,148.839 18.000,149.730 18.000 C 150.090 18.000,151.513 17.570,152.892 17.044 C 155.537 16.036,160.343 14.989,166.000 14.188 C 167.870 13.924,171.200 13.337,173.400 12.885 C 175.894 12.372,180.563 11.895,185.800 11.618 C 190.420 11.374,194.920 11.112,195.800 11.036 C 198.261 10.823,208.938 11.200,217.644 11.807 M193.000 19.454 C 192.340 19.524,188.470 19.760,184.400 19.979 C 179.784 20.228,175.796 20.668,173.800 21.149 C 172.040 21.572,169.430 22.042,168.000 22.194 C 166.570 22.345,164.050 22.796,162.400 23.195 C 160.750 23.595,158.519 24.044,157.443 24.194 C 156.366 24.344,154.746 24.798,153.843 25.205 C 152.939 25.611,151.030 26.233,149.600 26.588 C 143.196 28.176,142.143 28.490,141.231 29.081 C 140.698 29.426,139.438 29.949,138.431 30.242 C 135.030 31.232,131.320 32.597,130.758 33.065 C 130.235 33.500,127.849 34.523,124.231 35.863 C 123.368 36.182,122.198 36.759,121.631 37.144 C 121.064 37.529,119.250 38.445,117.600 39.180 C 115.950 39.915,114.324 40.753,113.986 41.042 C 113.648 41.331,112.298 42.132,110.986 42.822 C 109.674 43.511,107.970 44.477,107.200 44.968 C 105.130 46.289,102.742 47.740,101.536 48.409 C 100.186 49.159,95.157 52.512,94.157 53.328 C 93.741 53.669,91.510 55.391,89.200 57.155 C 76.939 66.519,61.418 82.487,54.163 93.200 C 53.642 93.970,52.228 95.950,51.021 97.600 C 49.814 99.250,48.366 101.526,47.804 102.657 C 47.242 103.788,46.310 105.408,45.732 106.257 C 45.154 107.106,43.964 109.150,43.088 110.800 C 42.211 112.450,41.284 114.070,41.027 114.400 C 40.770 114.730,39.427 117.340,38.041 120.200 C 36.656 123.060,35.294 125.850,35.016 126.400 C 34.737 126.950,34.386 127.914,34.236 128.542 C 34.086 129.170,33.657 130.148,33.282 130.715 C 32.603 131.742,31.263 135.324,30.235 138.858 C 29.938 139.881,29.407 141.231,29.057 141.858 C 28.469 142.911,28.002 144.411,26.773 149.200 C 26.519 150.190,25.958 152.080,25.526 153.400 C 25.094 154.720,24.485 157.150,24.172 158.800 C 23.859 160.450,23.344 162.880,23.027 164.200 C 22.709 165.520,22.329 167.860,22.181 169.400 C 22.033 170.940,21.568 173.640,21.147 175.400 C 19.025 184.278,19.194 217.583,21.403 225.800 C 21.698 226.900,22.055 229.060,22.196 230.600 C 22.337 232.140,22.780 234.840,23.180 236.600 C 23.580 238.360,24.035 240.700,24.190 241.800 C 24.345 242.900,24.798 244.610,25.196 245.600 C 25.594 246.590,26.204 248.570,26.551 250.000 C 27.669 254.598,28.685 257.980,29.105 258.496 C 29.330 258.773,29.880 260.170,30.328 261.600 C 31.600 265.661,32.336 267.668,33.188 269.400 C 33.620 270.280,34.527 272.350,35.203 274.000 C 35.878 275.650,36.598 277.270,36.803 277.600 C 37.007 277.930,38.092 280.000,39.212 282.200 C 41.467 286.628,44.186 291.578,45.370 293.409 C 45.794 294.064,46.641 295.410,47.252 296.400 C 47.864 297.390,48.687 298.648,49.082 299.195 C 49.477 299.743,50.440 301.273,51.223 302.595 C 52.464 304.691,54.450 307.414,59.398 313.800 C 60.889 315.725,62.452 317.494,68.091 323.639 C 78.183 334.637,93.744 347.488,103.264 352.688 C 104.560 353.396,106.201 354.402,106.910 354.923 C 107.620 355.445,109.370 356.462,110.800 357.183 C 112.230 357.905,113.670 358.714,114.000 358.982 C 114.330 359.250,116.130 360.217,118.000 361.131 C 119.870 362.045,121.850 363.044,122.400 363.351 C 122.950 363.657,124.390 364.313,125.600 364.808 C 126.810 365.303,128.880 366.200,130.200 366.800 C 133.719 368.402,137.927 370.000,138.624 370.000 C 138.958 370.000,139.990 370.387,140.916 370.859 C 141.842 371.332,143.500 371.954,144.600 372.241 C 145.700 372.528,147.770 373.064,149.200 373.432 C 150.630 373.799,152.970 374.506,154.400 375.003 C 157.230 375.985,162.259 377.055,167.600 377.812 C 169.470 378.076,172.800 378.658,175.000 379.104 C 185.674 381.267,217.751 381.208,226.510 379.009 C 228.000 378.635,230.880 378.094,232.910 377.809 C 238.064 377.083,242.912 376.057,246.200 374.998 C 247.740 374.501,250.890 373.603,253.200 373.002 C 255.510 372.401,258.303 371.480,259.406 370.955 C 260.509 370.430,261.732 370.000,262.124 370.000 C 262.516 370.000,263.278 369.558,263.818 369.018 L 264.800 368.036 264.800 315.018 C 264.800 262.533,264.792 261.992,264.000 261.200 C 263.073 260.273,276.546 260.373,155.448 260.397 C 98.974 260.408,78.954 260.293,78.548 259.957 C 77.985 259.489,77.713 242.111,78.238 240.153 C 78.363 239.687,83.626 234.403,89.933 228.411 C 108.919 210.372,114.582 204.920,121.752 197.781 C 127.407 192.151,135.184 184.634,149.048 171.400 C 151.179 169.366,167.863 153.230,172.209 149.000 C 177.820 143.539,192.817 129.173,196.636 125.601 C 207.333 115.595,212.545 110.594,220.396 102.800 C 225.161 98.070,233.277 90.151,238.430 85.201 C 245.945 77.984,254.857 69.413,260.040 64.417 C 260.393 64.078,264.773 59.840,269.775 55.000 C 274.777 50.160,280.062 45.094,281.518 43.742 C 285.342 40.195,284.860 39.637,273.800 34.821 C 272.700 34.342,271.080 33.601,270.200 33.175 C 268.634 32.417,266.813 31.728,263.200 30.525 C 262.210 30.195,260.387 29.492,259.150 28.963 C 257.912 28.433,256.614 28.000,256.265 28.000 C 255.916 28.000,254.678 27.655,253.515 27.233 C 252.352 26.811,250.446 26.271,249.280 26.033 C 248.114 25.795,246.640 25.331,246.004 25.002 C 245.367 24.673,243.598 24.227,242.071 24.010 C 240.544 23.794,238.833 23.441,238.268 23.226 C 237.703 23.011,235.656 22.640,233.720 22.401 C 231.784 22.162,228.732 21.609,226.937 21.171 C 221.880 19.937,199.280 18.794,193.000 19.454 M202.945 37.451 C 203.801 37.753,204.793 38.001,205.150 38.002 C 207.697 38.007,217.591 45.213,217.598 47.067 C 217.601 47.869,209.232 56.724,197.630 68.193 C 192.917 72.853,192.913 72.867,195.843 75.487 C 200.639 79.778,209.371 81.275,215.200 78.806 C 220.680 76.485,225.600 68.970,225.600 62.919 C 225.600 60.780,225.942 60.267,227.635 59.864 C 233.130 58.555,230.170 72.287,223.543 78.846 C 217.973 84.360,208.951 87.331,203.800 85.349 C 202.920 85.011,201.170 84.476,199.910 84.161 C 196.311 83.261,192.159 80.509,188.032 76.287 C 185.477 73.673,184.597 72.562,182.416 69.200 C 175.237 58.130,180.868 41.426,193.002 37.797 C 197.928 36.324,199.586 36.266,202.945 37.451 M192.500 43.386 C 186.181 46.328,182.603 54.969,185.042 61.400 C 185.375 62.280,185.822 63.540,186.035 64.200 C 186.699 66.264,188.930 68.540,189.966 68.211 C 191.445 67.741,210.000 48.878,210.000 47.844 C 210.000 44.002,197.834 40.902,192.500 43.386 M149.460 55.252 C 150.510 56.161,152.996 58.487,154.985 60.421 C 156.973 62.355,160.130 65.414,162.000 67.218 C 163.870 69.023,170.339 75.292,176.375 81.149 C 182.412 87.007,189.747 94.122,192.675 96.960 C 198.554 102.657,198.838 103.223,196.831 105.231 C 195.365 106.696,194.878 106.692,193.000 105.200 C 190.632 103.318,190.002 103.920,189.996 108.074 C 189.994 109.943,189.737 111.120,189.009 112.600 C 188.468 113.700,188.019 114.807,188.013 115.059 C 187.988 115.950,182.169 121.445,179.800 122.813 L 177.400 124.200 171.533 124.200 C 166.192 124.200,165.564 124.124,164.525 123.356 C 163.898 122.892,162.938 122.374,162.392 122.205 C 156.999 120.535,147.443 111.428,144.549 105.200 C 143.986 103.990,143.281 102.537,142.982 101.970 C 141.327 98.838,141.322 90.540,142.974 87.995 C 143.476 87.222,144.008 86.204,144.158 85.734 C 144.668 84.124,150.695 78.400,151.879 78.400 C 152.013 78.400,153.040 77.967,154.161 77.438 C 155.283 76.908,157.100 76.353,158.200 76.204 C 162.890 75.568,163.452 76.503,151.482 65.029 C 143.298 57.185,143.090 56.848,145.169 54.769 C 146.705 53.233,147.191 53.288,149.460 55.252 M307.888 55.655 C 307.245 56.015,307.200 58.553,307.198 94.520 C 307.196 125.736,307.095 133.192,306.664 134.018 C 306.350 134.619,306.258 135.357,306.438 135.818 C 306.897 136.993,306.878 182.800,306.418 182.800 C 306.207 182.800,306.297 183.541,306.618 184.450 C 307.091 185.792,307.200 189.158,307.200 202.428 L 307.200 218.755 308.089 219.377 C 309.424 220.312,378.831 220.327,379.606 219.392 C 381.761 216.797,381.143 179.952,378.799 171.227 C 378.359 169.592,377.997 167.702,377.993 167.027 C 377.989 166.352,377.702 164.540,377.354 163.000 C 377.007 161.460,376.504 159.025,376.236 157.589 C 375.969 156.153,375.377 153.993,374.921 152.789 C 374.465 151.585,373.820 149.520,373.486 148.200 C 372.285 143.444,371.530 140.986,371.028 140.200 C 370.746 139.760,370.233 138.500,369.886 137.400 C 368.779 133.883,367.363 130.222,366.714 129.196 C 366.367 128.648,365.952 127.750,365.792 127.200 C 365.397 125.845,359.627 113.952,359.000 113.200 C 358.725 112.870,357.842 111.349,357.039 109.820 C 356.236 108.291,355.336 106.761,355.039 106.420 C 354.743 106.079,353.745 104.450,352.822 102.800 C 351.899 101.150,350.174 98.450,348.989 96.800 C 347.805 95.150,346.189 92.869,345.400 91.732 C 343.943 89.633,341.302 86.384,336.143 80.345 C 330.163 73.345,313.323 57.725,309.782 55.894 C 308.941 55.459,308.367 55.387,307.888 55.655 M156.200 81.393 C 145.044 87.212,144.569 98.321,155.000 109.486 C 166.493 121.787,179.105 122.194,184.900 110.450 C 186.245 107.724,186.511 100.998,185.369 98.591 C 184.601 96.973,169.818 82.590,167.515 81.220 C 164.571 79.470,159.745 79.543,156.200 81.393 M261.757 92.114 C 260.892 92.613,254.065 99.124,251.843 101.568 C 250.653 102.878,239.628 113.774,232.340 120.844 C 213.174 139.435,205.534 146.736,197.752 153.902 C 196.018 155.497,191.900 159.430,188.600 162.641 C 185.300 165.852,178.011 172.917,172.403 178.340 C 145.465 204.387,137.177 212.675,137.424 213.317 C 137.584 213.736,142.337 213.861,161.607 213.953 C 174.798 214.015,186.087 214.202,186.695 214.368 C 187.303 214.533,188.340 214.523,189.000 214.345 C 189.660 214.167,200.460 214.180,213.000 214.374 C 250.087 214.948,259.245 214.892,259.831 214.089 C 260.149 213.655,260.407 210.952,260.563 206.410 C 260.696 202.554,260.984 197.600,261.203 195.400 C 261.422 193.200,261.579 191.040,261.553 190.600 C 261.476 189.331,261.618 179.265,261.998 159.000 C 262.192 148.660,262.352 137.590,262.354 134.400 C 262.359 126.677,263.138 96.356,263.400 93.700 C 263.622 91.446,263.358 91.191,261.757 92.114 M131.200 113.469 C 141.533 115.504,152.296 126.252,154.565 136.800 C 158.361 154.450,139.092 168.842,122.738 160.571 C 117.841 158.094,111.173 152.033,108.908 148.000 C 108.353 147.010,107.552 145.701,107.130 145.091 C 104.231 140.902,104.113 128.478,106.942 125.242 C 107.251 124.889,107.787 124.040,108.133 123.355 C 111.824 116.062,122.070 111.671,131.200 113.469 M123.000 118.357 C 118.598 119.544,113.523 123.235,112.391 126.071 C 112.099 126.802,111.487 127.940,111.030 128.600 C 109.792 130.390,109.807 137.557,111.054 139.600 C 111.524 140.370,112.041 141.436,112.203 141.968 C 113.035 144.706,121.343 154.000,122.959 154.000 C 123.243 154.000,123.799 154.357,124.194 154.793 C 126.638 157.494,135.914 158.351,140.466 156.297 C 149.057 152.420,152.667 138.864,146.878 132.223 C 146.483 131.771,145.655 130.644,145.039 129.719 C 144.078 128.279,141.651 125.830,138.600 123.222 C 137.671 122.428,134.782 120.875,131.491 119.402 C 129.015 118.293,125.046 117.805,123.000 118.357 M83.054 141.440 C 84.624 141.947,86.584 142.821,87.410 143.381 C 88.236 143.941,89.062 144.400,89.246 144.400 C 91.205 144.400,90.764 147.862,88.638 149.177 L 87.265 150.025 83.254 147.969 L 79.242 145.913 75.205 145.913 C 65.976 145.913,56.371 155.551,56.407 164.777 C 56.418 167.700,59.902 177.540,61.112 178.068 C 61.278 178.141,62.094 179.136,62.926 180.280 C 68.000 187.257,78.870 196.053,85.200 198.304 C 92.043 200.737,95.260 200.418,102.021 196.637 C 108.100 193.237,113.314 183.068,111.474 178.200 C 111.141 177.320,110.592 175.858,110.254 174.950 C 109.915 174.043,109.081 172.355,108.399 171.198 C 106.679 168.281,107.402 165.897,110.269 165.029 C 111.185 164.751,113.078 166.975,114.008 169.422 C 114.235 170.017,114.752 170.976,115.157 171.552 C 116.006 172.757,116.801 176.873,116.797 180.033 C 116.779 193.095,104.118 205.803,91.200 205.724 C 86.348 205.694,77.961 202.697,74.749 199.844 C 73.731 198.940,72.111 197.626,71.149 196.924 C 69.141 195.460,58.400 184.917,58.400 184.412 C 58.400 184.227,57.814 183.374,57.097 182.516 C 56.381 181.659,55.360 180.067,54.829 178.979 C 54.297 177.890,53.500 176.286,53.057 175.412 C 44.134 157.843,64.043 135.296,83.054 141.440 M232.322 162.506 C 232.604 162.846,232.631 164.308,232.403 166.964 C 232.007 171.591,232.231 172.406,234.284 173.797 C 241.646 178.783,241.732 179.187,235.800 180.970 C 233.820 181.566,231.816 182.208,231.346 182.397 C 230.320 182.810,228.196 186.449,227.841 188.400 C 226.992 193.078,225.083 194.002,223.091 190.701 C 222.261 189.325,220.963 187.480,220.207 186.600 L 218.832 185.000 213.916 185.000 C 207.653 185.000,207.540 184.766,211.477 179.938 L 214.200 176.600 214.153 173.778 C 214.121 171.850,213.836 170.344,213.253 169.027 C 211.192 164.367,212.446 163.987,220.436 166.849 L 222.673 167.650 226.323 165.208 C 228.331 163.866,230.080 162.594,230.210 162.383 C 230.549 161.836,231.827 161.910,232.322 162.506 M318.113 260.400 C 305.629 260.658,307.031 258.934,306.878 274.214 C 306.804 281.643,306.607 286.400,306.373 286.400 C 306.162 286.400,306.262 287.052,306.595 287.849 C 307.115 289.095,307.200 293.152,307.200 316.822 C 307.200 344.214,307.204 344.347,308.020 344.606 C 309.191 344.978,310.797 343.827,319.217 336.583 C 327.408 329.536,340.308 315.667,345.124 308.730 C 345.631 307.999,346.781 306.410,347.678 305.200 C 348.576 303.990,349.545 302.446,349.832 301.768 C 350.119 301.091,350.628 300.309,350.964 300.030 C 351.299 299.752,352.214 298.379,352.997 296.980 C 353.779 295.580,354.575 294.339,354.766 294.221 C 354.957 294.103,355.870 292.520,356.794 290.703 C 357.719 288.887,358.710 287.130,358.996 286.800 C 359.283 286.470,360.195 284.760,361.023 283.000 C 361.851 281.240,362.749 279.530,363.018 279.200 C 363.287 278.870,364.184 276.890,365.013 274.800 C 365.842 272.710,366.745 270.730,367.021 270.400 C 367.297 270.070,367.793 268.900,368.124 267.800 C 368.455 266.700,369.026 265.099,369.392 264.243 C 370.197 262.362,369.914 260.887,368.694 260.608 C 367.420 260.317,329.655 260.162,318.113 260.400 M165.600 281.982 C 173.315 282.591,178.708 285.322,182.592 290.585 C 188.106 298.058,187.439 312.358,181.281 318.696 C 175.780 324.359,171.206 325.616,155.077 325.900 C 145.769 326.063,143.444 326.213,142.977 326.680 C 142.496 327.161,142.400 329.575,142.400 341.149 C 142.400 351.420,142.275 355.165,141.920 355.520 C 141.385 356.055,137.680 356.165,136.898 355.669 C 136.500 355.416,136.417 347.774,136.498 318.793 L 136.600 282.236 137.600 281.958 C 139.086 281.545,160.290 281.563,165.600 281.982 M229.225 281.996 C 234.123 282.402,238.219 283.610,240.490 285.319 C 244.774 288.542,247.633 292.036,248.201 294.742 C 248.355 295.480,248.843 296.899,249.283 297.895 C 250.179 299.919,250.225 307.744,249.348 308.844 C 249.104 309.150,248.677 310.120,248.398 311.000 C 247.088 315.142,242.939 319.936,239.102 321.741 C 235.525 323.423,234.800 325.569,236.989 327.988 C 237.308 328.340,238.132 329.702,238.822 331.014 C 239.511 332.326,240.478 334.030,240.970 334.800 C 243.484 338.735,244.000 339.614,244.000 339.961 C 244.000 340.169,244.417 340.847,244.926 341.469 C 245.436 342.091,246.447 343.770,247.174 345.200 C 247.900 346.630,248.752 348.094,249.066 348.452 C 249.380 348.811,250.009 349.801,250.463 350.652 C 250.917 351.504,251.552 352.695,251.874 353.300 C 252.934 355.294,252.504 355.786,249.586 355.916 C 246.422 356.057,245.783 355.527,243.181 350.600 C 242.251 348.840,241.290 347.150,241.045 346.844 C 240.600 346.288,238.347 342.438,235.170 336.800 C 234.240 335.150,233.257 333.530,232.986 333.200 C 232.714 332.870,231.799 331.267,230.952 329.637 C 228.623 325.156,228.762 325.203,217.989 325.201 C 210.479 325.200,208.830 325.304,208.089 325.823 L 207.200 326.445 207.200 340.334 C 207.200 356.623,207.342 356.000,203.626 356.000 C 200.114 356.000,200.384 359.205,200.498 318.768 L 200.600 282.624 201.600 282.118 C 202.829 281.496,222.161 281.411,229.225 281.996 M144.126 287.180 C 142.467 287.892,142.400 288.545,142.400 304.125 C 142.400 317.589,142.467 319.157,143.064 319.651 C 143.595 320.090,146.133 320.197,155.764 320.184 L 167.800 320.169 170.961 318.637 C 184.696 311.983,182.733 291.188,168.045 287.745 C 164.939 287.017,145.574 286.560,144.126 287.180 M208.100 287.686 L 207.200 288.652 207.200 303.936 L 207.200 319.220 208.300 319.641 C 209.009 319.912,213.030 320.005,219.600 319.902 C 230.547 319.729,230.116 319.800,235.600 317.260 C 243.463 313.617,245.918 300.002,239.960 293.083 C 235.716 288.155,232.463 287.208,218.800 286.924 L 209.000 286.721 208.100 287.686 " stroke="none" fill="#2db4d4" fill-rule="evenodd"></path><path id="path2" d="M160.848 0.801 C 158.602 1.331,158.501 2.178,160.668 2.324 C 162.630 2.456,163.837 1.841,162.832 1.220 C 162.403 0.954,162.498 0.830,163.235 0.691 L 164.200 0.509 163.200 0.495 C 162.650 0.488,161.592 0.625,160.848 0.801 M236.800 0.770 C 237.350 0.963,237.605 1.138,237.367 1.160 C 235.759 1.308,237.195 2.298,239.041 2.315 C 242.498 2.346,241.515 1.071,237.751 0.642 C 236.367 0.484,236.090 0.521,236.800 0.770 M245.593 2.696 C 245.919 2.824,246.511 3.342,246.908 3.846 C 247.582 4.703,248.800 4.778,248.800 3.963 C 248.800 3.579,246.179 2.381,245.451 2.432 C 245.203 2.449,245.267 2.568,245.593 2.696 M152.100 3.212 C 151.068 3.627,150.931 4.211,151.788 4.540 C 152.385 4.769,153.600 3.851,153.600 3.171 C 153.600 2.725,153.291 2.734,152.100 3.212 M143.280 5.280 C 142.542 6.018,142.705 6.400,143.757 6.400 C 144.284 6.400,144.811 6.148,144.930 5.839 C 145.328 4.802,144.156 4.404,143.280 5.280 M255.310 5.600 C 255.351 6.149,255.657 6.400,256.285 6.400 C 257.298 6.400,257.450 6.010,256.720 5.280 C 255.982 4.542,255.243 4.710,255.310 5.600 M137.410 7.448 C 137.053 7.804,136.843 8.176,136.942 8.275 C 137.181 8.514,138.800 7.493,138.800 7.104 C 138.800 6.591,138.091 6.766,137.410 7.448 M261.200 7.104 C 261.200 7.493,262.819 8.514,263.058 8.275 C 263.296 8.038,262.048 6.800,261.571 6.800 C 261.367 6.800,261.200 6.937,261.200 7.104 M131.060 9.387 C 130.936 9.710,131.035 10.098,131.279 10.249 C 131.548 10.415,131.611 10.341,131.438 10.062 C 131.281 9.808,131.343 9.600,131.576 9.600 C 131.809 9.600,132.000 9.420,132.000 9.200 C 132.000 8.588,131.315 8.724,131.060 9.387 M267.836 9.142 C 267.720 9.329,268.075 9.688,268.625 9.939 C 269.554 10.362,269.595 10.337,269.198 9.597 C 268.749 8.757,268.189 8.570,267.836 9.142 M120.500 13.311 C 120.005 13.537,119.600 13.875,119.600 14.061 C 119.600 14.662,121.217 14.421,121.462 13.783 C 121.786 12.939,121.558 12.827,120.500 13.311 M278.191 13.215 C 277.965 13.581,278.244 13.751,278.900 13.647 C 279.065 13.621,279.200 13.780,279.200 14.000 C 279.200 14.220,279.470 14.400,279.800 14.400 C 280.725 14.400,280.511 13.779,279.414 13.279 C 278.796 12.998,278.340 12.974,278.191 13.215 M112.334 16.853 C 111.083 17.312,110.558 18.332,111.407 18.658 C 112.321 19.009,113.200 18.510,113.200 17.642 C 113.200 17.211,113.515 16.776,113.900 16.676 C 114.371 16.553,114.403 16.488,114.000 16.478 C 113.670 16.470,112.920 16.639,112.334 16.853 M286.254 16.706 C 286.503 16.868,286.776 17.360,286.859 17.800 C 286.961 18.336,287.328 18.600,287.972 18.600 C 289.494 18.600,289.421 17.651,287.848 16.994 C 286.346 16.367,285.491 16.212,286.254 16.706 M107.944 19.587 C 107.013 20.362,107.012 20.374,107.853 20.387 C 108.377 20.395,108.787 20.091,108.916 19.600 C 109.175 18.611,109.117 18.610,107.944 19.587 M291.184 19.570 C 291.428 20.026,291.902 20.400,292.238 20.400 C 292.993 20.400,292.627 19.750,291.547 19.172 C 290.813 18.779,290.780 18.815,291.184 19.570 M294.300 20.665 C 294.575 20.776,294.800 21.217,294.800 21.646 C 294.800 22.511,295.681 23.008,296.593 22.658 C 297.488 22.314,296.893 21.311,295.508 20.828 C 294.294 20.405,293.334 20.275,294.300 20.665 M103.900 21.076 C 103.515 21.176,103.200 21.618,103.200 22.057 C 103.200 23.230,104.957 22.905,105.128 21.700 C 105.257 20.791,105.166 20.745,103.900 21.076 M94.032 26.906 C 92.850 27.509,92.401 28.537,93.406 28.338 C 93.790 28.262,94.373 27.795,94.701 27.300 C 95.388 26.263,95.343 26.237,94.032 26.906 M305.494 27.039 C 305.047 27.487,305.683 28.400,306.443 28.400 C 307.310 28.400,307.415 27.975,306.720 27.280 C 306.187 26.747,305.852 26.681,305.494 27.039 M89.941 29.068 C 88.908 29.342,88.755 30.626,89.746 30.701 C 90.593 30.765,91.183 30.194,91.194 29.300 C 91.200 28.787,91.080 28.765,89.941 29.068 M308.999 29.201 C 308.588 29.867,309.305 30.782,310.181 30.710 C 310.815 30.657,311.029 30.434,310.904 29.955 C 310.711 29.217,309.327 28.670,308.999 29.201 M87.192 31.410 C 86.419 32.341,86.971 32.517,87.798 31.602 C 88.197 31.161,88.338 30.800,88.111 30.800 C 87.884 30.800,87.470 31.074,87.192 31.410 M311.600 31.157 C 311.600 31.354,311.885 31.624,312.233 31.757 C 313.211 32.133,313.341 32.051,312.800 31.400 C 312.248 30.735,311.600 30.604,311.600 31.157 M84.156 33.192 C 83.691 33.380,83.202 33.818,83.068 34.167 C 82.934 34.515,82.571 34.800,82.262 34.800 C 81.394 34.800,80.587 35.947,81.096 36.456 C 81.392 36.752,81.792 36.509,82.434 35.639 C 82.938 34.958,83.656 34.400,84.029 34.400 C 84.402 34.400,84.801 34.040,84.916 33.600 C 85.031 33.160,85.097 32.811,85.063 32.825 C 85.028 32.839,84.620 33.004,84.156 33.192 M315.333 33.800 C 315.333 34.130,315.438 34.414,315.567 34.431 C 315.695 34.447,316.113 34.521,316.495 34.594 C 317.064 34.704,317.116 34.590,316.781 33.964 C 316.295 33.056,315.333 32.947,315.333 33.800 M317.494 35.039 C 317.047 35.487,317.683 36.400,318.443 36.400 C 319.310 36.400,319.415 35.975,318.720 35.280 C 318.187 34.747,317.852 34.681,317.494 35.039 M78.075 37.616 C 77.002 38.616,76.981 38.782,77.963 38.526 C 78.383 38.416,78.816 37.983,78.926 37.563 C 79.174 36.615,79.148 36.616,78.075 37.616 M321.062 37.417 C 321.190 37.750,321.629 38.201,322.038 38.420 C 323.058 38.966,322.673 37.963,321.607 37.297 C 320.956 36.890,320.867 36.910,321.062 37.417 M325.102 40.666 C 325.379 40.777,325.526 40.997,325.429 41.153 C 325.105 41.678,325.789 42.275,327.000 42.523 C 327.660 42.658,327.975 42.670,327.700 42.551 C 327.425 42.431,327.200 42.074,327.200 41.757 C 327.200 41.440,326.738 41.005,326.174 40.790 C 325.146 40.399,324.157 40.284,325.102 40.666 M73.311 41.300 C 72.510 42.336,72.407 42.728,72.958 42.647 C 73.785 42.526,74.825 41.564,74.572 41.155 C 74.264 40.656,73.765 40.714,73.311 41.300 M63.275 50.000 C 62.696 50.660,61.992 51.200,61.711 51.200 C 61.430 51.200,61.200 51.474,61.200 51.809 C 61.200 52.143,60.760 52.618,60.222 52.863 C 58.385 53.700,58.500 55.461,60.346 54.754 C 61.034 54.491,61.234 54.173,61.081 53.587 C 60.955 53.107,61.058 52.804,61.335 52.838 C 62.461 52.976,62.800 52.736,62.800 51.800 C 62.800 51.000,63.000 50.800,63.800 50.800 C 64.600 50.800,64.800 50.600,64.800 49.800 C 64.800 48.508,64.556 48.540,63.275 50.000 M335.200 49.859 C 335.200 50.696,335.352 50.853,336.000 50.684 C 336.899 50.449,337.437 51.052,337.265 52.100 C 337.180 52.615,337.421 52.800,338.175 52.800 C 338.739 52.800,339.179 52.935,339.153 53.100 C 338.968 54.269,339.286 54.800,340.172 54.800 C 340.876 54.800,341.180 55.049,341.272 55.700 C 341.353 56.270,341.721 56.646,342.275 56.725 C 342.821 56.802,343.198 57.179,343.275 57.725 C 343.353 58.270,343.730 58.647,344.276 58.725 C 344.889 58.812,345.189 59.172,345.276 59.925 C 345.371 60.748,345.611 60.993,346.300 60.968 C 346.991 60.944,347.200 61.158,347.200 61.893 C 347.200 62.582,347.396 62.818,347.900 62.735 C 348.948 62.563,349.551 63.101,349.316 64.000 C 349.147 64.648,349.304 64.800,350.141 64.800 C 351.391 64.800,351.216 63.965,349.766 63.015 C 349.235 62.667,348.800 62.116,348.800 61.791 C 348.800 61.466,348.526 61.200,348.191 61.200 C 347.857 61.200,347.379 60.753,347.131 60.208 C 346.882 59.662,346.346 59.110,345.939 58.981 C 345.533 58.852,345.200 58.484,345.200 58.164 C 345.200 57.845,344.750 57.378,344.200 57.127 C 343.650 56.877,343.200 56.427,343.200 56.127 C 343.200 55.828,342.753 55.379,342.208 55.131 C 341.662 54.882,341.118 54.373,341.000 54.000 C 340.882 53.627,340.338 53.118,339.792 52.869 C 339.247 52.621,338.800 52.143,338.800 51.809 C 338.800 51.474,338.534 51.200,338.209 51.200 C 337.884 51.200,337.333 50.765,336.985 50.234 C 336.035 48.784,335.200 48.609,335.200 49.859 M57.516 55.419 C 57.012 56.024,56.578 56.453,55.386 57.529 C 54.515 58.314,54.674 58.800,55.800 58.800 C 56.600 58.800,56.800 58.600,56.800 57.800 C 56.800 57.000,57.000 56.800,57.800 56.800 C 58.600 56.800,58.800 56.600,58.800 55.800 C 58.800 54.664,58.275 54.508,57.516 55.419 M53.760 59.106 C 53.518 59.268,53.106 59.805,52.846 60.300 C 52.585 60.795,52.108 61.200,51.786 61.200 C 51.464 61.200,51.200 61.466,51.200 61.791 C 51.200 62.116,50.750 62.676,50.200 63.037 C 49.000 63.823,48.889 64.800,50.000 64.800 C 50.587 64.800,50.800 64.533,50.800 63.800 C 50.800 63.000,51.000 62.800,51.800 62.800 C 52.736 62.800,52.976 62.461,52.838 61.335 C 52.804 61.058,53.107 60.955,53.587 61.081 C 54.174 61.234,54.489 61.035,54.749 60.346 C 55.260 58.993,54.797 58.413,53.760 59.106 M41.739 72.988 C 40.609 73.779,40.151 75.361,41.217 74.791 C 42.020 74.361,42.534 73.684,42.653 72.900 C 42.748 72.277,42.754 72.276,41.739 72.988 M357.600 73.413 C 357.600 73.749,357.915 74.141,358.300 74.283 C 358.685 74.425,359.132 74.735,359.294 74.971 C 359.463 75.219,359.590 75.053,359.594 74.580 C 359.601 73.652,358.895 72.800,358.120 72.800 C 357.834 72.800,357.600 73.076,357.600 73.413 M38.200 77.506 C 37.040 78.359,36.785 79.092,37.711 78.915 C 38.289 78.804,38.629 78.455,38.629 77.970 C 38.629 77.546,38.622 77.203,38.614 77.206 C 38.606 77.209,38.420 77.344,38.200 77.506 M361.603 78.100 C 361.605 78.375,362.048 78.805,362.588 79.055 C 363.563 79.507,363.565 79.503,362.885 78.568 C 362.128 77.526,361.598 77.332,361.603 78.100 M35.192 81.410 C 34.419 82.341,34.971 82.517,35.798 81.602 C 36.197 81.161,36.338 80.800,36.111 80.800 C 35.884 80.800,35.470 81.074,35.192 81.410 M364.000 81.049 C 364.000 81.254,364.360 81.730,364.800 82.107 C 365.240 82.484,365.600 82.642,365.600 82.458 C 365.600 82.274,365.240 81.798,364.800 81.400 C 364.360 81.002,364.000 80.844,364.000 81.049 M33.326 83.900 C 33.189 84.285,33.014 84.718,32.938 84.863 C 32.861 85.007,33.159 85.031,33.599 84.916 C 34.043 84.800,34.400 84.370,34.400 83.953 C 34.400 83.005,33.658 82.968,33.326 83.900 M365.600 83.967 C 365.600 84.458,365.858 84.800,366.229 84.800 C 366.602 84.800,366.806 84.528,366.729 84.133 C 366.535 83.130,365.600 82.992,365.600 83.967 M367.605 86.479 C 367.602 86.633,368.056 87.251,368.614 87.853 C 369.172 88.455,369.529 89.207,369.408 89.525 C 369.119 90.278,369.906 91.211,370.604 90.943 C 370.904 90.828,371.043 90.456,370.913 90.117 C 370.635 89.394,367.612 86.069,367.605 86.479 M31.192 87.410 C 30.419 88.341,30.971 88.517,31.798 87.602 C 32.197 87.161,32.338 86.800,32.111 86.800 C 31.884 86.800,31.470 87.074,31.192 87.410 M29.943 89.068 C 29.050 89.305,28.684 91.158,29.564 90.986 C 29.914 90.917,30.333 90.847,30.496 90.831 C 30.658 90.814,30.754 90.350,30.708 89.800 C 30.663 89.250,30.620 88.821,30.613 88.846 C 30.606 88.872,30.304 88.971,29.943 89.068 M263.429 93.300 C 263.170 94.926,262.393 125.376,262.411 133.200 L 262.424 139.000 270.312 147.067 C 279.413 156.376,294.426 171.844,298.800 176.421 C 302.407 180.194,305.439 182.800,306.224 182.800 C 307.005 182.800,307.060 137.230,306.282 135.575 C 306.017 135.011,304.630 133.471,303.200 132.153 C 301.770 130.834,298.980 128.065,297.000 125.999 C 295.020 123.932,292.860 121.691,292.200 121.018 C 287.928 116.660,275.474 103.426,273.928 101.600 C 270.437 97.477,264.935 92.000,264.285 92.000 C 263.862 92.000,263.564 92.453,263.429 93.300 M371.600 92.854 C 371.600 93.521,372.764 95.224,372.793 94.600 C 372.804 94.380,372.987 94.470,373.200 94.800 C 373.540 95.326,373.589 95.323,373.594 94.770 C 373.597 94.423,373.150 93.717,372.600 93.200 C 371.872 92.516,371.600 92.422,371.600 92.854 M27.280 93.280 C 26.737 93.823,26.635 94.800,27.120 94.800 C 27.618 94.800,28.400 93.896,28.400 93.320 C 28.400 92.669,27.908 92.652,27.280 93.280 M374.370 96.942 C 375.418 98.086,375.600 98.190,375.600 97.646 C 375.600 97.451,375.105 96.975,374.500 96.588 L 373.400 95.885 374.370 96.942 M377.491 103.322 C 377.179 104.249,377.684 105.123,378.636 105.305 C 379.752 105.518,379.740 105.544,379.146 104.241 C 378.630 103.108,377.731 102.610,377.491 103.322 M21.200 103.567 C 21.200 103.769,21.091 104.219,20.957 104.567 C 20.774 105.045,20.971 105.200,21.757 105.200 C 22.603 105.200,22.800 105.011,22.800 104.200 C 22.800 103.467,22.587 103.200,22.000 103.200 C 21.560 103.200,21.200 103.365,21.200 103.567 M379.736 107.333 C 379.881 107.736,380.000 108.187,380.000 108.336 C 380.000 108.486,380.384 108.847,380.853 109.141 C 381.684 109.659,381.683 109.638,380.783 108.337 C 379.587 106.607,379.416 106.442,379.736 107.333 M19.711 107.700 C 18.826 108.844,18.801 109.125,19.599 108.916 C 20.043 108.800,20.400 108.370,20.400 107.953 C 20.400 107.072,20.242 107.013,19.711 107.700 M17.722 111.080 C 17.167 111.280,16.205 113.939,16.560 114.293 C 16.692 114.425,16.800 114.233,16.800 113.867 C 16.800 113.422,17.133 113.200,17.800 113.200 C 18.594 113.200,18.800 112.998,18.800 112.224 C 18.800 111.163,18.469 110.811,17.722 111.080 M381.387 111.221 C 380.938 111.947,381.625 113.111,382.613 113.300 C 383.673 113.503,383.828 113.173,383.211 112.021 C 382.740 111.140,381.715 110.691,381.387 111.221 M13.259 120.630 C 12.847 121.536,12.875 121.644,13.495 121.526 C 13.883 121.452,14.258 120.989,14.328 120.496 C 14.501 119.279,13.837 119.363,13.259 120.630 M385.895 120.564 C 385.996 121.094,386.400 121.611,386.793 121.714 C 387.465 121.890,387.468 121.834,386.853 120.753 C 386.056 119.351,385.648 119.271,385.895 120.564 M9.060 131.387 C 8.936 131.710,9.035 132.098,9.279 132.249 C 9.548 132.415,9.611 132.341,9.438 132.062 C 9.281 131.808,9.343 131.600,9.576 131.600 C 9.809 131.600,10.000 131.420,10.000 131.200 C 10.000 130.588,9.315 130.724,9.060 131.387 M390.000 131.111 C 390.000 131.282,390.360 131.730,390.800 132.107 C 391.692 132.871,391.976 132.136,391.120 131.280 C 390.575 130.735,390.000 130.648,390.000 131.111 M7.448 137.410 C 6.766 138.091,6.591 138.800,7.104 138.800 C 7.493 138.800,8.514 137.181,8.275 136.942 C 8.176 136.843,7.804 137.053,7.448 137.410 M392.000 137.538 C 392.000 137.724,392.375 138.215,392.833 138.630 C 393.665 139.383,393.666 139.382,393.169 138.292 C 392.698 137.257,392.000 136.807,392.000 137.538 M5.295 143.300 C 5.074 143.575,4.781 144.430,4.644 145.200 C 4.445 146.322,4.473 146.421,4.785 145.700 C 4.999 145.205,5.450 144.800,5.787 144.800 C 6.174 144.800,6.400 144.432,6.400 143.800 C 6.400 142.716,5.935 142.506,5.295 143.300 M393.875 143.079 C 393.598 143.526,394.477 144.975,395.100 145.100 C 395.375 145.155,395.600 144.958,395.600 144.662 C 395.600 143.974,394.146 142.640,393.875 143.079 M3.190 152.226 C 2.709 153.492,2.707 153.600,3.171 153.600 C 3.851 153.600,4.769 152.385,4.540 151.788 C 4.198 150.896,3.625 151.082,3.190 152.226 M395.725 151.851 C 395.564 152.270,395.817 152.760,396.432 153.224 C 397.666 154.155,397.809 153.964,397.019 152.437 C 396.291 151.029,396.078 150.932,395.725 151.851 M1.477 159.380 C 0.873 159.984,0.168 163.501,0.570 163.903 C 0.696 164.030,0.803 163.698,0.806 163.167 C 0.810 162.606,0.936 162.392,1.106 162.656 C 1.604 163.429,2.214 162.366,2.344 160.500 C 2.471 158.651,2.356 158.501,1.477 159.380 M397.890 159.500 C 397.563 160.123,398.466 163.245,398.928 163.091 C 399.625 162.859,399.736 161.694,399.187 160.368 C 398.716 159.231,398.209 158.892,397.890 159.500 M399.693 167.200 C 399.693 167.970,399.775 168.285,399.876 167.900 C 399.976 167.515,399.976 166.885,399.876 166.500 C 399.775 166.115,399.693 166.430,399.693 167.200 M261.427 191.874 C 261.285 192.245,260.989 197.150,260.769 202.774 C 260.536 208.758,260.182 213.373,259.917 213.900 L 259.465 214.800 248.399 214.800 C 242.313 214.800,237.229 214.904,237.102 215.032 C 236.755 215.379,238.910 218.403,240.661 220.027 C 241.508 220.812,243.742 223.062,245.627 225.027 C 252.079 231.754,269.246 249.646,269.923 250.350 C 296.133 277.594,304.925 286.400,305.919 286.400 C 306.749 286.400,306.758 286.280,306.878 274.164 L 307.000 261.928 307.944 261.164 C 308.812 260.462,309.627 260.400,318.012 260.400 C 326.941 260.400,328.400 260.282,328.400 259.557 C 328.400 259.360,325.909 256.634,322.864 253.500 C 319.820 250.365,315.100 245.460,312.377 242.600 C 309.654 239.740,304.615 234.610,301.179 231.200 C 294.667 224.736,277.698 207.196,273.200 202.280 C 264.579 192.859,261.943 190.529,261.427 191.874 M138.698 213.924 C 137.398 214.175,137.990 215.040,143.007 220.225 C 147.562 224.934,151.268 228.795,166.393 244.587 C 169.138 247.454,172.852 251.330,174.644 253.200 C 176.436 255.070,178.674 257.410,179.616 258.400 L 181.329 260.200 205.165 260.314 C 228.837 260.427,230.800 260.369,230.800 259.567 C 230.800 259.232,220.909 248.715,211.800 239.363 C 202.760 230.083,200.332 227.630,199.162 226.596 C 198.413 225.933,195.394 222.873,192.452 219.796 L 187.105 214.200 182.452 214.104 C 174.010 213.929,139.410 213.787,138.698 213.924 M399.701 233.000 C 399.705 233.880,399.787 234.193,399.883 233.695 C 399.979 233.198,399.975 232.478,399.875 232.095 C 399.775 231.713,399.696 232.120,399.701 233.000 M0.642 237.751 C 1.066 241.467,2.449 242.613,2.291 239.117 C 2.209 237.308,1.272 235.773,1.160 237.267 C 1.138 237.560,0.963 237.350,0.770 236.800 C 0.521 236.090,0.484 236.367,0.642 237.751 M398.200 237.316 C 397.751 237.859,397.654 240.586,398.068 241.001 C 398.215 241.149,398.634 240.815,398.997 240.261 C 400.076 238.614,399.349 235.927,398.200 237.316 M2.446 245.251 C 2.384 246.132,3.524 248.800,3.963 248.800 C 4.787 248.800,4.700 247.579,3.826 246.892 C 3.310 246.486,2.799 245.805,2.691 245.377 C 2.545 244.806,2.480 244.773,2.446 245.251 M396.972 246.355 C 397.092 246.550,396.846 246.799,396.424 246.910 C 396.003 247.020,395.699 247.395,395.751 247.743 C 395.922 248.913,396.336 248.883,396.971 247.657 C 397.713 246.220,397.741 246.000,397.176 246.000 C 396.943 246.000,396.851 246.160,396.972 246.355 M4.617 254.800 C 4.911 256.365,5.715 257.423,6.324 257.047 C 6.837 256.730,6.453 255.200,5.890 255.314 C 5.656 255.361,5.215 254.950,4.910 254.400 C 4.368 253.425,4.360 253.435,4.617 254.800 M394.344 255.572 C 393.563 256.210,393.491 256.434,393.927 256.872 C 394.497 257.444,395.600 256.423,395.600 255.324 C 395.600 254.632,395.461 254.659,394.344 255.572 M392.623 261.574 C 392.235 262.003,391.995 262.585,392.090 262.869 C 392.198 263.193,392.530 262.974,392.985 262.279 C 393.854 260.953,393.612 260.481,392.623 261.574 M6.800 261.571 C 6.800 262.048,8.038 263.296,8.275 263.058 C 8.514 262.819,7.493 261.200,7.104 261.200 C 6.937 261.200,6.800 261.367,6.800 261.571 M9.067 267.867 C 8.599 268.334,8.777 268.759,9.630 269.216 C 10.407 269.632,10.429 269.600,9.976 268.730 C 9.351 267.530,9.378 267.555,9.067 267.867 M386.717 278.500 C 386.367 278.775,385.958 279.450,385.807 280.000 C 385.543 280.968,385.566 280.962,386.553 279.800 C 387.912 278.199,388.001 277.490,386.717 278.500 M13.273 279.400 C 13.778 280.509,14.400 280.730,14.400 279.800 C 14.400 279.470,14.209 279.200,13.976 279.200 C 13.743 279.200,13.664 279.020,13.800 278.800 C 13.936 278.580,13.770 278.400,13.432 278.400 C 12.921 278.400,12.894 278.569,13.273 279.400 M384.629 282.629 C 383.771 283.486,383.839 283.714,384.800 283.200 C 385.240 282.965,385.600 282.598,385.600 282.386 C 385.600 281.842,385.353 281.904,384.629 282.629 M16.406 286.113 C 16.389 287.009,17.654 289.249,18.094 289.102 C 18.941 288.820,18.706 287.031,17.800 286.859 C 17.360 286.776,16.868 286.503,16.706 286.254 C 16.544 286.004,16.409 285.941,16.406 286.113 M381.613 288.304 L 381.625 289.800 382.613 288.678 C 383.851 287.270,383.849 286.995,382.600 286.892 C 381.695 286.817,381.601 286.951,381.613 288.304 M19.172 291.547 C 19.750 292.627,20.400 292.993,20.400 292.238 C 20.400 291.902,20.026 291.428,19.570 291.184 C 18.815 290.780,18.779 290.813,19.172 291.547 M380.000 291.567 C 380.000 291.769,379.886 292.264,379.746 292.667 C 379.523 293.311,379.570 293.303,380.133 292.600 C 380.876 291.673,380.967 291.200,380.400 291.200 C 380.180 291.200,380.000 291.365,380.000 291.567 M20.432 294.040 C 20.234 295.541,22.198 297.792,22.658 296.593 C 23.008 295.681,22.511 294.800,21.646 294.800 C 21.217 294.800,20.776 294.575,20.665 294.300 C 20.554 294.025,20.449 293.908,20.432 294.040 M377.498 295.300 C 376.849 297.032,378.272 297.376,379.154 295.700 C 379.584 294.884,379.538 294.800,378.657 294.800 C 378.123 294.800,377.601 295.025,377.498 295.300 M374.440 302.849 C 373.234 304.144,373.403 304.545,374.663 303.377 C 375.247 302.835,375.625 302.292,375.503 302.170 C 375.381 302.047,374.902 302.353,374.440 302.849 M26.800 305.720 C 26.800 306.296,27.582 307.200,28.080 307.200 C 28.674 307.200,28.405 305.688,27.767 305.443 C 26.887 305.105,26.800 305.130,26.800 305.720 M372.523 305.625 C 371.997 305.824,371.670 306.268,371.705 306.735 C 371.776 307.674,372.644 307.439,373.244 306.319 C 373.769 305.337,373.632 305.205,372.523 305.625 M29.342 309.078 C 28.684 309.309,29.149 310.693,29.955 310.904 C 30.434 311.029,30.657 310.815,30.710 310.181 C 30.785 309.270,30.182 308.784,29.342 309.078 M369.740 309.297 C 369.583 309.552,369.435 310.206,369.411 310.752 C 369.387 311.298,369.148 311.817,368.879 311.907 C 368.611 311.996,368.199 312.428,367.965 312.865 C 367.577 313.590,367.615 313.620,368.392 313.204 C 368.861 312.953,369.354 312.444,369.487 312.074 C 369.619 311.703,370.059 311.078,370.464 310.684 C 370.869 310.291,371.200 309.815,371.200 309.627 C 371.200 309.061,370.047 308.801,369.740 309.297 M30.800 311.951 C 30.800 312.144,31.070 312.526,31.400 312.800 C 32.051 313.341,32.133 313.211,31.757 312.233 C 31.500 311.563,30.800 311.357,30.800 311.951 M33.200 315.847 C 33.200 316.129,33.483 316.519,33.829 316.712 C 34.176 316.906,34.671 317.486,34.929 318.001 C 35.535 319.206,36.400 319.498,36.400 318.498 C 36.400 318.065,35.962 317.529,35.398 317.272 C 34.846 317.020,34.417 316.677,34.445 316.507 C 34.571 315.732,34.352 315.333,33.800 315.333 C 33.470 315.333,33.200 315.564,33.200 315.847 M366.100 315.488 C 365.499 315.703,365.426 316.800,366.013 316.800 C 366.425 316.800,367.031 315.679,366.749 315.438 C 366.667 315.367,366.375 315.390,366.100 315.488 M364.467 317.646 C 363.538 317.997,363.443 318.814,364.298 319.099 C 364.707 319.236,365.839 317.688,365.532 317.412 C 365.460 317.347,364.980 317.452,364.467 317.646 M362.500 321.070 C 362.005 321.415,361.600 321.856,361.600 322.049 C 361.600 322.686,362.189 322.391,362.919 321.387 C 363.749 320.246,363.717 320.221,362.500 321.070 M37.297 321.607 C 37.963 322.673,38.966 323.058,38.420 322.038 C 38.201 321.629,37.750 321.190,37.417 321.062 C 36.910 320.867,36.890 320.956,37.297 321.607 M40.715 325.870 C 40.820 326.418,41.197 326.973,41.553 327.104 C 41.909 327.235,42.336 327.535,42.501 327.771 C 42.667 328.007,42.725 327.750,42.631 327.200 C 42.537 326.650,42.446 326.094,42.430 325.964 C 42.413 325.835,41.978 325.536,41.463 325.301 C 40.599 324.908,40.540 324.952,40.715 325.870 M358.160 325.665 C 357.433 326.841,357.640 327.671,358.516 327.091 C 359.586 326.381,359.874 325.333,358.999 325.333 C 358.650 325.333,358.273 325.483,358.160 325.665 M49.036 335.748 C 49.163 336.080,49.702 336.637,50.234 336.985 C 50.765 337.333,51.200 337.884,51.200 338.209 C 51.200 338.534,51.474 338.800,51.809 338.800 C 52.143 338.800,52.621 339.247,52.869 339.792 C 53.118 340.338,53.627 340.882,54.000 341.000 C 54.373 341.118,54.882 341.662,55.131 342.208 C 55.379 342.753,55.828 343.200,56.127 343.200 C 56.427 343.200,56.877 343.650,57.127 344.200 C 57.378 344.750,57.845 345.200,58.164 345.200 C 58.484 345.200,58.852 345.533,58.981 345.939 C 59.110 346.346,59.662 346.882,60.208 347.131 C 60.753 347.379,61.200 347.857,61.200 348.191 C 61.200 348.526,61.466 348.800,61.791 348.800 C 62.116 348.800,62.667 349.235,63.015 349.766 C 63.918 351.145,64.891 351.447,64.728 350.298 C 64.657 349.804,64.330 349.395,64.000 349.389 C 62.976 349.371,62.466 348.833,62.684 348.000 C 62.851 347.361,62.696 347.200,61.915 347.200 C 61.157 347.200,60.944 346.997,60.968 346.300 C 60.993 345.611,60.748 345.371,59.925 345.276 C 59.172 345.189,58.812 344.889,58.725 344.276 C 58.647 343.730,58.270 343.353,57.725 343.275 C 57.179 343.198,56.802 342.821,56.725 342.275 C 56.646 341.721,56.270 341.353,55.700 341.272 C 55.049 341.180,54.800 340.876,54.800 340.172 C 54.800 339.286,54.269 338.968,53.100 339.153 C 52.935 339.179,52.800 338.729,52.800 338.153 C 52.800 337.304,52.649 337.146,52.000 337.316 C 51.167 337.534,50.629 337.024,50.611 336.000 C 50.605 335.670,50.196 335.343,49.702 335.272 C 49.038 335.178,48.864 335.302,49.036 335.748 M349.384 335.627 C 349.239 335.861,349.226 336.160,349.356 336.290 C 349.826 336.759,348.751 337.512,347.922 337.296 C 347.206 337.108,347.110 337.211,347.304 337.953 C 347.494 338.681,347.332 338.874,346.367 339.067 C 345.483 339.243,345.200 339.523,345.200 340.222 C 345.200 340.874,344.936 341.182,344.300 341.272 C 343.709 341.356,343.400 341.675,343.400 342.200 C 343.400 343.274,344.503 343.222,344.984 342.125 C 345.196 341.643,345.704 341.162,346.114 341.054 C 346.524 340.947,346.955 340.492,347.073 340.043 C 347.190 339.594,347.600 339.127,347.982 339.006 C 348.365 338.884,348.882 338.338,349.131 337.792 C 349.379 337.247,349.760 336.800,349.977 336.800 C 350.194 336.800,350.565 336.440,350.800 336.000 C 351.273 335.116,349.919 334.760,349.384 335.627 M341.334 343.827 C 340.972 344.772,341.823 345.445,342.583 344.814 C 342.922 344.532,343.200 344.054,343.200 343.751 C 343.200 342.991,341.631 343.055,341.334 343.827 M339.127 346.300 C 339.023 347.204,338.830 347.376,338.044 347.265 C 337.247 347.153,337.125 347.269,337.307 347.965 C 337.533 348.830,337.036 349.371,336.000 349.389 C 335.670 349.395,335.341 349.819,335.268 350.331 C 335.150 351.161,335.226 351.214,335.968 350.817 C 336.426 350.572,336.800 350.194,336.800 349.977 C 336.800 349.760,337.247 349.379,337.792 349.131 C 338.338 348.882,338.876 348.389,338.989 348.036 C 339.101 347.682,339.598 347.214,340.094 346.996 C 341.415 346.415,341.525 345.200,340.256 345.200 C 339.459 345.200,339.227 345.426,339.127 346.300 M326.843 357.548 C 326.316 357.695,325.737 358.217,325.556 358.708 C 325.188 359.701,325.541 359.857,326.443 359.100 C 327.069 358.575,328.205 357.171,327.949 357.240 C 327.867 357.262,327.369 357.400,326.843 357.548 M72.800 358.210 C 72.800 358.818,74.721 359.812,75.122 359.411 C 75.238 359.295,75.123 359.200,74.867 359.200 C 74.610 359.200,74.400 358.840,74.400 358.400 C 74.400 357.867,74.133 357.600,73.600 357.600 C 73.150 357.600,72.800 357.867,72.800 358.210 M77.438 361.754 C 77.781 362.649,79.139 363.253,78.919 362.413 C 78.813 362.007,78.396 361.588,77.993 361.482 C 77.545 361.365,77.329 361.470,77.438 361.754 M321.600 361.520 C 321.600 361.784,321.240 362.360,320.800 362.800 C 319.766 363.834,320.312 363.813,321.564 362.771 C 322.295 362.162,322.416 361.856,322.064 361.504 C 321.712 361.152,321.600 361.156,321.600 361.520 M80.800 363.902 C 80.800 364.122,81.070 364.526,81.400 364.800 C 81.735 365.078,82.000 365.121,82.000 364.898 C 82.000 364.678,81.730 364.274,81.400 364.000 C 81.065 363.722,80.800 363.679,80.800 363.902 M318.184 364.427 C 318.039 364.661,318.016 364.949,318.133 365.067 C 318.420 365.353,319.200 364.848,319.200 364.376 C 319.200 363.865,318.509 363.899,318.184 364.427 M83.040 365.939 C 83.894 366.936,84.800 367.070,84.800 366.200 C 84.800 365.870,84.545 365.600,84.233 365.600 C 83.921 365.600,83.359 365.482,82.984 365.339 C 82.378 365.106,82.384 365.172,83.040 365.939 M315.570 365.313 C 315.109 366.669,315.261 367.195,316.000 366.800 C 316.951 366.291,317.028 365.773,316.200 365.455 C 315.870 365.329,315.587 365.264,315.570 365.313 M86.800 367.951 C 86.800 368.144,87.070 368.526,87.400 368.800 C 88.051 369.341,88.133 369.211,87.757 368.233 C 87.500 367.563,86.800 367.357,86.800 367.951 M312.184 368.427 C 312.039 368.661,312.016 368.949,312.133 369.067 C 312.420 369.353,313.200 368.848,313.200 368.376 C 313.200 367.865,312.509 367.899,312.184 368.427 M89.467 369.467 C 88.952 369.981,89.208 370.709,89.974 370.909 C 90.764 371.116,91.406 370.256,90.978 369.564 C 90.715 369.139,89.850 369.083,89.467 369.467 M309.265 369.721 C 308.727 370.370,309.286 371.295,310.041 371.006 C 310.358 370.884,310.816 370.465,311.060 370.075 C 311.604 369.204,309.963 368.880,309.265 369.721 M92.800 371.991 C 92.800 372.517,94.759 373.775,95.079 373.454 C 95.219 373.314,95.123 373.200,94.867 373.200 C 94.610 373.200,94.421 373.065,94.447 372.900 C 94.587 372.016,94.316 371.600,93.600 371.600 C 93.160 371.600,92.800 371.776,92.800 371.991 M305.553 372.100 C 305.527 372.375,305.527 372.735,305.553 372.900 C 305.579 373.065,305.390 373.200,305.133 373.200 C 304.877 373.200,304.762 373.295,304.878 373.411 C 305.279 373.812,307.200 372.818,307.200 372.210 C 307.200 371.480,305.621 371.375,305.553 372.100 M96.400 373.943 C 96.400 374.497,97.556 375.601,98.129 375.594 C 98.429 375.590,98.454 375.481,98.196 375.294 C 97.974 375.132,97.479 374.672,97.096 374.271 C 96.713 373.871,96.400 373.723,96.400 373.943 M302.791 374.413 C 302.479 374.846,301.963 375.200,301.645 375.200 C 301.327 375.200,301.173 375.306,301.303 375.437 C 301.698 375.832,303.110 375.211,303.372 374.528 C 303.738 373.575,303.437 373.516,302.791 374.413 M103.064 377.496 C 102.603 378.242,105.291 380.043,105.922 379.411 C 106.038 379.295,105.936 379.200,105.694 379.200 C 105.453 379.200,105.198 378.795,105.128 378.300 C 104.999 377.392,103.491 376.805,103.064 377.496 M294.952 377.781 C 294.705 378.425,295.056 379.200,295.595 379.200 C 296.173 379.200,297.224 377.962,296.980 377.568 C 296.622 376.989,295.198 377.139,294.952 377.781 M107.399 379.998 C 107.966 380.916,109.293 381.321,108.816 380.430 C 108.572 379.974,108.098 379.600,107.762 379.600 C 107.427 379.600,107.263 379.779,107.399 379.998 M291.384 380.027 C 290.915 380.786,291.599 380.973,292.295 380.276 C 292.919 379.653,292.920 379.600,292.309 379.600 C 291.945 379.600,291.529 379.792,291.384 380.027 M111.081 381.453 C 110.681 381.852,111.565 383.200,112.227 383.200 C 113.051 383.200,113.442 381.999,112.758 381.566 C 112.097 381.147,111.431 381.102,111.081 381.453 M286.952 381.781 C 286.829 382.100,286.836 382.535,286.967 382.747 C 287.098 382.958,286.979 383.235,286.702 383.362 C 286.426 383.489,286.650 383.485,287.200 383.353 C 288.475 383.048,289.373 382.204,289.024 381.638 C 288.631 381.003,287.213 381.100,286.952 381.781 M117.200 385.000 C 117.474 385.330,117.991 385.579,118.349 385.554 C 118.898 385.514,118.891 385.479,118.300 385.324 C 117.915 385.224,117.600 384.975,117.600 384.771 C 117.600 384.567,117.398 384.400,117.151 384.400 C 116.841 384.400,116.856 384.585,117.200 385.000 M119.600 385.904 C 119.600 386.322,121.228 387.305,121.488 387.045 C 121.932 386.601,121.187 385.600,120.413 385.600 C 119.966 385.600,119.600 385.737,119.600 385.904 M278.600 386.400 C 278.460 386.840,278.058 387.200,277.706 387.200 C 277.355 387.200,277.194 387.327,277.349 387.482 C 277.679 387.813,280.400 386.434,280.400 385.937 C 280.400 385.235,278.843 385.636,278.600 386.400 M131.009 389.985 C 130.629 390.601,131.785 391.627,132.776 391.554 C 133.314 391.514,133.311 391.484,132.753 391.334 C 132.396 391.239,131.933 390.776,131.723 390.305 C 131.429 389.646,131.264 389.572,131.009 389.985 M137.043 392.169 C 137.283 392.794,138.390 393.344,138.728 393.005 C 138.950 392.783,137.618 391.635,137.113 391.613 C 136.954 391.606,136.923 391.856,137.043 392.169 M261.992 392.210 C 261.714 392.545,261.597 392.931,261.733 393.067 C 262.024 393.357,263.200 392.463,263.200 391.951 C 263.200 391.400,262.548 391.540,261.992 392.210 M142.800 393.951 C 142.800 394.523,143.722 395.119,145.002 395.374 C 145.944 395.561,146.029 395.532,145.400 395.234 C 144.960 395.026,144.748 394.844,144.929 394.828 C 145.109 394.813,144.987 394.530,144.657 394.200 C 144.005 393.547,142.800 393.386,142.800 393.951 M255.380 393.968 C 255.505 394.170,255.314 394.629,254.955 394.988 C 254.353 395.590,254.390 395.619,255.452 395.364 C 257.536 394.865,258.055 393.600,256.176 393.600 C 255.613 393.600,255.255 393.765,255.380 393.968 M151.200 395.986 C 151.200 396.456,152.783 397.350,153.084 397.050 C 153.202 396.931,153.192 396.557,153.062 396.217 C 152.806 395.550,151.200 395.351,151.200 395.986 M246.916 396.400 C 246.801 396.840,246.413 397.214,246.053 397.232 C 245.683 397.249,245.605 397.347,245.873 397.456 C 246.459 397.695,248.800 396.522,248.800 395.990 C 248.800 395.229,247.127 395.593,246.916 396.400 M159.052 398.192 C 159.284 398.795,161.550 399.599,163.000 399.592 C 163.663 399.588,163.697 399.521,163.200 399.200 C 162.870 398.987,162.780 398.802,163.000 398.790 C 163.798 398.747,160.683 397.600,159.767 397.600 C 159.100 397.600,158.891 397.773,159.052 398.192 M237.840 398.064 C 237.954 398.249,237.756 398.400,237.400 398.400 C 237.044 398.400,236.855 398.565,236.979 398.766 C 237.103 398.967,236.979 399.239,236.702 399.369 C 236.426 399.500,237.082 399.515,238.160 399.403 C 241.379 399.068,242.477 397.545,239.416 397.661 C 238.435 397.698,237.726 397.880,237.840 398.064 " stroke="none" fill="#da374f" fill-rule="evenodd"></path></g></svg>