<?xml version="1.0" encoding="UTF-8" standalone="no"?>
<svg
   xmlns:dc="http://purl.org/dc/elements/1.1/"
   xmlns:cc="http://creativecommons.org/ns#"
   xmlns:rdf="http://www.w3.org/1999/02/22-rdf-syntax-ns#"
   xmlns:svg="http://www.w3.org/2000/svg"
   xmlns="http://www.w3.org/2000/svg"
   xmlns:sodipodi="http://sodipodi.sourceforge.net/DTD/sodipodi-0.dtd"
   xmlns:inkscape="http://www.inkscape.org/namespaces/inkscape"
   viewBox="-100 0 120 60"
   width="120"
   height="60"
   version="1.1"
   id="svg14"
   sodipodi:docname="msu_x.svg"
   inkscape:version="1.0.2 (e86c8708, 2021-01-15)">
  <metadata
     id="metadata20">
    <rdf:RDF>
      <cc:Work
         rdf:about="">
        <dc:format>image/svg+xml</dc:format>
        <dc:type
           rdf:resource="http://purl.org/dc/dcmitype/StillImage" />
        <dc:title></dc:title>
      </cc:Work>
    </rdf:RDF>
  </metadata>
  <defs
     id="defs18" />
  <sodipodi:namedview
     pagecolor="#ffffff"
     bordercolor="#666666"
     borderopacity="1"
     objecttolerance="10"
     gridtolerance="10"
     guidetolerance="10"
     inkscape:pageopacity="0"
     inkscape:pageshadow="2"
     inkscape:window-width="1440"
     inkscape:window-height="900"
     id="namedview16"
     showgrid="false"
     inkscape:pagecheckerboard="true"
     inkscape:zoom="6.2333333"
     inkscape:cx="56.618373"
     inkscape:cy="37.860963"
     inkscape:window-x="0"
     inkscape:window-y="0"
     inkscape:window-maximized="0"
     inkscape:current-layer="svg14" />
  <g
     id="g80"
     transform="matrix(1.5411522,0,0,1.1651091,22.133975,-4.7258732)">
    <rect
       style="fill:#ffffff;stroke-width:0.74527"
       id="rect64"
       width="77.967918"
       height="51.497326"
       x="-79.144386"
       y="4.3315501" />
    <g
       id="g74"
       transform="translate(-0.31668036,-58.347364)">
      <path
         d="m -29.059127,65.389381 -2.264758,4.816598 c -3.732066,-1.722492 -8.644358,-1.945778 -12.791098,0.47847 -2.71133,1.690594 -4.94419,4.657108 -5.167476,7.846908 -0.0638,2.137166 0.829348,4.433822 0.542266,6.570988 -0.0638,1.148328 -0.31898,2.264758 -0.893144,3.253596 -0.701756,1.148328 -1.499206,2.137166 -2.87082,2.200962 0.287082,-0.382776 2.424248,-1.43541 1.626798,-6.22011 -0.382776,-1.91388 -2.966514,-6.602886 -0.446572,-12.472118 2.296656,-5.358864 12.28073,-11.770362 22.264804,-6.475294 z m -11.451382,9.473706 c 1.27592,-0.47847 2.743228,-0.47847 4.114842,-0.15949 2.615636,0.47847 4.529516,2.009574 5.486456,4.338128 0.988838,2.424248 1.690594,4.370026 3.413086,6.475294 0.0319,0.0638 -2.647534,-0.414674 -2.647534,-0.47847 0.669858,-4.816598 -3.891556,-5.007986 -5.167476,-3.1898 0.95694,1.020736 2.583738,1.5949 3.82776,1.371614 -0.255184,4.7847 1.052634,9.122828 0.988838,9.122828 -1.11643,-0.15949 -6.06062,-3.062208 -7.527928,-4.338128 -2.137166,0.382776 -3.82776,1.180226 -6.283906,1.499206 -0.0638,0.0319 0.446572,-1.786288 0.382776,-2.743228 0,-2.488044 -1.91388,-4.848496 -0.542266,-7.942602 0.79745,-1.881982 2.041472,-3.285494 3.955352,-3.955352 z m 1.786288,-1.467308 a 3.3588594,3.3588594 0 0 1 0.382776,0.0319 c 0.0319,-0.15949 0.191388,-1.371614 1.212124,-2.200962 1.148328,-0.95694 2.615636,-0.893144 2.615636,-0.893144 -1.467308,-0.446572 -2.998412,-0.47847 -4.082944,-0.382776 z m -9.441808,4.338128 c -0.223286,1.43541 -0.255184,2.743228 -0.09569,3.444984 0,0 0.223286,-1.212124 0.925042,-1.91388 0.63796,-0.574164 1.371614,-0.733654 1.658696,-0.701756 0,0 0.15949,-0.47847 0.09569,-0.47847 z m 2.87082,-0.255184 c 0.0638,-0.191388 0.15949,-0.382776 0.287082,-0.574164 l -2.647534,-0.988838 c -0.15949,0.31898 -0.287082,0.829348 -0.31898,1.11643 z m 0.63796,-1.020736 0.446572,-0.510368 -2.424248,-1.786288 c -0.255184,0.31898 -0.47847,0.669858 -0.63796,1.020736 z m 0.861246,-0.95694 c 0.0319,-0.0319 0.542266,-0.47847 0.542266,-0.47847 l -2.105268,-2.360452 c -0.47847,0.414674 -0.63796,0.574164 -0.925042,0.95694 z m 1.11643,-0.79745 c 0,0.0319 0.63796,-0.31898 0.63796,-0.382776 l -1.531104,-2.838922 c -0.574164,0.287082 -0.95694,0.574164 -1.148328,0.701756 z m 1.180226,-0.63796 0.733654,-0.255184 -0.893144,-3.157902 -1.307818,0.510368 z m 1.27592,-0.446572 c 0.0319,0.0319 0.669858,-0.15949 0.669858,-0.15949 l 0.0638,-3.413086 c -0.0319,0.0319 -0.79745,0.15949 -1.467308,0.31898 z"
         fill="#18453b"
         id="path70"
         style="stroke-width:0.31898" />
      <path
         d="m -76.877456,108.6966 v 2.93344 c 0,0.50287 0.167624,1.17337 1.047655,1.17337 0.796217,0 1.089561,-0.54478 1.089561,-1.25719 v -2.89152 c 0,-0.16763 -0.08381,-0.25144 -0.167625,-0.33525 h 0.754312 c -0.08381,0.0419 -0.167625,0.16762 -0.167625,0.33525 v 2.89152 c 0,1.21528 -0.670499,1.67625 -1.592436,1.67625 -0.796218,0 -1.76006,-0.37715 -1.76006,-1.59243 v -2.93344 c 0,-0.16762 -0.125719,-0.25144 -0.209531,-0.33525 h 1.299092 c -0.167625,0.0838 -0.293343,0.16763 -0.293343,0.33525 z m 11.314674,0 c 0,-0.16762 -0.08381,-0.25144 -0.167625,-0.33525 h 0.754311 c -0.08381,0.0419 -0.167624,0.16763 -0.167624,0.33525 v 4.65159 l -3.184872,-4.02299 v 3.52012 c 0,0.16762 0.08381,0.25143 0.167625,0.33525 h -0.754311 c 0.08381,-0.0838 0.167624,-0.16763 0.167624,-0.33525 v -3.77156 c 0,-0.29335 0,-0.29335 -0.125718,-0.46097 -0.08381,-0.0838 -0.167625,-0.16763 -0.293344,-0.25144 h 1.131468 l 2.472466,3.10106 z m 7.082147,-0.29334 c -0.125718,0.0419 -0.167624,0.16762 -0.167624,0.33525 v 4.14871 c 0,0.16763 0.04191,0.25144 0.167624,0.33525 h -1.215279 c 0.125718,-0.0838 0.167624,-0.16762 0.167624,-0.33525 v -4.14871 c 0,-0.16763 -0.08381,-0.25144 -0.167624,-0.33525 z m 8.129803,0.33525 c 0.04191,-0.16763 0.04191,-0.29335 -0.125718,-0.33525 h 0.796217 c -0.167624,0.12572 -0.167624,0.16762 -0.251437,0.33525 -0.125718,0.29334 -1.718154,4.60968 -1.718154,4.60968 l -1.885779,-4.60968 c -0.08381,-0.12572 -0.167625,-0.25144 -0.377156,-0.33525 h 1.466717 c -0.167625,0.0838 -0.167625,0.20953 -0.125718,0.37715 0,0.0838 1.131467,2.97534 1.131467,2.97534 z m 8.087897,0.29334 c -0.125719,-0.16762 -0.251437,-0.25144 -0.502875,-0.25144 h -1.131467 v 1.63435 h 1.005749 c 0.08381,0 0.209531,-0.12572 0.251437,-0.20953 v 0.75431 c -0.04191,-0.0838 -0.167625,-0.20953 -0.251437,-0.20953 h -1.005749 v 2.0534 l 0.88003,0.0419 c 0.586687,0 0.838124,0 1.089561,-0.46097 l -0.125718,0.79622 h -2.891528 c 0.125719,-0.0838 0.209531,-0.16763 0.209531,-0.33525 v -4.14872 c 0,-0.16762 -0.08381,-0.25144 -0.209531,-0.33525 h 2.681997 z m 7.333585,1.71816 c 0.460968,0.0419 0.670499,0.37715 0.754311,0.54478 l 1.047655,1.63434 c 0.125719,0.16762 0.419062,0.29334 0.419062,0.29334 h -0.88003 c -0.251437,0 -0.460968,-0.16762 -0.586687,-0.33525 l -0.838124,-1.341 c -0.167624,-0.29334 -0.335249,-0.58668 -0.628593,-0.58668 h -0.293343 v 1.92768 c 0,0.16763 0.08381,0.25144 0.167625,0.33525 h -1.173374 c 0.125719,-0.0838 0.167625,-0.16762 0.167625,-0.33525 v -4.14871 c 0,-0.16763 -0.08381,-0.25144 -0.167625,-0.33525 h 1.424811 c 1.382905,0 1.676248,0.7124 1.676248,1.17337 0.04191,0.75431 -0.628593,1.13147 -1.089561,1.17338 z m -1.005749,-2.0115 v 1.84387 h 0.293343 c 0.460969,0 0.921937,-0.25144 0.921937,-0.96384 0,-0.33525 -0.167625,-0.88003 -0.838124,-0.88003 z m 10.560362,3.01724 c 0,0.88003 -0.754311,1.46672 -1.550529,1.46672 -0.628593,0 -1.047655,-0.20953 -1.299092,-0.33525 l -0.04191,-1.17337 c 0.125718,0.50287 0.54478,1.17337 1.215279,1.17337 0.6705,0 0.880031,-0.50287 0.880031,-0.83812 0,-0.6705 -0.586687,-0.75431 -1.173374,-1.13147 -0.628593,-0.37716 -0.88003,-0.75431 -0.88003,-1.25719 0,-0.96384 0.838124,-1.34099 1.466717,-1.34099 0.209531,0 0.670499,0.0419 1.005749,0.25143 l 0.04191,1.04766 c -0.08381,-0.37716 -0.460968,-0.92194 -1.131468,-0.92194 -0.502874,0 -0.712405,0.37716 -0.712405,0.6705 0,0.41906 0.293343,0.58669 0.921936,0.88003 0.586687,0.33525 1.257186,0.54478 1.257186,1.50862 z m 6.411649,-3.35249 c -0.125719,0.0419 -0.167625,0.16762 -0.167625,0.33525 v 4.14871 c 0,0.16763 0.04191,0.25144 0.167625,0.33525 h -1.21528 c 0.125719,-0.0838 0.167625,-0.16762 0.167625,-0.33525 v -4.14871 c 0,-0.16763 -0.08381,-0.25144 -0.167625,-0.33525 z m 7.249773,0.33525 v 4.10681 c 0,0.16762 0.08381,0.25143 0.167625,0.33525 h -1.173374 c 0.125718,-0.0838 0.167625,-0.16763 0.167625,-0.33525 v -4.10681 l -1.047655,0.0419 c -0.167625,0 -0.293344,0.16763 -0.33525,0.29335 v -0.6705 h 3.64584 v 0.6705 a 0.50706502,0.50706502 0 0 0 -0.293344,-0.29335 c -0.04191,0 -0.628593,-0.0419 -1.131467,-0.0419 z m 9.8479568,-0.33525 a 0.90936454,0.90936454 0 0 0 -0.4609682,0.41906 l -1.047655,2.13722 v 1.88578 c 0,0.16762 0.1257186,0.25143 0.2514372,0.33525 h -1.3409984 c 0.083812,-0.0838 0.209531,-0.16763 0.209531,-0.33525 v -1.88578 l -1.2990922,-2.26294 a 0.65373672,0.65373672 0 0 0 -0.3352496,-0.33525 h 1.5086232 c -0.1676248,0.0838 -0.2933434,0.12572 -0.1257186,0.41906 l 0.9219364,1.71816 0.8800302,-1.80197 c 0.083812,-0.16762 0.041906,-0.29334 -0.1257186,-0.33525 h 0.9638426 z M -72.770649,97.340026 h 1.55053 a 0.419062,0.419062 0 0 0 -0.251438,0.419062 v 5.783052 a 0.419062,0.419062 0 0 0 0.251438,0.41906 h -1.676248 a 0.419062,0.419062 0 0 0 0.251437,-0.41906 v -5.112556 l -0.08381,0.20953 -2.221028,5.489716 -2.262935,-5.322086 -0.08381,-0.25144 v 5.028746 a 0.419062,0.419062 0 0 0 0.251437,0.41906 h -1.047655 c 0.125718,-0.0838 0.251437,-0.20953 0.251437,-0.41906 v -5.783056 c 0,-0.167625 -0.167625,-0.377156 -0.293343,-0.419062 h 1.634341 l 1.843873,4.483958 z m 4.777307,0 a 0.419062,0.419062 0 0 0 -0.251437,0.419062 v 5.783052 a 0.419062,0.419062 0 0 0 0.251437,0.41906 h -1.676248 a 0.419062,0.419062 0 0 0 0.251437,-0.41906 v -5.783052 c 0,-0.209531 -0.08381,-0.377156 -0.251437,-0.419062 z m 7.082148,1.927688 c -0.586687,-1.341001 -1.634342,-1.508626 -2.09531,-1.508626 -1.592436,0 -2.472466,1.215276 -2.472466,2.807712 0,1.341 0.628593,2.97534 2.556278,2.97534 0.419062,0 1.466717,-0.16763 2.09531,-1.50862 0,-0.0419 -0.08381,1.42481 -0.08381,1.42481 -0.754312,0.46097 -1.592436,0.62859 -2.346747,0.62859 -1.843873,0 -3.436309,-1.29909 -3.436309,-3.3944 0,-1.718156 1.21528,-3.436307 3.562027,-3.436307 0.754312,0 1.466717,0.167625 2.179123,0.502875 -0.04191,0 0.08381,1.550526 0.04191,1.508626 z m 5.447806,-1.927688 h 1.676248 a 0.419062,0.419062 0 0 0 -0.251437,0.419062 v 5.783052 a 0.419062,0.419062 0 0 0 0.251437,0.41906 h -1.676248 a 0.419062,0.419062 0 0 0 0.251437,-0.41906 v -2.97534 h -2.891528 v 2.97534 a 0.419062,0.419062 0 0 0 0.251437,0.41906 h -1.676248 a 0.419062,0.419062 0 0 0 0.251438,-0.41906 v -5.783052 c 0,-0.209531 -0.08381,-0.377156 -0.251438,-0.419062 h 1.676248 a 0.419062,0.419062 0 0 0 -0.251437,0.419062 v 2.304832 h 2.891528 v -2.304832 a 0.4609682,0.4609682 0 0 0 -0.251437,-0.419062 z m 4.861119,0 a 0.419062,0.419062 0 0 0 -0.251437,0.419062 v 5.783052 a 0.419062,0.419062 0 0 0 0.251437,0.41906 h -1.676248 a 0.419062,0.419062 0 0 0 0.251437,-0.41906 v -5.783052 c 0,-0.209531 -0.08381,-0.377156 -0.251437,-0.419062 z m 7.040242,0.419062 0.08381,1.550526 c -0.460968,-1.340995 -1.634342,-1.550526 -2.09531,-1.550526 -1.592436,0 -2.472466,1.215276 -2.472466,2.807712 0,1.341 0.628593,2.97534 2.556278,2.97534 0.209531,0 0.754312,0 1.173374,-0.33525 v -1.67625 c 0,-0.20953 -0.08381,-0.37715 -0.251437,-0.46097 h 1.676248 c -0.125719,0.0838 -0.251437,0.20953 -0.251437,0.46097 v 1.46672 c 0,0.20953 0.08381,0.37715 0.167624,0.41906 -0.796217,0.46097 -2.09531,0.71241 -2.849621,0.71241 -1.843873,0 -3.478215,-1.2991 -3.478215,-3.39441 0,-1.718146 1.21528,-3.4363 3.603933,-3.4363 0.712406,-0.04191 1.424811,0.125718 2.137217,0.460968 z m 6.788804,5.783052 c 0.08381,0.20953 0.167625,0.29334 0.460968,0.46097 h -2.011497 c 0.251437,-0.12572 0.293343,-0.29335 0.209531,-0.46097 -0.04191,-0.0838 -0.251438,-0.71241 -0.544781,-1.341 h -2.262935 c -0.293343,0.6705 -0.502874,1.25719 -0.502874,1.341 -0.08381,0.25144 -0.04191,0.37716 0.209531,0.50287 h -1.257186 c 0.251437,-0.16762 0.335249,-0.29334 0.419062,-0.46096 0.167625,-0.37716 2.598184,-6.369743 2.598184,-6.369743 z m -2.053404,-1.88578 c -0.419062,-1.08956 -0.963842,-2.388646 -0.963842,-2.388646 l -0.921937,2.388646 z m 7.752647,-3.855366 c 0,-0.209531 -0.08381,-0.377156 -0.251437,-0.419062 h 1.047655 c -0.125719,0.08381 -0.251437,0.209531 -0.251437,0.419062 v 6.495456 l -4.442057,-5.615426 v 4.903026 a 0.419062,0.419062 0 0 0 0.251437,0.41906 h -1.047655 c 0.125718,-0.0838 0.251437,-0.20953 0.251437,-0.41906 v -5.238276 c 0,-0.377155 0,-0.377155 -0.167625,-0.628592 -0.08381,-0.125719 -0.209531,-0.251438 -0.419062,-0.377156 h 1.592436 l 3.436308,4.316334 z m 8.38124,4.232526 c 0,1.21528 -1.005749,2.0534 -2.179122,2.0534 -0.838124,0 -1.466717,-0.29334 -1.760061,-0.46097 l -0.04191,-1.63434 c 0.167625,0.71241 0.712406,1.59244 1.718154,1.59244 0.921937,0 1.21528,-0.71241 1.21528,-1.17338 0,-0.92193 -0.796218,-1.04765 -1.634342,-1.55053 -0.838124,-0.50287 -1.215279,-1.005746 -1.215279,-1.760056 0,-1.340996 1.173373,-1.843871 2.011497,-1.843871 0.33525,0 0.921937,0.08381 1.382905,0.377156 l 0.04191,1.466715 c -0.125719,-0.50287 -0.670499,-1.29909 -1.550529,-1.29909 -0.712406,0 -0.963843,0.50287 -0.963843,0.92194 0,0.58668 0.419062,0.83812 1.257186,1.25718 0.838124,0.377156 1.718154,0.712406 1.718154,2.053406 z m 3.729652,-4.19062 v 5.69924 a 0.419062,0.419062 0 0 0 0.251437,0.41906 h -1.676248 a 0.419062,0.419062 0 0 0 0.251437,-0.41906 V 97.8429 c -0.670499,0 -1.466717,0.08381 -1.466717,0.08381 -0.209531,0 -0.377155,0.209531 -0.460968,0.377154 v -0.963841 h 5.07065 v 0.963841 c -0.08381,-0.167623 -0.209531,-0.377154 -0.419062,-0.377154 -0.04191,0 -0.88003,-0.08381 -1.550529,-0.08381 z m 6.788804,5.69924 c 0.08381,0.20953 0.167625,0.29334 0.460969,0.46097 h -1.969592 c 0.251437,-0.12572 0.293344,-0.29335 0.209531,-0.46097 -0.04191,-0.0838 -0.251437,-0.71241 -0.54478,-1.341 h -2.262935 c -0.293344,0.6705 -0.502875,1.25719 -0.502875,1.341 -0.08381,0.25144 -0.04191,0.37716 0.209531,0.50287 h -1.299092 c 0.251437,-0.16762 0.33525,-0.29334 0.419062,-0.46096 0.167625,-0.37716 2.598185,-6.369743 2.598185,-6.369743 z m -2.053403,-1.88578 c -0.419062,-1.08956 -0.963843,-2.388646 -0.963843,-2.388646 l -0.921936,2.388646 z m 4.9030252,-3.81346 v 5.69924 a 0.419062,0.419062 0 0 0 0.2514372,0.41906 h -1.6762484 a 0.419062,0.419062 0 0 0 0.251438,-0.41906 V 97.8429 c -0.6705,0 -1.466718,0.08381 -1.466718,0.08381 -0.209531,0 -0.377155,0.209531 -0.460968,0.377154 v -0.963841 h 5.0706506 v 0.963841 c -0.083812,-0.167623 -0.209531,-0.377154 -0.419062,-0.377154 z m 6.7468982,0.377156 c -0.1676248,-0.251437 -0.3771558,-0.33525 -0.7124054,-0.33525 h -1.5924356 v 2.262934 H -3.4997 c 0.1257186,0 0.2933434,-0.167626 0.3352496,-0.293346 v 1.047656 c -0.041906,-0.12572 -0.209531,-0.29334 -0.3352496,-0.29334 h -1.3829046 v 2.89152 c 0.1676248,0.0419 0.7543116,0.0838 1.2152798,0.0419 0.7962178,0 1.1733736,0 1.5086232,-0.62859 l -0.209531,1.13146 h -3.981089 c 0.1676248,-0.0838 0.2933434,-0.20953 0.2933434,-0.41906 v -5.78305 c 0,-0.209531 -0.1257186,-0.377156 -0.2933434,-0.419062 h 3.7296518 z M -78.05083,105.72126 h 76.0597532 v 0.50288 H -78.05083 Z"
         fill="#18453b"
         id="path72"
         style="stroke-width:0.419062" />
    </g>
  </g>
</svg>
