<svg id="svg" version="1.1" xmlns="http://www.w3.org/2000/svg" xmlns:xlink="http://www.w3.org/1999/xlink" width="400" height="400" viewBox="0, 0, 400,400"><g id="svgg"><path id="path0" d="M2.195 0.900 C 1.978 1.395,1.395 1.978,0.900 2.195 L 0.000 2.590 0.000 201.295 L 0.000 400.000 200.000 400.000 L 400.000 400.000 400.000 200.000 L 400.000 0.000 201.295 0.000 L 2.590 0.000 2.195 0.900 M329.486 156.380 C 329.946 156.808,330.444 157.878,330.593 158.756 C 330.741 159.635,331.198 161.011,331.607 161.814 C 332.017 162.617,332.477 164.293,332.631 165.537 C 332.785 166.782,333.231 168.210,333.622 168.712 C 334.013 169.213,334.458 170.359,334.610 171.258 C 334.762 172.157,335.212 173.637,335.610 174.546 C 336.008 175.456,336.461 177.100,336.616 178.200 C 336.771 179.300,337.135 180.472,337.425 180.805 C 337.715 181.138,338.165 182.308,338.425 183.405 C 338.685 184.502,339.146 185.878,339.449 186.462 C 340.858 189.176,339.849 191.219,336.967 191.488 C 333.658 191.796,332.089 190.330,331.415 186.300 L 331.164 184.800 325.876 184.800 L 320.589 184.800 319.656 186.900 C 319.143 188.055,318.589 189.270,318.425 189.600 C 318.261 189.930,317.514 190.506,316.764 190.881 C 312.820 192.850,310.526 190.265,312.255 185.800 C 312.595 184.920,313.124 183.318,313.430 182.241 C 313.735 181.163,314.252 179.875,314.578 179.377 C 314.904 178.880,315.343 177.421,315.553 176.136 C 315.763 174.851,316.306 172.990,316.759 172.000 C 317.212 171.010,317.587 169.930,317.594 169.600 C 317.600 169.270,317.900 168.460,318.261 167.800 C 318.622 167.140,319.234 165.250,319.621 163.600 C 320.497 159.871,321.469 157.214,322.293 156.300 C 323.244 155.244,328.328 155.301,329.486 156.380 M350.451 156.261 C 351.000 156.923,351.368 184.644,350.879 188.528 C 350.548 191.160,346.069 192.725,344.395 190.794 C 343.422 189.672,343.126 157.034,344.080 156.080 C 344.845 155.315,349.782 155.455,350.451 156.261 M324.800 169.113 C 324.800 170.752,323.740 174.553,323.236 174.721 C 322.996 174.801,322.800 175.555,322.800 176.396 L 322.800 177.925 324.823 178.203 C 326.867 178.484,328.733 177.662,328.158 176.733 C 328.036 176.535,327.771 175.206,327.569 173.779 C 327.078 170.317,324.800 166.477,324.800 169.113 M77.657 176.932 C 80.167 177.960,84.400 180.989,84.400 181.758 C 84.400 182.050,84.940 182.969,85.600 183.800 C 86.260 184.631,86.800 185.670,86.800 186.111 C 86.800 186.551,87.086 187.121,87.436 187.377 C 87.852 187.681,88.211 188.944,88.472 191.021 C 88.693 192.769,89.126 195.202,89.436 196.426 C 90.172 199.333,90.187 207.761,89.461 209.850 C 89.164 210.702,88.803 212.560,88.659 213.978 C 88.514 215.396,88.037 217.297,87.598 218.204 C 87.159 219.111,86.800 220.041,86.800 220.271 C 86.800 220.656,84.950 223.261,84.009 224.200 C 82.832 225.375,81.634 226.352,80.200 227.306 C 76.970 229.454,66.829 229.576,62.908 227.515 C 60.295 226.141,60.221 226.353,60.070 235.618 C 59.915 245.139,60.101 244.800,55.037 244.800 C 52.317 244.800,51.716 244.673,50.926 243.930 L 50.000 243.061 50.000 211.980 C 50.000 177.994,49.967 178.652,51.726 177.582 C 53.567 176.463,55.076 176.937,57.217 179.308 L 59.034 181.321 60.817 179.661 C 64.851 175.904,72.228 174.709,77.657 176.932 M178.305 176.882 C 179.633 177.374,181.242 178.455,182.667 179.813 L 184.925 181.965 185.963 181.225 C 186.533 180.817,187.574 179.852,188.276 179.079 C 189.004 178.278,190.121 177.552,190.876 177.391 C 191.604 177.235,192.380 176.974,192.600 176.811 C 195.809 174.433,205.347 176.074,208.722 179.586 C 212.541 183.560,212.890 186.366,212.713 211.658 C 212.579 230.919,212.924 229.600,208.024 229.600 C 203.294 229.600,203.600 231.092,203.600 208.064 C 203.600 188.139,203.581 187.900,201.817 185.800 L 200.810 184.600 196.105 184.600 L 191.400 184.600 189.100 186.313 L 186.800 188.025 186.800 207.439 C 186.800 220.581,186.660 227.113,186.368 227.660 C 185.171 229.896,179.516 230.366,177.836 228.369 L 176.800 227.139 176.789 208.069 L 176.777 189.000 175.859 187.200 C 174.562 184.660,173.746 184.340,169.000 184.505 C 165.430 184.629,164.833 184.760,163.444 185.722 C 162.588 186.315,161.664 186.800,161.391 186.800 C 160.365 186.800,160.218 189.077,160.012 208.184 L 159.800 227.769 158.441 228.684 C 156.490 229.998,153.313 229.967,151.858 228.619 L 150.800 227.638 150.714 209.119 C 150.567 177.356,150.550 177.561,153.372 177.032 C 155.133 176.701,155.831 177.079,157.596 179.314 L 158.993 181.083 161.168 179.476 C 166.131 175.809,172.716 174.813,178.305 176.882 M248.141 176.650 C 248.999 176.952,250.021 177.200,250.414 177.200 C 251.983 177.200,255.540 180.726,256.992 183.720 C 258.941 187.741,259.183 190.161,259.194 205.800 C 259.207 222.183,259.461 223.600,262.396 223.600 C 263.900 223.600,264.400 224.308,264.400 226.436 C 264.400 231.332,257.480 232.342,252.934 228.109 C 250.760 226.086,249.951 226.020,248.678 227.761 C 248.201 228.413,247.271 229.030,245.200 230.066 C 243.336 230.999,233.101 230.771,231.734 229.766 C 231.110 229.307,230.136 228.816,229.570 228.676 C 226.923 228.018,224.067 223.874,223.543 219.930 C 221.882 207.428,226.430 201.064,238.200 199.423 C 240.840 199.055,244.440 198.533,246.200 198.263 L 249.400 197.772 249.514 193.693 C 249.629 189.562,249.245 187.988,247.757 186.500 C 247.460 186.203,247.046 185.654,246.836 185.280 C 246.186 184.121,236.426 184.296,233.953 185.512 C 231.148 186.891,227.161 187.146,226.466 185.990 C 225.831 184.934,225.424 181.180,225.880 180.574 C 226.503 179.743,230.623 177.662,232.200 177.380 C 233.080 177.223,234.142 176.918,234.560 176.701 C 236.699 175.594,245.058 175.562,248.141 176.650 M294.400 176.685 C 298.983 177.772,300.000 178.701,300.000 181.800 C 300.000 184.768,298.207 186.421,296.288 185.223 C 295.352 184.638,285.814 184.157,283.133 184.559 C 281.416 184.817,281.255 184.952,280.257 186.991 C 277.842 191.923,279.689 196.218,284.821 197.600 C 285.800 197.863,287.050 198.314,287.600 198.602 C 288.150 198.889,289.655 199.319,290.944 199.557 C 292.233 199.795,293.943 200.387,294.744 200.873 C 297.810 202.735,300.351 204.817,300.625 205.690 C 300.782 206.191,301.230 207.010,301.621 207.510 C 303.338 209.710,303.580 218.383,302.004 221.259 C 301.600 221.996,301.003 223.140,300.677 223.800 C 299.838 225.496,296.781 228.290,295.381 228.638 C 294.731 228.799,293.690 229.307,293.066 229.766 C 291.285 231.076,278.667 231.027,275.974 229.700 C 274.969 229.205,273.869 228.800,273.528 228.800 C 270.632 228.800,269.809 223.856,272.253 221.144 C 272.880 220.449,278.081 221.530,280.451 222.847 C 283.441 224.509,290.509 222.898,292.600 220.079 C 294.082 218.080,293.989 212.871,292.439 211.105 C 291.757 210.329,291.200 209.514,291.200 209.293 C 291.200 209.072,290.345 208.766,289.300 208.612 C 288.255 208.459,286.656 208.008,285.746 207.610 C 284.837 207.212,283.357 206.762,282.458 206.610 C 281.559 206.458,280.413 206.012,279.912 205.619 C 279.410 205.226,278.431 204.780,277.736 204.628 C 275.736 204.192,271.739 200.149,271.373 198.192 C 271.209 197.316,270.833 196.021,270.537 195.313 C 269.823 193.602,269.847 188.656,270.577 187.060 C 270.894 186.367,271.347 185.047,271.585 184.126 C 273.227 177.760,284.050 174.230,294.400 176.685 M108.369 177.836 L 109.600 178.871 109.600 197.053 C 109.600 220.325,109.635 220.506,114.549 222.554 C 116.912 223.539,122.237 222.496,124.398 220.625 C 124.729 220.339,125.540 219.931,126.200 219.719 L 127.400 219.334 127.600 198.881 C 127.832 175.206,127.427 177.193,132.073 176.897 C 137.017 176.582,136.600 174.155,136.600 203.231 L 136.600 227.978 135.720 228.858 C 134.365 230.213,130.606 229.259,129.684 227.326 C 128.866 225.611,127.523 225.554,126.157 227.179 C 125.611 227.827,124.768 228.474,124.282 228.616 C 123.797 228.758,122.620 229.241,121.667 229.689 C 119.643 230.640,111.398 230.885,109.600 230.046 C 104.242 227.548,102.164 225.133,100.806 219.825 C 99.789 215.848,99.564 179.607,100.549 178.311 C 101.924 176.501,106.456 176.226,108.369 177.836 M65.400 184.719 C 60.056 186.596,59.993 186.808,60.010 202.724 C 60.028 218.910,59.962 218.563,63.354 220.358 C 68.926 223.307,75.333 221.850,77.879 217.056 C 79.552 213.905,79.651 213.387,79.866 206.609 C 80.277 193.695,79.564 190.204,75.580 185.605 C 74.686 184.574,67.575 183.955,65.400 184.719 M243.800 205.183 C 243.360 205.364,241.580 205.823,239.845 206.203 C 236.289 206.982,233.348 208.750,232.886 210.387 C 232.310 212.428,232.549 220.027,233.200 220.394 C 233.530 220.579,234.340 221.199,235.000 221.770 C 238.398 224.714,244.750 223.975,248.382 220.214 C 249.737 218.811,250.239 214.360,249.749 208.100 L 249.490 204.800 247.045 204.827 C 245.700 204.842,244.240 205.002,243.800 205.183 " stroke="none" fill="#0434c4" fill-rule="evenodd"></path><path id="path1" d="M323.600 156.657 C 323.065 156.804,320.000 165.099,320.000 166.402 C 320.000 166.664,319.747 167.446,319.439 168.140 C 318.725 169.742,316.923 175.188,316.237 177.817 C 315.948 178.926,315.520 180.186,315.286 180.617 C 315.053 181.047,314.558 182.570,314.188 184.000 C 313.817 185.430,313.371 186.780,313.196 187.000 C 312.876 187.403,312.669 188.574,312.754 189.500 C 312.809 190.099,315.710 190.183,316.770 189.616 C 317.164 189.405,317.715 188.370,317.994 187.316 C 318.823 184.177,319.230 184.000,325.616 184.000 C 331.803 184.000,332.112 184.119,332.583 186.680 C 332.904 188.423,334.545 190.371,335.531 190.178 C 338.392 189.621,338.400 189.616,338.400 188.357 C 338.400 187.682,337.869 185.481,337.220 183.465 C 336.572 181.449,335.782 178.990,335.466 178.000 C 335.151 177.010,334.710 175.660,334.488 175.000 C 333.070 170.788,332.684 169.567,332.152 167.600 C 331.825 166.390,331.313 164.860,331.014 164.200 C 330.716 163.540,330.264 162.190,330.009 161.200 C 329.155 157.877,328.669 156.859,327.830 156.634 C 326.913 156.387,324.535 156.401,323.600 156.657 M345.029 157.029 C 344.385 157.672,344.026 187.760,344.643 189.367 C 344.816 189.820,345.414 189.998,346.743 189.994 C 350.017 189.983,349.800 191.176,349.800 173.200 C 349.800 159.387,349.717 157.118,349.200 156.792 C 348.253 156.193,345.720 156.337,345.029 157.029 M327.161 168.520 C 327.622 169.473,328.004 170.601,328.008 171.026 C 328.013 171.452,328.446 173.016,328.970 174.502 C 330.512 178.871,330.037 179.585,325.580 179.594 C 320.655 179.604,320.505 177.884,324.486 167.110 C 325.025 165.651,326.029 166.180,327.161 168.520 M168.944 178.065 C 164.701 178.815,164.651 178.841,160.812 182.294 L 158.929 183.989 158.157 183.094 C 156.905 181.643,155.600 179.664,155.600 179.216 C 155.600 178.987,154.880 178.800,154.000 178.800 L 152.400 178.800 152.393 181.900 C 152.333 209.134,152.482 227.042,152.772 227.332 C 153.393 227.953,156.739 228.148,157.397 227.603 C 157.919 227.169,158.000 224.531,158.000 207.945 L 158.000 188.789 158.900 187.381 C 162.432 181.854,173.940 181.044,177.226 186.090 L 178.600 188.200 178.700 206.600 C 178.755 216.720,178.800 225.574,178.800 226.275 C 178.800 227.786,181.383 228.518,183.549 227.621 C 185.082 226.986,185.199 225.383,185.205 204.840 C 185.212 186.231,185.085 187.245,187.630 185.416 C 192.086 182.215,200.343 181.958,203.138 184.934 C 204.603 186.493,204.800 189.304,204.800 208.615 L 204.800 227.122 206.060 227.561 C 208.005 228.239,211.066 228.127,211.357 227.367 C 211.491 227.019,211.600 218.284,211.600 207.955 L 211.600 189.176 210.600 186.800 C 210.050 185.493,209.600 184.137,209.600 183.785 C 209.600 179.800,201.733 176.823,194.752 178.166 C 190.726 178.940,190.693 178.958,188.046 181.739 C 185.091 184.844,185.155 184.846,182.078 181.625 C 179.582 179.012,179.215 178.776,177.040 178.373 C 175.749 178.135,174.313 177.807,173.847 177.644 C 173.381 177.481,171.175 177.670,168.944 178.065 M67.445 178.241 C 64.713 178.784,63.630 179.398,60.875 181.965 C 58.931 183.778,57.254 183.207,55.854 180.257 C 54.995 178.447,52.934 177.995,52.366 179.490 C 52.156 180.042,52.000 193.838,52.000 211.818 L 52.000 243.185 52.927 243.417 C 53.436 243.545,54.741 243.594,55.827 243.525 L 57.800 243.400 58.000 234.600 C 58.110 229.760,58.333 225.595,58.496 225.344 C 59.096 224.421,60.798 224.344,61.982 225.187 C 62.610 225.634,63.262 226.000,63.430 226.000 C 63.599 226.000,64.085 226.315,64.510 226.700 C 66.009 228.056,76.515 227.714,78.800 226.235 C 81.304 224.614,83.600 222.735,83.600 222.306 C 83.600 222.109,84.029 221.374,84.554 220.673 C 85.078 219.973,85.637 218.950,85.795 218.400 C 85.954 217.850,86.345 216.986,86.664 216.480 C 88.540 213.508,88.267 188.800,86.358 188.800 C 86.168 188.800,85.810 188.001,85.564 187.025 C 85.319 186.048,84.776 184.940,84.359 184.563 C 83.941 184.185,83.594 183.679,83.587 183.438 C 83.567 182.731,81.804 180.926,80.450 180.226 C 79.763 179.870,79.200 179.432,79.200 179.251 C 79.200 178.046,71.678 177.400,67.445 178.241 M235.950 178.349 C 233.612 178.707,231.452 179.206,231.150 179.459 C 230.847 179.711,229.835 180.144,228.900 180.422 C 226.982 180.991,226.710 181.892,227.810 184.020 C 228.455 185.267,229.458 185.518,230.839 184.779 C 235.358 182.361,246.417 182.718,248.860 185.361 C 251.535 188.255,252.562 196.405,250.536 198.672 L 249.400 199.943 242.814 200.387 C 238.254 200.695,236.038 201.004,235.609 201.392 C 235.268 201.700,234.092 202.186,232.995 202.473 C 231.898 202.759,230.762 203.219,230.471 203.496 C 230.181 203.773,229.796 204.000,229.617 204.000 C 229.129 204.000,226.400 206.908,226.400 207.427 C 226.400 207.675,226.054 208.276,225.632 208.763 C 224.396 210.188,223.962 221.600,225.143 221.600 C 225.294 221.600,225.774 222.275,226.209 223.100 C 227.249 225.074,229.795 227.536,231.133 227.860 C 231.720 228.003,232.555 228.363,232.989 228.660 C 236.069 230.769,245.584 228.859,248.844 225.477 C 251.019 223.220,251.513 223.278,253.404 226.006 C 254.898 228.162,256.845 229.130,259.200 228.888 C 263.333 228.463,264.946 225.135,261.256 224.645 C 257.649 224.167,257.835 225.121,257.553 205.659 L 257.306 188.600 256.254 185.742 C 255.198 182.873,253.465 180.400,252.511 180.400 C 252.230 180.400,251.660 180.060,251.245 179.645 C 249.424 177.824,242.961 177.276,235.950 178.349 M281.856 178.273 C 274.601 179.830,270.634 186.023,271.993 193.669 C 272.201 194.841,272.471 196.449,272.593 197.242 C 273.103 200.562,277.355 203.471,284.800 205.593 C 293.336 208.027,294.802 209.343,295.386 215.098 C 295.794 219.121,293.010 223.624,289.734 224.239 C 287.012 224.749,278.229 224.243,277.112 223.511 C 276.534 223.132,275.282 222.772,274.330 222.711 L 272.600 222.600 272.600 224.756 C 272.600 226.277,272.777 226.999,273.200 227.204 C 277.121 229.107,289.144 229.879,292.156 228.421 C 293.089 227.970,294.086 227.600,294.370 227.600 C 294.941 227.600,299.310 223.762,299.552 223.048 C 299.635 222.801,300.018 221.880,300.402 221.000 C 301.687 218.057,301.731 209.652,300.466 208.829 C 300.272 208.703,299.877 207.941,299.589 207.136 C 299.229 206.130,298.576 205.397,297.504 204.794 C 296.645 204.312,295.853 203.683,295.744 203.398 C 295.634 203.112,294.945 202.766,294.213 202.629 C 293.480 202.491,292.458 202.050,291.941 201.648 C 291.423 201.246,289.740 200.690,288.200 200.413 C 286.660 200.136,285.037 199.683,284.594 199.407 C 284.151 199.131,283.236 198.784,282.561 198.635 C 278.012 197.636,275.760 189.529,278.988 185.775 C 279.544 185.129,279.999 184.479,280.000 184.331 C 280.001 183.245,288.254 182.341,291.693 183.049 C 294.798 183.689,296.896 183.835,297.511 183.455 C 298.492 182.849,297.732 178.804,296.636 178.798 C 296.396 178.796,294.416 178.526,292.235 178.198 C 287.474 177.480,285.479 177.494,281.856 178.273 M103.549 178.683 C 102.046 178.913,102.008 179.413,102.012 199.000 C 102.017 220.356,102.417 223.250,105.766 226.114 C 110.537 230.195,121.050 229.979,125.029 225.717 C 127.656 222.903,130.800 223.098,130.800 226.075 C 130.800 227.607,135.047 228.568,135.399 227.116 C 135.521 226.612,135.571 215.580,135.511 202.600 L 135.400 179.000 133.219 178.781 C 132.019 178.661,130.534 178.636,129.919 178.727 L 128.800 178.891 128.800 199.072 C 128.800 219.193,128.699 220.800,127.429 220.800 C 127.130 220.800,126.794 221.037,126.683 221.328 C 126.572 221.618,125.078 222.444,123.364 223.164 C 116.784 225.926,111.080 224.523,108.889 219.603 L 107.908 217.400 107.854 198.333 C 107.824 187.847,107.710 179.185,107.600 179.086 C 107.254 178.775,104.647 178.515,103.549 178.683 M73.928 183.304 C 77.680 184.350,80.058 187.520,80.600 192.200 C 80.753 193.520,81.131 195.371,81.439 196.314 C 82.184 198.591,82.198 207.331,81.460 209.450 C 81.163 210.302,80.802 212.032,80.658 213.293 C 79.603 222.492,71.352 226.119,62.048 221.474 C 57.996 219.451,58.221 220.484,58.062 203.175 L 57.924 188.114 59.221 186.637 C 60.775 184.867,61.774 184.339,65.200 183.478 C 69.893 182.299,70.294 182.291,73.928 183.304 M250.637 204.171 C 251.986 205.116,252.007 218.243,250.663 220.222 C 248.354 223.619,245.397 224.770,239.613 224.525 C 234.221 224.296,232.546 223.152,231.157 218.752 C 229.287 212.825,231.880 206.937,237.210 205.007 C 240.888 203.675,249.191 203.158,250.637 204.171 " stroke="none" fill="#b5c3df" fill-rule="evenodd"></path><path id="path2" d="M0.000 1.200 C 0.000 2.579,0.735 2.777,1.738 1.669 C 2.727 0.575,2.542 0.000,1.200 0.000 C 0.133 0.000,0.000 0.133,0.000 1.200 M322.293 156.300 C 321.469 157.214,320.497 159.871,319.621 163.600 C 319.234 165.250,318.622 167.140,318.261 167.800 C 317.900 168.460,317.600 169.270,317.594 169.600 C 317.587 169.930,317.212 171.010,316.759 172.000 C 316.306 172.990,315.763 174.851,315.553 176.136 C 315.343 177.421,314.904 178.880,314.578 179.377 C 314.252 179.875,313.735 181.163,313.430 182.241 C 313.124 183.318,312.595 184.920,312.255 185.800 C 310.526 190.265,312.820 192.850,316.764 190.881 C 317.514 190.506,318.261 189.930,318.425 189.600 C 318.589 189.270,319.143 188.055,319.656 186.900 L 320.589 184.800 325.876 184.800 L 331.164 184.800 331.415 186.300 C 332.089 190.330,333.658 191.796,336.967 191.488 C 339.849 191.219,340.858 189.176,339.449 186.462 C 339.146 185.878,338.685 184.502,338.425 183.405 C 338.165 182.308,337.715 181.138,337.425 180.805 C 337.135 180.472,336.771 179.300,336.616 178.200 C 336.461 177.100,336.008 175.456,335.610 174.546 C 335.212 173.637,334.762 172.157,334.610 171.258 C 334.458 170.359,334.013 169.213,333.622 168.712 C 333.231 168.210,332.785 166.782,332.631 165.537 C 332.477 164.293,332.017 162.617,331.607 161.814 C 331.198 161.011,330.741 159.635,330.593 158.756 C 330.087 155.762,324.318 154.054,322.293 156.300 M344.080 156.080 C 343.126 157.034,343.422 189.672,344.395 190.794 C 346.069 192.725,350.548 191.160,350.879 188.528 C 351.368 184.644,351.000 156.923,350.451 156.261 C 349.782 155.455,344.845 155.315,344.080 156.080 M327.830 156.634 C 328.669 156.859,329.155 157.877,330.009 161.200 C 330.264 162.190,330.716 163.540,331.014 164.200 C 331.313 164.860,331.825 166.390,332.152 167.600 C 332.684 169.567,333.070 170.788,334.488 175.000 C 334.710 175.660,335.151 177.010,335.466 178.000 C 335.782 178.990,336.572 181.449,337.220 183.465 C 337.869 185.481,338.400 187.682,338.400 188.357 C 338.400 189.616,338.392 189.621,335.531 190.178 C 334.545 190.371,332.904 188.423,332.583 186.680 C 332.112 184.119,331.803 184.000,325.616 184.000 C 319.230 184.000,318.823 184.177,317.994 187.316 C 317.715 188.370,317.164 189.405,316.770 189.616 C 315.710 190.183,312.809 190.099,312.754 189.500 C 312.669 188.574,312.876 187.403,313.196 187.000 C 313.371 186.780,313.817 185.430,314.188 184.000 C 314.558 182.570,315.053 181.047,315.286 180.617 C 315.520 180.186,315.948 178.926,316.237 177.817 C 316.923 175.188,318.725 169.742,319.439 168.140 C 319.747 167.446,320.000 166.664,320.000 166.402 C 320.000 165.099,323.065 156.804,323.600 156.657 C 324.535 156.401,326.913 156.387,327.830 156.634 M349.200 156.792 C 349.717 157.118,349.800 159.387,349.800 173.200 C 349.800 191.176,350.017 189.983,346.743 189.994 C 345.414 189.998,344.816 189.820,344.643 189.367 C 344.026 187.760,344.385 157.672,345.029 157.029 C 345.720 156.337,348.253 156.193,349.200 156.792 M324.486 167.110 C 320.505 177.884,320.655 179.604,325.580 179.594 C 330.037 179.585,330.512 178.871,328.970 174.502 C 328.446 173.016,328.013 171.452,328.008 171.026 C 327.979 168.353,325.178 165.238,324.486 167.110 M326.196 169.593 C 326.800 170.550,327.348 172.222,327.569 173.779 C 327.771 175.206,328.036 176.535,328.158 176.733 C 328.733 177.662,326.867 178.484,324.823 178.203 L 322.800 177.925 322.800 176.396 C 322.800 175.555,322.996 174.801,323.236 174.721 C 323.740 174.553,324.800 170.752,324.800 169.113 C 324.800 167.635,325.003 167.705,326.196 169.593 M68.800 175.989 C 65.660 176.566,62.657 177.947,60.817 179.661 L 59.034 181.321 57.217 179.308 C 55.076 176.937,53.567 176.463,51.726 177.582 C 49.967 178.652,50.000 177.994,50.000 211.980 L 50.000 243.061 50.926 243.930 C 51.716 244.673,52.317 244.800,55.037 244.800 C 60.101 244.800,59.915 245.139,60.070 235.618 C 60.221 226.353,60.295 226.141,62.908 227.515 C 66.829 229.576,76.970 229.454,80.200 227.306 C 81.634 226.352,82.832 225.375,84.009 224.200 C 84.950 223.261,86.800 220.656,86.800 220.271 C 86.800 220.041,87.159 219.111,87.598 218.204 C 88.037 217.297,88.514 215.396,88.659 213.978 C 88.803 212.560,89.164 210.702,89.461 209.850 C 90.187 207.761,90.172 199.333,89.436 196.426 C 89.126 195.202,88.693 192.769,88.472 191.021 C 88.211 188.944,87.852 187.681,87.436 187.377 C 87.086 187.121,86.800 186.551,86.800 186.111 C 86.800 185.670,86.260 184.631,85.600 183.800 C 84.940 182.969,84.400 182.050,84.400 181.758 C 84.400 178.913,73.939 175.045,68.800 175.989 M169.563 176.019 C 166.405 176.494,163.692 177.611,161.168 179.476 L 158.993 181.083 157.596 179.314 C 155.831 177.079,155.133 176.701,153.372 177.032 C 150.550 177.561,150.567 177.356,150.714 209.119 L 150.800 227.638 151.858 228.619 C 153.313 229.967,156.490 229.998,158.441 228.684 L 159.800 227.769 160.012 208.184 C 160.218 189.077,160.365 186.800,161.391 186.800 C 161.664 186.800,162.588 186.315,163.444 185.722 C 164.833 184.760,165.430 184.629,169.000 184.505 C 173.746 184.340,174.562 184.660,175.859 187.200 L 176.777 189.000 176.789 208.069 L 176.800 227.139 177.836 228.369 C 179.516 230.366,185.171 229.896,186.368 227.660 C 186.660 227.113,186.800 220.581,186.800 207.439 L 186.800 188.025 189.100 186.313 L 191.400 184.600 196.105 184.600 L 200.810 184.600 201.817 185.800 C 203.581 187.900,203.600 188.139,203.600 208.064 C 203.600 231.092,203.294 229.600,208.024 229.600 C 212.924 229.600,212.579 230.919,212.713 211.658 C 212.890 186.366,212.541 183.560,208.722 179.586 C 205.347 176.074,195.809 174.433,192.600 176.811 C 192.380 176.974,191.604 177.235,190.876 177.391 C 190.121 177.552,189.004 178.278,188.276 179.079 C 187.574 179.852,186.533 180.817,185.963 181.225 L 184.925 181.965 182.667 179.813 C 179.229 176.536,174.747 175.238,169.563 176.019 M238.160 175.993 C 236.598 176.166,234.978 176.485,234.560 176.701 C 234.142 176.918,233.080 177.223,232.200 177.380 C 230.623 177.662,226.503 179.743,225.880 180.574 C 225.424 181.180,225.831 184.934,226.466 185.990 C 227.161 187.146,231.148 186.891,233.953 185.512 C 236.426 184.296,246.186 184.121,246.836 185.280 C 247.046 185.654,247.460 186.203,247.757 186.500 C 249.245 187.988,249.629 189.562,249.514 193.693 L 249.400 197.772 246.200 198.263 C 244.440 198.533,240.840 199.055,238.200 199.423 C 228.549 200.769,223.939 205.010,223.414 213.028 C 222.860 221.483,225.269 227.607,229.570 228.676 C 230.136 228.816,231.110 229.307,231.734 229.766 C 233.101 230.771,243.336 230.999,245.200 230.066 C 247.271 229.030,248.201 228.413,248.678 227.761 C 249.951 226.020,250.760 226.086,252.934 228.109 C 257.480 232.342,264.400 231.332,264.400 226.436 C 264.400 224.308,263.900 223.600,262.396 223.600 C 259.461 223.600,259.207 222.183,259.194 205.800 C 259.183 190.161,258.941 187.741,256.992 183.720 C 255.540 180.726,251.983 177.200,250.414 177.200 C 250.021 177.200,248.999 176.952,248.141 176.650 C 246.024 175.903,241.602 175.612,238.160 175.993 M283.339 176.029 C 277.878 176.966,272.471 180.690,271.585 184.126 C 271.347 185.047,270.894 186.367,270.577 187.060 C 269.847 188.656,269.823 193.602,270.537 195.313 C 270.833 196.021,271.209 197.316,271.373 198.192 C 271.739 200.149,275.736 204.192,277.736 204.628 C 278.431 204.780,279.410 205.226,279.912 205.619 C 280.413 206.012,281.559 206.458,282.458 206.610 C 283.357 206.762,284.837 207.212,285.746 207.610 C 286.656 208.008,288.255 208.459,289.300 208.612 C 290.345 208.766,291.200 209.072,291.200 209.293 C 291.200 209.514,291.757 210.329,292.439 211.105 C 293.989 212.871,294.082 218.080,292.600 220.079 C 290.509 222.898,283.441 224.509,280.451 222.847 C 278.081 221.530,272.880 220.449,272.253 221.144 C 269.809 223.856,270.632 228.800,273.528 228.800 C 273.869 228.800,274.969 229.205,275.974 229.700 C 278.667 231.027,291.285 231.076,293.066 229.766 C 293.690 229.307,294.731 228.799,295.381 228.638 C 296.781 228.290,299.838 225.496,300.677 223.800 C 301.003 223.140,301.600 221.996,302.004 221.259 C 303.580 218.383,303.338 209.710,301.621 207.510 C 301.230 207.010,300.782 206.191,300.625 205.690 C 300.351 204.817,297.810 202.735,294.744 200.873 C 293.943 200.387,292.233 199.795,290.944 199.557 C 289.655 199.319,288.150 198.889,287.600 198.602 C 287.050 198.314,285.800 197.863,284.821 197.600 C 279.689 196.218,277.842 191.923,280.257 186.991 C 281.255 184.952,281.416 184.817,283.133 184.559 C 285.814 184.157,295.352 184.638,296.288 185.223 C 298.829 186.810,300.991 183.058,299.617 179.445 C 298.695 177.021,289.188 175.025,283.339 176.029 M102.036 177.236 C 99.990 178.054,100.026 177.688,100.013 197.836 C 99.995 223.942,100.557 225.830,109.600 230.046 C 111.398 230.885,119.643 230.640,121.667 229.689 C 122.620 229.241,123.797 228.758,124.282 228.616 C 124.768 228.474,125.611 227.827,126.157 227.179 C 127.523 225.554,128.866 225.611,129.684 227.326 C 130.606 229.259,134.365 230.213,135.720 228.858 L 136.600 227.978 136.600 203.231 C 136.600 174.155,137.017 176.582,132.073 176.897 C 127.427 177.193,127.832 175.206,127.600 198.881 L 127.400 219.334 126.200 219.719 C 125.540 219.931,124.729 220.339,124.398 220.625 C 122.237 222.496,116.912 223.539,114.549 222.554 C 109.635 220.506,109.600 220.325,109.600 197.053 L 109.600 178.871 108.369 177.836 C 107.043 176.720,104.039 176.435,102.036 177.236 M177.040 178.373 C 179.215 178.776,179.582 179.012,182.078 181.625 C 185.155 184.846,185.091 184.844,188.046 181.739 C 190.693 178.958,190.726 178.940,194.752 178.166 C 201.733 176.823,209.600 179.800,209.600 183.785 C 209.600 184.137,210.050 185.493,210.600 186.800 L 211.600 189.176 211.600 207.955 C 211.600 218.284,211.491 227.019,211.357 227.367 C 211.066 228.127,208.005 228.239,206.060 227.561 L 204.800 227.122 204.800 208.615 C 204.800 189.304,204.603 186.493,203.138 184.934 C 200.343 181.958,192.086 182.215,187.630 185.416 C 185.085 187.245,185.212 186.231,185.205 204.840 C 185.199 225.383,185.082 226.986,183.549 227.621 C 181.383 228.518,178.800 227.786,178.800 226.275 C 178.800 225.574,178.755 216.720,178.700 206.600 L 178.600 188.200 177.226 186.090 C 173.940 181.044,162.432 181.854,158.900 187.381 L 158.000 188.789 158.000 207.945 C 158.000 224.531,157.919 227.169,157.397 227.603 C 156.739 228.148,153.393 227.953,152.772 227.332 C 152.482 227.042,152.333 209.134,152.393 181.900 L 152.400 178.800 154.000 178.800 C 154.880 178.800,155.600 178.987,155.600 179.216 C 155.600 179.664,156.905 181.643,158.157 183.094 L 158.929 183.989 160.812 182.294 C 164.651 178.841,164.701 178.815,168.944 178.065 C 171.175 177.670,173.381 177.481,173.847 177.644 C 174.313 177.807,175.749 178.135,177.040 178.373 M76.189 178.262 C 77.845 178.626,79.200 179.071,79.200 179.251 C 79.200 179.432,79.763 179.870,80.450 180.226 C 81.804 180.926,83.567 182.731,83.587 183.438 C 83.594 183.679,83.941 184.185,84.359 184.563 C 84.776 184.940,85.319 186.048,85.564 187.025 C 85.810 188.001,86.168 188.800,86.358 188.800 C 88.267 188.800,88.540 213.508,86.664 216.480 C 86.345 216.986,85.954 217.850,85.795 218.400 C 85.637 218.950,85.078 219.973,84.554 220.673 C 84.029 221.374,83.600 222.109,83.600 222.306 C 83.600 222.735,81.304 224.614,78.800 226.235 C 76.515 227.714,66.009 228.056,64.510 226.700 C 64.085 226.315,63.599 226.000,63.430 226.000 C 63.262 226.000,62.610 225.634,61.982 225.187 C 60.798 224.344,59.096 224.421,58.496 225.344 C 58.333 225.595,58.110 229.760,58.000 234.600 L 57.800 243.400 55.827 243.525 C 54.741 243.594,53.436 243.545,52.927 243.417 L 52.000 243.185 52.000 211.818 C 52.000 193.838,52.156 180.042,52.366 179.490 C 52.934 177.995,54.995 178.447,55.854 180.257 C 57.254 183.207,58.931 183.778,60.875 181.965 C 65.213 177.923,69.703 176.837,76.189 178.262 M247.306 178.245 C 249.186 178.626,250.800 179.200,251.245 179.645 C 251.660 180.060,252.230 180.400,252.511 180.400 C 253.465 180.400,255.198 182.873,256.254 185.742 L 257.306 188.600 257.553 205.659 C 257.835 225.121,257.649 224.167,261.256 224.645 C 264.946 225.135,263.333 228.463,259.200 228.888 C 256.845 229.130,254.898 228.162,253.404 226.006 C 251.513 223.278,251.019 223.220,248.844 225.477 C 245.584 228.859,236.069 230.769,232.989 228.660 C 232.555 228.363,231.720 228.003,231.133 227.860 C 229.795 227.536,227.249 225.074,226.209 223.100 C 225.774 222.275,225.294 221.600,225.143 221.600 C 223.962 221.600,224.396 210.188,225.632 208.763 C 226.054 208.276,226.400 207.675,226.400 207.427 C 226.400 206.908,229.129 204.000,229.617 204.000 C 229.796 204.000,230.181 203.773,230.471 203.496 C 230.762 203.219,231.898 202.759,232.995 202.473 C 234.092 202.186,235.268 201.700,235.609 201.392 C 236.038 201.004,238.254 200.695,242.814 200.387 L 249.400 199.943 250.536 198.672 C 252.562 196.405,251.535 188.255,248.860 185.361 C 246.417 182.718,235.358 182.361,230.839 184.779 C 229.458 185.518,228.455 185.267,227.810 184.020 C 226.710 181.892,226.982 180.991,228.900 180.422 C 229.835 180.144,230.847 179.711,231.150 179.459 C 232.779 178.099,242.851 177.343,247.306 178.245 M292.235 178.198 C 294.416 178.526,296.396 178.796,296.636 178.798 C 297.732 178.804,298.492 182.849,297.511 183.455 C 296.896 183.835,294.798 183.689,291.693 183.049 C 288.254 182.341,280.001 183.245,280.000 184.331 C 279.999 184.479,279.544 185.129,278.988 185.775 C 275.760 189.529,278.012 197.636,282.561 198.635 C 283.236 198.784,284.151 199.131,284.594 199.407 C 285.037 199.683,286.660 200.136,288.200 200.413 C 289.740 200.690,291.423 201.246,291.941 201.648 C 292.458 202.050,293.480 202.491,294.213 202.629 C 294.945 202.766,295.634 203.112,295.744 203.398 C 295.853 203.683,296.645 204.312,297.504 204.794 C 298.576 205.397,299.229 206.130,299.589 207.136 C 299.877 207.941,300.272 208.703,300.466 208.829 C 301.731 209.652,301.687 218.057,300.402 221.000 C 300.018 221.880,299.635 222.801,299.552 223.048 C 299.310 223.762,294.941 227.600,294.370 227.600 C 294.086 227.600,293.089 227.970,292.156 228.421 C 289.144 229.879,277.121 229.107,273.200 227.204 C 272.777 226.999,272.600 226.277,272.600 224.756 L 272.600 222.600 274.330 222.711 C 275.282 222.772,276.534 223.132,277.112 223.511 C 278.229 224.243,287.012 224.749,289.734 224.239 C 293.010 223.624,295.794 219.121,295.386 215.098 C 294.802 209.343,293.336 208.027,284.800 205.593 C 277.355 203.471,273.103 200.562,272.593 197.242 C 272.471 196.449,272.201 194.841,271.993 193.669 C 269.991 182.401,278.249 176.090,292.235 178.198 M107.600 179.086 C 107.710 179.185,107.824 187.847,107.854 198.333 L 107.908 217.400 108.889 219.603 C 111.080 224.523,116.784 225.926,123.364 223.164 C 125.078 222.444,126.572 221.618,126.683 221.328 C 126.794 221.037,127.130 220.800,127.429 220.800 C 128.699 220.800,128.800 219.193,128.800 199.072 L 128.800 178.891 129.919 178.727 C 130.534 178.636,132.019 178.661,133.219 178.781 L 135.400 179.000 135.511 202.600 C 135.571 215.580,135.521 226.612,135.399 227.116 C 135.047 228.568,130.800 227.607,130.800 226.075 C 130.800 223.098,127.656 222.903,125.029 225.717 C 121.050 229.979,110.537 230.195,105.766 226.114 C 102.417 223.250,102.017 220.356,102.012 199.000 C 102.008 179.413,102.046 178.913,103.549 178.683 C 104.647 178.515,107.254 178.775,107.600 179.086 M68.800 182.652 C 63.577 183.555,60.978 184.636,59.221 186.637 L 57.924 188.114 58.062 203.175 C 58.221 220.484,57.996 219.451,62.048 221.474 C 71.352 226.119,79.603 222.492,80.658 213.293 C 80.802 212.032,81.163 210.302,81.460 209.450 C 82.198 207.331,82.184 198.591,81.439 196.314 C 81.131 195.371,80.753 193.520,80.600 192.200 C 79.868 185.881,74.631 181.644,68.800 182.652 M75.580 185.605 C 79.564 190.204,80.277 193.695,79.866 206.609 C 79.651 213.387,79.552 213.905,77.879 217.056 C 75.333 221.850,68.926 223.307,63.354 220.358 C 59.962 218.563,60.028 218.910,60.010 202.724 C 59.993 186.808,60.056 186.596,65.400 184.719 C 67.575 183.955,74.686 184.574,75.580 185.605 M241.800 203.968 C 233.192 204.851,228.727 211.053,231.157 218.752 C 232.546 223.152,234.221 224.296,239.613 224.525 C 249.236 224.934,251.628 222.377,251.523 211.797 C 251.433 202.844,251.583 202.965,241.800 203.968 M249.749 208.100 C 250.239 214.360,249.737 218.811,248.382 220.214 C 244.750 223.975,238.398 224.714,235.000 221.770 C 234.340 221.199,233.530 220.579,233.200 220.394 C 232.549 220.027,232.310 212.428,232.886 210.387 C 233.348 208.750,236.289 206.982,239.845 206.203 C 241.580 205.823,243.360 205.364,243.800 205.183 C 244.240 205.002,245.700 204.842,247.045 204.827 L 249.490 204.800 249.749 208.100 " stroke="none" fill="#647dc3" fill-rule="evenodd"></path></g></svg>