<?xml version="1.0" encoding="UTF-8"?>
<!DOCTYPE svg PUBLIC "-//W3C//DTD SVG 1.1//EN" "http://www.w3.org/Graphics/SVG/1.1/DTD/svg11.dtd">
<svg xmlns="http://www.w3.org/2000/svg" version="1.1" width="1269px" height="396px" style="shape-rendering:geometricPrecision; text-rendering:geometricPrecision; image-rendering:optimizeQuality; fill-rule:evenodd; clip-rule:evenodd" xmlns:xlink="http://www.w3.org/1999/xlink">
<g><path style="opacity:0.983" fill="#fefffe" d="M 257.5,67.5 C 315.759,64.865 358.259,89.1983 385,140.5C 404.842,192.275 397.842,239.941 364,283.5C 330.437,320.356 288.937,335.189 239.5,328C 218.319,321.484 210.153,307.318 215,285.5C 219.751,274.082 227.918,265.915 239.5,261C 253.152,256.45 266.485,251.116 279.5,245C 314.615,220.068 324.782,187.235 310,146.5C 290.139,110.989 259.972,96.4887 219.5,103C 205.058,106.145 191.724,111.811 179.5,120C 177.075,120.986 175.409,120.319 174.5,118C 187.828,97.9781 205.828,83.6448 228.5,75C 238.095,71.6856 247.762,69.1856 257.5,67.5 Z"/></g>
<g><path style="opacity:0.985" fill="#fefffe" d="M 181.5,120.5 C 219.437,118.361 242.603,135.695 251,172.5C 253.348,199.972 242.848,220.806 219.5,235C 187.296,248.37 160.796,241.203 140,213.5C 130.654,195.908 128.987,177.574 135,158.5C 144.112,137.88 159.612,125.213 181.5,120.5 Z"/></g>
<g><path style="opacity:0.943" fill="#fefffe" d="M 460.5,131.5 C 477.17,131.333 493.837,131.5 510.5,132C 532.437,136.624 543.437,150.291 543.5,173C 543.331,195.059 532.664,208.725 511.5,214C 500.505,214.5 489.505,214.667 478.5,214.5C 478.5,230.833 478.5,247.167 478.5,263.5C 472.5,263.5 466.5,263.5 460.5,263.5C 460.5,219.5 460.5,175.5 460.5,131.5 Z M 478.5,145.5 C 487.173,145.334 495.84,145.5 504.5,146C 519.612,148.296 526.278,157.129 524.5,172.5C 525.539,182.523 522.539,191.023 515.5,198C 512.637,199.399 509.637,200.399 506.5,201C 497.173,201.5 487.839,201.666 478.5,201.5C 478.5,182.833 478.5,164.167 478.5,145.5 Z"/></g>
<g><path style="opacity:0.963" fill="#fefffe" d="M 1025.5,131.5 C 1034.09,131.183 1042.59,131.517 1051,132.5C 1064.61,176.099 1078.44,219.599 1092.5,263C 1083.15,263.832 1073.82,263.665 1064.5,262.5C 1062.19,255.241 1060.19,247.908 1058.5,240.5C 1043.5,240.5 1028.5,240.5 1013.5,240.5C 1011.34,248.13 1009.34,255.797 1007.5,263.5C 999.493,263.666 991.493,263.5 983.5,263C 998.195,219.388 1012.19,175.555 1025.5,131.5 Z M 1036.5,159.5 C 1041.02,180.581 1046.35,201.581 1052.5,222.5C 1041.5,222.5 1030.5,222.5 1019.5,222.5C 1025.95,201.709 1031.61,180.709 1036.5,159.5 Z"/></g>
<g><path style="opacity:0.979" fill="#fefffe" d="M 1111.5,131.5 C 1120.17,131.5 1128.83,131.5 1137.5,131.5C 1137.5,175.5 1137.5,219.5 1137.5,263.5C 1128.83,263.5 1120.17,263.5 1111.5,263.5C 1111.5,219.5 1111.5,175.5 1111.5,131.5 Z"/></g>
<g><path style="opacity:0.957" fill="#fefffe" d="M 701.5,155.5 C 710.917,154.377 719.75,156.044 728,160.5C 730,163.833 732,167.167 734,170.5C 737.536,167.299 740.703,163.799 743.5,160C 755.59,154.083 767.59,154.083 779.5,160C 786.068,165.637 789.568,172.804 790,181.5C 790.5,208.831 790.667,236.165 790.5,263.5C 785.167,263.5 779.833,263.5 774.5,263.5C 774.949,235.13 774.449,206.796 773,178.5C 770.522,171.439 765.522,168.439 758,169.5C 750.247,169.792 743.414,172.459 737.5,177.5C 736.5,206.159 736.167,234.826 736.5,263.5C 731.167,263.5 725.833,263.5 720.5,263.5C 720.667,236.831 720.5,210.165 720,183.5C 719.036,173.87 713.703,169.204 704,169.5C 696.16,169.918 689.16,172.585 683,177.5C 682.5,206.165 682.333,234.831 682.5,263.5C 677.167,263.5 671.833,263.5 666.5,263.5C 666.5,228.167 666.5,192.833 666.5,157.5C 669.833,157.5 673.167,157.5 676.5,157.5C 677.343,161.522 679.01,165.188 681.5,168.5C 684.688,166.146 687.355,163.312 689.5,160C 693.571,158.37 697.571,156.87 701.5,155.5 Z"/></g>
<g><path style="opacity:0.938" fill="#fefffe" d="M 841.5,155.5 C 850.32,154.971 858.987,155.804 867.5,158C 876.637,163.15 881.803,170.983 883,181.5C 883.333,203.5 883.667,225.5 884,247.5C 884.163,249.676 884.996,251.509 886.5,253C 889.146,253.497 891.813,253.664 894.5,253.5C 894.823,256.962 894.823,260.295 894.5,263.5C 882.329,269.244 873.829,265.911 869,253.5C 866.203,257.299 863.036,260.799 859.5,264C 825.505,272.958 810.338,260.124 814,225.5C 816.473,215.027 822.973,208.527 833.5,206C 844.667,203.273 856,201.773 867.5,201.5C 867.666,194.825 867.5,188.158 867,181.5C 864.39,173.23 858.724,169.23 850,169.5C 840.171,170.499 830.671,172.832 821.5,176.5C 820.914,176.291 820.414,175.957 820,175.5C 819.356,171.779 818.523,168.113 817.5,164.5C 817.709,163.914 818.043,163.414 818.5,163C 826.037,159.708 833.704,157.208 841.5,155.5 Z M 859.5,212.5 C 862.167,212.5 864.833,212.5 867.5,212.5C 867.667,223.505 867.5,234.505 867,245.5C 859.329,253.111 850.163,255.611 839.5,253C 831.709,249.947 828.042,244.113 828.5,235.5C 828.318,227.361 831.651,221.194 838.5,217C 845.495,214.84 852.495,213.34 859.5,212.5 Z"/></g>
<g><path style="opacity:0.935" fill="#fefffe" d="M 932.5,155.5 C 945.55,154.012 957.884,156.178 969.5,162C 968.418,165.405 967.584,168.905 967,172.5C 966.275,173.059 965.442,173.392 964.5,173.5C 953.725,169.406 942.725,168.572 931.5,171C 925.655,173.512 922.988,178.012 923.5,184.5C 923.313,189.444 924.979,193.611 928.5,197C 937.681,200.727 947.015,204.061 956.5,207C 970.18,214.88 975.347,226.713 972,242.5C 969.377,256.123 961.211,263.956 947.5,266C 934.272,267.874 921.605,266.041 909.5,260.5C 909.167,259.667 908.833,258.833 908.5,258C 909.234,254.499 909.9,250.999 910.5,247.5C 916.721,249.628 923.054,251.461 929.5,253C 937.18,254.263 944.513,253.263 951.5,250C 953.617,248.269 955.117,246.102 956,243.5C 956.667,238.5 956.667,233.5 956,228.5C 954.878,226.376 953.378,224.543 951.5,223C 940.436,218.818 929.436,214.485 918.5,210C 909.225,201.084 906.058,190.251 909,177.5C 910.456,169.079 914.956,162.912 922.5,159C 925.98,157.897 929.313,156.731 932.5,155.5 Z"/></g>
<g><path style="opacity:0.934" fill="#fefffe" d="M 564.5,157.5 C 569.833,157.5 575.167,157.5 580.5,157.5C 580.333,185.169 580.5,212.835 581,240.5C 583.029,249.515 588.695,253.515 598,252.5C 606.07,252.631 613.07,249.964 619,244.5C 619.5,215.502 619.667,186.502 619.5,157.5C 625.167,157.5 630.833,157.5 636.5,157.5C 636.5,192.833 636.5,228.167 636.5,263.5C 633.15,263.665 629.817,263.498 626.5,263C 624.626,259.419 622.626,255.919 620.5,252.5C 617.645,255.52 614.979,258.687 612.5,262C 599.602,268.16 586.936,267.827 574.5,261C 569.09,256.014 565.923,249.847 565,242.5C 564.5,214.169 564.333,185.835 564.5,157.5 Z"/></g>
</svg>
