<?xml version="1.0" encoding="UTF-8"?>
<!DOCTYPE svg PUBLIC "-//W3C//DTD SVG 1.1//EN" "http://www.w3.org/Graphics/SVG/1.1/DTD/svg11.dtd">
<svg xmlns="http://www.w3.org/2000/svg" version="1.1" width="1269px" height="396px" style="shape-rendering:geometricPrecision; text-rendering:geometricPrecision; image-rendering:optimizeQuality; fill-rule:evenodd; clip-rule:evenodd" xmlns:xlink="http://www.w3.org/1999/xlink">
<g><path style="opacity:0.983" fill="#000000" d="M 255.5,67.5 C 306.338,63.6746 346.505,82.3413 376,123.5C 393.807,153.208 399.807,185.208 394,219.5C 381.237,276.263 346.737,312.096 290.5,327C 273.888,331.035 257.222,331.368 240.5,328C 218.75,321.339 210.25,306.839 215,284.5C 217.697,277.271 222.197,271.437 228.5,267C 242.229,259.638 256.562,253.638 271.5,249C 311.722,226.361 324.889,192.861 311,148.5C 292.829,112.727 263.662,97.2269 223.5,102C 215.947,103.184 208.614,105.184 201.5,108C 193.271,112.031 185.104,116.198 177,120.5C 175.268,120.266 174.434,119.266 174.5,117.5C 187.514,97.6651 205.18,83.4985 227.5,75C 236.798,71.8446 246.131,69.3446 255.5,67.5 Z"/></g>
<g><path style="opacity:0.985" fill="#000000" d="M 180.5,120.5 C 209.988,117.491 231.821,128.824 246,154.5C 257.075,183.364 251.242,208.197 228.5,229C 201.796,246.426 175.796,245.426 150.5,226C 131.728,206.739 126.562,184.239 135,158.5C 143.715,137.94 158.881,125.273 180.5,120.5 Z"/></g>
<g><path style="opacity:0.942" fill="#000000" d="M 460.5,131.5 C 477.837,131.333 495.17,131.5 512.5,132C 533.1,137.137 543.434,150.471 543.5,172C 543.498,185.359 538.831,196.693 529.5,206C 523.505,210.33 516.839,212.997 509.5,214C 499.172,214.5 488.839,214.666 478.5,214.5C 478.5,230.833 478.5,247.167 478.5,263.5C 472.5,263.5 466.5,263.5 460.5,263.5C 460.5,219.5 460.5,175.5 460.5,131.5 Z M 478.5,145.5 C 487.839,145.334 497.173,145.5 506.5,146C 513.608,146.796 518.775,150.296 522,156.5C 525.293,167.486 525.293,178.486 522,189.5C 518.723,196.398 513.223,200.232 505.5,201C 496.506,201.5 487.506,201.666 478.5,201.5C 478.5,182.833 478.5,164.167 478.5,145.5 Z"/></g>
<g><path style="opacity:0.961" fill="#000000" d="M 1025.5,131.5 C 1034.17,131.5 1042.83,131.5 1051.5,131.5C 1064.66,175.494 1078.33,219.328 1092.5,263C 1083.15,263.832 1073.82,263.665 1064.5,262.5C 1062.19,255.241 1060.19,247.908 1058.5,240.5C 1043.49,240.167 1028.49,240.501 1013.5,241.5C 1011.26,248.72 1008.93,255.886 1006.5,263C 998.833,263.667 991.167,263.667 983.5,263C 997.8,219.268 1011.8,175.435 1025.5,131.5 Z M 1036.5,159.5 C 1041.02,180.594 1046.36,201.594 1052.5,222.5C 1041.5,222.5 1030.5,222.5 1019.5,222.5C 1025.78,201.662 1031.45,180.662 1036.5,159.5 Z"/></g>
<g><path style="opacity:0.979" fill="#000000" d="M 1111.5,131.5 C 1120.17,131.5 1128.83,131.5 1137.5,131.5C 1137.5,175.5 1137.5,219.5 1137.5,263.5C 1128.83,263.5 1120.17,263.5 1111.5,263.5C 1111.5,219.5 1111.5,175.5 1111.5,131.5 Z"/></g>
<g><path style="opacity:0.957" fill="#000000" d="M 699.5,155.5 C 708.016,154.885 716.349,155.718 724.5,158C 725.931,158.465 727.097,159.299 728,160.5C 729.689,163.891 731.856,166.891 734.5,169.5C 743.82,157.222 756.153,152.722 771.5,156C 783.081,159.964 789.247,168.131 790,180.5C 790.5,208.165 790.667,235.831 790.5,263.5C 785.167,263.5 779.833,263.5 774.5,263.5C 774.95,234.797 774.45,206.13 773,177.5C 770.083,171.615 765.25,168.615 758.5,168.5C 750.325,169.173 743.159,172.173 737,177.5C 736.5,206.165 736.333,234.831 736.5,263.5C 731.167,263.5 725.833,263.5 720.5,263.5C 720.667,236.498 720.5,209.498 720,182.5C 719.155,173.158 713.988,168.492 704.5,168.5C 696.325,169.173 689.159,172.173 683,177.5C 682.5,206.165 682.333,234.831 682.5,263.5C 677.167,263.5 671.833,263.5 666.5,263.5C 666.5,228.167 666.5,192.833 666.5,157.5C 669.898,157.18 673.232,157.513 676.5,158.5C 677.789,162.044 679.456,165.377 681.5,168.5C 684.273,165.804 686.94,162.971 689.5,160C 692.893,158.38 696.226,156.88 699.5,155.5 Z"/></g>
<g><path style="opacity:0.941" fill="#000000" d="M 839.5,155.5 C 848.235,155.124 856.902,155.624 865.5,157C 876.284,161.476 882.118,169.642 883,181.5C 883.333,203.5 883.667,225.5 884,247.5C 884.163,249.676 884.996,251.509 886.5,253C 889.146,253.497 891.813,253.664 894.5,253.5C 894.823,256.962 894.823,260.295 894.5,263.5C 888.235,265.938 881.902,266.105 875.5,264C 873.333,260.5 871.167,257 869,253.5C 863.33,263.232 854.83,267.566 843.5,266.5C 822.969,266.303 812.969,255.97 813.5,235.5C 812.412,220.776 818.746,210.943 832.5,206C 843.977,203.052 855.644,201.552 867.5,201.5C 867.666,194.825 867.5,188.158 867,181.5C 865.833,175 862,171.167 855.5,170C 843.484,169.378 831.984,171.545 821,176.5C 819.27,172.027 818.103,167.361 817.5,162.5C 824.922,160.136 832.255,157.802 839.5,155.5 Z M 865.5,211.5 C 866.829,216.624 867.495,222.124 867.5,228C 871.568,241.462 866.901,249.795 853.5,253C 838.094,256.485 829.761,250.485 828.5,235C 827.949,224.082 832.949,217.415 843.5,215C 850.975,213.82 858.308,212.654 865.5,211.5 Z"/></g>
<g><path style="opacity:0.937" fill="#000000" d="M 931.5,155.5 C 942.742,154.676 953.742,155.843 964.5,159C 966.332,159.748 967.999,160.748 969.5,162C 968.418,165.405 967.584,168.905 967,172.5C 966.439,173.022 965.772,173.355 965,173.5C 954.473,169.138 943.639,167.971 932.5,170C 926.088,172.647 923.088,177.48 923.5,184.5C 923.313,189.444 924.979,193.611 928.5,197C 937.057,200.306 945.724,203.306 954.5,206C 969.859,213.337 975.692,225.504 972,242.5C 968.514,256.317 959.681,264.15 945.5,266C 932.695,267.199 920.362,265.365 908.5,260.5C 908.909,256.124 909.575,251.79 910.5,247.5C 919.084,250.521 927.918,252.521 937,253.5C 953.185,252.831 959.518,244.498 956,228.5C 954.542,226.04 952.709,223.873 950.5,222C 940.5,218.333 930.5,214.667 920.5,211C 911.542,204.914 907.542,196.414 908.5,185.5C 907.947,169.068 915.613,159.068 931.5,155.5 Z"/></g>
<g><path style="opacity:0.935" fill="#000000" d="M 564.5,157.5 C 569.833,157.5 575.167,157.5 580.5,157.5C 580.333,185.169 580.5,212.835 581,240.5C 582.949,249.236 588.449,253.236 597.5,252.5C 605.696,252.491 612.863,249.825 619,244.5C 619.5,215.502 619.667,186.502 619.5,157.5C 625.167,157.5 630.833,157.5 636.5,157.5C 636.5,192.833 636.5,228.167 636.5,263.5C 633.15,263.665 629.817,263.498 626.5,263C 624.626,259.419 622.626,255.919 620.5,252.5C 617.862,255.474 615.195,258.474 612.5,261.5C 600.544,266.547 588.544,266.714 576.5,262C 569.735,257.313 565.901,250.813 565,242.5C 564.5,214.169 564.333,185.835 564.5,157.5 Z"/></g>
</svg>
