<svg id="svg" version="1.1" xmlns="http://www.w3.org/2000/svg" xmlns:xlink="http://www.w3.org/1999/xlink" width="400" height="210" viewBox="0, 0, 400,210"><g id="svgg"><path id="path0" d="M275.210 89.076 L 275.210 106.723 277.731 106.723 L 280.252 106.723 280.252 89.076 L 280.252 71.429 277.731 71.429 L 275.210 71.429 275.210 89.076 M301.050 96.429 L 301.050 115.336 303.676 115.336 L 306.303 115.336 306.303 96.429 L 306.303 77.521 303.676 77.521 L 301.050 77.521 301.050 96.429 M310.084 100.420 L 310.084 120.378 312.605 120.378 L 315.126 120.378 315.126 100.420 L 315.126 80.462 312.605 80.462 L 310.084 80.462 310.084 100.420 M292.017 106.197 L 292.017 126.261 294.433 126.261 L 296.849 126.261 296.849 106.197 L 296.849 86.134 294.433 86.134 L 292.017 86.134 292.017 106.197 M318.697 100.735 L 318.697 111.975 321.113 111.975 L 323.529 111.975 323.529 100.735 L 323.529 89.496 321.113 89.496 L 318.697 89.496 318.697 100.735 M283.403 106.197 L 283.403 120.378 285.924 120.378 L 288.445 120.378 288.445 106.197 L 288.445 92.017 285.924 92.017 L 283.403 92.017 283.403 106.197 M327.731 112.395 L 327.731 126.261 330.147 126.261 L 332.563 126.261 332.563 112.395 L 332.563 98.529 330.147 98.529 L 327.731 98.529 327.731 112.395 M81.077 155.454 C 73.145 156.468,70.333 161.470,70.325 174.580 C 70.315 189.093,73.896 194.119,84.244 194.117 C 94.402 194.115,98.319 188.707,98.319 174.685 C 98.319 159.439,93.340 153.886,81.077 155.454 M222.857 156.098 C 220.538 156.489,218.547 158.297,217.945 160.559 C 217.542 162.072,217.525 187.201,217.926 188.655 C 218.660 191.319,220.287 192.726,223.290 193.297 C 224.632 193.552,235.717 193.444,239.233 193.142 L 240.756 193.011 240.756 191.586 C 240.756 189.278,241.610 189.496,232.550 189.496 C 221.536 189.496,222.269 190.109,222.269 180.894 L 222.269 175.420 230.357 175.420 L 238.445 175.420 238.445 173.637 L 238.445 171.854 230.410 171.799 L 222.374 171.744 222.308 167.542 C 222.226 162.244,222.400 161.371,223.801 160.042 C 223.825 160.019,227.626 159.948,232.248 159.885 L 240.651 159.769 240.651 157.983 L 240.651 156.197 237.185 156.069 C 232.238 155.886,224.019 155.902,222.857 156.098 M88.866 157.712 C 94.035 159.182,96.008 163.872,96.008 174.685 C 96.008 188.605,92.624 192.872,82.272 191.998 C 75.070 191.390,72.479 186.767,72.479 174.518 C 72.479 162.845,74.989 158.183,81.723 157.348 C 83.593 157.116,87.463 157.314,88.866 157.712 M200.420 163.013 C 200.420 167.647,200.644 167.271,197.799 167.427 L 195.693 167.542 195.693 168.277 L 195.693 169.013 198.049 169.072 L 200.405 169.131 200.465 179.698 L 200.525 190.265 201.161 191.293 C 201.556 191.931,202.187 192.562,202.827 192.957 L 203.856 193.592 207.380 193.592 C 211.271 193.592,211.579 193.504,211.223 192.491 L 211.020 191.912 207.874 191.807 C 204.075 191.680,203.586 191.490,202.822 189.850 L 202.315 188.761 202.313 178.943 L 202.311 169.126 206.985 169.069 L 211.660 169.013 211.660 168.172 L 211.660 167.332 207.038 167.227 L 202.416 167.122 202.359 163.078 L 202.302 159.034 201.361 159.034 L 200.420 159.034 200.420 163.013 M254.517 166.793 C 248.979 168.160,246.639 172.064,246.639 179.935 C 246.639 190.753,250.938 194.855,261.297 193.919 C 266.541 193.446,268.318 192.932,268.137 191.943 C 267.760 189.879,267.732 189.809,267.318 189.884 C 265.213 190.266,256.951 190.132,255.777 189.697 C 252.549 188.502,251.585 186.308,251.579 180.147 C 251.572 171.494,253.200 170.016,262.524 170.213 L 267.170 170.311 267.409 169.278 C 267.778 167.677,267.738 167.530,266.859 167.272 C 263.692 166.342,257.344 166.095,254.517 166.793 M281.899 166.490 C 281.842 166.547,281.305 166.687,280.706 166.800 C 274.955 167.891,272.530 172.868,273.106 182.395 C 273.622 190.914,276.951 194.117,285.294 194.117 C 294.379 194.118,297.686 190.426,297.688 180.282 C 297.690 171.890,295.512 168.102,289.923 166.776 C 288.431 166.422,282.190 166.200,281.899 166.490 M318.172 166.695 C 315.519 167.355,313.827 168.128,311.174 169.892 C 309.112 171.262,309.307 171.345,309.097 169.006 L 308.929 167.122 307.090 167.061 L 305.252 167.000 305.224 167.691 C 305.209 168.071,305.169 173.984,305.137 180.830 L 305.078 193.278 305.533 193.392 C 305.783 193.455,306.791 193.478,307.773 193.444 L 309.559 193.382 309.613 183.823 L 309.668 174.264 310.581 173.687 C 311.083 173.369,311.553 173.109,311.625 173.109 C 311.697 173.109,312.255 172.793,312.864 172.406 C 316.028 170.394,320.655 169.548,322.365 170.668 C 323.815 171.618,323.825 171.699,323.946 183.088 L 324.055 193.382 326.155 193.382 L 328.256 193.382 328.320 183.088 C 328.389 171.940,328.348 171.392,327.277 169.328 C 325.986 166.839,322.103 165.716,318.172 166.695 M145.161 166.796 C 144.060 166.888,142.500 167.065,141.695 167.190 C 140.890 167.314,139.689 167.475,139.026 167.546 C 137.692 167.691,137.503 167.843,137.699 168.622 C 137.827 169.133,137.880 169.149,139.137 169.052 C 154.307 167.876,155.672 168.375,155.672 175.094 L 155.672 177.484 148.372 177.569 C 139.345 177.674,138.665 177.865,137.134 180.730 C 136.491 181.934,136.411 188.632,137.024 189.987 C 139.403 195.247,147.718 194.920,154.830 189.287 C 155.840 188.487,155.909 188.587,156.042 191.044 C 156.155 193.130,156.305 193.487,157.064 193.487 L 157.563 193.487 157.563 182.692 C 157.563 170.182,157.588 170.384,155.785 168.592 C 153.996 166.816,150.994 166.308,145.161 166.796 M179.517 166.802 C 176.989 167.232,174.836 168.190,171.734 170.264 C 169.191 171.964,169.328 171.985,169.325 169.905 C 169.321 167.482,169.228 167.227,168.356 167.227 L 167.644 167.227 167.698 180.305 L 167.752 193.382 168.592 193.382 L 169.433 193.382 169.487 183.523 C 169.550 172.226,169.285 173.494,171.917 171.891 C 178.992 167.581,184.451 167.246,186.301 171.008 L 186.870 172.164 186.975 182.773 L 187.080 193.382 187.983 193.447 L 188.886 193.513 188.823 182.313 L 188.761 171.113 188.157 169.903 C 186.824 167.230,183.665 166.096,179.517 166.802 M107.226 167.524 C 106.809 168.609,107.275 189.007,107.743 190.182 C 109.961 195.749,117.162 195.351,125.748 189.188 C 126.176 188.881,126.220 189.022,126.405 191.285 L 126.576 193.382 127.258 193.448 L 127.941 193.514 127.941 180.370 L 127.941 167.227 126.996 167.227 L 126.050 167.227 126.050 177.188 L 126.050 187.150 125.263 187.768 C 118.444 193.117,111.196 193.715,109.554 189.063 C 109.296 188.331,109.244 186.415,109.244 177.705 L 109.244 167.227 108.292 167.227 C 107.665 167.227,107.301 167.328,107.226 167.524 M289.415 170.748 C 292.197 172.197,293.067 174.462,293.067 180.252 C 293.067 188.047,291.418 190.189,285.399 190.214 C 279.161 190.239,277.836 188.475,277.836 180.147 C 277.836 173.199,278.783 171.268,282.668 170.299 C 283.896 169.992,288.561 170.302,289.415 170.748 M155.672 183.052 L 155.672 186.902 154.479 187.869 C 149.889 191.588,142.466 193.030,140.051 190.671 C 138.853 189.500,138.655 188.768,138.655 185.490 C 138.655 179.443,138.888 179.322,150.683 179.237 L 155.672 179.202 155.672 183.052 M81.983 196.846 C 81.622 197.424,81.588 197.372,82.931 198.283 C 85.477 200.011,89.273 201.615,92.227 202.211 C 92.978 202.363,93.753 202.550,93.950 202.627 C 94.222 202.735,94.384 202.583,94.632 201.989 C 95.072 200.937,95.043 200.655,94.485 200.544 C 90.016 199.653,86.266 198.410,83.674 196.962 C 82.525 196.319,82.321 196.305,81.983 196.846 " stroke="none" fill="#0d2e4d" fill-rule="evenodd"></path><path id="path1" d="M0.000 105.042 L 0.000 210.084 200.000 210.084 L 400.000 210.084 400.000 105.042 L 400.000 0.000 200.000 0.000 L 0.000 0.000 0.000 105.042 M237.185 44.643 L 237.185 82.773 234.244 82.773 L 231.303 82.773 231.303 44.783 C 231.303 23.888,231.366 6.730,231.443 6.653 C 231.520 6.576,232.843 6.513,234.384 6.513 L 237.185 6.513 237.185 44.643 M227.521 50.735 L 227.521 87.605 224.580 87.605 L 221.639 87.605 221.634 85.872 C 221.628 83.348,221.627 18.566,221.633 16.019 L 221.639 13.866 224.580 13.866 L 227.521 13.866 227.521 50.735 M254.412 49.580 L 254.412 82.773 251.471 82.773 L 248.529 82.773 248.529 49.580 L 248.529 16.387 251.471 16.387 L 254.412 16.387 254.412 49.580 M246.008 49.586 L 246.008 71.440 243.015 71.382 L 240.021 71.324 239.968 49.527 L 239.914 27.731 242.961 27.731 L 246.008 27.731 246.008 49.586 M263.235 67.227 L 263.235 100.420 260.294 100.420 L 257.353 100.420 257.353 67.227 L 257.353 34.034 260.294 34.034 L 263.235 34.034 263.235 67.227 M149.318 70.431 L 149.371 103.782 146.639 103.782 L 143.908 103.782 143.908 70.518 C 143.908 52.223,143.973 37.189,144.054 37.109 C 144.134 37.028,145.340 36.989,146.732 37.021 L 149.265 37.080 149.318 70.431 M166.807 73.109 L 166.807 106.513 164.076 106.513 L 161.345 106.513 161.345 73.109 L 161.345 39.706 164.076 39.706 L 166.807 39.706 166.807 73.109 M219.748 82.878 L 219.748 120.588 216.807 120.588 L 213.866 120.588 213.866 82.878 L 213.866 45.168 216.807 45.168 L 219.748 45.168 219.748 82.878 M140.284 78.834 L 140.337 112.185 137.606 112.185 L 134.874 112.185 134.874 78.922 C 134.874 60.627,134.940 45.592,135.020 45.512 C 135.101 45.432,136.306 45.392,137.699 45.425 L 140.231 45.483 140.284 78.834 M157.983 70.063 L 157.983 94.748 155.252 94.748 L 152.521 94.748 152.521 70.203 C 152.521 56.703,152.584 45.595,152.661 45.518 C 152.738 45.441,153.967 45.378,155.392 45.378 L 157.983 45.378 157.983 70.063 M175.630 81.933 L 175.630 109.664 173.004 109.664 L 170.378 109.664 170.378 81.933 L 170.378 54.202 173.004 54.202 L 175.630 54.202 175.630 81.933 M271.639 86.975 L 271.639 117.857 268.697 117.857 L 265.756 117.857 265.756 86.975 L 265.756 56.092 268.697 56.092 L 271.639 56.092 271.639 86.975 M131.513 87.500 L 131.513 112.185 128.676 112.185 L 125.840 112.185 125.840 87.500 L 125.840 62.815 128.676 62.815 L 131.513 62.815 131.513 87.500 M88.184 86.082 L 88.130 106.408 85.242 106.466 L 82.353 106.524 82.353 86.140 L 82.353 65.756 85.295 65.756 L 88.237 65.756 88.184 86.082 M184.196 101.366 C 184.228 119.506,184.202 134.561,184.140 134.821 C 184.029 135.280,183.949 135.294,181.404 135.294 L 178.782 135.294 178.782 101.779 L 178.782 68.265 181.460 68.324 L 184.139 68.382 184.196 101.366 M97.113 71.691 C 97.247 72.047,97.270 111.353,97.136 111.817 C 97.042 112.144,96.716 112.185,94.209 112.185 L 91.387 112.185 91.387 91.807 L 91.387 71.429 94.200 71.429 C 96.258 71.429,97.040 71.499,97.113 71.691 M280.252 89.181 L 280.252 106.933 277.521 106.933 L 274.790 106.933 274.790 89.181 L 274.790 71.429 277.521 71.429 L 280.252 71.429 280.252 89.181 M105.672 87.605 L 105.672 103.151 102.731 103.151 L 99.790 103.151 99.790 87.605 L 99.790 72.059 102.731 72.059 L 105.672 72.059 105.672 87.605 M210.924 107.038 L 210.924 142.017 207.983 142.017 L 205.042 142.017 205.042 107.038 L 205.042 72.059 207.983 72.059 L 210.924 72.059 210.924 107.038 M79.780 94.911 L 79.834 115.348 76.944 115.290 L 74.055 115.231 74.000 95.063 C 73.971 83.971,73.992 74.774,74.049 74.626 C 74.126 74.422,74.825 74.372,76.939 74.416 L 79.727 74.475 79.780 94.911 M306.303 96.324 L 306.303 115.336 303.676 115.336 L 301.050 115.336 301.050 96.324 L 301.050 77.311 303.676 77.311 L 306.303 77.311 306.303 96.324 M70.588 95.903 L 70.588 112.185 67.752 112.185 L 64.916 112.185 64.916 96.043 C 64.916 87.166,64.979 79.839,65.056 79.762 C 65.133 79.685,66.409 79.622,67.892 79.622 L 70.588 79.622 70.588 95.903 M315.285 100.368 L 315.338 120.588 312.734 120.588 C 310.552 120.588,310.108 120.534,310.001 120.256 C 309.833 119.818,309.836 80.807,310.004 80.368 C 310.115 80.078,310.497 80.038,312.682 80.088 L 315.231 80.147 315.285 100.368 M201.366 106.408 L 201.366 132.458 198.687 132.517 L 196.008 132.576 196.008 106.408 L 196.008 80.240 198.687 80.298 L 201.366 80.357 201.366 106.408 M114.444 100.479 L 114.498 117.869 111.608 117.811 L 108.718 117.752 108.664 100.630 C 108.634 91.213,108.656 83.387,108.712 83.240 C 108.790 83.036,109.489 82.985,111.603 83.030 L 114.391 83.088 114.444 100.479 M122.794 101.786 L 122.794 120.483 119.905 120.542 L 117.017 120.600 117.017 101.786 L 117.017 82.971 119.905 83.030 L 122.794 83.088 122.794 101.786 M297.269 106.408 L 297.269 126.681 294.538 126.681 L 291.807 126.681 291.807 106.408 L 291.807 86.134 294.538 86.134 L 297.269 86.134 297.269 106.408 M323.899 100.788 L 323.953 112.185 321.220 112.185 L 318.487 112.185 318.487 100.875 C 318.487 94.655,318.553 89.500,318.634 89.420 C 318.714 89.339,319.919 89.300,321.312 89.332 L 323.845 89.391 323.899 100.788 M288.655 106.197 L 288.655 120.588 285.924 120.588 L 283.193 120.588 283.193 106.197 L 283.193 91.807 285.924 91.807 L 288.655 91.807 288.655 106.197 M192.857 122.584 L 192.857 150.210 190.126 150.210 L 187.395 150.210 187.395 122.724 C 187.395 107.607,187.458 95.175,187.535 95.098 C 187.612 95.021,188.841 94.958,190.266 94.958 L 192.857 94.958 192.857 122.584 M332.932 112.342 L 332.878 126.576 330.200 126.634 L 327.521 126.693 327.521 112.401 L 327.521 98.109 330.254 98.109 L 332.986 98.109 332.932 112.342 M88.971 155.551 C 93.486 156.825,95.640 158.857,97.228 163.340 C 98.949 168.201,98.757 182.176,96.905 186.765 C 94.742 192.123,91.309 194.118,84.247 194.118 C 73.646 194.118,70.155 189.376,70.096 174.895 C 70.042 161.413,72.986 156.370,81.618 155.163 C 82.849 154.991,87.937 155.259,88.971 155.551 M239.443 156.013 L 240.966 156.149 240.966 157.460 C 240.966 158.181,240.907 159.066,240.835 159.428 L 240.704 160.084 232.547 160.084 C 221.730 160.084,222.618 159.493,222.515 166.754 L 222.445 171.639 230.558 171.639 L 238.671 171.639 238.611 173.582 L 238.550 175.525 230.500 175.580 L 222.450 175.635 222.517 181.605 C 222.611 190.014,221.654 189.278,232.503 189.283 C 241.785 189.286,240.966 189.056,240.966 191.668 L 240.966 193.238 239.023 193.377 C 234.086 193.730,222.232 193.416,221.204 192.905 C 219.832 192.221,218.742 191.111,218.100 189.740 L 217.542 188.550 217.476 175.840 C 217.394 160.050,217.428 159.717,219.327 157.799 C 221.316 155.790,221.958 155.676,230.672 155.785 C 234.659 155.836,238.606 155.938,239.443 156.013 M81.197 157.576 C 74.938 158.426,72.794 162.791,72.794 174.685 C 72.794 188.062,75.396 191.939,84.349 191.900 C 92.667 191.863,95.273 188.410,95.927 176.560 C 96.737 161.894,92.225 156.080,81.197 157.576 M202.521 163.025 L 202.521 167.017 207.139 167.017 L 211.757 167.017 211.883 167.521 C 211.953 167.798,211.978 168.247,211.940 168.519 L 211.870 169.013 207.186 169.069 L 202.502 169.126 202.564 179.258 C 202.644 192.303,202.373 191.789,209.168 191.802 L 211.299 191.807 211.387 192.562 C 211.641 194.740,203.316 194.294,201.450 192.031 C 200.227 190.546,200.210 190.375,200.210 179.269 L 200.210 169.118 197.794 169.118 L 195.378 169.118 195.378 168.304 L 195.378 167.491 196.901 167.353 C 197.739 167.276,198.826 167.159,199.317 167.091 L 200.210 166.969 200.210 163.001 L 200.210 159.034 201.366 159.034 L 202.521 159.034 202.521 163.025 M265.336 166.723 C 268.107 167.377,267.962 167.171,267.455 169.748 L 267.310 170.483 265.115 170.378 C 253.669 169.830,251.709 171.226,251.688 179.937 C 251.668 188.474,253.778 190.479,262.290 190.011 C 264.023 189.915,266.008 189.831,266.700 189.824 L 267.958 189.811 268.106 190.983 C 268.187 191.627,268.282 192.281,268.318 192.435 C 268.593 193.632,257.381 194.642,254.097 193.717 C 248.597 192.166,246.632 188.550,246.644 179.998 C 246.657 170.968,249.269 167.147,255.956 166.377 C 258.086 166.132,263.709 166.339,265.336 166.723 M290.590 166.729 C 295.211 168.077,297.213 171.091,297.735 177.485 C 298.667 188.899,295.555 193.653,286.765 194.239 C 276.820 194.903,272.923 190.967,272.864 180.203 C 272.819 172.135,274.775 168.426,279.937 166.787 C 281.998 166.132,288.427 166.097,290.590 166.729 M323.424 166.401 C 328.211 167.668,328.619 169.077,328.525 184.034 L 328.466 193.382 326.103 193.442 L 323.739 193.501 323.738 184.093 C 323.736 174.594,323.607 172.483,322.965 171.504 C 321.545 169.336,317.014 170.044,311.660 173.270 L 309.979 174.283 309.874 183.833 L 309.769 193.382 307.405 193.442 L 305.042 193.501 305.042 180.154 L 305.042 166.807 307.025 166.807 L 309.008 166.807 309.131 167.700 C 309.198 168.191,309.322 169.088,309.406 169.693 L 309.559 170.793 311.067 169.767 C 315.223 166.938,320.264 165.565,323.424 166.401 M153.276 166.844 C 154.540 167.253,155.912 168.193,156.533 169.077 C 157.763 170.825,157.773 170.938,157.773 182.705 L 157.773 193.487 156.955 193.487 C 155.990 193.487,155.883 193.304,155.880 191.632 C 155.879 190.977,155.820 190.090,155.749 189.661 L 155.620 188.881 154.390 189.828 C 148.184 194.603,140.087 195.274,137.530 191.225 C 135.802 188.486,135.841 182.100,137.601 179.627 C 138.968 177.708,140.859 177.329,149.107 177.319 L 155.462 177.311 155.462 175.220 C 155.462 168.977,153.454 167.934,143.277 168.890 C 142.064 169.004,140.302 169.155,139.363 169.225 L 137.654 169.352 137.565 168.590 C 137.441 167.526,137.794 167.422,143.592 166.809 C 144.748 166.687,146.024 166.551,146.429 166.507 C 147.894 166.349,152.436 166.572,153.276 166.844 M185.341 166.981 C 186.413 167.452,187.638 168.586,188.155 169.586 C 189.041 171.299,189.071 171.730,189.073 182.826 L 189.076 193.487 187.932 193.487 L 186.789 193.487 186.724 182.826 C 186.662 172.470,186.647 172.137,186.214 171.218 C 184.361 167.284,178.293 167.792,171.324 172.466 L 169.853 173.452 169.798 183.470 L 169.744 193.487 168.589 193.487 L 167.434 193.487 167.488 180.305 L 167.542 167.122 168.382 167.122 L 169.223 167.122 169.383 169.208 C 169.580 171.781,169.437 171.689,171.223 170.390 C 173.610 168.653,176.188 167.407,178.571 166.836 C 179.091 166.712,179.706 166.565,179.937 166.510 C 180.987 166.259,184.367 166.553,185.341 166.981 M109.454 178.046 L 109.559 188.971 110.134 189.948 C 111.823 192.823,117.657 192.662,122.121 189.619 C 122.559 189.320,122.973 189.076,123.039 189.076 C 123.106 189.076,123.763 188.646,124.499 188.121 L 125.836 187.167 125.891 177.144 L 125.945 167.122 126.996 167.122 L 128.046 167.122 128.100 180.305 L 128.154 193.487 127.228 193.487 L 126.301 193.487 126.228 191.509 C 126.136 189.011,126.201 189.045,124.238 190.455 C 122.557 191.662,119.318 193.331,118.172 193.580 C 117.826 193.655,117.069 193.816,116.492 193.938 C 111.593 194.969,108.132 193.070,107.248 188.866 C 106.913 187.272,106.762 167.468,107.082 167.147 C 107.164 167.065,107.708 167.026,108.290 167.060 L 109.349 167.122 109.454 178.046 M282.801 170.478 C 279.085 171.322,277.830 173.769,277.842 180.147 C 277.856 187.894,279.536 190.131,285.335 190.124 C 287.798 190.120,289.862 189.599,290.655 188.780 C 292.432 186.943,292.752 185.658,292.752 180.357 C 292.752 174.762,292.334 173.080,290.582 171.636 C 289.099 170.414,285.467 169.873,282.801 170.478 M141.931 179.647 C 139.679 180.175,138.820 181.527,138.689 184.750 C 138.554 188.065,139.171 190.052,140.614 190.944 C 143.332 192.623,149.531 191.327,153.782 188.190 C 155.535 186.896,155.462 187.119,155.462 183.048 L 155.462 179.412 149.107 179.433 C 145.612 179.444,142.382 179.541,141.931 179.647 M84.003 196.942 C 87.008 198.500,89.976 199.490,93.855 200.226 C 95.279 200.496,95.306 200.538,94.864 201.786 C 94.577 202.598,94.538 202.625,93.680 202.583 C 90.981 202.452,85.944 200.538,82.944 198.502 C 81.469 197.501,81.411 197.409,81.843 196.750 C 82.287 196.073,82.334 196.077,84.003 196.942 " stroke="none" fill="#fbfbfb" fill-rule="evenodd"></path><path id="path2" d="M231.443 6.653 C 231.366 6.730,231.303 23.888,231.303 44.783 L 231.303 82.773 234.244 82.773 L 237.185 82.773 237.185 44.643 L 237.185 6.513 234.384 6.513 C 232.843 6.513,231.520 6.576,231.443 6.653 M221.633 16.019 C 221.627 18.566,221.628 83.348,221.634 85.872 L 221.639 87.605 224.580 87.605 L 227.521 87.605 227.521 50.735 L 227.521 13.866 224.580 13.866 L 221.639 13.866 221.633 16.019 M248.529 49.580 L 248.529 82.773 251.471 82.773 L 254.412 82.773 254.412 49.580 L 254.412 16.387 251.471 16.387 L 248.529 16.387 248.529 49.580 M239.968 49.527 L 240.021 71.324 243.015 71.382 L 246.008 71.440 246.008 49.586 L 246.008 27.731 242.961 27.731 L 239.914 27.731 239.968 49.527 M257.353 67.227 L 257.353 100.420 260.294 100.420 L 263.235 100.420 263.235 67.227 L 263.235 34.034 260.294 34.034 L 257.353 34.034 257.353 67.227 M213.866 82.878 L 213.866 120.588 216.807 120.588 L 219.748 120.588 219.748 82.878 L 219.748 45.168 216.807 45.168 L 213.866 45.168 213.866 82.878 M265.756 86.975 L 265.756 117.857 268.697 117.857 L 271.639 117.857 271.639 86.975 L 271.639 56.092 268.697 56.092 L 265.756 56.092 265.756 86.975 M274.790 89.181 L 274.790 106.933 277.574 106.887 L 280.357 106.842 277.784 106.776 L 275.210 106.710 275.210 89.069 C 275.210 77.449,275.138 71.429,275.000 71.429 C 274.862 71.429,274.790 77.486,274.790 89.181 M205.042 107.038 L 205.042 142.017 207.983 142.017 L 210.924 142.017 210.924 107.038 L 210.924 72.059 207.983 72.059 L 205.042 72.059 205.042 107.038 M302.372 77.467 C 303.157 77.507,304.386 77.507,305.103 77.466 C 305.821 77.425,305.179 77.392,303.676 77.393 C 302.174 77.393,301.587 77.426,302.372 77.467 M309.979 80.508 C 309.916 80.772,309.890 89.827,309.922 100.630 L 309.981 120.273 310.033 100.368 L 310.084 80.462 312.605 80.462 L 315.126 80.462 315.126 100.414 L 315.126 120.365 312.553 120.431 L 309.979 120.497 312.659 120.543 L 315.338 120.588 315.285 100.368 L 315.231 80.147 312.663 80.088 C 310.142 80.030,310.093 80.038,309.979 80.508 M291.858 106.355 L 291.807 126.681 294.538 126.681 L 297.269 126.681 297.269 106.408 C 297.269 93.032,297.197 86.134,297.059 86.134 C 296.920 86.134,296.849 92.962,296.849 106.197 L 296.849 126.261 294.434 126.261 L 292.019 126.261 291.964 106.145 L 291.910 86.029 291.858 106.355 M318.634 89.420 C 318.553 89.500,318.487 94.655,318.487 100.875 L 318.487 112.185 321.220 112.185 L 323.953 112.185 323.899 100.788 L 323.845 89.391 321.312 89.332 C 319.919 89.300,318.714 89.339,318.634 89.420 M323.529 100.735 L 323.529 111.975 321.113 111.975 L 318.697 111.975 318.697 100.735 L 318.697 89.496 321.113 89.496 L 323.529 89.496 323.529 100.735 M283.193 106.197 L 283.193 120.588 285.924 120.588 L 288.655 120.588 288.655 106.197 L 288.655 91.807 285.924 91.807 L 283.193 91.807 283.193 106.197 M288.445 106.197 L 288.445 120.378 285.924 120.378 L 283.403 120.378 283.403 106.197 L 283.403 92.017 285.924 92.017 L 288.445 92.017 288.445 106.197 M327.521 112.401 L 327.521 126.693 330.200 126.634 L 332.878 126.576 332.932 112.342 L 332.986 98.109 330.254 98.109 L 327.521 98.109 327.521 112.401 M332.563 112.395 L 332.563 126.261 330.147 126.261 L 327.731 126.261 327.731 112.395 L 327.731 98.529 330.147 98.529 L 332.563 98.529 332.563 112.395 M81.032 155.238 C 80.363 155.332,79.752 155.472,79.674 155.550 C 79.596 155.628,79.954 155.617,80.470 155.527 C 81.634 155.322,86.748 155.311,88.025 155.509 C 88.774 155.626,88.861 155.612,88.445 155.441 C 87.760 155.160,82.595 155.018,81.032 155.238 M78.361 155.882 C 78.081 156.063,78.081 156.086,78.361 156.086 C 78.535 156.086,78.818 155.994,78.992 155.882 C 79.272 155.701,79.272 155.679,78.992 155.679 C 78.818 155.679,78.535 155.770,78.361 155.882 M223.069 155.845 C 222.874 155.923,226.325 155.988,230.737 155.990 C 235.193 155.991,237.780 155.932,236.555 155.858 C 233.571 155.676,223.512 155.667,223.069 155.845 M77.101 156.408 C 76.812 156.573,76.670 156.708,76.786 156.708 C 76.901 156.708,77.232 156.573,77.521 156.408 C 77.810 156.242,77.952 156.107,77.836 156.107 C 77.721 156.107,77.390 156.242,77.101 156.408 M91.376 156.522 C 91.891 156.758,92.452 157.065,92.625 157.205 C 92.872 157.404,92.904 157.402,92.779 157.194 C 92.592 156.883,91.709 156.410,90.966 156.224 C 90.678 156.151,90.862 156.285,91.376 156.522 M220.969 156.520 C 220.544 156.745,220.124 157.048,220.036 157.193 C 219.911 157.403,219.943 157.405,220.192 157.203 C 220.366 157.063,220.927 156.758,221.441 156.525 C 221.954 156.292,222.232 156.104,222.059 156.106 C 221.886 156.109,221.395 156.295,220.969 156.520 M240.711 157.195 C 240.819 159.182,240.903 159.378,240.935 157.721 C 240.952 156.825,240.895 156.092,240.809 156.092 C 240.722 156.092,240.678 156.589,240.711 157.195 M83.561 157.295 C 83.936 157.341,84.551 157.341,84.926 157.295 C 85.302 157.248,84.995 157.210,84.244 157.210 C 83.493 157.210,83.185 157.248,83.561 157.295 M80.357 157.558 C 80.103 157.664,80.436 157.688,81.197 157.619 C 81.891 157.556,82.497 157.471,82.546 157.429 C 82.725 157.273,80.762 157.389,80.357 157.558 M86.152 157.429 C 86.200 157.471,86.807 157.560,87.500 157.628 C 88.301 157.707,88.607 157.684,88.340 157.567 C 87.943 157.392,85.966 157.267,86.152 157.429 M93.172 157.486 C 93.288 157.588,93.713 157.954,94.117 158.300 L 94.851 158.929 94.327 158.332 C 94.039 158.003,93.613 157.637,93.382 157.518 C 93.151 157.399,93.057 157.385,93.172 157.486 M88.866 157.817 C 88.923 157.874,89.299 158.032,89.701 158.168 C 90.103 158.304,90.339 158.324,90.226 158.214 C 90.113 158.103,89.737 157.946,89.391 157.863 C 89.044 157.781,88.808 157.761,88.866 157.817 M77.667 158.609 C 77.125 158.953,76.681 159.295,76.681 159.370 C 76.681 159.444,76.799 159.407,76.944 159.287 C 77.089 159.166,77.633 158.825,78.152 158.528 C 78.672 158.231,78.997 157.987,78.875 157.986 C 78.753 157.984,78.210 158.265,77.667 158.609 M218.534 158.689 C 218.044 159.408,217.632 160.568,217.666 161.133 C 217.676 161.307,217.809 160.998,217.961 160.445 C 218.113 159.893,218.487 159.113,218.793 158.712 C 219.099 158.311,219.273 157.984,219.181 157.985 C 219.088 157.985,218.797 158.302,218.534 158.689 M90.546 158.448 C 90.604 158.509,91.218 159.010,91.912 159.561 C 92.908 160.354,93.030 160.414,92.496 159.848 C 92.124 159.454,91.509 158.953,91.130 158.735 C 90.751 158.517,90.488 158.388,90.546 158.448 M73.279 159.401 C 72.909 159.832,72.631 160.294,72.742 160.294 C 72.785 160.294,73.030 160.011,73.286 159.664 C 73.792 158.979,73.788 158.809,73.279 159.401 M94.963 159.061 C 94.960 159.133,95.289 159.742,95.693 160.414 C 96.098 161.085,96.429 161.542,96.429 161.427 C 96.429 161.200,94.972 158.847,94.963 159.061 M200.258 162.958 L 200.210 166.987 199.002 167.118 C 197.038 167.332,196.850 167.416,198.492 167.346 C 200.531 167.260,200.439 167.476,200.367 162.905 L 200.305 158.929 200.258 162.958 M202.409 163.025 L 202.416 167.122 207.038 167.227 L 211.660 167.332 211.660 168.205 C 211.660 168.685,211.731 169.034,211.817 168.981 C 212.006 168.863,212.026 167.814,211.847 167.349 C 211.736 167.060,211.121 167.017,207.125 167.017 L 202.530 167.017 202.466 162.973 L 202.402 158.929 202.409 163.025 M75.658 160.189 C 74.763 161.209,74.823 161.352,75.738 160.382 C 76.144 159.951,76.440 159.563,76.396 159.519 C 76.352 159.476,76.020 159.777,75.658 160.189 M232.563 159.874 L 224.475 159.987 232.616 160.035 C 237.935 160.067,240.756 160.011,240.756 159.874 C 240.756 159.758,240.733 159.686,240.704 159.713 C 240.675 159.739,237.012 159.812,232.563 159.874 M96.674 162.406 C 96.797 162.758,96.936 163.008,96.984 162.960 C 97.088 162.856,96.692 161.765,96.550 161.765 C 96.495 161.765,96.551 162.053,96.674 162.406 M222.377 162.658 C 222.306 163.149,222.277 165.394,222.311 167.647 L 222.374 171.744 230.410 171.799 L 238.445 171.854 238.445 173.637 L 238.445 175.420 230.357 175.420 L 222.269 175.420 222.290 181.040 C 222.301 184.131,222.372 186.879,222.447 187.148 C 222.523 187.416,222.554 184.936,222.517 181.636 L 222.450 175.635 230.500 175.580 L 238.550 175.525 238.611 173.582 L 238.671 171.639 230.558 171.639 L 222.445 171.639 222.515 166.702 C 222.588 161.484,222.580 161.242,222.377 162.658 M217.536 174.580 C 217.536 181.455,217.562 184.267,217.594 180.830 C 217.627 177.392,217.627 171.767,217.594 168.330 C 217.562 164.892,217.536 167.705,217.536 174.580 M73.973 163.049 C 73.843 163.420,73.774 163.760,73.819 163.805 C 73.864 163.850,74.007 163.583,74.136 163.212 C 74.266 162.841,74.335 162.500,74.290 162.455 C 74.245 162.410,74.102 162.677,73.973 163.049 M71.243 163.466 C 71.114 163.836,71.015 164.242,71.023 164.370 C 71.031 164.497,71.174 164.231,71.339 163.779 C 71.505 163.327,71.604 162.920,71.559 162.875 C 71.514 162.830,71.372 163.096,71.243 163.466 M94.448 163.235 C 94.525 163.524,94.676 163.902,94.783 164.076 C 94.919 164.295,94.935 164.231,94.838 163.866 C 94.760 163.577,94.609 163.199,94.502 163.025 C 94.367 162.806,94.351 162.870,94.448 163.235 M97.199 163.866 C 97.399 164.969,97.708 165.610,97.554 164.601 C 97.483 164.139,97.344 163.619,97.246 163.445 C 97.136 163.254,97.118 163.419,97.199 163.866 M94.982 164.916 C 94.992 165.089,95.076 165.467,95.168 165.756 L 95.336 166.282 95.354 165.756 C 95.364 165.467,95.280 165.089,95.168 164.916 C 94.987 164.636,94.966 164.636,94.982 164.916 M70.733 165.342 C 70.657 165.627,70.603 166.145,70.614 166.492 C 70.630 166.994,70.672 166.931,70.820 166.176 C 71.024 165.144,70.957 164.505,70.733 165.342 M73.031 166.320 C 72.790 167.936,72.639 169.640,72.747 169.538 C 72.887 169.405,73.342 165.709,73.232 165.599 C 73.188 165.554,73.097 165.879,73.031 166.320 M97.846 167.332 C 97.907 168.141,97.992 168.842,98.034 168.890 C 98.180 169.059,98.066 166.906,97.901 166.387 C 97.804 166.081,97.781 166.477,97.846 167.332 M258.358 166.332 C 258.968 166.374,259.914 166.374,260.459 166.331 C 261.004 166.287,260.504 166.253,259.349 166.253 C 258.193 166.254,257.747 166.289,258.358 166.332 M284.513 166.331 C 285.065 166.375,285.916 166.374,286.403 166.330 C 286.891 166.286,286.439 166.250,285.399 166.251 C 284.359 166.252,283.960 166.288,284.513 166.331 M320.541 166.331 C 321.035 166.375,321.792 166.374,322.222 166.329 C 322.652 166.284,322.248 166.248,321.324 166.248 C 320.399 166.249,320.047 166.286,320.541 166.331 M145.693 166.582 C 144.884 166.649,146.147 166.703,148.500 166.702 C 150.852 166.702,152.412 166.636,151.966 166.556 C 151.040 166.390,147.864 166.403,145.693 166.582 M179.622 166.570 C 179.165 166.666,179.840 166.720,181.408 166.713 C 182.794 166.707,184.212 166.774,184.559 166.862 C 185.098 166.999,185.130 166.987,184.779 166.776 C 184.303 166.488,180.699 166.345,179.622 166.570 M254.454 166.594 C 254.072 166.684,253.701 166.817,253.629 166.890 C 253.489 167.029,254.579 166.845,255.462 166.580 C 256.191 166.361,255.389 166.372,254.454 166.594 M264.275 166.717 C 265.136 166.874,265.875 166.968,265.918 166.925 C 266.041 166.802,263.903 166.384,263.277 166.409 C 262.965 166.422,263.414 166.560,264.275 166.717 M280.672 166.597 L 280.147 166.765 280.672 166.771 C 280.961 166.774,281.387 166.696,281.618 166.597 L 282.038 166.416 281.618 166.422 C 281.387 166.426,280.961 166.504,280.672 166.597 M289.076 166.582 C 289.364 166.670,289.979 166.798,290.441 166.866 L 291.282 166.992 290.441 166.705 C 289.979 166.548,289.364 166.420,289.076 166.421 L 288.550 166.423 289.076 166.582 M317.857 166.597 C 317.441 166.730,317.419 166.765,317.752 166.765 C 317.983 166.765,318.409 166.689,318.697 166.597 C 319.113 166.463,319.135 166.428,318.803 166.428 C 318.571 166.428,318.146 166.504,317.857 166.597 M323.344 166.481 C 323.414 166.552,323.786 166.700,324.169 166.810 C 324.553 166.920,324.778 166.929,324.671 166.830 C 324.448 166.626,323.146 166.284,323.344 166.481 M305.077 167.700 L 305.113 168.592 305.196 167.790 L 305.279 166.988 307.157 167.055 C 308.190 167.092,309.034 167.051,309.034 166.964 C 309.034 166.878,308.136 166.807,307.038 166.807 L 305.042 166.807 305.077 167.700 M107.073 167.157 C 106.896 167.334,106.936 187.493,107.115 188.331 C 107.188 188.673,107.248 184.088,107.248 178.142 L 107.248 167.332 108.246 167.268 L 109.244 167.204 109.258 177.772 C 109.267 183.585,109.337 188.503,109.416 188.701 C 109.572 189.094,109.508 167.708,109.352 167.279 C 109.252 167.004,107.329 166.900,107.073 167.157 M125.990 167.147 C 125.908 167.230,125.840 171.764,125.840 177.223 L 125.840 187.149 124.737 187.939 C 124.131 188.373,123.540 188.824,123.424 188.941 C 123.091 189.277,124.395 188.443,125.263 187.765 L 126.050 187.150 126.050 177.188 L 126.050 167.227 126.994 167.227 L 127.938 167.227 127.995 180.357 L 128.051 193.487 128.049 180.305 L 128.046 167.122 127.093 167.060 C 126.569 167.025,126.072 167.065,125.990 167.147 M140.021 167.227 L 139.391 167.387 140.021 167.400 C 140.368 167.407,141.029 167.335,141.492 167.239 L 142.332 167.065 141.492 167.066 C 141.029 167.066,140.368 167.139,140.021 167.227 M167.587 167.147 C 167.386 167.348,167.393 193.487,167.595 193.487 C 167.681 193.487,167.727 187.579,167.696 180.357 L 167.641 167.227 168.364 167.227 C 168.827 167.227,169.122 167.342,169.186 167.546 C 169.255 167.770,169.275 167.755,169.252 167.494 C 169.218 167.109,167.900 166.834,167.587 167.147 M177.101 167.227 C 176.683 167.497,177.208 167.497,177.836 167.227 L 178.256 167.046 177.836 167.035 C 177.605 167.028,177.274 167.115,177.101 167.227 M185.609 167.263 C 185.840 167.391,186.195 167.639,186.397 167.814 C 186.599 167.989,186.765 168.044,186.765 167.935 C 186.765 167.727,185.670 167.012,185.367 167.023 C 185.269 167.027,185.378 167.134,185.609 167.263 M315.756 167.227 C 315.476 167.408,315.476 167.431,315.756 167.431 C 315.930 167.431,316.213 167.339,316.387 167.227 C 316.667 167.046,316.667 167.023,316.387 167.023 C 316.213 167.023,315.930 167.115,315.756 167.227 M325.018 167.085 C 325.066 167.122,325.436 167.366,325.840 167.627 L 326.576 168.102 325.945 167.560 C 325.599 167.263,325.228 167.018,325.123 167.018 C 325.017 167.017,324.969 167.047,325.018 167.085 M155.489 168.244 C 156.024 168.719,156.665 169.512,156.912 170.006 C 157.160 170.500,157.303 170.667,157.229 170.378 C 157.086 169.823,156.224 168.563,155.681 168.116 C 154.796 167.388,154.642 167.490,155.489 168.244 M175.893 167.654 C 175.189 167.936,175.321 168.080,176.050 167.826 C 176.397 167.705,176.681 167.568,176.681 167.521 C 176.681 167.397,176.425 167.440,175.893 167.654 M195.378 168.277 C 195.378 168.739,195.449 169.118,195.536 169.118 C 195.622 169.118,195.693 168.739,195.693 168.277 C 195.693 167.815,195.622 167.437,195.536 167.437 C 195.449 167.437,195.378 167.815,195.378 168.277 M277.185 168.033 C 275.611 169.177,273.349 172.369,273.796 172.815 C 273.850 172.870,274.104 172.399,274.359 171.769 C 274.933 170.355,275.980 169.107,277.388 168.159 C 277.978 167.762,278.358 167.437,278.232 167.437 C 278.107 167.437,277.636 167.705,277.185 168.033 M309.161 169.218 C 309.221 170.140,309.310 170.934,309.358 170.983 C 309.446 171.071,311.134 169.970,311.134 169.824 C 311.134 169.679,311.003 169.750,310.282 170.284 L 309.559 170.820 309.306 169.181 L 309.053 167.542 309.161 169.218 M95.739 169.853 C 95.802 171.008,95.888 171.993,95.931 172.041 C 96.077 172.206,95.977 169.643,95.801 168.697 C 95.680 168.051,95.661 168.417,95.739 169.853 M250.210 168.561 C 249.921 168.825,249.450 169.319,249.164 169.657 C 248.877 169.996,249.137 169.804,249.741 169.231 C 250.735 168.288,250.947 168.054,250.788 168.074 C 250.759 168.078,250.499 168.297,250.210 168.561 M294.249 168.827 C 294.709 169.276,295.290 169.926,295.540 170.273 C 295.790 170.620,295.997 170.809,296.000 170.693 C 296.008 170.389,294.369 168.525,293.851 168.247 C 293.609 168.118,293.788 168.379,294.249 168.827 M327.167 169.101 C 327.416 169.556,327.652 169.897,327.691 169.858 C 327.793 169.756,327.141 168.537,326.908 168.393 C 326.801 168.327,326.917 168.645,327.167 169.101 M146.166 168.639 C 146.541 168.686,147.156 168.686,147.532 168.639 C 147.907 168.593,147.600 168.555,146.849 168.555 C 146.098 168.555,145.790 168.593,146.166 168.639 M179.884 168.632 C 180.087 168.685,180.418 168.685,180.620 168.632 C 180.822 168.579,180.657 168.536,180.252 168.536 C 179.848 168.536,179.682 168.579,179.884 168.632 M70.063 171.901 C 69.981 173.663,69.995 176.381,70.095 177.941 C 70.261 180.530,70.278 180.250,70.289 174.737 C 70.296 171.415,70.281 168.697,70.257 168.697 C 70.232 168.697,70.145 170.139,70.063 171.901 M137.608 168.960 C 137.606 169.251,137.770 169.321,138.393 169.296 C 139.107 169.268,139.122 169.256,138.551 169.172 C 138.205 169.121,137.852 168.970,137.767 168.836 C 137.666 168.678,137.610 168.721,137.608 168.960 M140.861 168.908 C 139.981 169.131,141.393 169.136,143.172 168.916 L 144.433 168.759 142.962 168.753 C 142.153 168.750,141.208 168.819,140.861 168.908 M172.304 169.625 C 170.328 170.983,170.230 171.216,172.162 169.965 C 174.012 168.766,174.106 168.694,173.827 168.704 C 173.721 168.708,173.036 169.122,172.304 169.625 M178.151 168.908 C 177.750 169.167,178.182 169.167,178.992 168.908 L 179.517 168.739 178.992 168.722 C 178.703 168.712,178.325 168.796,178.151 168.908 M98.174 170.273 C 98.176 170.966,98.215 171.225,98.261 170.847 C 98.308 170.469,98.307 169.902,98.259 169.587 C 98.211 169.271,98.173 169.580,98.174 170.273 M154.039 170.014 C 154.533 170.519,154.977 170.901,155.027 170.863 C 155.151 170.767,153.970 169.547,153.514 169.299 C 153.308 169.188,153.545 169.510,154.039 170.014 M176.576 169.440 C 176.050 169.693,176.033 169.722,176.471 169.615 C 177.066 169.470,177.735 169.129,177.416 169.134 C 177.300 169.135,176.922 169.273,176.576 169.440 M185.347 169.917 C 185.780 170.402,186.134 170.910,186.134 171.044 C 186.134 171.178,186.191 171.232,186.260 171.163 C 186.453 170.970,185.744 169.901,185.119 169.443 C 184.692 169.132,184.747 169.244,185.347 169.917 M200.270 179.307 C 200.253 184.968,200.304 189.763,200.382 189.962 C 200.513 190.293,200.496 176.738,200.359 171.324 C 200.326 170.053,200.286 173.645,200.270 179.307 M202.369 178.887 C 202.353 184.317,202.405 188.923,202.483 189.121 C 202.615 189.453,202.594 175.272,202.457 170.903 C 202.425 169.863,202.385 173.456,202.369 178.887 M188.040 169.643 C 188.040 169.758,188.175 170.089,188.340 170.378 C 188.505 170.667,188.641 170.809,188.641 170.693 C 188.641 170.578,188.505 170.247,188.340 169.958 C 188.175 169.669,188.040 169.527,188.040 169.643 M267.243 169.892 C 267.231 170.248,267.074 170.371,266.544 170.436 L 265.861 170.521 266.551 170.555 C 267.252 170.589,267.585 170.242,267.368 169.702 C 267.309 169.554,267.253 169.639,267.243 169.892 M169.363 170.746 C 169.325 171.718,169.676 171.943,170.185 171.271 C 170.421 170.958,170.419 170.943,170.168 171.166 C 169.701 171.583,169.569 171.482,169.481 170.641 L 169.398 169.853 169.363 170.746 M257.616 170.313 C 257.818 170.366,258.149 170.366,258.351 170.313 C 258.553 170.260,258.388 170.217,257.983 170.217 C 257.579 170.217,257.413 170.260,257.616 170.313 M263.393 170.320 C 263.768 170.367,264.383 170.367,264.758 170.320 C 265.134 170.273,264.827 170.235,264.076 170.235 C 263.325 170.235,263.017 170.273,263.393 170.320 M318.540 170.313 C 318.742 170.366,319.073 170.366,319.275 170.313 C 319.477 170.260,319.312 170.217,318.908 170.217 C 318.503 170.217,318.338 170.260,318.540 170.313 M327.969 171.030 C 328.082 171.531,328.229 171.992,328.296 172.053 C 328.487 172.228,328.139 170.504,327.941 170.300 C 327.844 170.200,327.857 170.528,327.969 171.030 M255.987 170.588 C 255.452 170.818,256.004 170.818,256.723 170.588 C 257.145 170.453,257.166 170.419,256.828 170.414 C 256.597 170.410,256.218 170.489,255.987 170.588 M281.723 170.598 C 281.493 170.754,281.578 170.773,282.038 170.670 C 282.810 170.497,282.978 170.377,282.440 170.381 C 282.219 170.383,281.896 170.481,281.723 170.598 M288.340 170.588 C 288.968 170.858,289.493 170.858,289.076 170.588 C 288.902 170.476,288.571 170.390,288.340 170.396 L 287.920 170.408 288.340 170.588 M316.912 170.588 C 316.647 170.702,316.608 170.769,316.807 170.769 C 316.980 170.769,317.311 170.688,317.542 170.588 C 317.807 170.474,317.846 170.408,317.647 170.408 C 317.474 170.408,317.143 170.489,316.912 170.588 M321.954 170.617 C 322.185 170.741,322.595 171.093,322.865 171.398 C 323.274 171.861,323.318 171.876,323.126 171.492 C 322.880 170.998,322.105 170.374,321.749 170.385 C 321.631 170.388,321.723 170.493,321.954 170.617 M280.027 171.572 C 279.557 171.997,278.989 172.702,278.766 173.139 C 278.152 174.343,278.292 174.409,278.944 173.223 C 279.259 172.649,279.926 171.869,280.426 171.489 C 280.926 171.109,281.234 170.798,281.109 170.798 C 280.985 170.798,280.498 171.146,280.027 171.572 M315.441 171.121 C 314.916 171.374,314.898 171.403,315.336 171.296 C 315.931 171.151,316.601 170.809,316.282 170.814 C 316.166 170.816,315.788 170.954,315.441 171.121 M157.512 179.786 C 157.542 184.607,157.592 189.685,157.624 191.071 C 157.656 192.458,157.696 188.676,157.713 182.668 C 157.730 176.660,157.679 171.581,157.601 171.383 C 157.522 171.184,157.482 174.966,157.512 179.786 M247.905 171.518 C 247.593 172.339,247.655 172.469,248.029 171.778 C 248.207 171.450,248.300 171.129,248.237 171.066 C 248.173 171.002,248.024 171.206,247.905 171.518 M72.565 174.580 C 72.565 176.486,72.596 177.266,72.635 176.313 C 72.674 175.360,72.674 173.800,72.635 172.847 C 72.596 171.893,72.565 172.673,72.565 174.580 M155.162 171.534 C 155.246 171.765,155.359 173.159,155.413 174.632 L 155.512 177.311 149.132 177.323 C 145.623 177.330,142.374 177.421,141.912 177.527 C 141.080 177.716,141.082 177.717,142.099 177.620 C 142.664 177.565,145.958 177.521,149.420 177.521 L 155.713 177.521 155.638 174.737 C 155.589 172.905,155.469 171.810,155.287 171.534 L 155.010 171.113 155.162 171.534 M188.815 180.417 C 188.845 185.468,188.896 190.499,188.928 191.597 C 188.961 192.694,189.001 188.724,189.017 182.773 C 189.033 176.822,188.982 171.791,188.903 171.593 C 188.825 171.395,188.785 175.365,188.815 180.417 M171.901 171.873 C 171.185 172.331,170.953 172.639,171.586 172.292 C 172.068 172.027,172.823 171.443,172.689 171.439 C 172.631 171.437,172.277 171.632,171.901 171.873 M186.493 172.280 C 186.559 172.794,186.647 173.254,186.689 173.302 C 186.860 173.499,186.743 171.930,186.566 171.650 C 186.441 171.453,186.416 171.675,186.493 172.280 M253.383 172.171 C 253.024 172.580,252.731 172.977,252.731 173.054 C 252.731 173.130,252.803 173.103,252.890 172.994 C 252.978 172.884,253.326 172.487,253.665 172.111 C 254.003 171.736,254.225 171.429,254.158 171.429 C 254.090 171.429,253.742 171.763,253.383 172.171 M312.658 172.503 C 311.941 172.962,311.710 173.270,312.342 172.922 C 312.824 172.657,313.580 172.073,313.445 172.069 C 313.388 172.067,313.033 172.263,312.658 172.503 M323.455 173.004 C 323.529 173.582,323.623 174.094,323.664 174.142 C 323.844 174.351,323.713 172.553,323.528 172.269 C 323.387 172.054,323.364 172.287,323.455 173.004 M170.188 173.020 L 169.546 173.560 169.489 183.524 C 169.458 189.004,169.504 193.487,169.590 193.487 C 169.677 193.487,169.747 189.020,169.746 183.561 L 169.744 173.634 170.429 173.062 C 170.805 172.748,171.050 172.488,170.972 172.485 C 170.894 172.482,170.541 172.722,170.188 173.020 M247.400 172.802 C 247.328 172.990,247.277 173.301,247.287 173.494 C 247.297 173.687,247.388 173.566,247.490 173.225 C 247.688 172.562,247.618 172.234,247.400 172.802 M273.439 173.649 C 273.362 173.957,273.339 174.250,273.389 174.299 C 273.438 174.349,273.542 174.137,273.619 173.830 C 273.697 173.522,273.719 173.229,273.670 173.180 C 273.620 173.130,273.517 173.342,273.439 173.649 M310.561 173.690 L 309.673 174.265 309.616 183.856 C 309.585 189.131,309.630 193.404,309.716 193.350 C 309.803 193.296,309.874 189.004,309.874 183.812 L 309.874 174.371 310.872 173.744 C 311.421 173.399,311.775 173.117,311.660 173.117 C 311.544 173.116,311.050 173.374,310.561 173.690 M98.388 174.685 C 98.389 175.494,98.427 175.799,98.473 175.363 C 98.518 174.927,98.517 174.265,98.471 173.892 C 98.425 173.519,98.387 173.876,98.388 174.685 M186.812 183.456 C 186.786 188.973,186.836 193.487,186.922 193.488 C 187.066 193.488,187.063 186.156,186.916 176.996 C 186.885 175.032,186.838 177.939,186.812 183.456 M292.256 174.283 C 292.380 174.735,292.529 175.152,292.589 175.210 C 292.774 175.391,292.403 173.855,292.212 173.652 C 292.113 173.547,292.133 173.830,292.256 174.283 M297.191 174.265 C 297.429 175.862,297.686 176.688,297.550 175.420 C 297.482 174.785,297.345 174.076,297.246 173.845 C 297.127 173.568,297.108 173.711,297.191 174.265 M328.361 183.445 C 328.304 188.957,328.328 193.395,328.416 193.307 C 328.504 193.219,328.551 188.709,328.521 183.286 L 328.466 173.424 328.361 183.445 M278.072 174.903 C 278.000 175.091,277.951 175.497,277.962 175.805 C 277.979 176.256,278.021 176.205,278.176 175.546 C 278.373 174.705,278.306 174.293,278.072 174.903 M246.736 175.937 C 246.654 176.588,246.635 177.167,246.693 177.225 C 246.751 177.283,246.864 176.798,246.946 176.147 C 247.027 175.497,247.046 174.917,246.988 174.860 C 246.931 174.802,246.817 175.287,246.736 175.937 M251.797 175.537 C 251.718 175.958,251.696 176.345,251.747 176.397 C 251.798 176.448,251.905 176.145,251.984 175.724 C 252.063 175.302,252.086 174.915,252.035 174.864 C 251.983 174.812,251.876 175.115,251.797 175.537 M323.786 184.086 C 323.761 189.257,323.810 193.487,323.897 193.488 C 324.040 193.488,324.037 186.232,323.891 177.941 C 323.859 176.150,323.812 178.915,323.786 184.086 M273.032 175.649 C 272.959 176.014,272.912 176.798,272.929 177.390 C 272.953 178.287,272.985 178.186,273.119 176.786 C 273.288 175.010,273.253 174.544,273.032 175.649 M292.752 180.250 C 292.752 182.690,292.814 184.468,292.889 184.202 C 292.964 183.936,293.025 182.159,293.025 180.252 C 293.025 178.346,292.964 176.567,292.889 176.300 C 292.814 176.032,292.752 177.810,292.752 180.250 M277.784 177.206 C 277.786 177.668,277.829 177.832,277.880 177.571 C 277.930 177.310,277.928 176.932,277.875 176.731 C 277.823 176.530,277.782 176.744,277.784 177.206 M95.741 179.181 C 95.654 180.383,95.622 181.406,95.671 181.455 C 95.808 181.592,96.054 178.558,95.973 177.731 C 95.933 177.327,95.829 177.979,95.741 179.181 M251.553 180.042 C 251.553 181.602,251.586 182.240,251.626 181.460 C 251.667 180.680,251.667 179.404,251.626 178.624 C 251.586 177.844,251.553 178.482,251.553 180.042 M139.706 178.046 C 139.020 178.438,139.260 178.443,140.154 178.054 C 140.543 177.886,140.720 177.747,140.546 177.747 C 140.373 177.746,139.995 177.881,139.706 178.046 M98.174 179.097 C 98.176 179.790,98.215 180.048,98.261 179.671 C 98.308 179.293,98.307 178.726,98.259 178.410 C 98.211 178.094,98.173 178.403,98.174 179.097 M297.770 180.462 C 297.770 181.907,297.804 182.497,297.845 181.775 C 297.886 181.053,297.886 179.871,297.845 179.149 C 297.804 178.427,297.770 179.018,297.770 180.462 M272.742 179.307 C 272.744 179.769,272.787 179.933,272.838 179.672 C 272.888 179.411,272.886 179.032,272.833 178.832 C 272.781 178.631,272.740 178.845,272.742 179.307 M137.606 179.653 C 137.259 180.133,136.975 180.619,136.975 180.733 C 136.975 180.847,137.222 180.573,137.524 180.124 C 137.826 179.674,138.169 179.189,138.285 179.044 C 138.402 178.900,138.439 178.782,138.367 178.782 C 138.296 178.782,137.954 179.174,137.606 179.653 M150.473 179.359 L 155.462 179.419 155.462 183.001 C 155.462 185.321,155.376 186.744,155.218 187.041 C 154.997 187.456,155.007 187.472,155.323 187.212 C 155.626 186.962,155.672 186.408,155.672 183.063 L 155.672 179.202 150.578 179.250 L 145.483 179.299 150.473 179.359 M140.845 179.810 C 139.590 180.380,138.391 182.207,138.727 183.038 C 138.785 183.181,138.840 183.115,138.849 182.892 C 138.907 181.474,140.272 180.036,141.931 179.647 C 142.519 179.509,142.603 179.449,142.227 179.437 C 141.938 179.428,141.316 179.596,140.845 179.810 M72.839 181.303 C 72.907 182.169,73.036 183.114,73.125 183.403 C 73.330 184.075,73.117 181.443,72.886 180.462 C 72.775 179.988,72.758 180.287,72.839 181.303 M97.936 181.224 C 97.916 181.700,97.852 182.409,97.795 182.799 L 97.690 183.508 97.911 182.806 C 98.032 182.420,98.096 181.711,98.052 181.230 L 97.973 180.357 97.936 181.224 M272.937 182.353 C 272.939 183.451,273.009 184.585,273.093 184.874 C 273.176 185.163,273.207 184.359,273.161 183.088 C 273.055 180.156,272.931 179.748,272.937 182.353 M136.442 182.437 C 136.221 183.906,136.417 189.123,136.710 189.601 C 136.932 189.964,136.947 189.920,136.814 189.286 C 136.729 188.881,136.660 186.967,136.660 185.031 C 136.660 181.204,136.648 181.063,136.442 182.437 M277.784 182.878 C 277.786 183.340,277.829 183.505,277.880 183.243 C 277.930 182.982,277.928 182.604,277.875 182.403 C 277.823 182.202,277.782 182.416,277.784 182.878 M70.591 183.001 C 70.593 183.395,70.689 183.860,70.805 184.034 C 70.951 184.254,70.973 184.064,70.877 183.403 C 70.706 182.227,70.587 182.059,70.591 183.001 M246.677 183.193 C 246.669 183.598,246.741 184.307,246.837 184.769 C 247.078 185.935,247.098 184.743,246.859 183.403 C 246.703 182.522,246.690 182.508,246.677 183.193 M95.089 183.850 C 94.914 184.725,95.084 184.895,95.273 184.034 C 95.353 183.670,95.374 183.330,95.321 183.276 C 95.267 183.222,95.163 183.481,95.089 183.850 M251.723 184.034 C 251.723 184.322,251.798 184.795,251.891 185.084 L 252.059 185.609 252.059 185.084 C 252.059 184.795,251.983 184.322,251.891 184.034 L 251.723 183.508 251.723 184.034 M73.349 184.244 C 73.349 184.417,73.430 184.748,73.529 184.979 C 73.643 185.244,73.710 185.283,73.710 185.084 C 73.710 184.911,73.629 184.580,73.529 184.349 C 73.416 184.084,73.349 184.045,73.349 184.244 M97.375 184.716 C 97.299 185.092,97.193 185.588,97.138 185.819 C 97.061 186.145,97.082 186.168,97.232 185.924 C 97.452 185.565,97.759 184.034,97.610 184.034 C 97.556 184.034,97.451 184.341,97.375 184.716 M277.956 184.576 C 277.964 184.913,278.054 185.378,278.157 185.609 C 278.281 185.890,278.301 185.715,278.218 185.084 C 278.071 183.971,277.935 183.708,277.956 184.576 M297.379 185.222 C 297.297 185.876,297.185 186.561,297.129 186.745 C 297.041 187.034,297.055 187.037,297.233 186.765 C 297.455 186.424,297.805 184.034,297.632 184.034 C 297.575 184.034,297.461 184.568,297.379 185.222 M71.031 184.979 C 71.029 185.210,71.161 185.683,71.324 186.029 L 71.621 186.660 71.494 186.029 C 71.424 185.683,71.292 185.210,71.201 184.979 L 71.035 184.559 71.031 184.979 M292.269 186.071 C 291.958 187.084,292.108 187.235,292.437 186.239 C 292.576 185.820,292.648 185.435,292.598 185.385 C 292.548 185.335,292.400 185.644,292.269 186.071 M73.866 185.924 C 74.203 187.209,75.939 189.689,76.867 190.212 C 77.053 190.317,76.703 189.867,76.089 189.212 C 75.475 188.557,74.692 187.431,74.350 186.710 C 74.008 185.989,73.790 185.636,73.866 185.924 M94.362 186.223 C 94.214 186.634,93.758 187.468,93.350 188.076 C 92.778 188.927,92.726 189.070,93.123 188.699 C 93.689 188.170,94.816 186.022,94.703 185.686 C 94.665 185.570,94.511 185.811,94.362 186.223 M273.447 186.555 C 273.519 186.959,273.663 187.432,273.766 187.605 C 273.990 187.978,273.775 186.889,273.497 186.239 C 273.376 185.956,273.360 186.059,273.447 186.555 M252.319 186.366 C 252.309 186.762,253.298 188.163,254.010 188.761 C 254.286 188.992,254.149 188.769,253.706 188.266 C 253.264 187.762,252.773 187.053,252.615 186.690 C 252.457 186.327,252.324 186.181,252.319 186.366 M278.685 187.132 C 279.085 188.090,279.929 189.010,280.777 189.412 C 281.134 189.582,281.235 189.596,281.012 189.446 C 279.965 188.744,279.406 188.147,278.989 187.285 C 278.437 186.144,278.228 186.039,278.685 187.132 M247.287 186.870 C 247.281 187.101,247.367 187.432,247.479 187.605 C 247.749 188.023,247.749 187.498,247.479 186.870 L 247.298 186.450 247.287 186.870 M71.644 186.822 C 71.592 188.359,76.655 193.793,77.424 193.024 C 77.464 192.985,77.000 192.692,76.393 192.374 C 74.879 191.582,73.467 190.084,72.479 188.223 C 72.023 187.363,71.647 186.733,71.644 186.822 M291.420 187.815 C 291.163 188.162,291.031 188.445,291.125 188.445 C 291.219 188.445,291.463 188.162,291.668 187.815 C 291.873 187.468,292.006 187.185,291.963 187.185 C 291.921 187.185,291.676 187.468,291.420 187.815 M153.782 188.159 C 152.559 189.119,152.471 189.230,153.321 188.741 C 153.926 188.393,155.064 187.376,154.816 187.406 C 154.767 187.412,154.301 187.751,153.782 188.159 M296.486 188.450 C 296.243 189.025,296.089 189.496,296.143 189.496 C 296.285 189.496,297.110 187.586,297.011 187.487 C 296.965 187.442,296.729 187.875,296.486 188.450 M138.680 188.025 C 138.670 188.314,138.754 188.692,138.866 188.866 C 139.125 189.267,139.125 188.835,138.866 188.025 L 138.697 187.500 138.680 188.025 M222.696 187.961 C 222.706 188.194,223.520 189.155,223.622 189.053 C 223.667 189.008,223.475 188.705,223.196 188.381 C 222.917 188.057,222.692 187.868,222.696 187.961 M217.677 188.340 C 217.677 188.571,217.758 188.950,217.857 189.181 L 218.038 189.601 218.038 189.181 C 218.038 188.950,217.956 188.571,217.857 188.340 L 217.677 187.920 217.677 188.340 M247.814 188.445 C 247.998 189.105,248.844 190.459,249.204 190.670 C 249.353 190.757,249.317 190.647,249.125 190.425 C 248.932 190.203,248.526 189.548,248.221 188.971 C 247.917 188.393,247.734 188.157,247.814 188.445 M154.726 189.420 L 153.887 190.166 154.753 189.519 L 155.618 188.873 155.748 189.657 C 155.819 190.088,155.879 190.977,155.880 191.632 C 155.883 192.936,156.023 193.487,156.351 193.487 C 156.493 193.487,156.494 193.400,156.355 193.225 C 156.240 193.080,156.098 192.080,156.040 191.002 C 155.910 188.608,155.795 188.470,154.726 189.420 M124.240 190.198 C 123.418 190.794,122.567 191.394,122.350 191.532 C 122.132 191.669,122.048 191.786,122.164 191.791 C 122.279 191.795,123.160 191.234,124.121 190.542 C 126.106 189.114,125.988 189.166,126.116 189.653 C 126.188 189.930,126.218 189.904,126.236 189.548 C 126.271 188.866,125.920 188.980,124.240 190.198 M224.232 189.335 C 224.365 189.420,228.081 189.491,232.488 189.493 C 241.625 189.496,240.756 189.273,240.756 191.614 L 240.756 193.067 239.863 193.094 C 239.372 193.109,237.931 193.187,236.660 193.268 L 234.349 193.416 236.239 193.450 C 237.279 193.469,238.768 193.424,239.548 193.350 L 240.966 193.217 240.966 191.606 C 240.966 189.095,241.736 189.303,232.215 189.238 C 227.691 189.206,224.098 189.250,224.232 189.335 M255.042 189.391 C 255.331 189.556,255.662 189.691,255.777 189.691 C 255.893 189.691,255.751 189.556,255.462 189.391 C 255.173 189.226,254.842 189.091,254.727 189.091 C 254.611 189.091,254.753 189.226,255.042 189.391 M274.370 189.218 C 274.370 189.906,276.559 192.170,277.786 192.751 C 278.160 192.928,278.287 192.954,278.068 192.808 C 276.661 191.869,275.850 191.123,275.158 190.133 C 274.725 189.512,274.370 189.100,274.370 189.218 M107.374 189.496 C 107.361 189.845,108.113 191.597,108.276 191.597 C 108.333 191.597,108.207 191.195,107.996 190.704 C 107.785 190.213,107.561 189.669,107.499 189.496 C 107.399 189.216,107.385 189.216,107.374 189.496 M109.666 189.366 C 109.657 190.208,111.282 191.660,112.500 191.897 C 112.847 191.964,112.988 191.962,112.815 191.891 C 111.250 191.256,110.668 190.849,110.192 190.055 C 109.904 189.574,109.667 189.264,109.666 189.366 M90.890 190.479 C 90.328 190.863,89.961 191.176,90.073 191.176 C 90.240 191.176,91.669 190.301,91.999 189.997 C 92.415 189.614,91.708 189.921,90.890 190.479 M121.252 190.122 C 120.379 190.609,120.224 190.757,120.725 190.626 C 121.080 190.532,122.301 189.706,122.059 189.723 C 122.001 189.727,121.638 189.906,121.252 190.122 M218.493 190.494 C 218.764 190.985,219.059 191.387,219.150 191.387 C 219.241 191.387,219.076 191.035,218.784 190.604 C 218.032 189.496,217.921 189.454,218.493 190.494 M256.408 189.905 C 256.807 190.087,258.360 190.212,258.176 190.048 C 258.128 190.005,257.616 189.912,257.038 189.842 C 256.331 189.756,256.125 189.777,256.408 189.905 M264.286 189.916 L 262.920 190.054 264.181 190.074 C 264.874 190.086,265.867 190.019,266.387 189.927 L 267.332 189.758 266.492 189.768 C 266.029 189.774,265.037 189.840,264.286 189.916 M267.832 190.382 C 267.929 190.965,267.958 190.995,268.025 190.575 C 268.068 190.301,268.016 189.991,267.910 189.885 C 267.794 189.769,267.763 189.965,267.832 190.382 M281.828 189.916 C 282.059 190.015,282.437 190.094,282.668 190.090 C 283.006 190.085,282.985 190.051,282.563 189.916 C 281.845 189.686,281.292 189.686,281.828 189.916 M288.025 189.916 L 287.500 190.084 288.025 190.102 C 288.314 190.112,288.692 190.028,288.866 189.916 C 289.267 189.657,288.835 189.657,288.025 189.916 M295.100 190.762 C 294.671 191.337,294.362 191.807,294.415 191.807 C 294.586 191.807,296.070 189.908,295.974 189.811 C 295.922 189.759,295.529 190.187,295.100 190.762 M149.842 190.343 C 149.582 190.447,149.370 190.583,149.370 190.644 C 149.370 190.848,149.704 190.760,150.117 190.448 C 150.582 190.096,150.517 190.071,149.842 190.343 M153.022 190.582 C 152.060 191.306,151.939 191.479,152.695 191.049 C 153.344 190.679,153.965 190.126,153.731 190.126 C 153.674 190.126,153.355 190.331,153.022 190.582 M203.122 190.491 C 203.259 190.747,203.558 191.057,203.786 191.179 C 204.358 191.485,204.310 191.382,203.537 190.653 C 203.002 190.148,202.921 190.117,203.122 190.491 M284.296 190.280 C 284.845 190.324,285.743 190.324,286.292 190.280 C 286.841 190.237,286.392 190.202,285.294 190.202 C 284.196 190.202,283.747 190.237,284.296 190.280 M200.630 190.684 C 200.630 191.071,201.861 192.617,202.357 192.852 C 202.809 193.066,202.807 193.058,202.327 192.709 C 202.048 192.505,201.551 191.916,201.224 191.401 C 200.898 190.886,200.630 190.563,200.630 190.684 M78.361 191.071 C 78.650 191.237,78.981 191.372,79.097 191.372 C 79.212 191.372,79.070 191.237,78.782 191.071 C 78.493 190.906,78.162 190.771,78.046 190.771 C 77.931 190.771,78.072 190.906,78.361 191.071 M93.681 191.300 C 93.401 191.598,92.416 192.219,91.492 192.679 C 90.567 193.139,90.047 193.451,90.336 193.373 C 91.591 193.031,94.563 191.132,94.283 190.851 C 94.231 190.800,93.960 191.002,93.681 191.300 M119.433 191.079 C 118.905 191.333,118.888 191.362,119.328 191.256 C 119.617 191.186,119.943 191.045,120.053 190.943 C 120.325 190.688,120.175 190.721,119.433 191.079 M126.289 192.069 C 126.273 192.849,126.332 193.487,126.420 193.487 C 126.507 193.487,126.550 193.038,126.516 192.489 C 126.407 190.763,126.319 190.600,126.289 192.069 M148.004 191.079 C 147.479 191.332,147.461 191.361,147.899 191.254 C 148.494 191.109,149.164 190.767,148.845 190.772 C 148.729 190.774,148.351 190.912,148.004 191.079 M137.578 191.336 C 137.687 191.540,137.992 191.894,138.255 192.124 C 138.646 192.466,138.626 192.399,138.144 191.754 C 137.521 190.921,137.248 190.719,137.578 191.336 M250.000 191.614 C 250.404 191.968,251.113 192.452,251.576 192.689 C 252.684 193.256,252.508 193.098,250.735 191.935 C 249.689 191.248,249.477 191.156,250.000 191.614 M79.727 191.597 C 79.958 191.696,80.336 191.774,80.567 191.771 C 80.905 191.766,80.884 191.732,80.462 191.597 C 79.744 191.367,79.192 191.367,79.727 191.597 M88.414 191.488 C 88.359 191.543,87.799 191.682,87.171 191.796 L 86.029 192.003 87.265 191.900 C 88.438 191.802,89.666 191.409,88.848 191.393 C 88.665 191.389,88.470 191.432,88.414 191.488 M117.752 191.597 C 117.487 191.710,117.448 191.777,117.647 191.777 C 117.820 191.777,118.151 191.696,118.382 191.597 C 118.647 191.483,118.686 191.416,118.487 191.416 C 118.314 191.416,117.983 191.497,117.752 191.597 M141.702 191.595 C 142.103 191.769,143.652 191.888,143.470 191.731 C 143.422 191.690,142.910 191.601,142.332 191.534 C 141.656 191.456,141.431 191.478,141.702 191.595 M145.378 191.597 L 144.433 191.744 145.273 191.754 C 145.735 191.760,146.350 191.689,146.639 191.597 C 147.302 191.384,146.745 191.384,145.378 191.597 M204.646 191.616 C 204.918 191.789,206.685 191.897,206.495 191.730 C 206.447 191.687,205.946 191.603,205.381 191.542 C 204.754 191.475,204.468 191.503,204.646 191.616 M81.355 191.952 C 81.557 192.004,81.888 192.004,82.090 191.952 C 82.293 191.899,82.127 191.855,81.723 191.855 C 81.318 191.855,81.153 191.899,81.355 191.952 M108.881 192.367 C 109.531 193.115,111.267 193.920,112.440 194.019 L 113.550 194.112 112.290 193.841 C 110.919 193.546,110.368 193.299,109.244 192.477 C 108.688 192.070,108.599 192.044,108.881 192.367 M114.018 192.168 C 114.391 192.215,115.053 192.216,115.489 192.170 C 115.925 192.125,115.620 192.087,114.811 192.086 C 114.002 192.085,113.645 192.122,114.018 192.168 M119.958 192.752 C 119.669 192.917,119.527 193.052,119.643 193.052 C 119.758 193.052,120.089 192.917,120.378 192.752 C 120.667 192.587,120.809 192.452,120.693 192.452 C 120.578 192.452,120.247 192.587,119.958 192.752 M148.845 192.759 C 148.319 193.013,148.302 193.042,148.739 192.935 C 149.335 192.789,150.004 192.448,149.685 192.453 C 149.569 192.455,149.191 192.593,148.845 192.759 M118.382 193.277 L 117.962 193.458 118.382 193.469 C 118.613 193.476,118.944 193.389,119.118 193.277 C 119.535 193.007,119.010 193.007,118.382 193.277 M147.164 193.277 C 146.899 193.391,146.860 193.458,147.059 193.458 C 147.232 193.458,147.563 193.377,147.794 193.277 C 148.059 193.164,148.098 193.097,147.899 193.097 C 147.726 193.097,147.395 193.178,147.164 193.277 M222.164 193.277 C 222.395 193.377,222.868 193.453,223.214 193.448 L 223.845 193.438 223.214 193.277 C 222.868 193.189,222.395 193.112,222.164 193.107 L 221.744 193.097 222.164 193.277 M265.966 193.277 L 265.441 193.446 265.966 193.463 C 266.255 193.473,266.633 193.389,266.807 193.277 C 267.208 193.018,266.776 193.018,265.966 193.277 M116.176 193.818 L 114.811 194.097 116.071 193.982 C 116.765 193.918,117.474 193.784,117.647 193.683 C 118.040 193.455,117.879 193.470,116.176 193.818 M280.252 193.687 C 280.425 193.786,281.040 193.923,281.618 193.991 C 282.300 194.071,282.484 194.053,282.143 193.940 C 281.330 193.671,279.888 193.478,280.252 193.687 M80.042 193.908 C 80.331 194.000,80.898 194.074,81.303 194.073 L 82.038 194.069 81.197 193.896 C 80.075 193.663,79.305 193.671,80.042 193.908 M87.185 193.908 L 86.450 194.062 87.185 194.069 C 87.589 194.073,88.157 194.000,88.445 193.908 L 88.971 193.739 88.445 193.746 C 88.157 193.750,87.589 193.822,87.185 193.908 M142.700 193.852 C 143.248 193.895,144.147 193.895,144.695 193.852 C 145.244 193.809,144.795 193.773,143.697 193.773 C 142.600 193.773,142.151 193.809,142.700 193.852 M205.838 193.853 C 206.565 193.894,207.699 193.894,208.359 193.852 C 209.019 193.811,208.424 193.777,207.038 193.778 C 205.651 193.778,205.111 193.812,205.838 193.853 M255.252 193.918 C 256.520 194.144,257.514 194.124,256.408 193.896 C 255.945 193.800,255.284 193.728,254.937 193.736 C 254.464 193.747,254.543 193.792,255.252 193.918 M261.345 193.908 L 260.189 194.049 261.239 194.065 C 261.817 194.074,262.763 194.007,263.340 193.917 L 264.391 193.754 263.445 193.760 C 262.925 193.763,261.980 193.830,261.345 193.908 M288.550 193.908 C 287.988 194.051,287.977 194.068,288.445 194.068 C 288.734 194.068,289.254 193.996,289.601 193.908 C 290.163 193.765,290.174 193.747,289.706 193.747 C 289.417 193.747,288.897 193.819,288.550 193.908 M284.513 194.272 C 285.065 194.316,285.916 194.315,286.403 194.271 C 286.891 194.227,286.439 194.192,285.399 194.192 C 284.359 194.193,283.960 194.229,284.513 194.272 M81.843 196.750 C 81.652 197.042,81.552 197.373,81.622 197.486 C 81.962 198.036,86.777 200.857,87.337 200.834 C 87.427 200.830,86.649 200.381,85.609 199.836 C 83.607 198.786,81.718 197.557,81.729 197.311 C 81.741 197.057,82.234 196.502,82.563 196.374 C 82.827 196.272,82.822 196.249,82.535 196.235 C 82.346 196.226,82.035 196.458,81.843 196.750 M82.983 196.527 C 82.983 196.584,83.456 196.871,84.034 197.164 C 84.611 197.457,85.084 197.649,85.084 197.591 C 85.084 197.533,84.611 197.247,84.034 196.954 C 83.456 196.661,82.983 196.469,82.983 196.527 M86.765 198.424 C 87.054 198.590,87.384 198.725,87.500 198.725 C 87.616 198.725,87.474 198.590,87.185 198.424 C 86.896 198.259,86.565 198.124,86.450 198.124 C 86.334 198.124,86.476 198.259,86.765 198.424 M88.025 198.923 C 88.199 199.026,88.671 199.170,89.076 199.242 C 89.572 199.329,89.674 199.313,89.391 199.192 C 88.741 198.914,87.652 198.699,88.025 198.923 M90.231 199.580 C 90.462 199.679,90.840 199.758,91.071 199.754 C 91.409 199.749,91.389 199.715,90.966 199.580 C 90.248 199.350,89.696 199.350,90.231 199.580 M92.857 200.210 C 93.146 200.303,93.619 200.377,93.908 200.374 C 94.379 200.371,94.369 200.354,93.803 200.210 C 92.914 199.984,92.151 199.984,92.857 200.210 M94.664 200.581 C 94.791 200.666,94.949 200.877,95.015 201.050 C 95.095 201.261,95.140 201.209,95.151 200.893 C 95.163 200.575,95.047 200.421,94.800 200.423 C 94.574 200.425,94.521 200.486,94.664 200.581 M87.815 201.015 C 87.988 201.122,88.367 201.273,88.655 201.350 C 89.020 201.448,89.085 201.431,88.866 201.296 C 88.692 201.189,88.314 201.038,88.025 200.961 C 87.660 200.863,87.596 200.880,87.815 201.015 M89.916 201.786 C 90.875 202.155,91.253 202.150,90.441 201.778 C 90.095 201.619,89.669 201.492,89.496 201.496 C 89.322 201.500,89.512 201.630,89.916 201.786 M91.912 202.301 C 92.315 202.484,93.440 202.603,93.260 202.444 C 93.212 202.401,92.794 202.309,92.332 202.239 C 91.746 202.150,91.619 202.168,91.912 202.301 " stroke="none" fill="#6cac5c" fill-rule="evenodd"></path><path id="path3" d="M125.840 87.500 L 125.840 112.185 128.676 112.185 L 131.513 112.185 131.513 87.500 L 131.513 62.815 128.676 62.815 L 125.840 62.815 125.840 87.500 M82.353 86.140 L 82.353 106.524 85.242 106.466 L 88.130 106.408 88.184 86.082 L 88.237 65.756 85.295 65.756 L 82.353 65.756 82.353 86.140 M91.387 91.807 L 91.387 112.185 94.209 112.185 C 96.716 112.185,97.042 112.144,97.136 111.817 C 97.270 111.353,97.247 72.047,97.113 71.691 C 97.040 71.499,96.258 71.429,94.200 71.429 L 91.387 71.429 91.387 91.807 M99.790 87.605 L 99.790 103.151 102.731 103.151 L 105.672 103.151 105.672 87.605 L 105.672 72.059 102.731 72.059 L 99.790 72.059 99.790 87.605 M74.049 74.626 C 73.992 74.774,73.971 83.971,74.000 95.063 L 74.055 115.231 76.944 115.290 L 79.834 115.348 79.780 94.911 L 79.727 74.475 76.939 74.416 C 74.825 74.372,74.126 74.422,74.049 74.626 M65.056 79.762 C 64.979 79.839,64.916 87.166,64.916 96.043 L 64.916 112.185 67.752 112.185 L 70.588 112.185 70.588 95.903 L 70.588 79.622 67.892 79.622 C 66.409 79.622,65.133 79.685,65.056 79.762 M108.712 83.240 C 108.656 83.387,108.634 91.213,108.664 100.630 L 108.718 117.752 111.608 117.811 L 114.498 117.869 114.444 100.479 L 114.391 83.088 111.603 83.030 C 109.489 82.985,108.790 83.036,108.712 83.240 M117.017 101.786 L 117.017 120.600 119.905 120.542 L 122.794 120.483 122.794 101.786 L 122.794 83.088 119.905 83.030 L 117.017 82.971 117.017 101.786 " stroke="none" fill="#d45464" fill-rule="evenodd"></path><path id="path4" d="M144.054 37.109 C 143.973 37.189,143.908 52.223,143.908 70.518 L 143.908 103.782 146.639 103.782 L 149.371 103.782 149.318 70.431 L 149.265 37.080 146.732 37.021 C 145.340 36.989,144.134 37.028,144.054 37.109 M161.345 73.109 L 161.345 106.513 164.076 106.513 L 166.807 106.513 166.807 73.109 L 166.807 39.706 164.076 39.706 L 161.345 39.706 161.345 73.109 M135.020 45.512 C 134.940 45.592,134.874 60.627,134.874 78.922 L 134.874 112.185 137.606 112.185 L 140.337 112.185 140.284 78.834 L 140.231 45.483 137.699 45.425 C 136.306 45.392,135.101 45.432,135.020 45.512 M152.661 45.518 C 152.584 45.595,152.521 56.703,152.521 70.203 L 152.521 94.748 155.252 94.748 L 157.983 94.748 157.983 70.063 L 157.983 45.378 155.392 45.378 C 153.967 45.378,152.738 45.441,152.661 45.518 M170.378 81.933 L 170.378 109.664 173.004 109.664 L 175.630 109.664 175.630 81.933 L 175.630 54.202 173.004 54.202 L 170.378 54.202 170.378 81.933 M178.782 101.779 L 178.782 135.294 181.404 135.294 C 183.949 135.294,184.029 135.280,184.140 134.821 C 184.202 134.561,184.228 119.506,184.196 101.366 L 184.139 68.382 181.460 68.324 L 178.782 68.265 178.782 101.779 M196.008 106.408 L 196.008 132.576 198.687 132.517 L 201.366 132.458 201.366 106.408 L 201.366 80.357 198.687 80.298 L 196.008 80.240 196.008 106.408 M187.535 95.098 C 187.458 95.175,187.395 107.607,187.395 122.724 L 187.395 150.210 190.126 150.210 L 192.857 150.210 192.857 122.584 L 192.857 94.958 190.266 94.958 C 188.841 94.958,187.612 95.021,187.535 95.098 " stroke="none" fill="#fccc34" fill-rule="evenodd"></path></g></svg>