<svg id="svg" version="1.1" xmlns="http://www.w3.org/2000/svg" xmlns:xlink="http://www.w3.org/1999/xlink" width="400" height="400" viewBox="0, 0, 400,400"><g id="svgg"><path id="path0" d="M306.000 79.635 C 305.450 80.079,304.730 80.661,304.400 80.928 C 302.049 82.828,291.542 88.000,290.032 88.000 C 288.399 88.000,287.949 89.815,289.018 92.086 C 289.686 93.506,288.921 96.662,286.177 103.800 C 285.585 105.340,284.687 107.794,284.182 109.254 C 283.677 110.714,283.081 112.244,282.857 112.654 C 282.633 113.064,282.177 114.210,281.845 115.200 C 281.513 116.190,280.759 118.260,280.170 119.800 C 279.582 121.340,278.687 123.794,278.182 125.254 C 277.677 126.714,277.083 128.244,276.862 128.654 C 276.640 129.064,276.189 130.210,275.860 131.200 C 274.603 134.969,273.520 137.858,272.774 139.426 C 272.348 140.321,272.000 141.365,272.000 141.746 C 272.000 142.128,271.713 142.995,271.362 143.674 C 271.010 144.353,270.396 145.830,269.996 146.955 C 269.597 148.080,268.816 150.170,268.263 151.600 C 267.709 153.030,266.809 155.370,266.263 156.800 C 265.234 159.496,263.269 164.476,262.001 167.600 C 261.600 168.590,260.892 170.390,260.428 171.600 C 259.965 172.810,259.342 174.250,259.044 174.800 C 258.747 175.350,258.273 176.520,257.993 177.400 C 257.712 178.280,257.149 179.627,256.741 180.394 C 256.334 181.161,256.000 181.955,256.000 182.159 C 256.000 182.363,255.429 183.446,254.732 184.565 C 251.765 189.324,248.901 191.112,243.644 191.487 C 239.862 191.757,239.200 192.252,239.200 194.813 C 239.200 197.813,238.168 197.664,259.233 197.709 C 280.543 197.755,279.200 197.965,279.200 194.586 C 279.200 192.086,278.544 191.726,273.600 191.512 C 263.989 191.097,263.287 187.937,269.214 171.800 C 269.618 170.700,270.072 169.170,270.223 168.400 C 270.374 167.630,270.811 166.370,271.195 165.600 C 271.578 164.830,272.009 163.553,272.153 162.761 C 272.296 161.970,272.747 160.620,273.154 159.761 C 273.562 158.903,274.016 157.533,274.163 156.717 C 274.739 153.519,274.225 153.600,294.018 153.600 L 311.529 153.600 312.535 154.796 C 313.114 155.483,313.744 156.972,314.016 158.296 C 314.278 159.563,314.730 161.065,315.021 161.633 C 315.313 162.202,315.837 163.899,316.187 165.406 C 316.536 166.912,316.976 168.337,317.164 168.572 C 317.353 168.808,317.700 169.920,317.937 171.044 C 318.174 172.168,318.735 174.020,319.184 175.159 C 319.633 176.298,320.000 177.581,320.000 178.011 C 320.000 178.441,320.459 180.123,321.020 181.748 C 323.362 188.528,322.139 190.973,316.164 191.455 C 312.271 191.768,311.998 191.971,312.006 194.549 C 312.017 198.034,309.895 197.753,335.925 197.716 C 361.256 197.679,360.595 197.726,360.952 195.938 C 361.649 192.455,360.990 191.782,356.600 191.491 C 348.277 190.940,345.136 187.442,340.535 173.600 C 340.206 172.610,339.605 170.990,339.200 170.000 C 338.482 168.246,337.958 166.723,336.378 161.800 C 335.954 160.480,335.435 159.103,335.225 158.739 C 335.014 158.376,334.547 156.936,334.185 155.539 C 333.824 154.143,333.369 152.807,333.174 152.571 C 332.979 152.335,332.535 151.031,332.187 149.673 C 331.840 148.315,331.296 146.709,330.980 146.102 C 330.664 145.496,330.404 144.759,330.402 144.464 C 330.401 144.169,329.884 142.369,329.253 140.464 C 328.621 138.559,327.617 135.380,327.021 133.400 C 326.424 131.420,325.597 128.900,325.183 127.800 C 324.768 126.700,324.252 125.080,324.036 124.200 C 323.614 122.480,322.412 118.897,320.925 114.932 C 320.416 113.574,320.000 112.170,320.000 111.812 C 320.000 111.454,319.730 110.638,319.400 110.000 C 319.070 109.362,318.536 107.886,318.213 106.720 C 317.518 104.211,316.153 100.130,315.150 97.564 C 314.756 96.554,314.255 95.024,314.038 94.164 C 313.632 92.554,312.441 88.915,311.171 85.400 C 310.773 84.300,310.251 82.642,310.012 81.715 C 309.325 79.052,307.739 78.230,306.000 79.635 M40.493 84.308 C 39.821 85.333,39.999 88.559,40.769 89.329 C 41.044 89.604,43.030 89.837,45.714 89.910 C 51.544 90.068,51.823 90.145,52.967 91.907 L 53.935 93.400 54.154 126.200 C 54.274 144.240,54.544 160.170,54.753 161.600 C 54.962 163.030,55.413 166.100,55.755 168.421 C 58.023 183.823,68.046 194.876,82.400 197.806 C 96.628 200.710,105.715 200.466,116.000 196.903 C 122.423 194.678,129.709 189.429,133.006 184.650 C 133.443 184.017,134.179 183.027,134.643 182.450 C 135.533 181.341,138.118 176.094,138.608 174.400 C 138.768 173.850,139.037 173.220,139.207 173.000 C 139.460 172.673,140.809 166.107,141.755 160.600 C 141.868 159.940,142.154 145.360,142.389 128.200 C 142.867 93.377,142.858 93.486,145.483 91.181 L 146.828 90.000 153.988 90.000 C 163.280 90.000,164.208 90.401,166.009 95.200 C 166.463 96.410,167.078 97.940,167.375 98.600 C 167.672 99.260,168.047 100.430,168.207 101.200 C 168.367 101.970,168.836 103.268,169.249 104.084 C 169.662 104.900,170.004 105.890,170.009 106.284 C 170.014 106.678,170.391 107.810,170.846 108.800 C 171.302 109.790,171.917 111.410,172.213 112.400 C 173.113 115.413,174.766 120.164,175.138 120.805 C 175.330 121.137,175.800 122.487,176.182 123.805 C 176.563 125.122,177.017 126.380,177.190 126.600 C 177.362 126.820,177.793 128.010,178.147 129.245 C 178.501 130.480,179.061 132.010,179.393 132.645 C 179.724 133.280,179.996 134.047,179.998 134.350 C 179.999 134.652,180.421 135.912,180.936 137.150 C 181.823 139.280,182.228 140.385,184.037 145.600 C 184.457 146.810,184.974 148.160,185.186 148.600 C 185.575 149.408,186.759 152.687,187.856 156.000 C 188.184 156.990,188.710 158.340,189.024 159.000 C 189.339 159.660,189.854 161.010,190.170 162.000 C 190.870 164.199,192.681 169.107,193.195 170.200 C 193.402 170.640,193.917 171.990,194.340 173.200 C 194.762 174.410,195.587 176.660,196.173 178.200 C 196.759 179.740,197.593 181.990,198.027 183.200 C 198.460 184.410,199.082 185.967,199.408 186.660 C 199.733 187.354,200.006 188.164,200.013 188.460 C 200.019 188.757,200.468 189.900,201.009 191.000 C 201.550 192.100,202.000 193.270,202.009 193.600 C 202.048 195.044,205.006 199.763,206.040 200.030 C 208.371 200.632,210.978 197.750,212.219 193.200 C 212.369 192.650,212.831 191.639,213.246 190.953 C 213.661 190.267,214.000 189.439,214.000 189.112 C 214.000 188.786,214.450 187.673,215.000 186.638 C 215.550 185.604,216.000 184.568,216.000 184.337 C 216.000 184.106,216.450 183.020,217.000 181.925 C 217.550 180.830,218.000 179.706,218.000 179.427 C 218.000 179.148,218.450 178.073,219.000 177.038 C 219.550 176.004,220.000 174.924,220.000 174.638 C 220.000 174.353,220.450 173.273,221.000 172.238 C 221.550 171.204,222.000 170.124,222.000 169.838 C 222.000 169.553,222.450 168.473,223.000 167.438 C 223.550 166.404,224.000 165.324,224.000 165.038 C 224.000 164.753,224.450 163.673,225.000 162.638 C 225.550 161.604,226.000 160.524,226.000 160.238 C 226.000 159.953,226.450 158.873,227.000 157.838 C 227.550 156.804,228.000 155.724,228.000 155.438 C 228.000 155.153,228.450 154.073,229.000 153.038 C 229.550 152.004,230.000 150.945,230.000 150.685 C 230.000 150.424,230.429 149.309,230.954 148.206 C 231.478 147.103,232.478 144.850,233.176 143.200 C 233.873 141.550,234.693 139.660,234.997 139.000 C 235.706 137.460,237.469 133.063,238.203 131.000 C 238.517 130.120,239.139 128.687,239.587 127.815 C 240.034 126.944,240.401 125.954,240.403 125.615 C 240.404 125.277,240.763 124.460,241.200 123.800 C 241.637 123.140,241.996 122.364,241.997 122.075 C 241.999 121.786,242.440 120.616,242.978 119.475 C 243.516 118.334,244.512 116.050,245.191 114.400 C 246.608 110.956,247.059 109.971,250.230 103.400 C 255.286 92.923,258.486 90.000,264.900 90.000 C 269.284 90.000,269.856 89.699,270.198 87.211 C 270.741 83.270,272.249 83.551,250.132 83.470 C 228.432 83.391,230.000 83.154,230.000 86.518 C 230.000 89.341,230.540 89.729,234.856 90.012 C 239.777 90.335,241.057 91.210,241.271 94.400 C 241.388 96.150,239.029 104.903,237.174 109.600 C 236.784 110.590,236.198 112.210,235.873 113.200 C 235.236 115.140,233.861 118.929,232.171 123.400 C 230.214 128.576,228.757 132.588,228.177 134.400 C 227.860 135.390,227.421 136.560,227.201 137.000 C 226.981 137.440,226.456 138.790,226.035 140.000 C 225.614 141.210,224.785 143.460,224.193 145.000 C 223.600 146.540,222.715 148.880,222.226 150.200 C 221.737 151.520,221.036 153.176,220.668 153.880 C 220.301 154.584,219.998 155.394,219.996 155.680 C 219.994 155.966,219.550 157.100,219.009 158.200 C 218.468 159.300,218.014 160.470,218.000 160.800 C 217.986 161.130,217.532 162.300,216.991 163.400 C 216.450 164.500,216.006 165.615,216.004 165.878 C 216.002 166.141,215.342 167.666,214.538 169.268 L 213.077 172.180 212.585 170.990 C 211.310 167.905,205.303 150.119,204.145 146.000 C 203.805 144.790,203.370 143.610,203.178 143.377 C 202.987 143.144,202.573 141.974,202.260 140.777 C 201.946 139.580,201.413 137.970,201.074 137.200 C 200.493 135.876,200.020 134.527,198.584 130.100 C 198.245 129.055,197.774 127.660,197.538 127.000 C 197.301 126.340,196.851 124.990,196.538 124.000 C 196.224 123.010,195.772 121.660,195.533 121.000 C 195.293 120.340,194.762 118.630,194.353 117.200 C 193.617 114.629,192.699 111.661,191.197 107.000 C 186.637 92.844,187.606 90.000,196.993 90.000 C 203.402 90.000,203.838 89.831,204.198 87.211 C 204.760 83.129,209.488 83.533,161.063 83.523 L 118.736 83.514 118.126 84.384 C 117.467 85.325,117.693 88.536,118.486 89.500 C 118.767 89.841,120.209 90.000,123.020 90.000 C 131.911 90.000,132.800 94.575,132.783 140.200 C 132.772 168.183,132.079 172.303,125.987 180.604 C 123.884 183.470,117.759 188.000,115.987 188.000 C 115.753 188.000,114.805 188.369,113.881 188.819 C 109.386 191.009,94.319 191.291,91.837 189.231 C 91.559 189.000,90.625 188.562,89.763 188.257 C 85.517 186.759,78.000 179.245,78.000 176.499 C 78.000 176.200,77.656 175.201,77.236 174.278 C 74.960 169.279,74.325 157.693,74.480 124.000 L 74.610 95.800 75.690 93.800 C 77.446 90.546,78.174 90.221,84.066 90.069 C 89.865 89.919,90.355 89.671,90.688 86.715 C 91.067 83.352,92.611 83.549,65.179 83.470 L 41.087 83.400 40.493 84.308 M297.378 102.462 C 297.720 103.317,298.000 104.282,298.000 104.607 C 298.000 104.931,298.381 106.297,298.846 107.642 C 299.312 108.987,299.927 111.013,300.214 112.144 C 300.500 113.275,301.006 115.010,301.338 116.000 C 301.942 117.801,303.093 121.612,304.962 128.000 C 305.509 129.870,306.253 132.300,306.614 133.400 C 306.975 134.500,307.603 136.570,308.009 138.000 C 308.415 139.430,309.021 141.320,309.356 142.200 C 311.151 146.915,311.533 146.800,294.143 146.800 C 277.086 146.800,277.286 146.841,278.656 143.639 C 279.286 142.168,280.591 138.572,281.791 135.000 C 282.161 133.900,282.795 132.190,283.200 131.200 C 283.605 130.210,284.221 128.545,284.568 127.500 C 286.048 123.050,286.538 121.711,287.248 120.174 C 287.662 119.279,288.000 118.338,288.000 118.082 C 288.000 117.825,288.433 116.487,288.963 115.108 C 289.492 113.729,290.411 111.250,291.003 109.600 C 293.230 103.400,294.161 100.986,294.506 100.522 C 295.118 99.699,296.701 100.768,297.378 102.462 " stroke="none" fill="#de7125" fill-rule="evenodd"></path><path id="path1" d="M81.600 225.425 C 80.830 225.716,79.904 225.965,79.543 225.977 C 76.690 226.076,72.604 232.602,71.765 238.400 C 69.368 254.976,74.662 265.600,85.320 265.600 C 95.794 265.600,101.271 254.325,98.625 238.210 C 97.000 228.313,89.283 222.518,81.600 225.425 M113.856 225.637 C 102.740 229.228,100.087 253.980,109.870 262.821 C 116.797 269.081,129.181 264.436,130.279 255.165 C 130.797 250.786,125.038 250.379,124.061 254.725 C 122.181 263.092,113.534 261.403,111.732 252.316 C 108.952 238.303,114.605 226.365,121.508 231.671 C 123.144 232.928,123.351 233.290,124.441 236.800 C 124.998 238.594,125.006 238.600,127.013 238.718 C 130.057 238.896,130.962 237.801,130.258 234.790 C 128.428 226.962,121.582 223.141,113.856 225.637 M144.686 225.600 C 136.754 228.090,132.874 239.751,135.588 252.940 C 139.219 270.590,159.984 269.889,162.354 252.036 C 164.888 232.941,157.329 221.630,144.686 225.600 M27.900 226.197 L 26.800 226.826 26.800 245.203 L 26.800 263.579 27.980 264.190 C 30.933 265.717,45.112 264.757,47.800 262.848 C 53.356 258.904,53.864 249.258,48.701 245.747 C 47.226 244.744,47.235 243.220,48.723 242.120 C 52.814 239.096,51.035 229.204,45.925 226.561 C 44.056 225.594,29.469 225.299,27.900 226.197 M60.200 225.870 C 58.360 226.367,58.400 225.947,58.400 244.875 C 58.400 256.239,58.549 263.131,58.805 263.609 C 59.567 265.033,63.208 265.135,64.572 263.771 C 65.487 262.856,65.529 227.171,64.616 226.413 C 63.951 225.861,61.396 225.547,60.200 225.870 M169.900 226.229 L 168.800 226.826 168.800 245.203 L 168.800 263.579 169.980 264.190 C 174.143 266.342,174.395 265.540,174.428 250.011 C 174.455 237.604,174.730 233.716,175.378 236.600 C 175.526 237.260,176.009 238.880,176.452 240.200 C 176.894 241.520,177.488 243.590,177.771 244.800 C 178.055 246.010,178.661 248.260,179.119 249.800 C 179.872 252.334,180.380 254.153,181.689 259.000 C 181.927 259.880,182.280 261.274,182.475 262.097 C 183.075 264.633,186.421 265.716,187.889 263.850 C 188.774 262.725,189.968 258.992,191.870 251.400 C 192.201 250.080,192.798 248.010,193.197 246.800 C 193.595 245.590,194.129 243.579,194.382 242.332 C 194.714 240.698,195.110 239.889,195.796 239.440 C 196.390 239.050,196.809 238.323,196.910 237.508 C 196.999 236.788,197.101 242.275,197.136 249.700 C 197.197 262.621,197.234 263.234,198.000 264.000 C 199.233 265.233,202.314 264.907,203.294 263.440 C 203.456 263.198,203.591 254.846,203.594 244.880 L 203.600 226.759 202.213 226.180 C 200.162 225.323,195.094 225.400,194.328 226.300 C 193.738 226.993,191.994 231.960,192.007 232.908 C 192.013 233.368,191.318 235.738,188.963 243.289 C 188.434 244.988,187.999 246.608,187.998 246.889 C 187.979 251.079,185.226 251.091,184.409 246.905 C 184.162 245.637,183.625 243.610,183.216 242.400 C 182.807 241.190,182.199 239.120,181.865 237.800 C 181.225 235.273,180.271 231.648,179.562 229.051 C 178.664 225.763,173.525 224.262,169.900 226.229 M211.900 226.034 L 210.800 226.467 210.800 244.984 C 210.800 265.660,210.606 264.343,213.700 264.688 C 215.031 264.837,215.639 264.689,216.500 264.010 L 217.600 263.142 217.600 257.033 C 217.600 249.563,217.578 249.600,222.113 249.600 C 227.678 249.600,232.220 247.180,233.839 243.352 C 235.092 240.391,234.834 232.523,233.438 231.079 C 233.182 230.816,232.588 230.051,232.117 229.381 C 230.040 226.424,216.575 224.194,211.900 226.034 M240.262 226.331 C 239.286 227.410,239.249 262.521,240.223 263.911 C 240.833 264.782,241.013 264.800,249.323 264.794 C 259.106 264.787,259.729 264.638,259.926 262.252 C 260.158 259.448,259.576 259.200,252.777 259.200 L 246.878 259.200 246.439 257.940 C 246.150 257.112,246.000 251.524,246.000 241.620 C 246.000 230.440,245.876 226.436,245.520 226.080 C 244.737 225.297,241.038 225.474,240.262 226.331 M264.300 226.212 L 263.200 226.826 263.200 244.943 L 263.200 263.061 264.126 263.930 C 265.022 264.773,265.347 264.800,274.426 264.794 C 285.172 264.787,285.727 264.665,285.926 262.263 C 286.140 259.675,285.927 259.601,278.251 259.594 C 269.647 259.586,270.231 260.000,270.067 253.784 C 269.888 247.033,269.732 247.200,276.213 247.200 C 281.628 247.200,281.872 247.097,282.271 244.639 C 282.667 242.198,282.213 242.000,276.231 242.000 C 272.665 242.000,270.805 241.845,270.480 241.520 C 269.849 240.889,269.837 233.196,270.464 231.819 L 270.928 230.800 277.842 230.800 C 284.532 230.800,284.775 230.771,285.377 229.911 C 286.190 228.751,286.172 227.041,285.339 226.349 C 284.301 225.486,265.817 225.366,264.300 226.212 M290.700 226.032 C 289.548 226.703,289.536 226.671,296.047 239.713 C 298.524 244.676,298.622 243.941,294.407 252.070 C 288.353 263.748,288.249 264.051,290.128 264.555 C 293.423 265.439,294.461 264.500,298.038 257.406 C 299.648 254.213,301.063 251.606,301.183 251.613 C 302.318 251.683,303.421 253.596,305.907 259.800 C 307.768 264.447,310.864 266.161,313.856 264.200 C 315.204 263.317,315.667 264.540,307.989 248.684 C 305.756 244.074,305.504 242.053,306.961 240.443 C 307.307 240.061,307.798 239.130,308.053 238.374 C 308.308 237.618,308.693 236.774,308.909 236.497 C 309.126 236.221,310.341 233.933,311.610 231.412 C 314.211 226.249,314.196 226.128,310.900 225.737 C 308.476 225.450,307.927 226.046,305.006 232.136 C 303.340 235.610,303.018 236.045,302.259 235.842 C 301.787 235.715,301.279 235.608,301.131 235.605 C 300.983 235.602,300.643 234.925,300.374 234.100 C 299.945 232.779,299.390 231.541,297.463 227.606 C 296.587 225.817,292.645 224.899,290.700 226.032 M319.800 225.951 L 318.600 226.208 318.504 244.804 C 318.451 255.032,318.551 263.624,318.726 263.897 C 319.282 264.767,322.640 264.997,323.789 264.244 L 324.800 263.582 324.800 245.213 L 324.800 226.845 323.911 226.223 C 322.994 225.580,321.879 225.507,319.800 225.951 M329.900 226.065 C 328.909 226.427,328.800 226.656,328.800 228.384 C 328.800 230.897,329.344 231.294,333.170 231.575 C 337.982 231.929,337.600 230.497,337.600 248.187 C 337.600 265.575,337.447 264.800,340.870 264.800 C 344.118 264.800,344.000 265.427,344.000 248.242 C 344.000 230.461,343.730 231.600,347.952 231.600 C 351.568 231.600,352.329 231.099,352.679 228.486 C 353.053 225.696,352.639 225.595,341.011 225.632 C 335.392 225.649,330.517 225.839,329.900 226.065 M354.169 226.321 C 353.190 227.141,353.319 227.741,354.859 229.514 C 355.486 230.237,356.000 231.091,356.000 231.414 C 356.000 231.736,356.449 232.855,356.998 233.900 C 357.547 234.945,358.552 237.060,359.230 238.600 C 359.908 240.140,360.630 241.670,360.834 242.000 C 361.038 242.330,361.319 242.870,361.458 243.200 C 361.598 243.530,362.226 245.000,362.856 246.467 C 363.977 249.079,364.000 249.285,364.000 256.487 C 364.000 264.864,363.976 264.800,367.057 264.800 C 370.305 264.800,370.400 264.536,370.400 255.490 C 370.400 248.792,370.486 247.795,371.181 246.479 C 371.610 245.666,372.975 242.840,374.214 240.200 C 376.568 235.185,376.799 234.708,377.510 233.400 C 381.023 226.939,380.918 225.287,377.024 225.747 C 374.653 226.027,374.502 226.179,372.825 230.000 C 372.100 231.650,371.078 233.890,370.554 234.979 C 370.029 236.067,369.600 237.156,369.600 237.400 C 369.600 237.644,368.989 238.435,368.243 239.158 L 366.886 240.473 366.399 238.937 C 366.130 238.092,365.686 237.040,365.412 236.600 C 364.857 235.710,363.083 231.538,362.123 228.864 C 361.054 225.884,356.451 224.413,354.169 226.321 M88.390 231.592 C 93.469 235.615,93.469 254.673,88.389 258.948 C 83.613 262.967,78.766 257.765,78.186 248.000 C 77.399 234.749,82.341 226.801,88.390 231.592 M152.103 231.500 C 157.297 235.491,157.430 253.975,152.299 258.636 C 149.224 261.430,145.698 260.237,143.326 255.600 L 142.200 253.400 142.200 245.200 C 142.200 237.338,142.240 236.917,143.170 235.000 C 145.340 230.524,148.978 229.099,152.103 231.500 M41.406 231.635 C 44.977 233.506,45.222 238.685,41.839 240.776 C 40.168 241.809,35.754 242.325,34.470 241.637 C 33.461 241.098,33.160 233.803,34.064 231.819 C 34.695 230.435,38.914 230.330,41.406 231.635 M224.399 231.400 C 228.429 233.483,229.193 239.768,225.781 242.763 C 224.238 244.118,219.175 244.615,218.080 243.520 C 217.438 242.878,217.425 233.221,218.064 231.819 C 218.622 230.594,222.363 230.347,224.399 231.400 M41.196 247.474 C 48.879 249.956,45.858 259.598,37.400 259.590 C 33.802 259.587,33.821 259.615,33.667 253.796 C 33.475 246.540,34.816 245.414,41.196 247.474 M147.654 285.787 C 139.651 288.759,137.846 299.085,144.407 304.357 C 145.915 305.569,151.812 308.393,152.865 308.407 C 153.159 308.411,154.192 308.951,155.160 309.607 C 156.128 310.263,157.059 310.800,157.229 310.800 C 157.837 310.800,158.489 313.729,158.285 315.543 C 157.644 321.231,148.905 321.580,145.967 316.036 C 144.540 313.344,140.726 312.654,139.374 314.843 C 137.965 317.123,143.013 323.267,147.476 324.705 C 158.347 328.206,169.200 318.802,164.800 309.694 C 164.360 308.784,164.000 307.886,164.000 307.701 C 164.000 306.604,157.347 302.004,155.756 302.001 C 152.804 301.995,147.067 297.500,147.067 295.193 C 147.067 289.346,155.609 288.808,158.106 294.496 C 158.794 296.065,158.851 296.099,160.445 295.885 C 163.289 295.503,165.053 292.710,163.458 291.115 C 163.160 290.817,162.665 290.106,162.358 289.535 C 160.198 285.516,153.192 283.731,147.654 285.787 M96.200 285.870 C 94.359 286.367,94.400 285.927,94.400 305.200 C 94.400 319.726,94.507 323.591,94.920 323.933 C 96.357 325.127,99.967 324.829,100.894 323.440 C 101.518 322.506,101.250 286.940,100.616 286.413 C 99.951 285.861,97.396 285.547,96.200 285.870 M108.889 286.223 L 108.000 286.845 108.000 305.023 C 108.000 325.885,107.878 325.170,111.344 324.631 C 114.044 324.211,114.000 324.444,114.000 310.600 C 114.000 298.189,114.404 294.423,115.415 297.400 C 115.707 298.262,116.998 301.165,118.794 305.000 C 119.412 306.320,120.634 308.930,121.510 310.800 C 124.873 317.982,125.546 319.450,126.184 321.000 C 127.322 323.766,128.632 324.800,130.995 324.800 C 134.188 324.800,134.000 326.026,134.000 305.169 C 134.000 284.204,134.160 285.280,131.118 285.767 C 128.291 286.219,128.400 285.745,128.400 297.605 C 128.400 307.467,128.341 308.384,127.652 309.235 L 126.904 310.159 126.614 309.179 C 126.348 308.282,125.121 305.486,123.200 301.400 C 122.786 300.520,121.886 298.540,121.200 297.000 C 120.514 295.460,119.606 293.480,119.183 292.600 C 118.760 291.720,118.168 290.370,117.868 289.600 C 116.401 285.843,111.866 284.137,108.889 286.223 M168.100 286.270 C 165.314 288.213,167.780 291.600,171.980 291.600 C 176.281 291.600,176.000 290.438,176.000 308.200 C 176.000 325.411,175.890 324.800,178.991 324.800 C 182.536 324.800,182.400 325.473,182.400 307.944 C 182.400 290.035,182.056 291.600,185.989 291.600 C 190.034 291.600,191.305 290.774,191.121 288.264 C 190.932 285.693,190.548 285.609,179.000 285.627 C 170.580 285.640,168.858 285.741,168.100 286.270 M195.800 285.893 C 195.360 286.003,194.868 286.297,194.706 286.546 C 194.120 287.452,194.345 323.457,194.940 323.950 C 196.093 324.907,198.922 324.940,200.100 324.010 L 201.200 323.142 201.200 304.981 L 201.200 286.821 200.020 286.210 C 198.859 285.610,197.377 285.499,195.800 285.893 M206.000 286.115 C 202.791 287.731,205.165 291.600,209.365 291.600 C 210.941 291.600,212.141 291.823,212.711 292.223 L 213.600 292.845 213.600 308.161 C 213.600 325.599,213.441 324.800,216.903 324.800 C 220.141 324.800,220.000 325.550,220.000 308.345 C 220.000 290.449,219.728 291.600,223.952 291.600 C 227.568 291.600,228.329 291.099,228.679 288.486 C 229.053 285.702,228.636 285.599,217.011 285.606 C 209.772 285.610,206.723 285.751,206.000 286.115 M233.800 285.889 C 231.999 286.332,231.999 286.333,232.014 298.349 C 232.041 319.487,232.934 322.561,239.684 324.735 C 246.977 327.085,254.172 324.540,256.483 318.793 C 257.326 316.695,257.371 315.955,257.504 301.767 C 257.660 285.206,257.813 286.113,254.807 285.710 C 251.530 285.271,251.600 284.941,251.600 300.783 L 251.600 314.643 250.583 316.684 C 248.082 321.703,241.272 321.112,239.434 315.717 C 238.905 314.165,238.800 311.625,238.800 300.351 C 238.800 284.587,238.823 284.655,233.800 285.889 M262.000 286.115 C 258.791 287.731,261.165 291.600,265.365 291.600 C 266.941 291.600,268.141 291.823,268.711 292.223 L 269.600 292.845 269.600 308.161 C 269.600 322.490,269.647 323.519,270.331 324.138 C 271.260 324.978,273.936 325.000,275.111 324.177 L 276.000 323.555 276.000 308.351 C 276.000 290.449,275.728 291.600,279.952 291.600 C 283.568 291.600,284.329 291.099,284.679 288.486 C 285.053 285.702,284.636 285.599,273.011 285.606 C 265.772 285.610,262.723 285.751,262.000 286.115 M290.000 285.893 C 287.937 286.272,288.000 285.673,288.000 304.973 C 288.000 319.944,288.097 323.180,288.567 323.824 C 289.097 324.549,289.779 324.609,298.989 324.731 C 310.375 324.883,310.800 324.785,310.800 322.014 C 310.800 319.864,310.678 319.826,303.064 319.600 C 294.564 319.348,294.800 319.530,294.800 313.185 C 294.800 307.406,295.023 307.200,301.272 307.200 C 306.199 307.200,307.600 306.510,307.600 304.082 C 307.600 302.412,306.335 302.000,301.207 302.000 C 294.676 302.000,294.800 302.096,294.800 297.064 C 294.800 293.465,294.911 292.767,295.629 291.854 L 296.458 290.800 303.006 290.800 C 309.320 290.800,309.577 290.768,310.177 289.911 C 311.083 288.617,310.964 286.960,309.911 286.223 C 309.045 285.616,292.954 285.350,290.000 285.893 " stroke="none" fill="#eaeaed" fill-rule="evenodd"></path><path id="path2" d="M0.000 200.000 L 0.000 400.000 200.000 400.000 L 400.000 400.000 400.000 200.000 L 400.000 0.000 200.000 0.000 L 0.000 0.000 0.000 200.000 M308.700 79.415 C 309.182 79.753,309.773 80.788,310.012 81.715 C 310.251 82.642,310.773 84.300,311.171 85.400 C 312.441 88.915,313.632 92.554,314.038 94.164 C 314.255 95.024,314.756 96.554,315.150 97.564 C 316.153 100.130,317.518 104.211,318.213 106.720 C 318.536 107.886,319.070 109.362,319.400 110.000 C 319.730 110.638,320.000 111.454,320.000 111.812 C 320.000 112.170,320.416 113.574,320.925 114.932 C 322.412 118.897,323.614 122.480,324.036 124.200 C 324.252 125.080,324.768 126.700,325.183 127.800 C 325.597 128.900,326.424 131.420,327.021 133.400 C 327.617 135.380,328.621 138.559,329.253 140.464 C 329.884 142.369,330.401 144.169,330.402 144.464 C 330.404 144.759,330.664 145.496,330.980 146.102 C 331.296 146.709,331.840 148.315,332.187 149.673 C 332.535 151.031,332.979 152.335,333.174 152.571 C 333.369 152.807,333.824 154.143,334.185 155.539 C 334.547 156.936,335.014 158.376,335.225 158.739 C 335.435 159.103,335.954 160.480,336.378 161.800 C 337.958 166.723,338.482 168.246,339.200 170.000 C 339.605 170.990,340.206 172.610,340.535 173.600 C 345.136 187.442,348.277 190.940,356.600 191.491 C 360.990 191.782,361.649 192.455,360.952 195.938 C 360.595 197.726,361.256 197.679,335.925 197.716 C 309.895 197.753,312.017 198.034,312.006 194.549 C 311.998 191.971,312.271 191.768,316.164 191.455 C 322.139 190.973,323.362 188.528,321.020 181.748 C 320.459 180.123,320.000 178.441,320.000 178.011 C 320.000 177.581,319.633 176.298,319.184 175.159 C 318.735 174.020,318.174 172.168,317.937 171.044 C 317.700 169.920,317.353 168.808,317.164 168.572 C 316.976 168.337,316.536 166.912,316.187 165.406 C 315.837 163.899,315.313 162.202,315.021 161.633 C 314.730 161.065,314.278 159.563,314.016 158.296 C 313.744 156.972,313.114 155.483,312.535 154.796 L 311.529 153.600 294.018 153.600 C 274.225 153.600,274.739 153.519,274.163 156.717 C 274.016 157.533,273.562 158.903,273.154 159.761 C 272.747 160.620,272.296 161.970,272.153 162.761 C 272.009 163.553,271.578 164.830,271.195 165.600 C 270.811 166.370,270.374 167.630,270.223 168.400 C 270.072 169.170,269.618 170.700,269.214 171.800 C 263.287 187.937,263.989 191.097,273.600 191.512 C 278.544 191.726,279.200 192.086,279.200 194.586 C 279.200 197.965,280.543 197.755,259.233 197.709 C 238.168 197.664,239.200 197.813,239.200 194.813 C 239.200 192.252,239.862 191.757,243.644 191.487 C 248.901 191.112,251.765 189.324,254.732 184.565 C 255.429 183.446,256.000 182.363,256.000 182.159 C 256.000 181.955,256.334 181.161,256.741 180.394 C 257.149 179.627,257.712 178.280,257.993 177.400 C 258.273 176.520,258.747 175.350,259.044 174.800 C 259.342 174.250,259.965 172.810,260.428 171.600 C 260.892 170.390,261.600 168.590,262.001 167.600 C 263.269 164.476,265.234 159.496,266.263 156.800 C 266.809 155.370,267.709 153.030,268.263 151.600 C 268.816 150.170,269.597 148.080,269.996 146.955 C 270.396 145.830,271.010 144.353,271.362 143.674 C 271.713 142.995,272.000 142.128,272.000 141.746 C 272.000 141.365,272.348 140.321,272.774 139.426 C 273.520 137.858,274.603 134.969,275.860 131.200 C 276.189 130.210,276.640 129.064,276.862 128.654 C 277.083 128.244,277.677 126.714,278.182 125.254 C 278.687 123.794,279.582 121.340,280.170 119.800 C 280.759 118.260,281.513 116.190,281.845 115.200 C 282.177 114.210,282.633 113.064,282.857 112.654 C 283.081 112.244,283.677 110.714,284.182 109.254 C 284.687 107.794,285.585 105.340,286.177 103.800 C 288.921 96.662,289.686 93.506,289.018 92.086 C 287.949 89.815,288.399 88.000,290.032 88.000 C 291.542 88.000,302.049 82.828,304.400 80.928 C 304.730 80.661,305.450 80.079,306.000 79.635 C 307.215 78.653,307.571 78.624,308.700 79.415 M90.076 84.269 C 90.719 84.851,90.843 85.344,90.688 86.715 C 90.355 89.671,89.865 89.919,84.066 90.069 C 78.174 90.221,77.446 90.546,75.690 93.800 L 74.610 95.800 74.480 124.000 C 74.325 157.693,74.960 169.279,77.236 174.278 C 77.656 175.201,78.000 176.200,78.000 176.499 C 78.000 179.245,85.517 186.759,89.763 188.257 C 90.625 188.562,91.559 189.000,91.837 189.231 C 94.319 191.291,109.386 191.009,113.881 188.819 C 114.805 188.369,115.753 188.000,115.987 188.000 C 117.759 188.000,123.884 183.470,125.987 180.604 C 132.079 172.303,132.772 168.183,132.783 140.200 C 132.800 94.575,131.911 90.000,123.020 90.000 C 120.209 90.000,118.767 89.841,118.486 89.500 C 117.693 88.536,117.467 85.325,118.126 84.384 L 118.736 83.514 161.063 83.523 C 209.488 83.533,204.760 83.129,204.198 87.211 C 203.838 89.831,203.402 90.000,196.993 90.000 C 187.606 90.000,186.637 92.844,191.197 107.000 C 192.699 111.661,193.617 114.629,194.353 117.200 C 194.762 118.630,195.293 120.340,195.533 121.000 C 195.772 121.660,196.224 123.010,196.538 124.000 C 196.851 124.990,197.301 126.340,197.538 127.000 C 197.774 127.660,198.245 129.055,198.584 130.100 C 200.020 134.527,200.493 135.876,201.074 137.200 C 201.413 137.970,201.946 139.580,202.260 140.777 C 202.573 141.974,202.987 143.144,203.178 143.377 C 203.370 143.610,203.805 144.790,204.145 146.000 C 205.303 150.119,211.310 167.905,212.585 170.990 L 213.077 172.180 214.538 169.268 C 215.342 167.666,216.002 166.141,216.004 165.878 C 216.006 165.615,216.450 164.500,216.991 163.400 C 217.532 162.300,217.986 161.130,218.000 160.800 C 218.014 160.470,218.468 159.300,219.009 158.200 C 219.550 157.100,219.994 155.966,219.996 155.680 C 219.998 155.394,220.301 154.584,220.668 153.880 C 221.036 153.176,221.737 151.520,222.226 150.200 C 222.715 148.880,223.600 146.540,224.193 145.000 C 224.785 143.460,225.614 141.210,226.035 140.000 C 226.456 138.790,226.981 137.440,227.201 137.000 C 227.421 136.560,227.860 135.390,228.177 134.400 C 228.757 132.588,230.214 128.576,232.171 123.400 C 233.861 118.929,235.236 115.140,235.873 113.200 C 236.198 112.210,236.784 110.590,237.174 109.600 C 239.029 104.903,241.388 96.150,241.271 94.400 C 241.057 91.210,239.777 90.335,234.856 90.012 C 230.540 89.729,230.000 89.341,230.000 86.518 C 230.000 83.154,228.432 83.391,250.132 83.470 C 272.249 83.551,270.741 83.270,270.198 87.211 C 269.856 89.699,269.284 90.000,264.900 90.000 C 258.486 90.000,255.286 92.923,250.230 103.400 C 247.059 109.971,246.608 110.956,245.191 114.400 C 244.512 116.050,243.516 118.334,242.978 119.475 C 242.440 120.616,241.999 121.786,241.997 122.075 C 241.996 122.364,241.637 123.140,241.200 123.800 C 240.763 124.460,240.404 125.277,240.403 125.615 C 240.401 125.954,240.034 126.944,239.587 127.815 C 239.139 128.687,238.517 130.120,238.203 131.000 C 237.469 133.063,235.706 137.460,234.997 139.000 C 234.693 139.660,233.873 141.550,233.176 143.200 C 232.478 144.850,231.478 147.103,230.954 148.206 C 230.429 149.309,230.000 150.424,230.000 150.685 C 230.000 150.945,229.550 152.004,229.000 153.038 C 228.450 154.073,228.000 155.153,228.000 155.438 C 228.000 155.724,227.550 156.804,227.000 157.838 C 226.450 158.873,226.000 159.953,226.000 160.238 C 226.000 160.524,225.550 161.604,225.000 162.638 C 224.450 163.673,224.000 164.753,224.000 165.038 C 224.000 165.324,223.550 166.404,223.000 167.438 C 222.450 168.473,222.000 169.553,222.000 169.838 C 222.000 170.124,221.550 171.204,221.000 172.238 C 220.450 173.273,220.000 174.353,220.000 174.638 C 220.000 174.924,219.550 176.004,219.000 177.038 C 218.450 178.073,218.000 179.148,218.000 179.427 C 218.000 179.706,217.550 180.830,217.000 181.925 C 216.450 183.020,216.000 184.106,216.000 184.337 C 216.000 184.568,215.550 185.604,215.000 186.638 C 214.450 187.673,214.000 188.786,214.000 189.112 C 214.000 189.439,213.661 190.267,213.246 190.953 C 212.831 191.639,212.369 192.650,212.219 193.200 C 210.978 197.750,208.371 200.632,206.040 200.030 C 205.006 199.763,202.048 195.044,202.009 193.600 C 202.000 193.270,201.550 192.100,201.009 191.000 C 200.468 189.900,200.019 188.757,200.013 188.460 C 200.006 188.164,199.733 187.354,199.408 186.660 C 199.082 185.967,198.460 184.410,198.027 183.200 C 197.593 181.990,196.759 179.740,196.173 178.200 C 195.587 176.660,194.762 174.410,194.340 173.200 C 193.917 171.990,193.402 170.640,193.195 170.200 C 192.681 169.107,190.870 164.199,190.170 162.000 C 189.854 161.010,189.339 159.660,189.024 159.000 C 188.710 158.340,188.184 156.990,187.856 156.000 C 186.759 152.687,185.575 149.408,185.186 148.600 C 184.974 148.160,184.457 146.810,184.037 145.600 C 182.228 140.385,181.823 139.280,180.936 137.150 C 180.421 135.912,179.999 134.652,179.998 134.350 C 179.996 134.047,179.724 133.280,179.393 132.645 C 179.061 132.010,178.501 130.480,178.147 129.245 C 177.793 128.010,177.362 126.820,177.190 126.600 C 177.017 126.380,176.563 125.122,176.182 123.805 C 175.800 122.487,175.330 121.137,175.138 120.805 C 174.766 120.164,173.113 115.413,172.213 112.400 C 171.917 111.410,171.302 109.790,170.846 108.800 C 170.391 107.810,170.014 106.678,170.009 106.284 C 170.004 105.890,169.662 104.900,169.249 104.084 C 168.836 103.268,168.367 101.970,168.207 101.200 C 168.047 100.430,167.672 99.260,167.375 98.600 C 167.078 97.940,166.463 96.410,166.009 95.200 C 164.208 90.401,163.280 90.000,153.988 90.000 L 146.828 90.000 145.483 91.181 C 142.858 93.486,142.867 93.377,142.389 128.200 C 142.154 145.360,141.868 159.940,141.755 160.600 C 140.809 166.107,139.460 172.673,139.207 173.000 C 139.037 173.220,138.768 173.850,138.608 174.400 C 138.118 176.094,135.533 181.341,134.643 182.450 C 134.179 183.027,133.443 184.017,133.006 184.650 C 129.709 189.429,122.423 194.678,116.000 196.903 C 105.715 200.466,96.628 200.710,82.400 197.806 C 68.046 194.876,58.023 183.823,55.755 168.421 C 55.413 166.100,54.962 163.030,54.753 161.600 C 54.544 160.170,54.274 144.240,54.154 126.200 L 53.935 93.400 52.967 91.907 C 51.823 90.145,51.544 90.068,45.714 89.910 C 43.030 89.837,41.044 89.604,40.769 89.329 C 39.999 88.559,39.821 85.333,40.493 84.308 L 41.087 83.400 65.179 83.470 C 87.875 83.535,89.317 83.581,90.076 84.269 M294.506 100.522 C 294.161 100.986,293.230 103.400,291.003 109.600 C 290.411 111.250,289.492 113.729,288.963 115.108 C 288.433 116.487,288.000 117.825,288.000 118.082 C 288.000 118.338,287.662 119.279,287.248 120.174 C 286.538 121.711,286.048 123.050,284.568 127.500 C 284.221 128.545,283.605 130.210,283.200 131.200 C 282.795 132.190,282.161 133.900,281.791 135.000 C 280.591 138.572,279.286 142.168,278.656 143.639 C 277.286 146.841,277.086 146.800,294.143 146.800 C 311.533 146.800,311.151 146.915,309.356 142.200 C 309.021 141.320,308.415 139.430,308.009 138.000 C 307.603 136.570,306.975 134.500,306.614 133.400 C 306.253 132.300,305.509 129.870,304.962 128.000 C 303.093 121.612,301.942 117.801,301.338 116.000 C 301.006 115.010,300.500 113.275,300.214 112.144 C 299.927 111.013,299.312 108.987,298.846 107.642 C 298.381 106.297,298.000 104.931,298.000 104.607 C 298.000 102.325,295.413 99.302,294.506 100.522 M89.384 225.556 C 94.891 227.275,97.590 231.337,98.824 239.766 L 99.619 245.196 98.796 250.828 C 97.356 260.683,92.925 265.600,85.482 265.600 C 74.625 265.600,69.233 254.813,71.768 238.167 C 72.623 232.553,76.756 226.073,79.543 225.977 C 79.904 225.965,80.830 225.716,81.600 225.425 C 83.636 224.655,86.659 224.705,89.384 225.556 M122.308 225.569 C 128.048 227.314,133.124 236.407,129.455 238.370 C 127.346 239.499,125.057 238.782,124.441 236.800 C 123.399 233.444,123.146 233.002,121.529 231.700 C 116.875 227.954,112.695 231.748,111.407 240.887 C 110.738 245.636,110.776 246.696,111.827 252.516 C 113.413 261.306,121.951 262.971,123.986 254.889 C 124.629 252.336,125.000 252.000,127.173 252.000 C 133.379 252.000,129.887 262.184,122.794 264.770 C 120.429 265.632,115.317 265.930,114.580 265.248 C 114.371 265.055,113.480 264.667,112.600 264.386 C 102.432 261.138,100.753 234.934,110.233 227.445 C 113.324 225.003,118.040 224.271,122.308 225.569 M153.176 225.593 C 160.854 227.880,164.258 237.687,162.354 252.036 C 159.984 269.889,139.219 270.590,135.588 252.940 C 131.849 234.768,140.230 221.737,153.176 225.593 M42.858 225.937 C 47.892 226.497,50.334 229.133,50.695 234.395 C 50.964 238.320,50.330 240.851,48.745 242.185 C 47.315 243.388,47.234 244.869,48.559 245.578 C 53.807 248.387,53.345 258.912,47.800 262.848 C 45.112 264.757,30.933 265.717,27.980 264.190 L 26.800 263.579 26.800 245.203 L 26.800 226.826 27.900 226.229 C 29.121 225.566,37.977 225.394,42.858 225.937 M64.616 226.413 C 65.712 227.323,65.464 262.936,64.354 264.046 C 63.277 265.123,59.791 264.949,58.933 263.776 C 58.177 262.742,58.146 227.104,58.900 226.492 C 60.078 225.535,63.501 225.488,64.616 226.413 M177.622 226.012 C 178.987 226.742,179.318 227.659,181.818 237.600 C 182.178 239.030,182.807 241.190,183.216 242.400 C 183.625 243.610,184.162 245.637,184.409 246.905 C 184.973 249.797,186.954 251.362,187.447 249.306 C 187.593 248.698,188.053 246.940,188.471 245.400 C 188.888 243.860,189.569 241.340,189.983 239.800 C 190.397 238.260,191.012 236.280,191.350 235.400 C 191.688 234.520,191.973 233.489,191.982 233.108 C 192.012 231.934,193.699 227.040,194.328 226.300 C 195.094 225.400,200.162 225.323,202.213 226.180 L 203.600 226.759 203.594 244.880 C 203.591 254.846,203.456 263.198,203.294 263.440 C 202.314 264.907,199.233 265.233,198.000 264.000 C 197.234 263.234,197.197 262.621,197.136 249.700 C 197.101 242.275,196.999 236.788,196.910 237.508 C 196.809 238.323,196.390 239.050,195.796 239.440 C 195.110 239.889,194.714 240.698,194.382 242.332 C 194.129 243.579,193.595 245.590,193.197 246.800 C 192.798 248.010,192.199 250.080,191.865 251.400 C 188.942 262.955,188.155 264.800,186.151 264.800 C 184.341 264.800,182.859 263.716,182.458 262.097 C 181.534 258.379,180.113 253.146,179.119 249.800 C 178.661 248.260,178.055 246.010,177.771 244.800 C 177.488 243.590,176.894 241.520,176.452 240.200 C 176.009 238.880,175.526 237.260,175.378 236.600 C 174.729 233.709,174.455 237.620,174.428 250.169 C 174.395 265.667,174.175 266.359,169.976 264.188 L 168.792 263.575 168.896 245.099 L 169.000 226.623 170.000 226.118 C 171.204 225.508,176.543 225.434,177.622 226.012 M229.111 227.074 C 230.293 227.672,231.646 228.710,232.117 229.381 C 232.588 230.051,233.192 230.825,233.459 231.100 C 234.869 232.556,235.125 240.311,233.861 243.301 C 232.220 247.181,227.708 249.600,222.113 249.600 C 217.578 249.600,217.600 249.563,217.600 257.033 L 217.600 263.142 216.546 263.971 C 215.372 264.895,213.946 265.019,212.060 264.361 L 210.800 263.922 210.800 245.194 L 210.800 226.467 211.900 226.034 C 214.294 225.092,226.672 225.840,229.111 227.074 M245.520 226.080 C 245.876 226.436,246.000 230.440,246.000 241.620 C 246.000 251.524,246.150 257.112,246.439 257.940 L 246.878 259.200 252.777 259.200 C 259.576 259.200,260.158 259.448,259.926 262.252 C 259.729 264.638,259.106 264.787,249.323 264.794 C 241.013 264.800,240.833 264.782,240.223 263.911 C 239.249 262.521,239.286 227.410,240.262 226.331 C 241.038 225.474,244.737 225.297,245.520 226.080 M285.339 226.349 C 286.172 227.041,286.190 228.751,285.377 229.911 C 284.775 230.771,284.532 230.800,277.842 230.800 L 270.928 230.800 270.464 231.819 C 269.837 233.196,269.849 240.889,270.480 241.520 C 270.805 241.845,272.665 242.000,276.231 242.000 C 282.213 242.000,282.667 242.198,282.271 244.639 C 281.872 247.100,281.633 247.200,276.160 247.200 C 269.791 247.200,269.875 247.107,270.066 253.997 C 270.231 259.968,269.674 259.586,278.251 259.594 C 285.927 259.601,286.140 259.675,285.926 262.263 C 285.727 264.665,285.172 264.787,274.426 264.794 C 265.347 264.800,265.022 264.773,264.126 263.930 L 263.200 263.061 263.200 244.943 L 263.200 226.826 264.300 226.212 C 265.817 225.366,284.301 225.486,285.339 226.349 M295.988 226.112 C 296.531 226.387,297.201 227.059,297.476 227.606 C 298.925 230.482,300.400 233.846,300.400 234.271 C 300.400 234.826,301.939 236.000,302.666 236.000 C 302.934 236.000,303.995 234.245,305.024 232.100 C 307.926 226.048,308.478 225.450,310.900 225.737 C 314.299 226.140,314.304 226.065,310.458 233.630 C 308.556 237.372,306.778 240.830,306.506 241.316 C 305.629 242.884,305.959 244.488,308.039 248.787 C 315.541 264.285,315.114 263.192,314.051 264.154 C 311.526 266.439,307.759 264.424,305.907 259.800 C 303.871 254.719,303.020 252.980,302.255 252.341 C 301.087 251.365,301.063 251.375,300.124 253.300 C 294.526 264.777,294.102 265.283,290.636 264.633 C 288.121 264.161,288.069 264.333,294.520 251.888 C 298.876 243.486,299.212 246.151,291.945 231.470 C 289.795 227.126,289.681 226.626,290.700 226.032 C 291.675 225.464,294.801 225.511,295.988 226.112 M323.911 226.223 L 324.800 226.845 324.800 245.213 L 324.800 263.582 323.792 264.242 C 322.610 265.017,319.314 264.821,318.754 263.944 C 318.564 263.645,318.451 255.032,318.504 244.804 L 318.600 226.208 319.800 225.951 C 321.879 225.507,322.994 225.580,323.911 226.223 M351.956 226.254 C 352.745 226.807,352.858 227.154,352.679 228.486 C 352.329 231.099,351.568 231.600,347.952 231.600 C 343.730 231.600,344.000 230.461,344.000 248.242 C 344.000 265.427,344.118 264.800,340.870 264.800 C 337.447 264.800,337.600 265.575,337.600 248.187 C 337.600 230.497,337.982 231.929,333.170 231.575 C 329.344 231.294,328.800 230.897,328.800 228.384 C 328.800 225.732,329.079 225.669,341.011 225.632 C 349.666 225.604,351.149 225.689,351.956 226.254 M360.250 226.365 C 361.057 226.857,361.721 227.743,362.123 228.864 C 363.083 231.538,364.857 235.710,365.412 236.600 C 365.686 237.040,366.130 238.092,366.399 238.937 L 366.886 240.473 368.243 239.158 C 368.989 238.435,369.600 237.644,369.600 237.400 C 369.600 237.156,370.029 236.067,370.554 234.979 C 371.078 233.890,372.100 231.650,372.825 230.000 C 374.502 226.179,374.653 226.027,377.024 225.747 C 380.918 225.287,381.023 226.939,377.510 233.400 C 376.759 234.782,376.517 235.283,374.223 240.200 C 372.992 242.840,371.628 245.666,371.192 246.479 C 370.483 247.803,370.400 248.748,370.400 255.490 C 370.400 264.552,370.310 264.800,367.026 264.800 C 364.069 264.800,364.083 264.840,363.916 255.997 C 363.775 248.605,363.714 248.086,362.734 246.000 C 362.165 244.790,361.588 243.530,361.452 243.200 C 361.316 242.870,361.043 242.330,360.844 242.000 C 360.646 241.670,359.913 240.140,359.215 238.600 C 358.517 237.060,357.509 234.945,356.973 233.900 C 356.438 232.855,356.000 231.736,356.000 231.414 C 356.000 231.091,355.477 230.233,354.838 229.505 C 352.065 226.346,356.243 223.922,360.250 226.365 M82.029 231.498 C 78.321 234.570,76.633 248.383,79.236 254.351 C 79.656 255.314,80.000 256.328,80.000 256.604 C 80.000 259.318,85.968 260.985,88.389 258.948 C 93.469 254.673,93.469 235.615,88.390 231.592 C 86.342 229.970,83.916 229.935,82.029 231.498 M145.570 231.706 C 142.581 234.410,142.200 235.936,142.200 245.200 L 142.200 253.400 143.333 255.600 C 146.597 261.939,152.125 261.522,154.800 254.736 C 156.293 250.948,156.302 239.993,154.816 235.870 C 152.899 230.557,148.854 228.735,145.570 231.706 M34.064 231.819 C 33.160 233.803,33.461 241.098,34.470 241.637 C 36.614 242.785,42.529 241.200,43.605 239.191 C 44.096 238.273,44.121 234.771,43.645 233.520 C 42.685 230.992,35.058 229.639,34.064 231.819 M218.064 231.819 C 217.425 233.221,217.438 242.878,218.080 243.520 C 219.175 244.615,224.238 244.118,225.781 242.763 C 229.193 239.768,228.429 233.483,224.399 231.400 C 222.363 230.347,218.622 230.594,218.064 231.819 M34.176 247.780 C 33.287 249.138,33.472 258.624,34.400 259.209 C 35.582 259.955,39.689 259.644,41.831 258.647 C 45.607 256.888,46.583 253.376,44.301 249.759 C 42.525 246.946,35.609 245.594,34.176 247.780 M156.966 285.588 C 159.479 286.453,161.494 287.928,162.358 289.535 C 162.665 290.106,163.160 290.817,163.458 291.115 C 165.057 292.714,163.288 295.503,160.432 295.886 C 158.830 296.101,158.769 296.066,158.114 294.554 C 156.397 290.584,151.321 289.038,148.764 291.705 C 146.592 293.970,146.584 296.077,148.736 298.528 C 149.376 299.257,154.920 301.999,155.756 302.001 C 157.347 302.004,164.000 306.604,164.000 307.701 C 164.000 307.886,164.360 308.784,164.800 309.694 C 166.598 313.415,165.254 319.011,161.794 322.213 C 155.228 328.289,142.179 325.485,139.804 317.488 C 139.018 314.840,139.002 314.923,140.434 314.183 C 143.082 312.813,144.867 313.475,146.175 316.312 C 148.609 321.590,157.668 321.014,158.285 315.543 C 158.489 313.729,157.837 310.800,157.229 310.800 C 157.059 310.800,156.128 310.263,155.160 309.607 C 154.192 308.951,153.159 308.411,152.865 308.407 C 149.752 308.365,143.156 303.876,141.556 300.711 C 136.896 291.488,146.556 282.007,156.966 285.588 M100.600 286.400 C 101.249 286.938,101.531 322.486,100.894 323.440 C 99.939 324.870,95.906 325.132,94.829 323.835 C 94.524 323.467,94.423 317.779,94.496 304.966 L 94.600 286.623 95.600 286.095 C 96.758 285.484,99.713 285.664,100.600 286.400 M116.225 286.900 C 116.828 287.615,117.567 288.830,117.868 289.600 C 118.168 290.370,118.760 291.720,119.183 292.600 C 119.606 293.480,120.514 295.460,121.200 297.000 C 121.886 298.540,122.786 300.520,123.200 301.400 C 125.121 305.486,126.348 308.282,126.614 309.179 L 126.904 310.159 127.652 309.235 C 128.341 308.384,128.400 307.467,128.400 297.605 C 128.400 285.683,128.303 286.098,131.180 285.712 C 134.150 285.314,134.000 284.276,134.000 305.169 C 134.000 326.026,134.188 324.800,130.995 324.800 C 128.630 324.800,127.316 323.761,126.190 321.000 C 125.831 320.120,124.814 317.870,123.931 316.000 C 118.933 305.420,115.855 298.697,115.415 297.400 C 114.404 294.423,114.000 298.189,114.000 310.600 C 114.000 324.444,114.044 324.211,111.344 324.631 C 107.880 325.169,108.000 325.870,108.000 305.131 C 108.000 284.013,107.657 285.600,112.226 285.600 C 115.009 285.600,115.174 285.653,116.225 286.900 M190.000 286.115 C 190.783 286.509,191.026 286.976,191.121 288.264 C 191.301 290.723,190.015 291.600,186.226 291.600 C 182.108 291.600,182.400 290.366,182.400 307.791 C 182.400 325.492,182.539 324.800,178.991 324.800 C 175.890 324.800,176.000 325.411,176.000 308.200 C 176.000 290.438,176.281 291.600,171.980 291.600 C 167.780 291.600,165.314 288.213,168.100 286.270 C 169.295 285.436,188.383 285.301,190.000 286.115 M200.020 286.210 L 201.200 286.821 201.200 304.981 L 201.200 323.142 200.100 324.010 C 198.891 324.964,196.156 324.959,195.000 324.000 C 194.351 323.462,194.069 287.530,194.706 286.546 C 195.354 285.546,198.367 285.356,200.020 286.210 M227.911 286.223 C 230.772 288.227,228.310 291.600,223.985 291.600 C 219.725 291.600,220.000 290.453,220.000 308.200 C 220.000 325.331,220.092 324.800,217.117 324.800 C 213.406 324.800,213.600 325.719,213.600 308.161 L 213.600 292.845 212.711 292.223 C 212.141 291.823,210.941 291.600,209.365 291.600 C 205.165 291.600,202.791 287.731,206.000 286.115 C 207.615 285.302,226.731 285.396,227.911 286.223 M237.911 286.223 C 238.800 286.845,238.800 286.848,238.800 300.351 C 238.800 311.669,238.903 314.161,239.438 315.731 C 241.263 321.085,248.099 321.669,250.583 316.684 L 251.600 314.643 251.600 300.783 C 251.600 284.941,251.530 285.271,254.807 285.710 C 257.811 286.113,257.659 285.208,257.518 301.767 C 257.397 316.038,257.359 316.684,256.499 318.816 C 254.191 324.539,247.014 327.072,239.684 324.750 C 232.900 322.601,231.868 318.917,232.087 297.612 L 232.200 286.623 233.200 286.118 C 234.574 285.423,236.841 285.473,237.911 286.223 M283.956 286.254 C 284.745 286.807,284.858 287.154,284.679 288.486 C 284.329 291.099,283.568 291.600,279.952 291.600 C 275.728 291.600,276.000 290.449,276.000 308.345 C 276.000 325.550,276.141 324.800,272.903 324.800 C 269.441 324.800,269.600 325.599,269.600 308.161 L 269.600 292.845 268.711 292.223 C 268.141 291.823,266.941 291.600,265.365 291.600 C 261.165 291.600,258.791 287.731,262.000 286.115 C 263.664 285.278,282.734 285.398,283.956 286.254 M309.911 286.223 C 310.964 286.960,311.083 288.617,310.177 289.911 C 309.577 290.768,309.320 290.800,303.006 290.800 L 296.458 290.800 295.629 291.854 C 294.911 292.767,294.800 293.465,294.800 297.064 C 294.800 302.096,294.676 302.000,301.207 302.000 C 306.335 302.000,307.600 302.412,307.600 304.082 C 307.600 306.510,306.199 307.200,301.272 307.200 C 295.023 307.200,294.800 307.406,294.800 313.185 C 294.800 319.530,294.564 319.348,303.064 319.600 C 310.678 319.826,310.800 319.864,310.800 322.014 C 310.800 324.785,310.375 324.883,298.989 324.731 C 289.779 324.609,289.097 324.549,288.567 323.824 C 287.781 322.747,287.716 287.128,288.500 286.492 C 289.835 285.408,308.414 285.174,309.911 286.223 " stroke="none" fill="#242c4c" fill-rule="evenodd"></path></g></svg>