<?xml version="1.0" encoding="UTF-8" standalone="no"?>
<svg
   version="1.1"
   id="svg2"
   width="166.45462"
   height="166.552"
   viewBox="0 0 166.45462 166.552"
   sodipodi:docname="cgu.svg"
   inkscape:version="1.4.4 (dcaf3e7, 2026-05-05)"
   xmlns:inkscape="http://www.inkscape.org/namespaces/inkscape"
   xmlns:sodipodi="http://sodipodi.sourceforge.net/DTD/sodipodi-0.dtd"
   xmlns="http://www.w3.org/2000/svg"
   xmlns:svg="http://www.w3.org/2000/svg"
   xmlns:rdf="http://www.w3.org/1999/02/22-rdf-syntax-ns#"
   xmlns:cc="http://creativecommons.org/ns#"
   xmlns:dc="http://purl.org/dc/elements/1.1/">
  <title
     id="title853">Claremont Graduate University Logo</title>
  <metadata
     id="metadata8">
    <rdf:RDF>
      <cc:Work
         rdf:about="">
        <dc:format>image/svg+xml</dc:format>
        <dc:type
           rdf:resource="http://purl.org/dc/dcmitype/StillImage" />
        <dc:title>Claremont Graduate University Logo</dc:title>
      </cc:Work>
    </rdf:RDF>
  </metadata>
  <defs
     id="defs6" />
  <sodipodi:namedview
     pagecolor="#ffffff"
     bordercolor="#666666"
     borderopacity="1"
     objecttolerance="10"
     gridtolerance="10"
     guidetolerance="10"
     inkscape:pageopacity="0"
     inkscape:pageshadow="2"
     inkscape:window-width="3440"
     inkscape:window-height="1369"
     id="namedview4"
     showgrid="false"
     inkscape:zoom="6.2042703"
     inkscape:cx="83.249113"
     inkscape:cy="83.087934"
     inkscape:window-x="-8"
     inkscape:window-y="-8"
     inkscape:window-maximized="1"
     inkscape:current-layer="g10"
     inkscape:showpageshadow="2"
     inkscape:pagecheckerboard="0"
     inkscape:deskcolor="#d1d1d1" />
  <g
     inkscape:groupmode="layer"
     inkscape:label="Image"
     id="g10"
     transform="translate(-49.272691,-50.224001)">
    <g
       id="g837"
       transform="translate(-3.2044627,-2.8404668)">
      <path
         style="fill:#ac1b28;fill-opacity:1"
         d="M 125.06058,218.95362 C 90.517804,214.26584 63.57708,190.01009 54.40104,155.33619 51.683336,145.06669 51.872598,125.9509 54.793357,115.7115 62.006674,90.423525 76.936322,72.27457 99.542151,61.313441 133.86555,44.670691 175.55752,53.808687 200.01613,83.335207 c 5.90535,7.128967 14.1726,23.391613 16.43381,32.327233 6.8558,27.09208 -0.71399,56.33809 -19.96349,77.12933 -17.91708,19.3521 -45.94837,29.61939 -71.42587,26.16185 z m 7.80623,-21.47382 c -1.51023,-5.46962 -0.64948,-13.23158 2.0963,-18.90359 1.40397,-2.90021 7.28399,-9.97753 14.78494,-17.79547 14.6745,-15.29463 17.84301,-20.76498 16.96347,-29.28693 -0.29909,-2.89782 -1.3089,-6.78191 -2.24404,-8.63129 -1.99212,-3.93973 -9.48642,-14.17692 -10.00142,-13.66191 -0.19449,0.19449 0.0888,2.32248 0.62943,4.72886 2.32211,10.33494 -2.28398,19.42857 -18.97053,37.45283 -5.54105,5.98527 -11.06096,12.91978 -12.26647,15.41002 -2.8905,5.97099 -2.91248,14.06332 -0.0557,20.50624 1.83027,4.1278 9.27178,14.84089 9.92009,14.28136 0.12259,-0.10581 -0.26265,-1.95086 -0.85609,-4.10012 z m -16.97865,-37.37078 c -1.66088,-4.7644 -0.65485,-13.86835 2.1617,-19.56197 1.45843,-2.94821 7.38839,-10.10954 14.65073,-17.69298 14.30358,-14.93601 16.70904,-18.87395 16.70904,-27.35407 0,-6.648121 -2.04449,-11.551861 -8.23425,-19.75 -3.95735,-5.24138 -5.65183,-6.133357 -4.15063,-2.1849 1.42407,3.745595 1.19192,11.569338 -0.48427,16.320157 -2.09963,5.950991 -5.9877,11.209103 -17.16844,23.218093 -11.90306,12.78482 -14.83141,18.00686 -14.80241,26.39665 0.0227,6.56322 1.96889,11.27588 8.17561,19.797 3.90159,5.35644 4.80883,5.59084 3.14292,0.81202 z"
         id="path851" />
      <path
         style="fill:#ac1b28;fill-opacity:1"
         d="M 119,217.50893 C 102.08626,213.71478 90.128359,207.17593 77.897674,195.03324 59.436277,176.70467 52.192513,158.19203 53.262278,132.07341 53.822807,118.38793 55.77771,110.39866 61.232697,99.5 78.534872,64.931553 117.88158,46.521228 154.91554,55.665805 c 24.77938,6.118627 44.6564,22.379109 55.52558,45.422945 5.21581,11.05808 6.74833,17.87652 7.28478,32.41125 0.39874,10.80351 0.13383,14.45253 -1.56791,21.59683 -7.12991,29.933 -29.76541,53.24069 -59.67768,61.44986 -8.38864,2.30219 -29.13291,2.83476 -37.48031,0.96224 z m 14.43226,-20.42328 c -3.07753,-11.86418 0.54837,-19.58219 17.63954,-37.54717 14.46213,-15.20153 16.44123,-18.76912 15.74577,-28.38384 -0.46555,-6.43606 -3.86636,-13.118 -10.51232,-20.65464 l -3.52727,-4 0.86101,3.5 c 0.47355,1.925 0.84473,6.425 0.82483,10 -0.0489,8.78541 -3.27186,14.47969 -15.64514,27.64162 -10.52989,11.20104 -14.86602,16.99404 -16.66007,22.2576 -1.83809,5.39275 -1.38004,12.08665 1.20438,17.60078 2.22097,4.73864 10.4332,16.03715 11.14159,15.32875 0.1823,-0.18229 -0.30025,-2.76669 -1.07232,-5.7431 z m -17.25442,-37.67144 c -1.28862,-4.62973 -1.35333,-6.54594 -0.37808,-11.19546 1.56737,-7.47247 5.79234,-13.5385 18.59625,-26.69965 12.97219,-13.33414 16.04533,-18.76836 15.42396,-27.274158 -0.50831,-6.958133 -3.59977,-13.464397 -9.47734,-19.945962 -4.14294,-4.568679 -4.31557,-4.655012 -3.59721,-1.79898 0.41502,1.65 0.75458,5.7 0.75458,9 0,8.822245 -3.57202,15.265194 -15.49064,27.94091 -14.77385,15.71232 -18.01016,21.18597 -18.00857,30.45831 9.6e-4,5.59195 4.15933,14.7592 9.45815,20.85078 2.0333,2.3375 3.82667,4.25 3.98527,4.25 0.1586,0 -0.41127,-2.5136 -1.26637,-5.58579 z"
         id="path849" />
      <path
         style="fill:#ac1b28;fill-opacity:1"
         d="M 123.5,218.35291 C 95.985822,213.92921 72.518439,196.2421 60.554057,170.91125 54.751122,158.62534 53.503794,152.40594 53.552448,136 53.603129,118.91064 54.929255,112.87587 61.573234,99.5 72.410089,77.682899 91.342024,62.37673 115.5,55.901068 c 11.11641,-2.979808 28.78078,-2.994226 40,-0.03265 37.11916,9.798473 62.5,42.161862 62.5,79.694432 0,22.87491 -7.181,41.19757 -22.44577,57.27144 -10.84956,11.42464 -24.40659,19.62402 -39.05423,23.62025 -5.95504,1.62467 -27.12701,2.84262 -33,1.89837 z m 10.52798,-18.77932 c -0.56539,-1.48708 -1.02358,-5.48699 -1.01821,-8.88869 0.0151,-9.55888 2.93745,-14.63622 16.69389,-29.00421 13.94675,-14.56677 17.4392,-20.24045 17.4392,-28.33101 0,-6.73591 -3.94718,-15.37515 -10.21134,-22.34968 l -4.04167,-4.5 0.80508,4 c 0.44279,2.2 0.77945,6.51785 0.74815,9.59522 -0.0872,8.57364 -3.62629,14.61529 -16.91265,28.87212 C 124.24886,163.21905 121,168.73573 121,177.03662 c 0,6.56431 3.64775,14.85531 9.59027,21.7978 3.99796,4.67072 5.01568,4.88955 3.43771,0.73917 z M 116.3106,159.75 c -3.08562,-11.60068 0.50302,-19.52226 16.27366,-35.92262 14.11812,-14.68185 17.3934,-20.02219 17.40636,-28.381036 0.0115,-7.393581 -2.84989,-13.684677 -9.52692,-20.946344 -3.80503,-4.13819 -4.49741,-4.569095 -4.01703,-2.5 3.41715,14.718296 0.64598,21.187069 -17.34572,40.4904 -12.90906,13.85015 -15.55532,18.91511 -14.87202,28.46512 0.36496,5.10079 1.20993,8.11762 3.24738,11.59426 C 109.7604,156.4473 116.6255,165 117.46988,165 c 0.13043,0 -0.39125,-2.3625 -1.15928,-5.25 z"
         id="path847" />
      <path
         style="fill:#ac1b28;fill-opacity:1"
         d="M 120.5,217.5226 C 87.939874,211.49013 61.540311,185.75238 54.897037,153.56426 45.776904,109.3752 71.990354,67.331429 115.80153,55.879491 c 10.67107,-2.789342 28.72587,-2.789342 39.39694,0 28.40496,7.42486 49.9865,27.607005 58.94246,55.120509 5.84724,17.96322 4.97511,39.22601 -2.32937,56.79042 C 196.85186,203.76267 158.6203,224.58521 120.5,217.5226 Z M 134.48822,201.25 c -0.39917,-0.9625 -0.95328,-4.96233 -1.23134,-8.8885 -0.75495,-10.65946 1.66524,-15.13767 16.64584,-30.8007 17.76875,-18.57819 20.68085,-26.14491 14.87812,-38.65888 C 162.29665,117.54458 154.53057,107 153.06909,107 c -0.41842,0 -0.10951,2.55709 0.68649,5.68242 1.15303,4.52718 1.22062,6.81093 0.33246,11.23338 -1.43608,7.15078 -5.4083,13.01143 -17.88582,26.38888 -5.5428,5.94257 -11.23081,13.11843 -12.64002,15.94634 -4.84449,9.72163 -2.82541,20.10711 6.1803,31.78949 3.77603,4.89834 6.09712,6.46807 4.74572,3.20949 z m -16.95228,-38 c -1.58622,-4.09401 -2.21993,-10.55938 -1.44275,-14.71944 1.39739,-7.47985 4.53797,-12.17705 16.38877,-24.51178 6.24923,-6.50443 12.50019,-13.55705 13.89103,-15.6725 5.69804,-8.666711 5.24957,-18.063088 -1.33908,-28.056127 -3.86223,-5.857862 -8.9402,-11.717199 -9.59081,-11.066587 -0.19499,0.19499 0.34381,2.361956 1.19733,4.815481 3.64316,10.47258 -0.66638,20.15157 -16.63796,37.367943 -6.0012,6.46892 -12.04967,14.05347 -13.45293,16.86944 -3.20974,6.4411 -3.43835,15.16853 -0.56326,21.50308 3.32583,7.32765 13.98747,19.76243 11.54966,13.47049 z"
         id="path845" />
      <path
         style="fill:#ac1b28;fill-opacity:1"
         d="M 124.19286,217.98672 C 106.08104,215.46535 87.177687,205.63395 75.161149,192.48594 45.870522,160.43733 45.951929,111.45787 75.347554,80.333064 91.95523,62.748454 111.84377,54 135.21256,54 c 23.02853,0 43.49593,8.415587 59.1456,24.318914 34.55737,35.117506 30.43572,93.520436 -8.71929,123.550626 -7.18888,5.51356 -20.23342,11.85283 -29.00772,14.09692 -8.96168,2.29201 -23.8331,3.2182 -32.43829,2.02026 z M 136,203.62212 c 0,-0.20783 -0.72129,-2.10416 -1.60286,-4.21407 -2.19273,-5.24793 -1.50905,-14.50132 1.53512,-20.77757 1.425,-2.93796 7.18829,-9.89991 14.52937,-17.55121 7.41864,-7.73215 13.10748,-14.61315 14.57592,-17.63048 3.33664,-6.85605 3.22094,-14.17288 -0.33918,-21.44879 -2.69589,-5.50964 -11.05634,-15.94094 -12.0211,-14.99865 -0.28231,0.27574 0.13331,2.97574 0.92361,6 1.09275,4.18166 1.1937,6.64424 0.42148,10.28168 -1.88396,8.87421 -3.8797,11.7185 -21.72982,30.96889 C 120.97638,166.45577 118.01304,176.5659 122.69386,187 125.89862,194.1438 136,206.76251 136,203.62212 Z m -19.08852,-43.05939 c -1.72504,-6.85074 -0.6364,-15.65002 2.62464,-21.21457 C 121.03525,136.79008 127.319,129.43341 133.5,123 c 14.12281,-14.69952 17.00055,-19.36266 16.97095,-27.5 -0.0177,-4.86727 -0.64062,-7.13273 -3.2995,-12 -3.59532,-6.58149 -10.72264,-15.282144 -11.70992,-14.294858 -0.34297,0.342961 -0.0709,1.656174 0.60451,2.918252 0.67544,1.262078 1.22808,5.238829 1.22808,8.837225 0,10.134109 -2.78218,14.737119 -20.32554,33.627871 -4.86449,5.2381 -9.87694,11.63605 -11.13876,14.21767 -3.24813,6.64549 -3.1077,15.01608 0.36395,21.69384 2.75645,5.30206 10.7585,15.88107 11.4725,15.16707 0.23308,-0.23309 -0.10657,-2.53004 -0.75479,-5.10434 z"
         id="path843" />
      <path
         style="fill:#ac1b28"
         d="m 116,216.43302 c -7.14779,-1.5483 -27.5,-11.24312 -27.5,-13.09969 0,-0.64166 -0.409646,-1.54166 -0.910325,-2 -0.528895,-0.48416 -0.608918,-0.30957 -0.190983,0.41667 1.210998,2.10435 -0.97091,1.38808 -2.993704,-0.98277 -1.550816,-1.81765 -1.579631,-1.98081 -0.154988,-0.87755 3.651563,2.82779 1.482039,0.29958 -5.933693,-6.91471 C 74.090276,188.86374 72.13103,187.3 73.962428,189.5 c 1.831398,2.2 4.72656,5.21921 6.433693,6.70936 1.707134,1.49015 2.602958,2.72765 1.990721,2.75 -1.924981,0.0703 -15.41881,-15.34615 -15.364606,-17.55375 0.01223,-0.49809 0.967474,0.21939 2.122765,1.59439 l 2.10053,2.5 -1.494738,-2.5 c -0.822105,-1.375 -2.086736,-2.5 -2.81029,-2.5 -2.139774,0 -8.657233,-14.03943 -11.083974,-23.87627 -3.041001,-12.32677 -3.021882,-29.60167 0.04551,-41.12373 2.487498,-9.34379 8.642156,-22.899734 10.01242,-22.052865 0.521037,0.322019 1.272963,0.05862 1.670947,-0.585332 0.478011,-0.773437 0.287728,-0.901432 -0.560633,-0.377116 -0.856075,0.529083 -1.129855,0.330546 -0.821176,-0.595491 C 66.458287,91.125138 67.154167,90.5 67.75,90.5 c 0.595833,0 1.458333,-0.409646 1.916667,-0.910325 0.492,-0.537457 0.268196,-0.582842 -0.546399,-0.110805 -0.943699,0.546851 -1.233391,0.360498 -0.916667,-0.589674 0.254686,-0.764058 0.875566,-1.416731 1.379732,-1.450384 C 70.0875,87.405158 74.55,83.355379 79.5,78.439303 c 4.95,-4.916077 7.125868,-7.468617 4.835262,-5.672311 -2.290606,1.796305 -6.453106,5.769849 -9.25,8.830096 C 72.288368,84.657336 70,86.726054 70,86.194239 70,84.937277 87.790229,68 89.110491,68 c 0.554149,0 0.686457,0.519529 0.294017,1.154508 -0.445627,0.72104 -0.273932,0.882825 0.457295,0.430902 0.643952,-0.397984 0.920587,-1.128493 0.614746,-1.623355 C 89.709817,66.721458 103.99293,59.683717 113.04933,56.839736 119.47499,54.821884 122.56359,54.5 135.5,54.5 c 12.93461,0 16.03269,0.322781 22.5,2.344218 10.83542,3.386746 23.64325,10.310278 31.29097,16.914975 6.46034,5.579246 15.39155,15.891616 14.51896,16.764212 -0.2379,0.237901 -2.15574,-1.827053 -4.26187,-4.588787 C 195.50571,80.63393 184.877,70.537275 181.5,68.789996 c -2.35234,-1.217113 -1.88017,-0.759513 5.85347,5.672872 3.2194,2.677713 8.12514,7.70338 10.90163,11.168151 2.7765,3.46477 5.41542,6.072609 5.86428,5.795198 1.18508,-0.73242 7.1949,11.701563 10.42743,21.573783 2.48013,7.57436 2.79247,10.02459 2.8682,22.5 0.0704,11.59571 -0.28922,15.28801 -2.09398,21.5 -2.874,9.8923 -8.04034,21.29151 -9.29756,20.5145 -0.55046,-0.3402 -0.76528,-0.005 -0.47754,0.7446 0.6201,1.61596 -4.82814,9.16165 -11.90698,16.4909 -5.74553,5.94877 -8.87592,7.25804 -3.58644,1.5 l 3.44485,-3.75 -4.24868,3.95295 c -4.29472,3.99578 -5.28403,5.2871 -2.99868,3.91411 0.84936,-0.51028 0.81011,-0.20868 -0.12244,0.94098 -1.58395,1.9527 -3.59846,2.30513 -2.52625,0.44196 0.41793,-0.72624 0.33791,-0.90083 -0.19098,-0.41667 -0.50068,0.45834 -0.91033,1.35834 -0.91033,2 0,1.99181 -20.46264,11.6278 -28,13.1854 -8.86179,1.83128 -29.866,1.78452 -38.5,-0.0857 z m 25.28651,-0.169 c -2.86742,-0.2013 -7.81742,-0.20315 -11,-0.004 -3.18258,0.19905 -0.83651,0.36376 5.21349,0.36601 6.05,0.002 8.65393,-0.1606 5.78651,-0.36191 z M 122.25,215.33772 c -0.6875,-0.27741 -1.8125,-0.27741 -2.5,0 -0.6875,0.27741 -0.125,0.50439 1.25,0.50439 1.375,0 1.9375,-0.22698 1.25,-0.50439 z m 29,0 c -0.6875,-0.27741 -1.8125,-0.27741 -2.5,0 -0.6875,0.27741 -0.125,0.50439 1.25,0.50439 1.375,0 1.9375,-0.22698 1.25,-0.50439 z m -33.52083,-0.94189 c -0.3323,-0.33229 -1.1948,-0.36781 -1.91667,-0.0789 -0.79773,0.31922 -0.56078,0.55618 0.60417,0.60416 1.05416,0.0434 1.64479,-0.19293 1.3125,-0.52522 z m 43,-1 c -0.3323,-0.33229 -1.1948,-0.36781 -1.91667,-0.0789 -0.79773,0.31922 -0.56078,0.55618 0.60417,0.60416 1.05416,0.0434 1.64479,-0.19293 1.3125,-0.52522 z m -54.8125,-1.77553 C 104.89973,210.69359 95,206.01761 95,206.46399 c 0,0.60872 9.13835,5.42452 10.41667,5.48945 0.50416,0.0256 0.72916,-0.1243 0.5,-0.33314 z m 65.11657,-2.13715 C 173.76496,208.09889 176,206.74131 176,206.46631 c 0,-0.44798 -9.89657,4.2244 -10.91667,5.15399 -1.17981,1.07514 1.53535,0.0999 5.94991,-2.13715 z M 181,203.42963 c 0,-0.275 -0.9,-0.0183 -2,0.57037 -1.1,0.5887 -2,1.29537 -2,1.57037 0,0.275 0.9,0.0183 2,-0.57037 1.1,-0.5887 2,-1.29537 2,-1.57037 z m -44.60913,-1.00584 c 0.30003,-0.78186 0.0995,-2.43456 -0.44568,-3.67268 -0.8814,-2.00177 -0.93781,-1.91882 -0.50928,0.74889 l 0.48191,3 -1.4138,-3 c -0.7776,-1.65 -1.43375,-5.475 -1.45813,-8.5 -0.0737,-9.15134 3.86797,-15.91496 17.01071,-29.18888 L 161.25594,150.5 150.87797,161.60675 c -5.70788,6.1087 -11.19091,12.5212 -12.18451,14.25 -2.62466,4.56673 -1.42725,3.85094 1.85141,-1.10675 1.54586,-2.3375 7.56815,-9.18803 13.38289,-15.22339 5.81473,-6.03537 9.78474,-10.36777 8.82224,-9.62756 -0.9625,0.74021 -1.75,0.89584 -1.75,0.34584 0,-1.30992 2.52352,-3.38804 3.24187,-2.66968 0.30682,0.30682 0.89745,0.008 1.3125,-0.66319 0.51679,-0.83617 0.33719,-0.96303 -0.5698,-0.40248 -1.00583,0.62164 -1.13088,0.3581 -0.51981,-1.0955 4.22875,-10.05924 4.30008,-14.89547 0.34299,-23.25466 -3.15235,-6.65921 -3.20397,-6.94213 -0.75887,-4.15938 l 2.19665,2.5 -1.49474,-2.5 c -0.8221,-1.375 -1.88985,-2.50689 -2.37276,-2.51531 C 160.91438,115.45916 159,113.94822 159,112.81854 c 0,-0.67059 0.55411,-0.60356 1.5,0.18146 2.62937,2.18218 1.60902,0.4458 -1.21974,-2.07569 -2.05473,-1.83154 -2.37102,-1.93529 -1.29353,-0.42431 0.78441,1.1 -0.15063,0.5375 -2.07787,-1.25 -4.46266,-4.13908 -5.1594,-4.09387 -3.35783,0.21788 0.79693,1.90734 1.44897,6.2102 1.44897,9.56193 0,8.70106 -3.48869,15.49128 -12.79782,24.90908 l -7.47387,7.56111 6.60046,-7.23124 C 146.17993,137.85844 150.94696,131 149.55136,131 c -0.275,0 -1.22344,1.39897 -2.10764,3.10883 -0.8842,1.70985 -5.28325,6.99735 -9.77568,11.75 -4.49242,4.75264 -7.15554,7.78393 -5.91804,6.73618 3.60349,-3.05093 2.59856,-0.69681 -1.68744,3.95295 -4.71391,5.11399 -8.56734,12.43319 -9.50414,18.05219 -0.63506,3.80914 0.57461,8.94772 3.95815,16.81389 0.64384,1.49681 0.51378,1.73435 -0.59663,1.08968 -0.84201,-0.48885 -1.08077,-0.45386 -0.58661,0.086 0.45834,0.50068 1.32084,0.91033 1.91667,0.91033 0.59583,0 1.29171,0.62514 1.5464,1.3892 0.28107,0.84322 0.0191,1.11479 -0.66667,0.69098 -1.73157,-1.07017 -1.34163,0.003 0.56223,1.54738 1.45884,1.18335 1.57294,1.16577 0.8281,-0.12756 -0.53988,-0.93747 -0.0493,-0.78559 1.30805,0.40499 2.58089,2.26372 2.94561,4.4298 0.42189,2.50565 -0.9625,-0.73384 -0.46083,0.0771 1.11481,1.80211 2.8641,3.13558 4.99901,3.38749 6.02606,0.71104 z M 131.87244,202.25 c -1.24387,-1.58606 -1.2085,-1.62143 0.37756,-0.37756 0.9625,0.75485 1.75,1.54235 1.75,1.75 0,0.82304 -0.82119,0.29331 -2.12756,-1.37244 z m 2.85229,-14.48209 c -0.22256,-1.79735 -0.40925,-0.56791 -0.41486,2.73209 -0.006,3.3 0.17648,4.77056 0.40466,3.26791 0.22817,-1.50265 0.23276,-4.20265 0.0102,-6 z m 67.29803,-4.5642 c 4.11735,-5.87708 2.6675,-4.53552 -3.56237,3.29629 -2.625,3.3 -3.63878,4.96667 -2.25284,3.70371 1.38594,-1.26295 4.00278,-4.41295 5.81521,-7 z m -81.49932,0.75642 c -0.76431,-2.45307 -1.41975,-3.73978 -1.45654,-2.85935 -0.0769,1.84075 1.99365,8.172 2.50526,7.66039 0.18751,-0.18751 -0.28442,-2.34798 -1.04872,-4.80104 z M 66,177 c -0.588702,-1.1 -1.295368,-2 -1.570368,-2 -0.275,0 -0.01833,0.9 0.570368,2 0.588702,1.1 1.295368,2 1.570368,2 0.275,0 0.01833,-0.9 -0.570368,-2 z m 52.66228,-1.25 c -0.27741,-0.6875 -0.50439,-0.125 -0.50439,1.25 0,1.375 0.22698,1.9375 0.50439,1.25 0.27741,-0.6875 0.27741,-1.8125 0,-2.5 z m -55.317203,-3.29313 c -0.325685,-0.84872 -0.806623,-1.32866 -1.068751,-1.06653 -0.262128,0.26213 -0.179978,0.95654 0.182555,1.54313 0.98605,1.59546 1.56238,1.28551 0.886196,-0.4766 z M 120.3897,170.5 c 0.49007,-2.19092 0.3973,-2.59546 -0.34401,-1.5 -0.55829,0.825 -1.02196,2.3625 -1.03038,3.41667 -0.0204,2.55844 0.55192,1.76026 1.37439,-1.91667 z m 90.52647,-4 c 0,-0.55 -0.86228,0.575 -1.91617,2.5 -1.05389,1.925 -1.91617,3.95 -1.91617,4.5 0,0.55 0.86228,-0.575 1.91617,-2.5 1.05389,-1.925 1.91617,-3.95 1.91617,-4.5 z m -92.8976,-2.46531 c -2.0787,-3.88407 -2.23601,-15.03943 -0.28958,-20.53469 0.97406,-2.75 2.29601,-5 2.93768,-5 0.64166,0 1.54166,-0.40965 2,-0.91033 0.48416,-0.52889 0.30957,-0.60891 -0.41667,-0.19098 -1.86317,1.07221 -1.51074,-0.9423 0.44196,-2.52625 1.14966,-0.93255 1.45126,-0.9718 0.94098,-0.12244 -1.50604,2.50681 0.0882,1.06322 9.38681,-8.49992 l 9.48025,-9.74992 -9.25,8.97907 c -5.0875,4.93849 -9.25,8.53001 -9.25,7.98116 0,-0.54885 4.58451,-5.48947 10.18779,-10.97915 5.60329,-5.48968 9.59819,-9.19374 8.87756,-8.23124 -1.85722,2.48057 -0.7477,2.17455 1.52966,-0.42189 1.04775,-1.19455 1.34249,-1.84299 0.65499,-1.44099 -1.70251,0.99551 -1.589,-0.86088 0.1404,-2.29616 0.76472,-0.63466 2.3888,-3.47478 3.60908,-6.31138 1.77478,-4.125599 2.08391,-6.170012 1.54512,-10.218513 -0.37045,-2.783587 -0.75703,-6.030596 -0.85907,-7.215575 -0.10204,-1.18498 -0.47898,-1.97315 -0.83763,-1.751488 -0.35866,0.221662 -1.59616,-1.197032 -2.75,-3.152652 C 143.76795,77.492385 143.51429,76.581783 145,77.5 c 1.62773,1.005991 1.13977,-0.141735 -0.69196,-1.627555 C 142.84868,74.688676 142.7376,74.706212 143.5,76 c 0.7624,1.293788 0.65132,1.311324 -0.80804,0.127555 C 140.89356,74.66877 140.31084,72.456044 142,73.5 c 1.89172,1.169147 0.99549,-0.15536 -1.74285,-2.575686 -2.17187,-1.919652 -2.43208,-1.997778 -1.25,-0.375305 0.93899,1.28881 0.63906,1.15325 -0.80843,-0.365383 -2.8689,-3.009904 -3.77089,-2.263721 -2.31434,1.914551 0.61359,1.760148 1.11562,5.969764 1.11562,9.354702 0,7.54936 -3.10255,14.366961 -9.69394,21.301681 l -4.5105,4.74544 3.94763,-5 c 4.53111,-5.739033 7.70722,-10.5 7.00471,-10.5 -0.26517,0 -1.70996,1.855384 -3.21065,4.123076 -1.50069,2.267692 -6.38031,8.005194 -10.8436,12.750004 -4.68808,4.98377 -5.70345,6.3187 -2.40437,3.16108 3.1409,-3.00621 5.71072,-5.01713 5.71072,-4.4687 0,0.54843 -2.76285,3.68306 -6.13966,6.96584 -3.37682,3.28279 -5.78229,5.33667 -5.34549,4.56419 1.52754,-2.70149 -1.38703,-0.0875 -3.55093,3.18475 l -2.12921,3.21976 2.57768,-3 c 3.60824,-4.19941 3.21769,-2.63728 -0.85294,3.41166 -5.35035,7.95059 -5.86643,16.14045 -1.55052,24.60586 2.31752,4.54567 2.38122,4.84164 0.83656,3.88699 -0.72104,-0.44563 -0.88282,-0.27393 -0.4309,0.45729 0.39798,0.64395 1.07095,0.95615 1.49548,0.69378 0.78878,-0.48749 5.09396,4.72272 5.08496,6.15393 -0.003,0.43477 -1.17981,-0.55951 -2.61572,-2.20951 l -2.61076,-3 2.49388,3.5 c 1.37164,1.925 2.91836,3.5 3.43716,3.5 0.5188,0 1.7522,0.80893 2.74089,1.79762 2.24563,2.24564 3.09292,1.56756 1.57809,-1.26293 z M 213.87882,158 c -0.017,-0.825 -0.63751,0.075 -1.37882,2 -1.75824,4.5657 -1.73229,6.36206 0.0361,2.5 0.75553,-1.65 1.35974,-3.675 1.34271,-4.5 z m -86.37107,0.004 2.99225,-3.49636 -2.84182,2.49636 c -1.563,1.37301 -3.30559,3.39637 -3.87241,4.49637 -1.08483,2.10528 -1.0194,2.04382 3.72198,-3.49637 z m -8.82464,0.80887 c -0.31922,-0.79773 -0.55618,-0.56078 -0.60416,0.60417 -0.0434,1.05416 0.19292,1.64479 0.52522,1.3125 0.33229,-0.3323 0.36781,-1.1948 0.0789,-1.91667 z m -60.999996,-3 c -0.319226,-0.79773 -0.556183,-0.56078 -0.604167,0.60417 -0.04342,1.05416 0.192928,1.64479 0.52522,1.3125 0.332291,-0.3323 0.367818,-1.1948 0.07895,-1.91667 z M 117.70573,150.75 c -0.23835,-1.2375 -0.43337,-0.225 -0.43337,2.25 0,2.475 0.19502,3.4875 0.43337,2.25 0.23836,-1.2375 0.23836,-3.2625 0,-4.5 z m 98.19459,-2.16667 c 0.1516,-4.43587 -0.57186,-2.70848 -1.22154,2.91667 -0.38945,3.37192 -0.30082,4.18596 0.27219,2.5 0.46732,-1.375 0.89453,-3.8125 0.94935,-5.41667 z M 56.13068,147.90289 c -0.493281,-2.97159 -0.949481,-4.22164 -1.013777,-2.77789 -0.134151,3.0123 0.958637,9.13279 1.528819,8.56261 0.210008,-0.21001 -0.02176,-2.81313 -0.515042,-5.78472 z m 48.68544,2.59288 c -0.62755,-1.37732 -1.32936,-2.31586 -1.55958,-2.08564 -0.46705,0.46705 1.56047,4.58987 2.2572,4.58987 0.24386,0 -0.0701,-1.1269 -0.69762,-2.50423 z m 13.86699,-4.68327 c -0.31922,-0.79773 -0.55618,-0.56078 -0.60416,0.60417 -0.0434,1.05416 0.19292,1.64479 0.52522,1.3125 0.33229,-0.3323 0.36781,-1.1948 0.0789,-1.91667 z m 49.12376,-3.33896 c -0.30789,-0.30789 -0.86705,0.24711 -1.24258,1.23333 -0.54268,1.4252 -0.42782,1.54006 0.5598,0.5598 0.68342,-0.67834 0.99067,-1.48524 0.68278,-1.79313 z m 48.92386,-10.75371 c -0.20972,-2.32091 -0.37882,-0.16983 -0.37577,4.78017 0.003,4.95 0.17464,6.84892 0.38131,4.21983 0.20668,-2.6291 0.20418,-6.6791 -0.006,-9 z m -115.01315,5.54392 c -0.22985,-1.52006 -0.42406,-0.51375 -0.43157,2.23625 -0.008,2.75 0.18056,3.99369 0.41792,2.76375 0.23736,-1.22994 0.24351,-3.47994 0.0136,-5 z m -46.999999,-3 C 54.487727,132.74369 54.293522,133.75 54.286014,136.5 c -0.0075,2.75 0.180555,3.99369 0.417917,2.76375 0.237362,-1.22994 0.243505,-3.47994 0.01365,-5 z m 114.989679,-2.50209 c -0.23919,-1.24391 -0.44398,-0.46166 -0.45508,1.73834 -0.0111,2.2 0.18461,3.21775 0.4349,2.26166 0.25029,-0.95609 0.25937,-2.75609 0.0202,-4 z M 104.66289,128.75 c 0.76366,-1.5125 1.16347,-2.75 0.88847,-2.75 -0.78495,0 -3.56022,5.75477 -3.47241,7.20034 0.053,0.87303 0.2622,0.80727 0.6372,-0.20034 0.30704,-0.825 1.18307,-2.7375 1.94674,-4.25 z M 55.707261,124.76166 C 55.468068,123.51775 55.263283,124.3 55.252183,126.5 c -0.0111,2.2 0.184605,3.21775 0.434897,2.26166 0.250293,-0.95609 0.259374,-2.75609 0.02018,-4 z M 151.96937,126.5 c 0,-0.55 -0.43621,-0.325 -0.96937,0.5 -0.53316,0.825 -0.96937,1.95 -0.96937,2.5 0,0.55 0.43621,0.325 0.96937,-0.5 0.53316,-0.825 0.96937,-1.95 0.96937,-2.5 z m 63.71996,-4.25 c -0.25153,-0.9625 -0.45733,-0.175 -0.45733,1.75 0,1.925 0.2058,2.7125 0.45733,1.75 0.25152,-0.9625 0.25152,-2.5375 0,-3.5 z m -62.99634,-0.98097 c -0.25354,-0.97297 -0.47766,-0.41903 -0.49804,1.23097 -0.0204,1.65 0.18706,2.44606 0.46099,1.76903 0.27392,-0.67703 0.29059,-2.02703 0.0371,-3 z M 56.662281,118.75 c -0.277413,-0.6875 -0.504386,-0.125 -0.504386,1.25 0,1.375 0.226973,1.9375 0.504386,1.25 0.277412,-0.6875 0.277412,-1.8125 0,-2.5 z M 213.0671,111.75271 c -1.15377,-3.43899 -2.57512,-6.92771 -3.15856,-7.75271 -0.94294,-1.33333 -1.00304,-1.33333 -0.54095,0 0.28591,0.825 1.55767,4.73798 2.82613,8.69552 1.26845,3.95753 2.45587,6.77125 2.63871,6.2527 0.18284,-0.51854 -0.61156,-3.75652 -1.76533,-7.19551 z m -60.51328,0.6825 c -0.3472,-1.85078 -1.06249,-3.63155 -1.58953,-3.95728 -0.59017,-0.36474 -0.57529,0.41502 0.0387,2.03002 0.54834,1.44224 1.04918,4.05545 1.11298,5.80715 0.0686,1.88399 0.31066,2.4293 0.59256,1.33504 0.2621,-1.01743 0.19247,-3.36414 -0.15474,-5.21493 z M 58.859429,112 c 0,-0.94548 -0.317714,-0.76064 -0.859429,0.5 -0.472686,1.1 -0.859429,2.675 -0.859429,3.5 0,0.94548 0.317714,0.76064 0.859429,-0.5 0.472686,-1.1 0.859429,-2.675 0.859429,-3.5 z m 91.733581,-7.37254 c 2.39776,-5.149608 2.9913,-11.361836 1.44532,-15.12746 -0.49567,-1.207318 -0.63073,0.378047 -0.34077,4 0.41634,5.200579 0.093,6.75903 -2.42715,11.69687 -1.59912,3.13328 -2.4929,5.44063 -1.98617,5.12746 0.50672,-0.31317 1.99567,-2.87676 3.30877,-5.69687 z M 64.5,98 c 0.853248,-1.65 1.32636,-3 1.05136,-3 -0.275,0 -1.198112,1.35 -2.05136,3 -0.853248,1.65 -1.32636,3 -1.05136,3 0.275,0 1.198112,-1.35 2.05136,-3 z m 71.20573,-19.25 c -0.23835,-1.2375 -0.43337,-0.225 -0.43337,2.25 0,2.475 0.19502,3.4875 0.43337,2.25 0.23836,-1.2375 0.23836,-3.2625 0,-4.5 z M 148,81 c -0.5887,-1.1 -1.29537,-2 -1.57037,-2 -0.275,0 -0.0183,0.9 0.57037,2 0.5887,1.1 1.29537,2 1.57037,2 0.275,0 0.0183,-0.9 -0.57037,-2 z M 104.57497,61.241632 C 104.12258,60.789245 96,64.829896 96,65.507327 c 0,0.256674 2.015127,-0.512345 4.47806,-1.70893 2.46293,-1.196586 4.30654,-2.34713 4.09691,-2.556765 z M 175,65.516846 c 0,-0.682539 -8.99832,-5.124268 -12,-5.92341 -1.375,-0.366068 0.65,0.886979 4.5,2.784549 8.17787,4.03067 7.5,3.746972 7.5,3.138861 z M 111,59.5 c 1.925,-0.741314 2.825,-1.361782 2,-1.378818 -0.825,-0.01704 -2.85,0.587181 -4.5,1.342703 -3.86206,1.768408 -2.0657,1.794358 2.5,0.03612 z m 7.25,-2.162281 c -0.6875,-0.277412 -1.8125,-0.277412 -2.5,0 -0.6875,0.277413 -0.125,0.504386 1.25,0.504386 1.375,0 1.9375,-0.226973 1.25,-0.504386 z m 7,-1 c -0.6875,-0.277412 -1.8125,-0.277412 -2.5,0 -0.6875,0.277413 -0.125,0.504386 1.25,0.504386 1.375,0 1.9375,-0.226973 1.25,-0.504386 z m 23,0 c -0.6875,-0.277412 -1.8125,-0.277412 -2.5,0 -0.6875,0.277413 -0.125,0.504386 1.25,0.504386 1.375,0 1.9375,-0.226973 1.25,-0.504386 z m -9.98625,-1.04165 c -1.22994,-0.237362 -3.47994,-0.243505 -5,-0.01365 -1.52006,0.229854 -0.51375,0.424059 2.23625,0.431567 2.75,0.0075 3.99369,-0.180555 2.76375,-0.417917 z"
         id="path841" />
      <path
         style="fill:#ac1b28;fill-opacity:1"
         d="m 119.05822,216.90984 c -5.82046,-1.14138 -7.68955,-2.08759 -2.55822,-1.29506 2.2,0.33978 7.375,0.95252 11.5,1.36163 l 7.5,0.74385 -6,0.0303 c -3.3,0.0167 -7.9988,-0.36165 -10.44178,-0.84072 z M 143,217.05919 c 4.125,-0.45464 9.3,-1.10078 11.5,-1.43587 3.65887,-0.5573 3.74416,-0.52247 1,0.40844 -1.65,0.55973 -6.825,1.20587 -11.5,1.43588 l -8.5,0.41818 z M 108,214 c -1.82797,-1.18132 -0.24909,-1.18132 2.5,0 1.31874,0.56668 1.48906,0.87815 0.5,0.9144 -0.825,0.0302 -2.175,-0.38124 -3,-0.9144 z m 52.5,0 c 2.74909,-1.18132 4.32797,-1.18132 2.5,0 -0.825,0.53316 -2.175,0.94464 -3,0.9144 -0.98906,-0.0362 -0.81874,-0.34772 0.5,-0.9144 z m -61.75,-4.06413 c -3.1625,-1.63236 -5.75,-3.1922 -5.75,-3.4663 0,-0.44676 11.90017,5.21829 12.91667,6.14895 1.30901,1.19847 -2.17173,-0.10445 -7.16667,-2.68265 z m 73.93467,-1.29306 c 9.82449,-5.16006 18.24523,-11.49764 23.42199,-17.62774 7.38109,-8.74037 8.09804,-9.47833 5.35803,-5.51507 -6.59652,9.54147 -17.12701,18.33862 -29.18617,24.38209 -9.31675,4.66911 -8.99939,3.70075 0.40615,-1.23928 z m -85.434793,-5.57676 c -2.227611,-1.61367 -4.366926,-3.44642 -4.754034,-4.07278 -0.541083,-0.87549 7.284345,4.6213 9.420824,6.61743 1.550045,1.44823 -1.300283,-0.10596 -4.66679,-2.54465 z M 131.40499,201.75 129.5,199.5 l 2.25,1.90499 c 2.11444,1.79022 2.70524,2.59501 1.90499,2.59501 -0.18976,0 -1.20226,-1.0125 -2.25,-2.25 z m 3.75745,-0.29283 c -0.63934,-1.4032 -1.14483,-3.0926 -1.1233,-3.75422 0.0215,-0.66162 0.70344,0.32764 1.51535,2.19837 1.70889,3.93743 1.34715,5.37298 -0.39205,1.55585 z M 127.80709,197.25 C 126.0452,195.1984 124.724,193 125.25292,193 c 0.20403,0 1.36906,1.35 2.58896,3 2.41033,3.26015 2.38777,4.07089 -0.0348,1.25 z m -50.983944,-3 c -4.563971,-4.77703 -10.451911,-12.61591 -12.49351,-16.63317 -2.203651,-4.33614 -1.043423,-3.02467 3.490266,3.94525 2.124327,3.26586 6.000592,8.30042 8.613924,11.18792 5.456169,6.02858 5.732273,7.09237 0.38932,1.5 z m 56.486724,-3.75 c 0.006,-3.3 0.1923,-4.52944 0.41486,-2.73209 0.22256,1.79735 0.21797,4.49735 -0.0102,6 -0.22818,1.50265 -0.41027,0.0321 -0.40466,-3.26791 z m -11.3368,-2.75 c -1.06103,-2.3375 -1.90893,-5.15 -1.88421,-6.25 0.0247,-1.1 0.61127,-0.2 1.30345,2 0.69219,2.2 1.80292,5.0125 2.46829,6.25 0.66537,1.2375 0.94693,2.25 0.62569,2.25 -0.32124,0 -1.45219,-1.9125 -2.51322,-4.25 z m 12.05756,-4.25 c 0,-0.55 0.43621,-1.675 0.96937,-2.5 0.53316,-0.825 0.96937,-1.05 0.96937,-0.5 0,0.55 -0.43621,1.675 -0.96937,2.5 -0.53316,0.825 -0.96937,1.05 -0.96937,0.5 z M 119.15789,177 c 0,-1.375 0.22698,-1.9375 0.50439,-1.25 0.27741,0.6875 0.27741,1.8125 0,2.5 -0.27741,0.6875 -0.50439,0.125 -0.50439,-1.25 z M 137,177 c 0.5887,-1.1 1.29537,-2 1.57037,-2 0.275,0 0.0183,0.9 -0.57037,2 -0.5887,1.1 -1.29537,2 -1.57037,2 -0.275,0 -0.0183,-0.9 0.57037,-2 z m 71.73947,-5.00206 c 1.42436,-3.30113 2.75974,-5.83206 2.9675,-5.6243 C 212.172,166.83867 207.29798,178 206.62989,178 c -0.2641,0 0.68521,-2.70093 2.10958,-6.00206 z m -147.785307,-0.0836 c -0.613912,-1.1471 -0.927843,-2.274 -0.697624,-2.50422 0.230219,-0.23022 0.932031,0.70832 1.559582,2.08564 1.378071,3.02454 0.707091,3.35038 -0.861958,0.41858 z m 59.124787,0.50232 c 0.048,-1.16495 0.28494,-1.4019 0.60416,-0.60417 0.28887,0.72187 0.25335,1.58437 -0.0789,1.91667 -0.3323,0.33229 -0.56864,-0.25834 -0.52522,-1.3125 z M 141.74914,170.5 c 1.70777,-2.2 7.0596,-7.825 11.89297,-12.5 8.16589,-7.89833 8.01654,-7.68598 -2.1099,3 -13.81735,14.58083 -13.45072,14.22481 -9.78307,9.5 z m -20.72164,-1 c -0.0179,-2.04391 5.88434,-11.1009 9.12204,-13.9979 l 3.35046,-2.99791 -3.20194,3.49791 c -1.76107,1.92384 -4.56542,5.9729 -6.23189,8.9979 -1.66646,3.025 -3.03387,5.05 -3.03867,4.5 z m -63.453514,-6.89349 c -0.886074,-3.04799 -1.834981,-7.01886 -2.108681,-8.82415 -0.273701,-1.8053 0.615209,0.52457 1.975354,5.17748 1.360146,4.65291 2.309052,8.62378 2.108681,8.82415 -0.20037,0.20037 -1.08928,-2.12949 -1.975354,-5.17748 z M 113.40499,162.75 111.5,160.5 l 2.25,1.90499 c 2.11444,1.79022 2.70524,2.59501 1.90499,2.59501 -0.18976,0 -1.20226,-1.0125 -2.25,-2.25 z m 98.75231,1.75 c -0.003,-0.55 0.60139,-2.575 1.3427,-4.5 0.74131,-1.925 1.36178,-2.825 1.37882,-2 0.017,0.825 -0.58718,2.85 -1.34271,4.5 -0.75552,1.65 -1.37599,2.55 -1.37881,2 z m -95.10472,-4.25 c -0.57278,-2.0625 -0.98236,-5.775 -0.91018,-8.25 0.12325,-4.22589 0.17399,-4.13452 0.83289,1.5 0.38591,3.3 1.02966,7.0125 1.43057,8.25 0.4009,1.2375 0.49474,2.25 0.20853,2.25 -0.28621,0 -0.98902,-1.6875 -1.56181,-3.75 z m -7.18014,-2 c -1.24387,-1.58606 -1.2085,-1.62143 0.37756,-0.37756 0.9625,0.75485 1.75,1.54235 1.75,1.75 0,0.82304 -0.82119,0.29331 -2.12756,-1.37244 z m -3.32665,-4.82046 c -3.84929,-5.87476 -5.57351,-14.98312 -3.72082,-19.6556 0.37642,-0.94933 0.68229,1.31683 0.67972,5.03591 -0.004,5.40055 0.53934,7.81175 2.69743,11.97606 2.90777,5.61092 3.06119,6.79109 0.34367,2.64363 z M 215.67878,151.5 c 0.31761,-2.75 0.74482,-5.1875 0.94935,-5.41667 0.70278,-0.78744 0.17197,5.41827 -0.67716,7.91667 -0.57301,1.68596 -0.66164,0.87192 -0.27219,-2.5 z M 139,145.5 c 3.54322,-3.575 6.66722,-6.5 6.94222,-6.5 0.275,0 -2.399,2.925 -5.94222,6.5 -3.54322,3.575 -6.66722,6.5 -6.94222,6.5 -0.275,0 2.399,-2.925 5.94222,-6.5 z m -84.747817,1 c 0.0111,-2.2 0.215885,-2.98225 0.455078,-1.73834 0.239193,1.24391 0.230112,3.04391 -0.02018,4 C 54.436788,149.71775 54.241084,148.7 54.252183,146.5 Z m 109.265047,0.11404 c 0.94858,-1.44771 2.32551,-4.31562 3.05984,-6.37312 0.73433,-2.05751 1.3549,-2.93549 1.37904,-1.95108 0.0524,2.13681 -3.46179,9.28662 -5.04555,10.26543 -0.61491,0.38004 -0.3419,-0.49351 0.60667,-1.94123 z m -46.44677,-0.39616 c -0.12173,-2.21494 2.55161,-7.5659 5.79183,-11.59294 C 126.53531,130.06 147,108.76058 147,109.50268 c 0,0.28028 -4.84293,5.56933 -10.76207,11.75346 -12.75779,13.32893 -15.75226,17.11502 -17.66467,22.33459 -0.78779,2.1501 -1.46404,3.33232 -1.5028,2.62715 z M 217.3605,136 c 0,-5.225 0.16854,-7.3625 0.37454,-4.75 0.206,2.6125 0.206,6.8875 0,9.5 -0.206,2.6125 -0.37454,0.475 -0.37454,-4.75 z m -164.040426,0 c 0,-3.575 0.181495,-5.0375 0.403322,-3.25 0.221826,1.7875 0.221826,4.7125 0,6.5 -0.221827,1.7875 -0.403322,0.325 -0.403322,-3.25 z m 95.468406,-2.39465 c 1.49133,-2.41706 2.88987,-4.2262 3.10786,-4.02033 0.44119,0.41669 -4.66485,8.41498 -5.37205,8.41498 -0.24604,0 0.77285,-1.97759 2.26419,-4.39465 z m 18.94072,-1.94597 c -0.39368,-2.66234 -1.61666,-6.93734 -2.71774,-9.5 -1.35409,-3.15152 -1.50382,-4.01215 -0.46267,-2.65938 2.02064,2.62542 4.6851,11.88433 4.24369,14.74666 -0.20667,1.34013 -0.63759,0.29158 -1.06328,-2.58728 z M 104,130.30579 c 0,-1.80259 8.22765,-12.28905 16.6077,-21.16716 4.34077,-4.59876 9.4673,-10.857985 11.3923,-13.909393 3.25444,-5.158772 3.5,-6.115645 3.5,-13.638626 C 135.5,77.140775 135.16696,72.375 134.75992,71 c -0.55977,-1.890895 -0.38803,-1.769074 0.70489,0.5 0.79474,1.65 1.46528,5.949145 1.49009,9.553656 0.0634,9.208956 -2.87288,14.494878 -16.21133,29.184034 -6.06932,6.68392 -12.31952,14.17788 -13.88935,16.65323 C 105.2844,129.36627 104,130.90296 104,130.30579 Z M 54.09968,125.91667 C 54.1545,124.0375 54.574737,121.375 55.033532,120 c 0.538505,-1.61389 0.63238,-0.55056 0.264852,3 -0.651312,6.29209 -1.346533,7.98369 -1.198704,2.91667 z M 152.66988,124.5 c 0.75779,-4.94316 1.33512,-5.78476 1.31481,-1.91667 -0.008,1.60417 -0.44567,3.59167 -0.97166,4.41667 -0.65127,1.02149 -0.76073,0.22397 -0.34315,-2.5 z m 63.52507,-1 c 0.0204,-1.65 0.2445,-2.20394 0.49804,-1.23097 0.25354,0.97297 0.23687,2.32297 -0.0371,3 -0.27393,0.67703 -0.48137,-0.11903 -0.46099,-1.76903 z m -1.56995,-6.625 c -0.83365,-4.16825 -0.0258,-4.97614 0.875,-0.875 0.37968,1.72866 0.48187,3.35146 0.22711,3.60623 -0.25477,0.25477 -0.75072,-0.97429 -1.10211,-2.73123 z M 152.83195,114.5 c -0.34918,-2.2 -0.91083,-4.9 -1.24809,-6 -0.33727,-1.1 0.0928,-0.48082 0.95573,1.37597 0.86292,1.85678 1.42456,4.55678 1.2481,6 -0.25869,2.1157 -0.44384,1.84915 -0.95574,-1.37597 z m -96.753003,0.91667 c 0.04798,-1.16495 0.284941,-1.4019 0.604167,-0.60417 0.288871,0.72187 0.253344,1.58437 -0.07895,1.91667 -0.332292,0.33229 -0.568641,-0.25834 -0.52522,-1.3125 z M 157.51184,111.25 c -3.1271,-3.69246 -3.6994,-4.6765 -1.59935,-2.75 3.10067,2.84443 7.65596,8.5 6.84633,8.5 -0.20755,0 -2.56869,-2.5875 -5.24698,-5.75 z M 57.513681,110.5 c 0.746422,-4.16129 7.862877,-18.368371 11.02,-22 2.395318,-2.755328 2.368732,-2.632992 -0.325984,1.5 -3.765466,5.775243 -7.004828,12.17254 -9.361816,18.48831 -1.062968,2.84832 -1.638031,3.7167 -1.3322,2.01169 z m 154.109859,-3.03866 c -0.96498,-2.51469 -0.68031,-3.16355 0.49853,-1.13634 0.58369,1.00375 0.8506,2.03566 0.59313,2.29313 -0.25747,0.25747 -0.74872,-0.26309 -1.09166,-1.15679 z m -62.79928,-3.41517 c 0.92166,-2.1746 1.81557,-3.55511 1.98648,-3.06779 0.3155,0.89962 -2.5287,7.02162 -3.26216,7.02162 -0.22003,0 0.35403,-1.77922 1.27568,-3.95383 z m 60.33818,-2.589 c -1.67549,-3.677293 -1.35583,-4.46179 0.45586,-1.11876 0.84602,1.56112 1.3511,3.02552 1.1224,3.25422 -0.2287,0.2287 -0.93892,-0.73225 -1.57826,-2.13546 z M 151.25218,95.5 c 0.0111,-2.2 0.21589,-2.982253 0.45508,-1.738341 0.23919,1.243913 0.23011,3.043913 -0.0202,4 -0.25029,0.956088 -0.446,-0.06166 -0.4349,-2.261659 z m 51.93691,-4.941578 c -2.3293,-3.542868 -7.26224,-9.477454 -10.96209,-13.187969 -4.81452,-4.828397 -5.39072,-5.62683 -2.02675,-2.808423 5.05708,4.236923 13.90674,14.810403 16.34953,19.534227 2.41571,4.671472 1.18442,3.375281 -3.36069,-3.537835 z m -53.11014,-0.226635 c -0.0434,-0.642516 -0.33793,-1.992516 -0.65446,-3 -0.54705,-1.741219 -0.51883,-1.7434 0.57078,-0.04411 0.63045,0.983222 0.92496,2.333222 0.65445,3 -0.35498,0.874997 -0.51379,0.887271 -0.57077,0.04411 z M 77,78.5 c 3.543223,-3.575 6.667223,-6.5 6.942223,-6.5 0.275,0 -2.399,2.925 -5.942223,6.5 -3.543223,3.575 -6.667223,6.5 -6.942223,6.5 -0.275,0 2.399,-2.925 5.942223,-6.5 z m 65.24057,-2.762362 c -3.96769,-5.460036 -4.32383,-6.187348 -1.45005,-2.961305 3.40149,3.818453 7.81609,10.243571 7.01602,10.211305 -0.1686,-0.0068 -2.67328,-3.2693 -5.56597,-7.25 z M 86.36898,70.22455 C 88.310702,67.996092 103.62789,59.736883 108,58.560848 c 1.375,-0.369856 -1.7561,1.395634 -6.95801,3.92331 -5.201902,2.527676 -11.051902,5.785932 -12.999998,7.24057 -2.789731,2.083084 -3.145051,2.189238 -1.673012,0.499822 z M 182.5,69.351222 c -1.1,-0.871845 -6.5,-3.810562 -12,-6.530483 -5.5,-2.71992 -8.875,-4.633027 -7.5,-4.251349 3.79893,1.054523 17.17372,7.931562 20,10.283582 2.90467,2.41725 2.46897,2.851416 -0.5,0.49825 z M 115,56.306754 c 6.45926,-2.385671 34.54074,-2.385671 41,0 2.77894,1.026378 3.35263,1.443289 1.5,1.090085 -17.02175,-3.245194 -26.97825,-3.245194 -44,0 -1.85263,0.353204 -1.27894,-0.06371 1.5,-1.090085 z"
         id="path839" />
    </g>
  </g>
</svg>
