<?xml version="1.0" encoding="UTF-8"?>
<svg fill="none" viewBox="0 0 47.914417 48" xmlns="http://www.w3.org/2000/svg">
  <title>Pumas AI</title>
  <path d="m 21.6999,20.7011 c 0,-6.081 -4.8642,-11.01262 -10.8536,-11.01262 -1.8077,0 -3.52104,0.45102 -5.01659,1.25112 -0.00725,0 -0.02178,0.0073 -0.0363,0.0145 -3.296,1.7603 -5.575612,5.1863 -5.7788898,9.1723 C 0.00726025,20.3155 0,20.5047 0,20.6938 c 0,0.1891 0.00726025,0.3782 0.0145202,0.5673 0.1887578,3.9061 2.4102898,7.2884 5.6046598,9.0705 0.06534,0.0364 0.13067,0.0727 0.20327,0.1091 1.50281,0.7929 3.20889,1.2511 5.03115,1.2511 5.9967,0 10.8536,-4.9316 10.8536,-11.0053 z" fill="#000000"/>
  <path d="M 47.531,27.7933 C 46.7034,32.4776 44.3802,36.9074 41.2367,40.2606 36.6193,45.1705 30.1072,48 23.4136,48 c -2.737,0 -7.1148,-0.7783 -8.1384,-4.437 -0.3775,-1.3311 -0.7187,-4.2043 1.619,-6.2919 2.7587,-2.4658 6.5847,-2.8804 9.1692,-4.2843 6.1637,-3.3605 7.7391,-9.0195 7.6955,-12.7001 C 33.7081,15.4714 31.5882,12.06 29.1925,9.83422 25.2939,6.2264 19.8925,5.28807 14.8759,6.59009 13.1408,7.04107 11.2605,7.783 8.65415,9.46325 8.55977,9.52144 8.47265,9.58691 8.3565,9.58691 c -0.23958,0 -0.4356,-0.1964 -0.4356,-0.43643 0,-0.06547 0.01452,-0.1382 0.05082,-0.1964 C 12.1171,3.04046 18.9632,0 25.2068,0 c 10.4542,0 16.7849,6.84467 19.217,10.6416 3.0419,4.7498 4.1526,11.2308 3.1072,17.159 z" fill="#000000"/>
</svg>
